#N canvas 285 247 335 177 10;
#X obj 117 68 inlet;
#X obj 117 112 line;
#X obj 117 134 outlet;
#X obj 117 90 pack 0 10;
#X obj 159 24 loadbang;
#X obj 159 46 \$1;
#X obj 159 68 sel;
#X obj 187 68 inlet;
#X connect 0 0 3 0;
#X connect 1 0 2 0;
#X connect 3 0 1 0;
#X connect 4 0 5 0;
#X connect 5 0 6 0;
#X connect 6 1 3 1;
#X connect 7 0 3 1;
#X coords 0 177 1 176 85 60 0;
