#N canvas 20 71 908 562 12;
#X obj 670 187 tgl 15 0 empty empty empty 17 7 0 10 -262144 -1 -1 0
1;
#X obj 701 235 + 1;
#X obj 670 236 i;
#N canvas 1 11 314 677 virtual-key 0;
#X text 81 102 BACKSPACE key;
#N canvas 472 102 454 304 mouse 0;
#X msg 42 33 1;
#X msg 41 63 2;
#X msg 42 95 3;
#X text 82 33 Left mouse button;
#X text 81 63 Right mouse button;
#X text 84 94 Control-break processing;
#X text 83 123 Middle mouse button (three-button mouse);
#X msg 41 124 4;
#X msg 41 155 5;
#X text 83 154 Windows 200/XP:X1 mouse button;
#X msg 43 185 6;
#X text 85 184 Windows 200/XP:X2 mouse button;
#X restore 13 4 pd mouse;
#X msg 41 102 8;
#X msg 41 128 9;
#X text 80 128 TAB key;
#X msg 42 153 12;
#X text 79 153 CLEAR key;
#X text 79 179 ENTER key;
#X msg 42 179 13;
#X msg 43 207 16;
#X text 80 207 SHIFT key;
#X text 81 232 CTRL key;
#X msg 43 232 17;
#X text 83 257 ALT key;
#X msg 45 258 18;
#X msg 46 285 19;
#X text 84 284 PAUSE key;
#X msg 46 310 20;
#X text 84 309 CAPS LOCK key;
#X msg 47 340 27;
#N canvas 541 33 454 311 IME 0;
#X msg 67 98 21;
#X msg 68 125 23;
#X text 104 97 Input Method Editor (IME) Hangul mode;
#X text 106 124 IME Junga;
#X msg 69 150 24;
#X text 107 149 IME final;
#X text 107 173 IME Kanji;
#X msg 69 174 25;
#X text 103 197 IME convert;
#X msg 70 200 28;
#X msg 69 226 29;
#X text 105 224 IME nonconvert;
#X msg 69 250 30;
#X text 105 248 IME accept;
#X text 105 275 IME mode change request;
#X msg 71 276 31;
#X restore 101 7 pd IME;
#X text 82 340 ESC key;
#X msg 47 364 32;
#X text 82 364 SPACEBAR;
#X text 82 388 PAGE UP key;
#X msg 47 388 33;
#X text 82 413 PAGE DOWN key;
#X text 81 440 END key;
#X msg 46 413 34;
#X msg 47 438 35;
#X text 82 464 HOME key;
#X msg 48 464 36;
#X text 83 490 LEFT ARROW key;
#X text 83 513 UP ARROW key;
#X text 83 560 DOWN ARROW key;
#X text 81 536 RIGHT ARROW key;
#X msg 48 489 37;
#X msg 49 512 38;
#X msg 49 535 39;
#X text 86 581 SELECT key;
#X text 86 605 PRINT key;
#X text 86 629 EXECUTE key;
#X text 86 653 PRINT SCREEN key;
#X msg 49 559 40;
#X msg 49 583 41;
#X msg 49 608 42;
#X msg 47 635 43;
#X msg 49 660 44;
#X text 86 678 INS key;
#X text 85 705 DEL key;
#X text 86 729 HELP key;
#X msg 50 685 45;
#X msg 51 710 46;
#X msg 52 733 47;
#N canvas 506 172 450 300 numbers&letters 0;
#X msg 81 22 48;
#X text 118 20 ...;
#X text 85 58 0 ... 9;
#X msg 153 21 57;
#X text 117 101 ...;
#X text 95 133 A ... Z;
#X msg 81 101 60;
#X msg 152 101 86;
#X restore 10 36 pd numbers&letters;
#N canvas 0 0 450 300 OS 0;
#X msg 41 102 87;
#X msg 41 128 88;
#X msg 42 153 89;
#X msg 43 179 91;
#X text 81 102 Left Windows key;
#X text 80 128 Right Windows key;
#X text 79 153 Application key;
#X text 80 179 Computer Sleep key;
#X restore 167 4 pd OS;
#N canvas 0 0 450 300 pad 0;
#X msg 78 49 92;
#X text 116 49 ...;
#X msg 147 47 101;
#X text 84 85 0 ... 9;
#X msg 74 123 102;
#X text 120 122 Multiply key;
#X msg 74 147 103;
#X msg 73 171 104;
#X msg 73 195 105;
#X text 119 146 Add key;
#X text 118 172 Separator key;
#X text 115 195 Substract key;
#X msg 74 219 106;
#X text 116 219 Decimal key;
#X msg 74 242 107;
#X text 116 242 Divide key;
#X restore 221 5 pd pad;
#N canvas 329 11 277 150 F24 0;
#X text 101 43 ...;
#X msg 58 43 108;
#X msg 134 43 131;
#X text 69 72 F1 ... F24;
#X restore 170 33 pd F24;
#N canvas 0 0 568 355 other 0;
#X msg 31 14 140;
#X text 67 14 NUM LOCK key;
#X msg 31 37 141;
#X text 63 93 Left SHIFT key;
#X text 64 118 Right SHIFT key;
#X text 238 93 Left CONTROL key;
#X text 236 119 Right CONTROL key;
#X msg 24 92 160;
#X msg 24 115 161;
#X text 421 93 Left MENU key;
#X text 422 118 Right MENU key;
#X text 67 37 SCROLL LOCK key;
#X msg 209 94 162;
#X msg 210 118 163;
#X msg 390 93 164;
#X msg 390 116 165;
#X msg 25 164 191;
#X text 67 160 might be '/?' key;
#X text 65 185 might be '~' key;
#X msg 23 189 192;
#X text 302 155 might be '[' key;
#X text 299 184 might be 'backslash' key;
#X text 65 217 might be 'single/double quote' key;
#X text 393 216 miscellaneous;
#X msg 352 218 221;
#X msg 24 219 222;
#X msg 258 186 219;
#X msg 260 159 218;
#X msg 25 247 272;
#X text 65 247 Attn;
#X text 163 245 CrSel;
#X text 262 247 Attn;
#X text 366 249 CrSel;
#X msg 125 247 273;
#X msg 233 248 274;
#X msg 336 247 275;
#X msg 24 279 276;
#X msg 123 279 277;
#X msg 233 280 278;
#X msg 336 279 279;
#X text 65 279 ExSel;
#X text 163 277 Erase;
#X text 262 279 Play;
#X text 366 281 Zoom;
#X msg 225 317 277;
#X msg 70 320 281;
#X text 103 322 PA1;
#X text 260 317 Clear;
#X restore 224 34 pd other;
#N canvas 334 0 535 666 windows 0;
#X text 83 24 Windows 2000/XP:Browser Back key;
#X text 81 47 Windows 2000/XP:Browser Forward key;
#X text 80 71 Windows 2000/XP:Browser Refresh key;
#X text 83 96 Windows 2000/XP:Browser Stop key;
#X text 83 121 Windows 2000/XP:Browser Search key;
#X msg 51 72 168;
#X msg 51 95 169;
#X msg 50 119 170;
#X msg 50 144 171;
#X text 87 146 Windows 2000/XP:Browser Favorites key;
#X text 85 169 Windows 2000/XP:Browser Start and Home key;
#X text 83 193 Windows 2000/XP: Volume Mute key;
#X text 86 243 Windows 2000/XP: Volume Up key;
#X text 87 218 Windows 2000/XP: Volume Down Stop key;
#X text 86 267 Windows 2000/XP: Next Track key;
#X text 84 290 Windows 2000/XP: Previous Track key;
#X text 83 314 Windows 2000/XP: Stop Media key;
#X text 84 338 Windows 2000/XP: Play/Pause Media key;
#X text 85 364 Windows 2000/XP: Start Mail key;
#X text 90 389 Windows 2000/XP: Select Media key;
#X text 88 412 Windows 2000/XP: Start Application 1 key;
#X text 85 436 Windows 2000/XP: Start Application 2 key;
#X msg 51 169 172;
#X msg 51 193 173;
#X msg 51 216 174;
#X msg 51 240 175;
#X text 84 463 miscellaneous characters;
#X text 86 486 Windows 2000/XP: For any Country/region \, the '+' key
;
#X text 84 514 Windows 2000/XP: For any Country/region \, the ' \,
' key;
#X text 86 539 Windows 2000/XP: For any Country/region \, the '- '
key;
#X text 86 564 Windows 2000/XP: For any Country/region \, the '.' key
;
#X msg 51 265 176;
#X msg 52 23 166;
#X msg 52 48 167;
#X msg 50 291 177;
#X msg 50 315 178;
#X msg 50 338 179;
#X msg 49 362 180;
#X msg 49 387 181;
#X msg 49 410 182;
#X msg 50 433 183;
#X msg 49 486 187;
#X msg 48 510 188;
#X msg 49 458 186;
#X msg 48 537 189;
#X msg 48 561 190;
#X restore 9 63 pd windows tools;
#X restore 74 47 pd virtual-key;
#X obj 670 292 + 60;
#X obj 670 263 mod 24;
#X obj 670 209 metro 200;
#X msg 477 335 key \$1;
#X msg 28 130 downkey 16;
#X msg 289 130 upkey 16;
#X text 125 129 careful it needs after;
#X text 534 335 key press and release;
#X text 27 106 this holds shift key;
#X text 44 -19 windows only;
#X msg 28 237 mouse_wheel 1;
#X msg 29 211 mouse_wheel -1;
#X msg 420 85 mouse_pos 222 22;
#X text 553 84 déplacement en coordonnées absolues (pixels) de l'écran
;
#X msg 419 46 mouse_move 0 10;
#X text 553 43 déplacement relatif;
#X obj 226 394 input_event;
#X text 26 3 for simulating key strokes and mouse events \, with keybd_event()
and mouse_event() winAPI function;
#X msg 29 305 downkey 16 \, mouse_wheel 1 \, upkey 16;
#X text 16 281 horizontal scroll;
#X text 19 185 vertical scroll;
#X msg 31 334 downkey 16 \, mouse_wheel -1 \, upkey 16;
#X connect 0 0 6 0;
#X connect 1 0 2 1;
#X connect 2 0 1 0;
#X connect 2 0 5 0;
#X connect 4 0 7 0;
#X connect 5 0 4 0;
#X connect 6 0 2 0;
#X connect 7 0 20 0;
#X connect 8 0 20 0;
#X connect 9 0 20 0;
#X connect 14 0 20 0;
#X connect 15 0 20 0;
#X connect 16 0 20 0;
#X connect 18 0 20 0;
#X connect 22 0 20 0;
#X connect 25 0 20 0;
