#N canvas 400 200 560 420 14;
#X declare -lib cyclone;
#X obj 40 40 inlet peak;
#X obj 320 70 inlet attack;
#X obj 430 70 inlet decay;
#X obj 40 70 route float bang a d z;
#X obj 230 70 unpaq f f;
#X obj 260 150 t f;
#X obj 360 150 t f;
#X obj 50 100 1;
#X obj 50 130 moses;
#X obj 50 160 * -1;
#X msg 50 250 0;
#X obj 110 160 sel;
#X msg 170 190 \$1;
#X obj 50 280 pack 0 10;
#X obj 60 190 pipe 10;
#X obj 90 220 t b f;
#X obj 240 250 del \$1;
#X obj 240 280 pack 0 \$2;
#X obj 150 380 outlet~;
#X text 380 280 attack-decay;
#X obj 410 250 cnv 15 36 24 empty empty ad 4 12 0 18 #000000 #fcfcfc
0;
#X obj 110 130 f \$3;
#X obj 110 100 loadbang;
#X obj 150 350 curve~;
#N canvas 400 200 450 300 lib 0;
#X obj 140 120 declare -lib cyclone;
#X restore 470 40 pd lib;
#X msg 160 320 \$1 \$2 -0.5;
#N canvas 848 305 450 300 attack 0;
#X obj 210 50 inlet delay;
#X obj 210 110 * 0.5;
#X obj 110 230 outlet;
#X msg 110 200 \$2 \$3 0.5 \$1 \$3 -0.5;
#X obj 110 50 inlet peak;
#X obj 110 80 t f f;
#X obj 150 110 * 0.5;
#X obj 110 170 pack 0 0 0;
#X obj 310 80 \$1;
#X obj 310 50 loadbang;
#X connect 0 0 1 0;
#X connect 1 0 7 2;
#X connect 3 0 2 0;
#X connect 4 0 5 0;
#X connect 5 0 7 0;
#X connect 5 1 6 0;
#X connect 6 0 7 1;
#X connect 7 0 3 0;
#X connect 8 0 1 0;
#X connect 9 0 8 0;
#X restore 150 280 pd attack;
#X connect 0 0 3 0;
#X connect 1 0 5 0;
#X connect 2 0 6 0;
#X connect 3 0 7 0;
#X connect 3 1 7 0;
#X connect 3 2 5 0;
#X connect 3 3 6 0;
#X connect 3 4 12 0;
#X connect 3 5 4 0;
#X connect 4 0 5 0;
#X connect 4 1 6 0;
#X connect 5 0 16 1;
#X connect 5 0 26 1;
#X connect 6 0 17 1;
#X connect 7 0 8 0;
#X connect 8 0 9 0;
#X connect 8 1 15 0;
#X connect 9 0 14 0;
#X connect 9 0 10 0;
#X connect 10 0 13 0;
#X connect 11 1 12 0;
#X connect 12 0 13 1;
#X connect 12 0 14 1;
#X connect 13 0 25 0;
#X connect 14 0 15 0;
#X connect 15 0 16 0;
#X connect 15 1 26 0;
#X connect 16 0 17 0;
#X connect 17 0 25 0;
#X connect 21 0 11 0;
#X connect 22 0 21 0;
#X connect 23 0 18 0;
#X connect 25 0 23 0;
#X connect 26 0 23 0;
