#N canvas 400 200 750 520 14;
#X declare -lib cyclone;
#X obj 40 40 inlet peak;
#X obj 490 40 inlet attack;
#X obj 520 70 inlet decay;
#X obj 550 100 inlet sustain;
#X obj 590 130 inlet release;
#X obj 40 70 route float bang a d #s s r z;
#X obj 290 70 unpaq f f f f;
#X obj 260 160 t f;
#X obj 360 160 t f;
#X obj 460 160 t f;
#X obj 560 160 t f;
#X obj 60 100 1;
#X obj 60 130 sel;
#X obj 80 210 moses;
#X obj 80 240 * -1;
#X msg 80 310 0;
#X obj 130 210 sel;
#X msg 240 280 \$1;
#X obj 150 370 pack 0 10;
#X obj 90 270 pipe 10;
#X obj 130 310 t b f;
#X obj 180 210 del \$1;
#X obj 330 300 f \$3;
#X obj 330 340 *;
#X obj 330 370 pack 0 \$2;
#X msg 180 180 stop;
#X obj 60 370 pack 0 \$4;
#X obj 240 470 outlet~;
#X text 290 50 list/anything;
#X text 250 200 on attack \, set a;
#X text 250 220 delay for sustain;
#X text 380 300 recall sustain value;
#X text 400 340 multiply by peak level;
#X text 420 370 pack with decay time;
#X obj 570 230 cnv 15 60 24 empty empty adsr 4 12 0 18 #000000 #fcfcfc
0;
#X obj 110 180 f \$5;
#X obj 110 130 loadbang;
#X obj 240 440 curve~;
#N canvas 400 200 450 300 lib 0;
#X obj 140 120 declare -lib cyclone;
#X restore 220 40 pd lib;
#N canvas 848 305 450 300 attack 0;
#X obj 210 80 inlet delay;
#X obj 210 140 * 0.5;
#X obj 110 170 pack \$1 0 0;
#X obj 110 230 outlet;
#X msg 110 200 \$2 \$3 0.5 \$1 \$3 -0.5;
#X obj 110 50 inlet peak;
#X obj 200 50 inlet sustain;
#X obj 110 80 t f b f;
#X obj 120 140 sly 0 0 1;
#X msg 120 110 0.5;
#X obj 310 80 loadbang;
#X obj 310 110 \$1;
#X connect 0 0 1 0;
#X connect 1 0 2 2;
#X connect 2 0 4 0;
#X connect 4 0 3 0;
#X connect 5 0 7 0;
#X connect 6 0 8 2;
#X connect 7 0 2 0;
#X connect 7 1 9 0;
#X connect 7 2 8 1;
#X connect 8 0 2 1;
#X connect 9 0 8 0;
#X connect 10 0 11 0;
#X connect 11 0 1 0;
#X restore 240 370 pd attack;
#X msg 250 410 \$1 \$2 -0.5;
#X msg 40 310 0;
#X connect 0 0 5 0;
#X connect 1 0 7 0;
#X connect 2 0 8 0;
#X connect 3 0 9 0;
#X connect 4 0 10 0;
#X connect 5 0 11 0;
#X connect 5 1 11 0;
#X connect 5 2 7 0;
#X connect 5 3 8 0;
#X connect 5 4 22 0;
#X connect 5 5 9 0;
#X connect 5 6 10 0;
#X connect 5 7 17 0;
#X connect 5 8 6 0;
#X connect 6 0 7 0;
#X connect 6 1 8 0;
#X connect 6 2 9 0;
#X connect 6 3 10 0;
#X connect 7 0 21 1;
#X connect 7 0 39 2;
#X connect 8 0 24 1;
#X connect 9 0 22 1;
#X connect 10 0 26 1;
#X connect 11 0 12 0;
#X connect 12 0 25 0;
#X connect 12 0 26 0;
#X connect 12 0 41 0;
#X connect 12 1 13 0;
#X connect 13 0 14 0;
#X connect 13 0 41 0;
#X connect 13 1 20 0;
#X connect 14 0 15 0;
#X connect 14 0 19 0;
#X connect 15 0 18 0;
#X connect 16 1 17 0;
#X connect 17 0 19 1;
#X connect 17 0 18 1;
#X connect 18 0 40 0;
#X connect 19 0 20 0;
#X connect 20 0 21 0;
#X connect 20 1 23 1;
#X connect 20 1 39 0;
#X connect 21 0 22 0;
#X connect 22 0 23 0;
#X connect 23 0 24 0;
#X connect 23 0 39 1;
#X connect 24 0 40 0;
#X connect 25 0 21 0;
#X connect 26 0 40 0;
#X connect 35 0 16 0;
#X connect 36 0 35 0;
#X connect 37 0 27 0;
#X connect 39 0 37 0;
#X connect 40 0 37 0;
#X connect 41 0 39 1;
