#N canvas 400 200 360 370 16;
#X declare -stdpath cyclone;
#X obj 30 10 inlet peak;
#X obj 200 80 inlet attack;
#X obj 210 110 inlet decay;
#X obj 100 80 unpaq f f;
#X obj 30 80 1;
#X obj 30 110 moses;
#X obj 30 140 * -1;
#X msg 50 250 0;
#X obj 100 320 outlet~;
#X text 200 280 attack-decay;
#X obj 250 250 cnv 15 42 27 empty empty ad~ 0 12 0 24 #7c7c7c #fcfcfc 0;
#X obj 220 140 loadbang;
#X obj 100 290 curve~;
#N canvas 760 470 360 100 lib 0;
#X obj 50 40 declare -stdpath cyclone;
#X restore 240 320 pd lib;
#X obj 110 200 \$1;
#X obj 160 200 \$2;
#X obj 30 170 t f b;
#X obj 30 40 route float bang a d;
#N canvas 760 200 360 300 msg 0;
#X obj 150 50 inlet attack;
#X obj 150 80 * 0.5;
#X obj 60 240 outlet;
#X obj 70 20 inlet peak;
#X obj 70 50 t f f;
#X obj 60 80 * 0.5;
#X obj 180 110 inlet decay;
#X obj 60 140 pack 0 0 0 0;
#X msg 60 170 \$1 \$3 0.5 \$2 \$3 -0.5 0 \$4 -0.5, f 10;
#X connect 0 0 1 0;
#X connect 1 0 7 2;
#X connect 3 0 4 0;
#X connect 4 0 5 0;
#X connect 4 1 7 1;
#X connect 5 0 7 0;
#X connect 6 0 7 3;
#X connect 7 0 8 0;
#X connect 8 0 2 0;
#X restore 100 250 pd msg;
#X connect 0 0 17 0;
#X connect 1 0 14 0;
#X connect 2 0 15 0;
#X connect 3 0 14 0;
#X connect 3 1 15 0;
#X connect 4 0 5 0;
#X connect 5 0 6 0;
#X connect 5 1 18 0;
#X connect 6 0 16 0;
#X connect 7 0 12 0;
#X connect 11 0 15 0;
#X connect 11 0 14 0;
#X connect 12 0 8 0;
#X connect 14 0 18 1;
#X connect 15 0 18 2;
#X connect 16 0 18 0;
#X connect 16 1 7 0;
#X connect 17 0 4 0;
#X connect 17 1 4 0;
#X connect 17 2 14 0;
#X connect 17 3 15 0;
#X connect 17 4 3 0;
#X connect 18 0 12 0;
