#N canvas 400 200 380 310 16;
#X obj 100 100 inlet;
#X obj 100 130 t f b;
#X obj 190 180 1;
#X obj 230 180 + 1;
#X obj 100 180 +;
#X obj 140 180 f;
#X obj 100 220 /;
#X obj 100 250 outlet;
#X obj 190 100 inlet reset;
#X msg 190 130 0;
#X obj 160 30 cnv 15 42 27 empty empty avg 0 12 0 24 #535512 #fcfcfc 0;
#X text 40 60 average of all received values;
#X obj 190 250 outlet;
#X connect 0 0 1 0;
#X connect 1 0 4 0;
#X connect 1 1 2 0;
#X connect 2 0 3 0;
#X connect 2 0 6 1;
#X connect 2 0 12 0;
#X connect 3 0 2 1;
#X connect 4 0 5 0;
#X connect 4 0 6 0;
#X connect 5 0 4 1;
#X connect 6 0 7 0;
#X connect 8 0 9 0;
#X connect 9 0 4 1;
#X connect 9 0 3 0;
