#N canvas 400 200 370 350 16;
#X obj 80 140 & 1;
#X obj 80 250 t b f;
#X msg 80 180 set \$1;
#X obj 80 80 inlet;
#X obj 80 290 outlet;
#X obj 170 290 outlet;
#X obj 80 110 >> \$1;
#X obj 170 250 << \$1;
#X obj 80 220 tgl 24 0 empty empty empty 0 -12 0 16 #404040 #fcfcfc #fcfcfc 0 1;
#X obj 140 20 cnv 15 70 27 empty empty bitgl 0 12 0 24 #7c7c7c #fcfcfc 0;
#X text 130 50 bit toggle;
#X obj 210 80 loadbang;
#X obj 210 110 \$2;
#X obj 210 140 sel;
#X msg 160 180 color \$1;
#X obj 160 110 * -1;
#X obj 160 140 - 1;
#X connect 0 0 2 0;
#X connect 0 0 7 0;
#X connect 1 0 4 0;
#X connect 1 1 7 0;
#X connect 2 0 8 0;
#X connect 3 0 6 0;
#X connect 6 0 0 0;
#X connect 7 0 5 0;
#X connect 8 0 1 0;
#X connect 11 0 12 0;
#X connect 12 0 13 0;
#X connect 13 1 15 0;
#X connect 14 0 8 0;
#X connect 15 0 16 0;
#X connect 16 0 14 0;
#X coords 0 -1 1 1 24 24 2 80 220;
