#N canvas 30 470 370 330 14;
#X declare -lib blunt;
#X floatatom 130 80 0 0 0 0 - - - 0;
#X obj 130 170 @/ 60000;
#X obj 130 200 tick 60000;
#X obj 230 180 bng 15 250 50 0 empty empty reset\\\ avg 17 7 0 12 #ff8300
#ff0400 #7c7c7c;
#X obj 130 270 dac~;
#X obj 230 210 @/ 60000;
#X floatatom 230 240 0 0 0 0 - - - 0;
#N canvas 400 200 450 300 lib 0;
#X obj 140 120 declare -lib blunt;
#X restore 30 30 pd lib;
#X obj 130 140 @moses;
#X obj 200 110 @pow 2;
#X obj 200 80 r pow;
#X floatatom 200 140 0 0 0 0 - - - 0;
#X obj 130 110 #* 1;
#X obj 90 170 bng 15 250 50 0 empty empty empty 17 7 0 10 #ff8300 #ff0400
#7c7c7c;
#X obj 50 80 r sync;
#X obj 90 140 del;
#X obj 50 110 symbol;
#X obj 50 140 f;
#N canvas 400 540 450 300 bpm 0;
#X obj 190 80 r bpm;
#X obj 190 110 symbol;
#X obj 190 140 f;
#X obj 190 170 outlet;
#X connect 0 0 1 0;
#X connect 1 0 2 0;
#X connect 2 0 3 0;
#X restore 130 50 pd bpm;
#X obj 50 200 timer;
#X obj 50 170 b;
#X floatatom 50 260 0 0 0 0 - - - 0;
#X obj 50 230 #f%;
#X connect 0 0 12 0;
#X connect 1 0 2 1;
#X connect 1 0 22 1;
#X connect 2 0 4 0;
#X connect 2 0 4 1;
#X connect 2 1 5 0;
#X connect 3 0 2 2;
#X connect 5 0 6 0;
#X connect 8 0 1 0;
#X connect 9 0 12 1;
#X connect 10 0 9 0;
#X connect 12 0 11 0;
#X connect 12 0 8 0;
#X connect 13 0 2 0;
#X connect 13 0 19 1;
#X connect 14 0 16 0;
#X connect 15 0 13 0;
#X connect 16 0 17 0;
#X connect 17 0 15 0;
#X connect 17 0 20 0;
#X connect 18 0 0 0;
#X connect 19 0 22 0;
#X connect 20 0 19 0;
#X connect 22 0 21 0;
