#N canvas 400 200 360 370 16;
#X declare -lib blunt;
#X obj 130 210 tick 1;
#X obj 240 200 bng 24 250 50 0 empty empty reset\ avg 0 36 0 16 #ff8300 #ff0400 #7c7c7c;
#X obj 120 330 dac~;
#X floatatom 150 250 0 0 0 3 avg - - 0;
#N canvas 760 200 360 120 lib 0;
#X obj 90 40 declare -lib blunt;
#X restore 20 10 pd lib;
#X obj 40 170 timer;
#X floatatom 50 230 0 0 0 3 delay - - 0;
#X obj 50 200 #f% 1;
#X floatatom 230 250 0 0 0 3 count - - 0;
#X msg 180 170 0;
#N canvas 760 200 360 280 sync 0;
#X obj 80 20 r \$1sync;
#X obj 80 140 / 1;
#X obj 150 110 r \$1pow;
#X floatatom 190 80 0 0 0 0 - - - 0;
#X floatatom 150 170 0 0 0 0 - - - 0;
#X obj 80 170 +;
#X obj 80 240 outlet;
#X obj 80 210 b;
#X obj 150 240 outlet;
#X obj 220 240 outlet;
#X obj 180 20 tgl 24 0 empty empty empty 0 -12 0 16 #0e4345 #fcfcfc #fcfcfc 0 1;
#X floatatom 190 50 0 0 0 0 - - - 0;
#X obj 80 80 f;
#N canvas 760 200 360 210 startpad 0;
#X obj 80 160 outlet;
#X obj 170 70 loadbang;
#X obj 170 100 samplerate~;
#X obj 80 130 /;
#X obj 170 130 / 1000;
#X obj 80 100 r \$1pad;
#X text 60 20 Offset accounting for RubberBand's start pad, f 22;
#X connect 1 0 2 0;
#X connect 2 0 4 0;
#X connect 3 0 0 0;
#X connect 4 0 3 1;
#X connect 5 0 3 0;
#X restore 150 140 pd startpad;
#N canvas 760 200 360 240 manual 0;
#X obj 130 20 inlet;
#X obj 210 20 inlet;
#X obj 240 70 spigot;
#X obj 130 190 outlet;
#X obj 240 130 b;
#X obj 60 70 spigot 1;
#X obj 150 70 !;
#X obj 120 100 list length;
#X obj 60 130 spigot;
#X obj 60 100 t a a;
#X obj 130 130 sel;
#X obj 60 160 symbol;
#X connect 0 0 2 0;
#X connect 0 0 5 0;
#X connect 1 0 2 1;
#X connect 1 0 6 0;
#X connect 2 0 4 0;
#X connect 4 0 3 0;
#X connect 5 0 9 0;
#X connect 6 0 5 1;
#X connect 7 0 8 1;
#X connect 7 0 10 0;
#X connect 8 0 11 0;
#X connect 9 0 8 0;
#X connect 9 1 7 0;
#X connect 10 0 3 0;
#X connect 11 0 3 0;
#X restore 80 50 pd manual;
#X connect 0 0 14 0;
#X connect 1 0 5 0;
#X connect 1 0 9 0;
#X connect 2 0 1 1;
#X connect 5 0 8 0;
#X connect 5 0 7 0;
#X connect 7 0 6 0;
#X connect 10 0 14 1;
#X connect 11 0 12 1;
#X connect 12 0 1 0;
#X connect 12 0 3 0;
#X connect 13 0 5 1;
#X connect 13 0 4 0;
#X connect 14 0 12 0;
#X restore 140 100 pd sync;
#X floatatom 230 100 0 0 5000 0 - - - 0;
#X floatatom 270 100 0 1 5000 0 - - - 0;
#N canvas 760 200 360 280 bpm 0;
#X obj 190 180 @/ 60000;
#X obj 90 140 #* 1;
#X obj 90 110 #* 1;
#X obj 150 140 r \$1ratio;
#X obj 140 110 r \$1pow;
#X text 200 210 ms/beat;
#X obj 90 180 / 60;
#X text 100 210 Hz/beat;
#X obj 90 20 r \$1bpm;
#X obj 190 230 outlet;
#X obj 90 230 outlet;
#X obj 180 20 tgl 24 0 empty empty empty 0 -12 0 16 #0e4345 #fcfcfc #fcfcfc 0 1;
#X floatatom 220 50 0 0 0 0 - - - 0;
#X obj 220 80 / 10;
#X obj 90 80 f;
#N canvas 760 200 360 240 manual 0;
#X obj 100 20 inlet;
#X obj 190 20 inlet;
#X obj 170 190 outlet;
#X obj 100 70 spigot 1;
#X obj 190 70 !;
#X obj 160 100 list length;
#X obj 100 130 spigot;
#X obj 100 100 t a a;
#X obj 170 130 sel;
#X obj 100 160 symbol;
#X connect 0 0 3 0;
#X connect 1 0 4 0;
#X connect 3 0 7 0;
#X connect 4 0 3 1;
#X connect 5 0 6 1;
#X connect 5 0 8 0;
#X connect 6 0 9 0;
#X connect 7 0 6 0;
#X connect 7 1 5 0;
#X connect 8 0 2 0;
#X connect 9 0 2 0;
#X restore 90 50 pd manual;
#X floatatom 220 110 0 0 0 0 - - - 0;
#X connect 0 0 9 0;
#X connect 1 0 6 0;
#X connect 1 0 0 0;
#X connect 1 0 16 0;
#X connect 2 0 1 0;
#X connect 3 0 1 1;
#X connect 4 0 2 1;
#X connect 6 0 10 0;
#X connect 8 0 15 0;
#X connect 11 0 15 1;
#X connect 12 0 13 0;
#X connect 13 0 14 0;
#X connect 14 0 2 0;
#X connect 15 0 14 0;
#X restore 60 100 pd bpm;
#N canvas 760 200 360 200 offset 0;
#X obj 70 30 inlet;
#X obj 130 30 inlet;
#X obj 70 70 +;
#X obj 190 30 inlet;
#X obj 250 30 inlet;
#X obj 190 70 #/ 4;
#X obj 70 100 del;
#X obj 130 100 t;
#X obj 110 140 outlet;
#X obj 180 140 outlet;
#X obj 130 70 #*;
#X obj 190 100 bng 24 250 50 0 empty empty empty 0 -12 0 16 #ff8300 #551312 #7c7c7c;
#X connect 0 0 2 0;
#X connect 1 0 10 0;
#X connect 2 0 6 0;
#X connect 3 0 5 0;
#X connect 4 0 5 1;
#X connect 5 0 10 1;
#X connect 6 0 7 0;
#X connect 7 0 8 0;
#X connect 7 1 9 0;
#X connect 10 0 2 1;
#X connect 11 0 7 0;
#X restore 130 140 pd offset;
#X obj 130 300 *~;
#X obj 110 10 cnv 15 140 27 empty empty bpm-finder 0 12 0 24 #535512 #ffffff 0;
#X text 20 40 helper patch for determining bpm and start time of audio files., f 32;
#X obj 180 330 dB~;
#X floatatom 230 330 0 0 0 0 - - - 0;
#X obj 180 300 hsl 81 24 -80 0 0 0 empty empty volume 10 12 0 16 #2f004d #ff8300 #fcfcfc 0 1;
#X obj 240 140 outlet;
#X obj 30 140 outlet;
#N canvas 760 200 360 140 reset 0;
#X obj 80 20 r \$1reset;
#X obj 180 20 r \$1stop;
#X obj 120 90 outlet;
#X obj 190 50 r \$1done;
#X obj 200 90 outlet;
#X connect 0 0 2 0;
#X connect 1 0 2 0;
#X connect 3 0 2 0;
#X connect 3 0 4 0;
#X restore 240 170 pd reset;
#X obj 40 330 outlet~;
#X obj 300 300 f;
#X floatatom 300 330 0 0 0 0 - - - 0;
#X connect 0 0 15 0;
#X connect 0 0 24 0;
#X connect 0 1 3 0;
#X connect 0 2 8 0;
#X connect 1 0 0 2;
#X connect 5 0 7 0;
#X connect 7 0 6 0;
#X connect 8 0 25 1;
#X connect 9 0 0 0;
#X connect 10 0 5 0;
#X connect 10 1 14 0;
#X connect 10 2 21 0;
#X connect 11 0 14 2;
#X connect 12 0 14 3;
#X connect 13 0 22 0;
#X connect 13 0 0 1;
#X connect 13 1 14 1;
#X connect 13 1 7 1;
#X connect 14 0 5 1;
#X connect 14 0 0 0;
#X connect 14 1 0 2;
#X connect 15 0 2 0;
#X connect 15 0 2 1;
#X connect 18 0 15 1;
#X connect 18 1 19 0;
#X connect 20 0 18 0;
#X connect 23 0 1 0;
#X connect 23 0 9 0;
#X connect 23 1 25 0;
#X connect 25 0 26 0;
