#N canvas 30 440 370 360 14;
#X declare -lib blunt;
#X obj 110 150 @/ 60000;
#X obj 110 200 tick 60000;
#X obj 200 180 bng 15 250 50 0 empty empty reset\ avg 17 7 0 12 #ff8300 #ff0400 #7c7c7c;
#X obj 110 270 dac~;
#X obj 160 270 @/ 60000;
#X floatatom 160 300 0 0 0 3 avg - - 0;
#N canvas 400 200 450 300 lib 0;
#X obj 140 120 declare -lib blunt;
#X restore 30 30 pd lib;
#X obj 110 120 @moses;
#X floatatom 110 90 0 0 0 0 - - - 0;
#X obj 70 150 bng 15 250 50 0 empty empty empty 17 7 0 10 #ff8300 #ff0400 #7c7c7c;
#X obj 70 120 del;
#N canvas 400 540 450 300 bpm 0;
#X obj 180 60 r bpm;
#X obj 180 90 symbol;
#X obj 180 120 f;
#X obj 240 180 r pow;
#X obj 180 180 #* 1;
#X obj 180 150 t f b;
#X obj 180 210 outlet;
#X obj 240 150 outlet;
#X connect 0 0 1 0;
#X connect 1 0 2 0;
#X connect 2 0 5 0;
#X connect 3 0 4 1;
#X connect 4 0 6 0;
#X connect 5 0 4 0;
#X connect 5 1 7 0;
#X restore 110 60 pd bpm;
#X obj 30 180 timer;
#X obj 30 150 b;
#X floatatom 30 240 0 0 0 0 - - - 0;
#X obj 30 210 #f%;
#X floatatom 250 270 0 0 0 2 count - - 0;
#X msg 200 140 0;
#N canvas 400 540 450 300 sync 0;
#X obj 180 70 r sync;
#X obj 180 100 symbol;
#X obj 180 130 f;
#X obj 180 160 / 1;
#X obj 220 160 r pow;
#X obj 180 190 outlet;
#X connect 0 0 1 0;
#X connect 1 0 2 0;
#X connect 2 0 3 0;
#X connect 3 0 5 0;
#X connect 4 0 3 1;
#X restore 30 60 pd sync;
#X obj 200 60 r stop;
#X connect 0 0 1 1;
#X connect 0 0 15 1;
#X connect 1 0 3 0;
#X connect 1 0 3 1;
#X connect 1 1 4 0;
#X connect 1 2 16 0;
#X connect 2 0 1 2;
#X connect 4 0 5 0;
#X connect 7 0 0 0;
#X connect 8 0 7 0;
#X connect 9 0 12 1;
#X connect 9 0 1 0;
#X connect 10 0 9 0;
#X connect 11 0 8 0;
#X connect 11 1 17 0;
#X connect 12 0 15 0;
#X connect 13 0 12 0;
#X connect 15 0 14 0;
#X connect 17 0 2 0;
#X connect 17 0 1 0;
#X connect 18 0 10 0;
#X connect 18 0 13 0;
#X connect 19 0 17 0;
