#N canvas 30 200 370 360 16;
#X declare -lib blunt;
#X obj 130 140 @/ 60000;
#X obj 130 190 tick 60000;
#X obj 230 180 bng 15 250 50 0 empty empty reset\ avg 17 7 0 12 #ff8300 #ff0400 #7c7c7c;
#X obj 130 260 dac~;
#X obj 180 260 @/ 60000;
#X floatatom 180 290 0 0 0 3 avg - - 0;
#N canvas 400 200 450 300 lib 0;
#X obj 140 120 declare -lib blunt;
#X restore 230 20 pd lib;
#X obj 130 110 @moses;
#X floatatom 130 50 0 0 0 0 - - - 0;
#X obj 90 140 bng 15 250 50 0 empty empty empty 17 7 0 10 #ff8300 #ff0400 #7c7c7c;
#X obj 80 110 del;
#N canvas 400 540 450 300 bpm 0;
#X obj 180 60 r bpm;
#X obj 240 180 r pow;
#X obj 180 180 #* 1;
#X obj 180 150 t f b;
#X obj 180 210 outlet;
#X obj 240 150 outlet;
#X connect 0 0 3 0;
#X connect 1 0 2 1;
#X connect 2 0 4 0;
#X connect 3 0 2 0;
#X connect 3 1 5 0;
#X restore 130 20 pd bpm;
#X obj 50 170 timer;
#X obj 50 140 b;
#X floatatom 50 230 0 0 0 0 - - - 0;
#X obj 50 200 #f%;
#X floatatom 270 260 0 0 0 2 count - - 0;
#X msg 230 140 0;
#N canvas 400 540 450 300 sync 0;
#X obj 180 30 r sync;
#X obj 180 120 symbol;
#X obj 180 170 f;
#X obj 180 200 / 1;
#X obj 220 200 r pow;
#X obj 180 230 outlet;
#X obj 240 60 is s;
#X obj 180 60 t a a;
#X obj 180 90 spigot;
#X obj 250 90 sel 1;
#X connect 0 0 7 0;
#X connect 1 0 2 0;
#X connect 2 0 3 0;
#X connect 3 0 5 0;
#X connect 4 0 3 1;
#X connect 6 0 8 1;
#X connect 6 0 9 0;
#X connect 7 0 8 0;
#X connect 7 1 6 0;
#X connect 8 0 1 0;
#X connect 9 1 2 0;
#X restore 50 20 pd sync;
#X obj 240 110 r stop;
#X obj 230 80 s _bpm;
#X obj 100 290 s beat;
#X obj 100 260 bng 15 250 50 0 empty empty empty 17 7 0 10 #ff8300 #ff0400 #7c7c7c;
#X obj 230 50 r ratio;
#X obj 130 80 #* 1;
#N canvas 730 350 450 300 offset 0;
#X obj 110 30 inlet;
#X obj 110 190 outlet;
#X obj 230 110 inlet;
#X obj 110 60 +;
#X msg 180 30 42.667;
#X msg 250 30 0;
#X obj 110 150 +;
#X obj 160 70 inlet;
#X obj 220 70 inlet;
#X obj 160 110 #/ 1;
#X obj 160 150 *;
#X connect 0 0 3 0;
#X connect 2 0 10 0;
#X connect 3 0 6 0;
#X connect 4 0 3 1;
#X connect 5 0 3 1;
#X connect 6 0 1 0;
#X connect 7 0 9 0;
#X connect 8 0 9 1;
#X connect 9 0 10 1;
#X connect 10 0 6 1;
#X restore 30 80 pd offset;
#X floatatom 30 50 0 0 5000 0 - - - 0;
#X floatatom 80 50 0 1 5000 0 - - - 0;
#X connect 0 0 1 1;
#X connect 0 0 15 1;
#X connect 0 0 25 3;
#X connect 1 0 3 0;
#X connect 1 0 3 1;
#X connect 1 1 4 0;
#X connect 1 2 16 0;
#X connect 2 0 1 2;
#X connect 4 0 5 0;
#X connect 7 0 0 0;
#X connect 8 0 20 0;
#X connect 8 0 24 0;
#X connect 9 0 12 1;
#X connect 9 0 1 0;
#X connect 10 0 9 0;
#X connect 11 0 8 0;
#X connect 11 1 17 0;
#X connect 12 0 15 0;
#X connect 13 0 12 0;
#X connect 15 0 14 0;
#X connect 17 0 2 0;
#X connect 17 0 1 0;
#X connect 18 0 13 0;
#X connect 18 0 25 0;
#X connect 19 0 17 0;
#X connect 22 0 21 0;
#X connect 22 0 1 0;
#X connect 23 0 24 1;
#X connect 24 0 7 0;
#X connect 25 0 10 0;
#X connect 26 0 25 1;
#X connect 27 0 25 2;
