#N canvas 400 200 380 340 16;
#X declare -lib blunt;
#X obj 110 150 timer;
#X floatatom 150 190 0 0 0 0 - - - 0;
#X obj 110 70 bng 15 250 50 0 empty empty reset -23 -7 0 12 #ff8300 #ff0400 #7c7c7c;
#X obj 140 70 bng 30 250 50 0 empty empty empty 17 7 0 10 #ff8300 #ff0400 #7c7c7c;
#X floatatom 110 220 0 0 0 0 - - - 0;
#X obj 110 250 @/ 60000;
#X floatatom 110 280 0 0 0 0 bpm - - 0;
#N canvas 400 200 450 300 lib 0;
#X obj 140 120 declare -lib blunt;
#X restore 30 30 pd lib;
#N canvas 780 200 450 300 kpress 0;
#X obj 50 20 keyname;
#X obj 50 110 spigot;
#X obj 60 80 symbol;
#X obj 50 50 t b f;
#X msg 50 140 \$1;
#X obj 50 200 outlet;
#X obj 130 200 outlet;
#X obj 50 170 route BackSpace Space;
#X connect 0 0 3 0;
#X connect 0 1 2 1;
#X connect 1 0 4 0;
#X connect 2 0 1 0;
#X connect 3 0 2 0;
#X connect 3 1 1 1;
#X connect 4 0 7 0;
#X connect 7 0 5 0;
#X connect 7 1 6 0;
#X restore 110 30 pd kpress;
#X obj 230 150 + 1;
#X obj 110 190 /;
#X msg 120 110 0;
#X obj 170 110 t;
#X floatatom 230 190 0 0 0 0 - - - 0;
#X obj 190 150 f;
#X connect 0 0 1 0;
#X connect 0 0 10 0;
#X connect 2 0 0 0;
#X connect 2 0 11 0;
#X connect 3 0 12 0;
#X connect 4 0 5 0;
#X connect 5 0 6 0;
#X connect 8 0 2 0;
#X connect 8 1 3 0;
#X connect 9 0 14 1;
#X connect 10 0 4 0;
#X connect 11 0 14 0;
#X connect 12 0 0 1;
#X connect 12 1 14 0;
#X connect 14 0 10 1;
#X connect 14 0 9 0;
#X connect 14 0 13 0;
