#N canvas 40 200 360 370 16;
#X declare -lib blunt;
#X obj 130 210 tick 1;
#X obj 240 200 bng 24 250 50 0 empty empty reset\ avg 0 36 0 16 #ff8300 #ff0400 #7c7c7c;
#X obj 120 330 dac~;
#X floatatom 150 250 0 0 0 3 avg - - 0;
#N canvas 760 200 360 120 lib 0;
#X obj 90 40 declare -lib blunt;
#X restore 20 10 pd lib;
#X obj 40 170 timer;
#X floatatom 50 230 0 0 0 3 delay - - 0;
#X obj 50 200 #f% 1;
#X floatatom 230 250 0 0 0 3 count - - 0;
#X msg 180 170 0;
#N canvas 1190 510 360 260 sync 0;
#X obj 100 20 r \$1sync;
#X obj 100 110 / 1;
#X obj 150 110 r \$1pow;
#X floatatom 180 170 0 0 0 0 - - - 0;
#X obj 100 140 +;
#X obj 70 200 outlet;
#X obj 70 170 b;
#X obj 110 170 outlet;
#X obj 140 200 outlet;
#X obj 200 20 tgl 24 0 empty empty empty 0 -12 0 16 #0e4345 #fcfcfc #fcfcfc 0 1;
#N canvas 760 200 360 210 startpad 0;
#X obj 80 160 outlet;
#X obj 170 70 loadbang;
#X obj 170 100 samplerate~;
#X obj 80 130 /;
#X obj 170 130 / 1000;
#X obj 80 100 r \$1pad;
#X text 60 20 Offset accounting for RubberBand's start pad, f 22;
#X connect 1 0 2 0;
#X connect 2 0 4 0;
#X connect 3 0 0 0;
#X connect 4 0 3 1;
#X connect 5 0 3 0;
#X restore 150 140 pd startpad;
#N canvas 1190 200 360 250 manual 0;
#X obj 50 20 inlet;
#X obj 220 20 inlet;
#X obj 120 50 spigot 1;
#X obj 190 80 list length;
#X obj 120 110 spigot;
#X obj 120 80 t a a;
#X obj 120 140 symbol;
#X obj 220 50 == 0;
#X obj 120 200 outlet;
#X obj 50 50 t b a;
#X obj 50 80 outlet;
#X obj 120 170 f;
#X connect 0 0 9 0;
#X connect 1 0 7 0;
#X connect 2 0 5 0;
#X connect 3 0 4 1;
#X connect 4 0 6 0;
#X connect 5 0 4 0;
#X connect 5 1 3 0;
#X connect 6 0 11 0;
#X connect 7 0 2 1;
#X connect 9 0 10 0;
#X connect 9 1 2 0;
#X connect 11 0 8 0;
#X restore 100 50 pd manual;
#X obj 150 80 radix 10 6 3 3 _ _ 0 0 _ _ _ 0;
#X obj 100 80 f;
#X connect 0 0 11 0;
#X connect 1 0 4 0;
#X connect 1 0 8 0;
#X connect 2 0 1 1;
#X connect 4 0 7 0;
#X connect 4 0 6 0;
#X connect 6 0 5 0;
#X connect 9 0 11 1;
#X connect 10 0 4 1;
#X connect 10 0 3 0;
#X connect 11 0 13 0;
#X connect 11 1 12 0;
#X connect 12 0 13 1;
#X connect 13 0 1 0;
#X restore 140 100 pd sync;
#N canvas 830 510 360 260 bpm 0;
#X obj 180 180 @/ 60000;
#X obj 130 140 #* 1;
#X obj 130 110 #* 1;
#X obj 190 140 r \$1ratio;
#X obj 190 110 r \$1pow;
#X text 180 230 ms/beat;
#X obj 80 180 / 60;
#X text 80 230 Hz/beat;
#X obj 130 20 r \$1bpm;
#X obj 180 210 outlet;
#X obj 80 210 outlet;
#X obj 230 20 tgl 24 0 empty empty empty 0 -12 0 16 #0e4345 #fcfcfc #fcfcfc 0 1;
#X obj 80 110 / 10;
#N canvas 830 200 360 250 manual 0;
#X obj 100 20 inlet;
#X obj 200 20 inlet;
#X obj 100 50 spigot 1;
#X obj 170 80 list length;
#X obj 100 110 spigot;
#X obj 100 80 t a a;
#X obj 100 140 symbol;
#X obj 100 170 f;
#X obj 200 50 == 0;
#X obj 100 200 outlet;
#X connect 0 0 2 0;
#X connect 1 0 8 0;
#X connect 2 0 5 0;
#X connect 3 0 4 1;
#X connect 4 0 6 0;
#X connect 5 0 4 0;
#X connect 5 1 3 0;
#X connect 6 0 7 0;
#X connect 7 0 9 0;
#X connect 8 0 2 1;
#X restore 130 50 pd manual;
#X obj 80 80 radix 10 6 3 3 _ _ 0 0 _ _ _ 0;
#X obj 80 50 * 10;
#X connect 0 0 9 0;
#X connect 1 0 6 0;
#X connect 1 0 0 0;
#X connect 2 0 1 0;
#X connect 3 0 1 1;
#X connect 4 0 2 1;
#X connect 6 0 10 0;
#X connect 8 0 13 0;
#X connect 11 0 13 1;
#X connect 12 0 2 0;
#X connect 13 0 15 0;
#X connect 14 0 12 0;
#X connect 15 0 14 0;
#X restore 60 100 pd bpm;
#N canvas 1190 200 360 180 offset 0;
#X obj 70 20 inlet;
#X obj 130 20 inlet;
#X obj 70 60 +;
#X obj 190 20 inlet;
#X obj 250 20 inlet;
#X obj 190 60 #/ 4;
#X obj 70 90 del;
#X obj 130 90 t;
#X obj 110 130 outlet;
#X obj 180 130 outlet;
#X obj 130 60 #*;
#X obj 190 90 bng 24 250 50 0 empty empty empty 0 -12 0 16 #ff8300 #551312 #7c7c7c;
#X connect 0 0 2 0;
#X connect 1 0 10 0;
#X connect 2 0 6 0;
#X connect 3 0 5 0;
#X connect 4 0 5 1;
#X connect 5 0 10 1;
#X connect 6 0 7 0;
#X connect 7 0 8 0;
#X connect 7 1 9 0;
#X connect 10 0 2 1;
#X connect 11 0 7 0;
#X restore 130 140 pd offset;
#X obj 130 300 *~;
#X obj 110 10 cnv 15 140 27 empty empty bpm-finder 0 12 0 24 #7c7c7c #ffffff 0;
#X text 20 40 helper patch for determining bpm and start time of audio files., f 32;
#X obj 180 330 dB~;
#X floatatom 230 330 0 0 0 0 - - - 0;
#X obj 180 300 hsl 81 24 -80 0 0 0 empty empty volume 10 12 0 16 #2f004d #ff8300 #fcfcfc 0 1;
#X obj 240 140 outlet;
#X obj 30 140 outlet;
#N canvas 760 200 360 140 reset 0;
#X obj 80 20 r \$1reset;
#X obj 180 20 r \$1stop;
#X obj 120 90 outlet;
#X obj 190 50 r \$1done;
#X obj 200 90 outlet;
#X connect 0 0 2 0;
#X connect 1 0 2 0;
#X connect 3 0 2 0;
#X connect 3 0 4 0;
#X restore 240 170 pd reset;
#X obj 40 330 outlet~;
#X obj 300 300 f;
#X floatatom 300 330 0 0 0 0 - - - 0;
#X obj 230 100 radix 10 6 0 3 _ _ 0 0 _ _ _ 0;
#X obj 270 100 radix 10 6 0 3 _ _ 0 0 _ _ _ 0;
#X connect 0 0 13 0;
#X connect 0 0 22 0;
#X connect 0 1 3 0;
#X connect 0 2 8 0;
#X connect 1 0 0 2;
#X connect 5 0 7 0;
#X connect 7 0 6 0;
#X connect 8 0 23 1;
#X connect 9 0 0 0;
#X connect 10 0 5 0;
#X connect 10 1 12 0;
#X connect 10 2 19 0;
#X connect 11 0 20 0;
#X connect 11 0 0 1;
#X connect 11 1 12 1;
#X connect 11 1 7 1;
#X connect 12 0 5 1;
#X connect 12 0 0 0;
#X connect 12 1 0 2;
#X connect 13 0 2 0;
#X connect 13 0 2 1;
#X connect 16 0 13 1;
#X connect 16 1 17 0;
#X connect 18 0 16 0;
#X connect 21 0 1 0;
#X connect 21 0 9 0;
#X connect 21 1 23 0;
#X connect 23 0 24 0;
#X connect 25 0 12 2;
#X connect 26 0 12 3;
