#N canvas 400 200 420 350 16;
#X obj 150 90 inlet;
#X obj 250 200 inlet;
#X obj 190 200 % \$1;
#X obj 240 160 + 1;
#X obj 110 270 sel \$2;
#X obj 110 300 outlet;
#X obj 250 300 outlet;
#X text 40 50 send a bang on each zero remainder;
#X obj 100 20 cnv 15 28 27 empty empty ct 0 12 0 24 #7c7c7c #fcfcfc 0;
#X obj 190 160 f;
#X obj 190 230 t f f;
#X obj 150 120 route on set;
#X text 140 20 count-trigger;
#X connect 0 0 11 0;
#X connect 1 0 2 1;
#X connect 2 0 3 0;
#X connect 2 0 10 0;
#X connect 3 0 9 1;
#X connect 4 0 5 0;
#X connect 9 0 2 0;
#X connect 10 0 4 0;
#X connect 10 1 6 0;
#X connect 11 0 4 1;
#X connect 11 1 9 1;
#X connect 11 2 9 0;
