#N canvas 400 200 380 350 14;
#X obj 90 100 inlet;
#X obj 240 160 inlet;
#X obj 160 190 % \$1;
#X obj 190 160 + 1;
#X obj 90 250 sel \$2;
#X obj 90 280 outlet;
#X obj 200 280 outlet;
#X text 50 50 send a bang on each zero remainder;
#X obj 100 20 cnv 15 178 24 empty empty count-trigger 4 12 0 18 #000000
#fcfcfc 0;
#X obj 150 160 f;
#X obj 90 130 route on;
#X obj 180 100 inlet;
#X obj 160 220 t f f;
#X connect 0 0 10 0;
#X connect 1 0 2 1;
#X connect 2 0 3 0;
#X connect 2 0 12 0;
#X connect 3 0 9 1;
#X connect 4 0 5 0;
#X connect 9 0 2 0;
#X connect 10 0 4 1;
#X connect 10 1 9 0;
#X connect 11 0 9 1;
#X connect 12 0 4 0;
#X connect 12 1 6 0;
