#N canvas 400 200 360 400 16;
#X obj 40 130 inlet;
#X obj 220 130 inlet;
#X obj 130 220 inlet;
#X obj 40 170 route set;
#X obj 220 170 route set;
#X obj 130 250 route set;
#X obj 150 170 sel;
#X obj 240 250 1;
#X obj 70 220 1;
#X obj 70 250 * -1;
#X obj 110 310 + \$1;
#X obj 200 310 \$1;
#X obj 200 340 outlet;
#X text 30 60 forward/backward incrementer;
#X obj 150 30 cnv 15 56 27 empty empty cupq 0 12 0 24 #7c7c7c #fcfcfc 0;
#X obj 150 130 f \$2;
#X obj 150 100 loadbang;
#X connect 0 0 3 0;
#X connect 1 0 4 0;
#X connect 2 0 5 0;
#X connect 3 0 8 1;
#X connect 3 1 8 0;
#X connect 4 0 7 1;
#X connect 4 1 7 0;
#X connect 5 0 11 1;
#X connect 5 0 10 1;
#X connect 5 1 11 0;
#X connect 6 1 7 1;
#X connect 6 1 8 1;
#X connect 7 0 10 0;
#X connect 8 0 9 0;
#X connect 9 0 10 0;
#X connect 10 0 11 0;
#X connect 11 0 10 1;
#X connect 11 0 12 0;
#X connect 15 0 6 0;
#X connect 16 0 15 0;
