#N canvas 400 200 530 440 14;
#X obj 270 40 inlet;
#X obj 220 210 inlet;
#X obj 360 210 inlet;
#X obj 140 80 route set step - +;
#X obj 140 110 s \$0set;
#X obj 140 140 s \$0itr;
#X obj 300 80 s \$0tonbx;
#X obj 50 50 loadbang;
#X obj 70 120 \$1;
#X obj 70 150 sel;
#X msg 100 180 set \$1;
#X obj 100 210 s \$0tonbx;
#X obj 50 200 \$2;
#X obj 50 230 sel;
#X obj 80 260 s \$0itr;
#X floatatom 220 140 5 0 0 0 - \$0tonbx \$0frnbx 0;
#X obj 220 160 bng 20 250 50 0 \$0-sdummy \$0-rdummy empty 17 7 0 10
#ff8300 #ff0400 #000000;
#X obj 240 160 bng 20 250 50 0 \$0-sdummy \$0-rdummy empty 17 7 0 10
#ff8300 #ff0400 #000000;
#X obj 220 240 route set;
#X obj 190 280 1;
#X obj 190 310 * -1;
#X obj 360 240 route set;
#X obj 330 280 1;
#X obj 230 280 r \$0itr;
#X obj 370 280 r \$0itr;
#X obj 290 340 + \$1;
#X obj 290 370 s \$0tonbx;
#X obj 330 310 r \$0set;
#X obj 400 310 r \$0frnbx;
#X obj 400 370 outlet;
#X text 300 150 number box with cup;
#X obj 340 120 cnv 15 74 24 empty empty cupqb 4 12 0 18 #000000 #fcfcfc
0;
#X connect 0 0 3 0;
#X connect 1 0 18 0;
#X connect 2 0 21 0;
#X connect 3 0 10 0;
#X connect 3 0 4 0;
#X connect 3 1 5 0;
#X connect 3 2 19 0;
#X connect 3 3 22 0;
#X connect 3 4 6 0;
#X connect 7 0 8 0;
#X connect 7 0 12 0;
#X connect 8 0 9 0;
#X connect 9 1 10 0;
#X connect 10 0 11 0;
#X connect 12 0 13 0;
#X connect 13 1 14 0;
#X connect 16 0 19 0;
#X connect 17 0 22 0;
#X connect 18 0 19 1;
#X connect 18 1 19 0;
#X connect 19 0 20 0;
#X connect 20 0 25 0;
#X connect 21 0 22 1;
#X connect 21 1 22 0;
#X connect 22 0 25 0;
#X connect 23 0 19 1;
#X connect 24 0 22 1;
#X connect 25 0 26 0;
#X connect 27 0 25 1;
#X connect 28 0 25 1;
#X connect 28 0 29 0;
#X coords 0 -1 1 1 42 46 2 220 137;
