#N canvas 400 200 350 400 16;
#X obj 60 130 inlet;
#X obj 220 130 inlet;
#X obj 130 220 inlet;
#X obj 60 170 route set;
#X obj 220 170 route set;
#X obj 130 250 route set;
#X obj 150 170 sel;
#X obj 220 250 1;
#X obj 80 220 1;
#X obj 80 250 * -1;
#X obj 100 310 + \$1;
#X obj 200 310 \$1;
#X obj 200 340 outlet;
#X text 60 60 forward/backward incrementer;
#X obj 150 30 cnv 15 60 24 empty empty cupq 4 12 0 18 #000000 #fcfcfc
0;
#X obj 150 130 f \$2;
#X obj 150 100 loadbang;
#X connect 0 0 3 0;
#X connect 1 0 4 0;
#X connect 2 0 5 0;
#X connect 3 0 8 1;
#X connect 3 1 8 0;
#X connect 4 0 7 1;
#X connect 4 1 7 0;
#X connect 5 0 11 1;
#X connect 5 0 10 1;
#X connect 5 1 11 0;
#X connect 6 1 7 1;
#X connect 6 1 8 1;
#X connect 7 0 10 0;
#X connect 8 0 9 0;
#X connect 9 0 10 0;
#X connect 10 0 11 0;
#X connect 11 0 10 1;
#X connect 11 0 12 0;
#X connect 15 0 6 0;
#X connect 16 0 15 0;
