#N canvas 400 200 360 310 16;
#X obj 240 80 loadbang;
#X obj 40 200 exp;
#X obj 40 170 *;
#X msg 80 200 0;
#X obj 40 240 zp~ 15;
#X obj 40 270 outlet~;
#X obj 240 170 / 20;
#X obj 240 140 log;
#X msg 240 110 10;
#X obj 160 20 cnv 15 42 27 empty empty dB~ 0 12 0 24 #7c7c7c #fcfcfc 0;
#X text 100 50 simple dB volume;
#X obj 80 80 inlet;
#X obj 170 270 outlet;
#X obj 80 120 sesom -80;
#X msg 170 200 symbol -inf;
#X obj 170 230 f;
#N canvas 760 200 360 180 arg 0;
#X msg 130 50 args 0;
#X obj 130 80 pdcontrol;
#X obj 130 110 route float;
#X obj 130 140 outlet;
#X obj 130 20 loadbang;
#X connect 0 0 1 0;
#X connect 1 0 2 0;
#X connect 2 0 3 0;
#X connect 4 0 0 0;
#X restore 150 80 pd arg;
#X obj 110 240 inlet;
#X connect 0 0 8 0;
#X connect 1 0 4 0;
#X connect 2 0 1 0;
#X connect 3 0 4 0;
#X connect 4 0 5 0;
#X connect 6 0 2 1;
#X connect 7 0 6 0;
#X connect 8 0 7 0;
#X connect 11 0 13 0;
#X connect 13 0 2 0;
#X connect 13 0 12 0;
#X connect 13 1 3 0;
#X connect 13 1 14 0;
#X connect 14 0 15 0;
#X connect 15 0 12 0;
#X connect 16 0 13 1;
#X connect 17 0 4 0;
