#N canvas 400 200 380 430 16;
#X msg 140 130 1 \, 0 \$1;
#X obj 140 160 line~;
#X obj 80 230 cos~;
#X obj 80 280 *~;
#X obj 80 350 outlet~;
#X text 150 310 efficient kick drum;
#X obj 200 280 cnv 15 84 27 empty empty fkick~ 0 12 0 24 #535512 #fcfcfc 0;
#X obj 40 280 1;
#X obj 80 320 *~;
#X obj 140 100 \$2;
#X obj 50 60 t;
#X obj 80 200 *~;
#X obj 70 100 + 0.5;
#X obj 70 130 * 0.5;
#X obj 140 200 *~;
#X obj 140 230 *~;
#X obj 160 60 inlet idx;
#X obj 180 100 inlet dur;
#X obj 40 20 inlet vol;
#X obj 50 160 f;
#X obj 120 60 \$1;
#X obj 140 20 loadbang;
#X connect 0 0 1 0;
#X connect 1 0 14 1;
#X connect 1 0 15 1;
#X connect 1 0 14 0;
#X connect 2 0 3 0;
#X connect 3 0 8 0;
#X connect 7 0 8 1;
#X connect 8 0 4 0;
#X connect 9 0 0 0;
#X connect 10 0 19 0;
#X connect 10 1 9 0;
#X connect 11 0 2 0;
#X connect 12 0 13 0;
#X connect 13 0 19 1;
#X connect 14 0 15 0;
#X connect 15 0 11 1;
#X connect 15 0 3 1;
#X connect 16 0 12 0;
#X connect 17 0 9 1;
#X connect 18 0 10 0;
#X connect 18 0 7 0;
#X connect 19 0 11 0;
#X connect 20 0 12 0;
#X connect 21 0 20 0;
