#N canvas 400 200 380 430 14;
#X obj 60 40 inlet;
#X obj 100 70 inlet;
#X obj 120 130 inlet;
#X obj 60 70 b;
#X obj 60 100 \$1;
#X obj 60 130 t f f;
#X msg 120 160 1 \, 0 \$1;
#X obj 120 190 vline~;
#X obj 60 160 / \$2;
#X obj 40 220 *~;
#X obj 40 250 *~;
#X obj 40 280 *~;
#X obj 40 310 cos~;
#X obj 100 340 *~;
#X obj 100 370 outlet~;
#X text 160 80 efficient kick drum;
#X text 160 100 original patch by ajf;
#X obj 210 50 cnv 15 84 24 empty empty fkick~ 4 12 0 18 #000000 #fcfcfc
0;
#X connect 0 0 3 0;
#X connect 1 0 4 1;
#X connect 2 0 8 1;
#X connect 3 0 4 0;
#X connect 4 0 5 0;
#X connect 5 0 8 0;
#X connect 5 1 6 0;
#X connect 6 0 7 0;
#X connect 7 0 13 1;
#X connect 7 0 9 0;
#X connect 7 0 11 1;
#X connect 8 0 9 1;
#X connect 9 0 10 1;
#X connect 9 0 10 0;
#X connect 10 0 11 0;
#X connect 11 0 12 0;
#X connect 12 0 13 0;
#X connect 13 0 14 0;
