#N canvas 400 200 380 430 14;
#X obj 60 30 inlet;
#X obj 100 60 inlet;
#X obj 120 90 inlet;
#X obj 60 90 \$1;
#X msg 120 130 1 \, 0 \$1;
#X obj 120 160 vline~;
#X obj 60 130 / \$2;
#X obj 40 190 *~;
#X obj 40 220 *~;
#X obj 40 250 *~;
#X obj 40 280 cos~;
#X obj 100 310 *~;
#X obj 100 370 outlet~;
#X text 170 260 efficient kick drum;
#X obj 210 230 cnv 15 84 24 empty empty fkick~ 4 12 0 18 #000000 #fcfcfc
0;
#X obj 200 60 1;
#X obj 100 340 *~;
#X obj 60 60 b;
#X connect 0 0 15 0;
#X connect 0 0 17 0;
#X connect 1 0 3 1;
#X connect 2 0 6 1;
#X connect 3 0 4 0;
#X connect 3 0 6 0;
#X connect 4 0 5 0;
#X connect 5 0 11 1;
#X connect 5 0 7 0;
#X connect 5 0 9 1;
#X connect 6 0 7 1;
#X connect 7 0 8 1;
#X connect 7 0 8 0;
#X connect 8 0 9 0;
#X connect 9 0 10 0;
#X connect 10 0 11 0;
#X connect 11 0 16 0;
#X connect 15 0 16 1;
#X connect 16 0 12 0;
#X connect 17 0 3 0;
