#N canvas 400 200 380 430 14;
#X obj 60 240 phasor~;
#X obj 140 240 phasor~;
#X obj 40 160 inlet~ carrier;
#X obj 60 200 *~;
#X obj 140 200 *~;
#X obj 140 270 cos~;
#X obj 190 300 *~;
#X obj 60 340 cos~;
#X obj 60 370 outlet~;
#X obj 230 170 inlet phase;
#X obj 130 20 loadbang;
#X obj 40 70 \$1;
#X obj 80 70 \$2;
#X obj 200 340 cnv 15 86 24 empty empty fm2op~ 4 12 0 18 #000000 #fcfcfc
0;
#X obj 230 200 unpack f f;
#X obj 80 130 inlet~ c-ratio;
#X obj 160 100 inlet~ m-ratio;
#X obj 210 130 inlet~ m-index;
#X obj 160 70 \$3;
#X obj 210 70 \$4;
#X text 190 370 2 Operator FM;
#X connect 0 0 7 0;
#X connect 1 0 5 0;
#X connect 2 0 3 0;
#X connect 2 0 4 0;
#X connect 3 0 0 0;
#X connect 4 0 1 0;
#X connect 5 0 6 0;
#X connect 6 0 7 0;
#X connect 7 0 8 0;
#X connect 9 0 14 0;
#X connect 10 0 11 0;
#X connect 10 0 12 0;
#X connect 10 0 18 0;
#X connect 10 0 19 0;
#X connect 11 0 2 0;
#X connect 12 0 15 0;
#X connect 14 0 0 1;
#X connect 14 1 1 1;
#X connect 15 0 3 1;
#X connect 16 0 4 1;
#X connect 17 0 6 1;
#X connect 18 0 16 0;
#X connect 19 0 17 0;
