#N canvas 400 200 410 430 16;
#X obj 60 240 phasor~;
#X obj 150 240 osc~;
#X obj 40 160 inlet~ carrier;
#X obj 60 200 *~;
#X obj 150 200 *~;
#X obj 170 280 *~;
#X obj 60 340 cos~;
#X obj 60 370 outlet~;
#X obj 240 160 inlet phase;
#X obj 130 20 loadbang;
#X obj 40 70 \$4;
#X obj 80 70 \$1;
#X obj 200 340 cnv 15 84 27 empty empty fm2op~ 0 12 0 24 #535512 #fcfcfc 0;
#X obj 240 190 unpack f f;
#X obj 80 130 inlet~ c-ratio;
#X obj 160 100 inlet~ m-ratio;
#X obj 230 130 inlet~ m-index;
#X obj 160 70 \$2;
#X obj 230 70 \$3;
#X text 190 370 2 Operator FM;
#X connect 0 0 6 0;
#X connect 1 0 5 0;
#X connect 2 0 3 0;
#X connect 2 0 4 0;
#X connect 3 0 0 0;
#X connect 4 0 1 0;
#X connect 5 0 6 0;
#X connect 6 0 7 0;
#X connect 8 0 13 0;
#X connect 9 0 10 0;
#X connect 9 0 11 0;
#X connect 9 0 17 0;
#X connect 9 0 18 0;
#X connect 10 0 2 0;
#X connect 11 0 14 0;
#X connect 13 0 0 1;
#X connect 13 1 1 1;
#X connect 14 0 3 1;
#X connect 15 0 4 1;
#X connect 16 0 5 1;
#X connect 17 0 15 0;
#X connect 18 0 16 0;
