#N canvas 400 200 480 310 16;
#X obj 50 60 inlet;
#X obj 70 240 outlet;
#X obj 190 30 cnv 15 112 27 empty empty gme-mask 0 12 0 24 #535512 #fcfcfc 0;
#X obj 30 160 b;
#X text 120 60 channel mute helper for gme~;
#X obj 50 90 t f f f f f f f f f f f f f, f 31;
#X obj 70 170 expr $f1 + $f2 + $f3 + $f4 + $f5 + $f6 + $f7 + $f8 + $f9 + $f10 + $f11 + $f12 + $f13, f 30;
#X obj 350 130 bitgl 12;
#X obj 325 130 bitgl 11;
#X obj 300 130 bitgl 10;
#X obj 275 130 bitgl 9;
#X obj 250 130 bitgl 8;
#X obj 225 130 bitgl 7;
#X obj 200 130 bitgl 6;
#X obj 175 130 bitgl 5;
#X obj 150 130 bitgl 4;
#X obj 125 130 bitgl 3;
#X obj 100 130 bitgl 2;
#X obj 75 130 bitgl 1;
#X obj 50 130 bitgl 0;
#X connect 0 0 5 0;
#X connect 3 0 6 0;
#X connect 5 0 19 0;
#X connect 5 1 18 0;
#X connect 5 2 17 0;
#X connect 5 3 16 0;
#X connect 5 4 15 0;
#X connect 5 5 14 0;
#X connect 5 6 13 0;
#X connect 5 7 12 0;
#X connect 5 8 11 0;
#X connect 5 9 10 0;
#X connect 5 10 9 0;
#X connect 5 11 8 0;
#X connect 5 12 7 0;
#X connect 6 0 1 0;
#X connect 7 0 3 0;
#X connect 7 1 6 12;
#X connect 8 0 3 0;
#X connect 8 1 6 11;
#X connect 9 0 3 0;
#X connect 9 1 6 10;
#X connect 10 0 3 0;
#X connect 10 1 6 9;
#X connect 11 0 3 0;
#X connect 11 1 6 8;
#X connect 12 0 3 0;
#X connect 12 1 6 7;
#X connect 13 0 3 0;
#X connect 13 1 6 6;
#X connect 14 0 3 0;
#X connect 14 1 6 5;
#X connect 15 0 3 0;
#X connect 15 1 6 4;
#X connect 16 0 3 0;
#X connect 16 1 6 3;
#X connect 17 0 3 0;
#X connect 17 1 6 2;
#X connect 18 0 3 0;
#X connect 18 1 6 1;
#X connect 19 1 6 0;
#X coords 0 -1 1 1 324 24 2 50 130;
