#N canvas 400 200 420 430 14;
#X obj 280 40 inlet;
#X obj 160 150 loadbang;
#X msg 160 210 0;
#X obj 160 240 % 60;
#X obj 160 270 lead0;
#X obj 280 70 t f f;
#N canvas 920 360 350 240 neg 0;
#X obj 130 30 inlet;
#X obj 130 60 < 0;
#X obj 130 90 sel;
#X msg 180 120 symbol -;
#X msg 180 160 symbol;
#X obj 130 190 outlet;
#X connect 0 0 1 0;
#X connect 1 0 2 0;
#X connect 2 0 4 0;
#X connect 2 1 3 0;
#X connect 3 0 5 0;
#X connect 4 0 5 0;
#X restore 320 270 pd neg;
#X obj 60 120 abs;
#X obj 60 150 t f f;
#X obj 230 240 change;
#X obj 230 270 div 60;
#N canvas 220 260 360 350 format 0;
#X obj 60 30 inlet;
#X obj 60 60 t f f f f;
#X obj 130 100 i;
#X obj 90 100 ==;
#X obj 90 130 sel;
#X msg 120 190 symbol;
#X obj 60 200 lead0;
#X obj 190 30 * 10;
#X obj 190 60 t f f;
#X obj 230 100 i;
#X obj 190 100 ==;
#X obj 190 130 sel;
#X msg 220 190 symbol;
#X obj 60 230 pack s s s;
#X msg 60 260 symbol \$1\$2\$3;
#X obj 60 290 outlet;
#X msg 120 160 symbol .\0;
#X msg 220 160 symbol \0;
#X connect 0 0 1 0;
#X connect 1 0 6 0;
#X connect 1 1 3 0;
#X connect 1 2 2 0;
#X connect 1 3 7 0;
#X connect 2 0 3 1;
#X connect 3 0 4 0;
#X connect 4 0 5 0;
#X connect 4 1 16 0;
#X connect 5 0 13 1;
#X connect 6 0 13 0;
#X connect 7 0 8 0;
#X connect 8 0 10 0;
#X connect 8 1 9 0;
#X connect 9 0 10 1;
#X connect 10 0 11 0;
#X connect 11 0 12 0;
#X connect 11 1 17 0;
#X connect 12 0 13 2;
#X connect 13 0 14 0;
#X connect 14 0 15 0;
#X connect 16 0 13 1;
#X connect 17 0 13 2;
#X restore 60 270 pd format;
#X obj 140 370 outlet;
#X obj 60 210 % 6000;
#X obj 230 210 div 60000;
#X obj 60 240 / 100;
#X obj 60 180 / 10;
#X obj 140 310 pack s s f s;
#X msg 140 340 symbol \$4\$3:\$2:\$1;
#X obj 120 30 cnv 15 48 24 empty empty hms 4 12 0 18 #000000 #fcfcfc
0;
#X text 40 60 hour:minute:second display;
#X connect 0 0 5 0;
#X connect 1 0 2 0;
#X connect 2 0 3 0;
#X connect 3 0 4 0;
#X connect 4 0 17 1;
#X connect 5 0 7 0;
#X connect 5 1 6 0;
#X connect 6 0 17 3;
#X connect 7 0 8 0;
#X connect 8 0 16 0;
#X connect 8 1 14 0;
#X connect 9 0 3 0;
#X connect 9 0 10 0;
#X connect 10 0 17 2;
#X connect 11 0 17 0;
#X connect 13 0 15 0;
#X connect 14 0 9 0;
#X connect 15 0 11 0;
#X connect 16 0 13 0;
#X connect 17 0 18 0;
#X connect 18 0 12 0;
