#N canvas 400 200 440 430 16;
#X declare -lib blunt;
#X obj 50 100 inlet;
#X obj 50 130 t f f;
#N canvas 840 200 360 240 neg 0;
#X obj 130 30 inlet;
#X obj 130 60 < 0;
#X obj 130 90 sel;
#X msg 180 120 symbol -;
#X msg 180 160 symbol;
#X obj 130 190 outlet;
#X connect 0 0 1 0;
#X connect 1 0 2 0;
#X connect 2 0 4 0;
#X connect 2 1 3 0;
#X connect 3 0 5 0;
#X connect 4 0 5 0;
#X restore 50 250 pd neg;
#X obj 70 160 abs;
#N canvas 840 200 450 360 format 0;
#X obj 150 20 inlet;
#X obj 150 150 sel;
#X msg 180 210 symbol;
#X obj 60 210 lead0;
#X obj 270 150 sel;
#X msg 300 210 symbol;
#X obj 100 250 pack s s s;
#X msg 100 280 symbol \$1\$2\$3;
#X obj 100 310 outlet;
#X msg 180 180 symbol .\0;
#X msg 300 180 symbol \0;
#X obj 270 90 wrap;
#X obj 270 120 == 0;
#X obj 150 90 wrap;
#X obj 150 120 == 0;
#X obj 270 60 * 0.1;
#X obj 60 90 * 0.01;
#X obj 150 50 t f f;
#X obj 60 120 t f f;
#X connect 0 0 17 0;
#X connect 1 0 2 0;
#X connect 1 1 9 0;
#X connect 2 0 6 1;
#X connect 3 0 6 0;
#X connect 4 0 5 0;
#X connect 4 1 10 0;
#X connect 5 0 6 2;
#X connect 6 0 7 0;
#X connect 7 0 8 0;
#X connect 9 0 6 1;
#X connect 10 0 6 2;
#X connect 11 0 12 0;
#X connect 12 0 4 0;
#X connect 13 0 14 0;
#X connect 14 0 1 0;
#X connect 15 0 11 0;
#X connect 16 0 18 0;
#X connect 17 0 16 0;
#X connect 17 1 15 0;
#X connect 18 0 3 0;
#X connect 18 1 13 0;
#X restore 300 250 pd format;
#X obj 120 360 outlet;
#X obj 180 30 cnv 15 42 27 empty empty hms 0 12 0 24 #7c7c7c #fcfcfc 0;
#X text 100 60 hour:minute:second display;
#X obj 70 190 * 2.77778e-07;
#X obj 130 220 t f f;
#X obj 130 250 int;
#X obj 220 130 wrap;
#X obj 220 160 * 60;
#X obj 220 190 t f f;
#X obj 220 220 int;
#X obj 220 250 lead0;
#X obj 300 130 wrap;
#X obj 300 160 * 6000;
#X obj 300 190 + 0.5;
#X obj 300 220 int;
#N canvas 400 200 450 300 lib 0;
#X obj 140 120 declare -lib blunt;
#X restore 30 30 pd lib;
#X obj 120 300 pack s f s s;
#X msg 120 330 symbol \$1\$2:\$3:\$4;
#X connect 0 0 1 0;
#X connect 1 0 2 0;
#X connect 1 1 3 0;
#X connect 2 0 21 0;
#X connect 3 0 8 0;
#X connect 4 0 21 3;
#X connect 8 0 9 0;
#X connect 9 0 10 0;
#X connect 9 1 11 0;
#X connect 10 0 21 1;
#X connect 11 0 12 0;
#X connect 12 0 13 0;
#X connect 13 0 14 0;
#X connect 13 1 16 0;
#X connect 14 0 15 0;
#X connect 15 0 21 2;
#X connect 16 0 17 0;
#X connect 17 0 18 0;
#X connect 18 0 19 0;
#X connect 19 0 4 0;
#X connect 21 0 22 0;
#X connect 22 0 5 0;
