#N canvas 400 200 360 360 16;
#X obj 100 90 inlet;
#X obj 100 120 t f f;
#X obj 180 110 < 10;
#X obj 180 140 sel;
#X msg 220 170 symbol \0;
#X msg 220 210 symbol;
#X obj 100 240 pack f s;
#X msg 100 270 symbol \$2\$1;
#X obj 100 300 outlet;
#X obj 140 30 cnv 15 72 24 empty empty lead0 4 12 0 18 #000000 #fcfcfc
0;
#X text 100 60 leading zero helper;
#X connect 0 0 1 0;
#X connect 1 0 6 0;
#X connect 1 1 2 0;
#X connect 2 0 3 0;
#X connect 3 0 5 0;
#X connect 3 1 4 0;
#X connect 4 0 6 1;
#X connect 5 0 6 1;
#X connect 6 0 7 0;
#X connect 7 0 8 0;
