#N canvas 400 200 670 300 16;
#X obj 70 170 expr $f1 + $f2 + $f3 + $f4 + $f5 + $f6 + $f7 + $f8 + $f9 + $f10 + $f11 + $f12 + $f13 + $f14 + $f15 + $f16 + $f17 + $f18 + $f19 + $f20 + $f21 + $f22 + $f23, f 55;
#X obj 70 240 outlet;
#X obj 260 30 cnv 15 112 27 empty empty mantissa 0 12 0 24 #535512 #fcfcfc 0;
#X text 160 60 representation of a 23-bit mantissa;
#X obj 30 160 b;
#X obj 60 90 t f f f f f f f f f f f f f f f f f f f f f f f, f 55;
#X obj 60 60 inlet;
#X obj 600 130 bitgl 0;
#X obj 575 130 bitgl 1;
#X obj 550 130 bitgl 2;
#X obj 525 130 bitgl 3;
#X obj 500 130 bitgl 4;
#X obj 475 130 bitgl 5;
#X obj 450 130 bitgl 6;
#X obj 425 130 bitgl 7;
#X obj 400 130 bitgl 8;
#X obj 375 130 bitgl 9;
#X obj 350 130 bitgl 10;
#X obj 325 130 bitgl 11;
#X obj 300 130 bitgl 12;
#X obj 275 130 bitgl 13;
#X obj 250 130 bitgl 14;
#X obj 225 130 bitgl 15;
#X obj 200 130 bitgl 16;
#X obj 175 130 bitgl 17;
#X obj 150 130 bitgl 18;
#X obj 125 130 bitgl 19;
#X obj 100 130 bitgl 20;
#X obj 75 130 bitgl 21;
#X obj 50 130 bitgl 22;
#X connect 0 0 1 0;
#X connect 4 0 0 0;
#X connect 5 0 29 0;
#X connect 5 1 28 0;
#X connect 5 2 27 0;
#X connect 5 3 26 0;
#X connect 5 4 25 0;
#X connect 5 5 24 0;
#X connect 5 6 23 0;
#X connect 5 7 22 0;
#X connect 5 8 21 0;
#X connect 5 9 20 0;
#X connect 5 10 19 0;
#X connect 5 11 18 0;
#X connect 5 12 17 0;
#X connect 5 13 16 0;
#X connect 5 14 15 0;
#X connect 5 15 14 0;
#X connect 5 16 13 0;
#X connect 5 17 12 0;
#X connect 5 18 11 0;
#X connect 5 19 10 0;
#X connect 5 20 9 0;
#X connect 5 21 8 0;
#X connect 5 22 7 0;
#X connect 6 0 5 0;
#X connect 7 0 4 0;
#X connect 7 1 0 22;
#X connect 8 0 4 0;
#X connect 8 1 0 21;
#X connect 9 0 4 0;
#X connect 9 1 0 20;
#X connect 10 0 4 0;
#X connect 10 1 0 19;
#X connect 11 0 4 0;
#X connect 11 1 0 18;
#X connect 12 0 4 0;
#X connect 12 1 0 17;
#X connect 13 0 4 0;
#X connect 13 1 0 16;
#X connect 14 0 4 0;
#X connect 14 1 0 15;
#X connect 15 0 4 0;
#X connect 15 1 0 14;
#X connect 16 0 4 0;
#X connect 16 1 0 13;
#X connect 17 0 4 0;
#X connect 17 1 0 12;
#X connect 18 0 4 0;
#X connect 18 1 0 11;
#X connect 19 0 4 0;
#X connect 19 1 0 10;
#X connect 20 0 4 0;
#X connect 20 1 0 9;
#X connect 21 0 4 0;
#X connect 21 1 0 8;
#X connect 22 0 4 0;
#X connect 22 1 0 7;
#X connect 23 0 4 0;
#X connect 23 1 0 6;
#X connect 24 0 4 0;
#X connect 24 1 0 5;
#X connect 25 0 4 0;
#X connect 25 1 0 4;
#X connect 26 0 4 0;
#X connect 26 1 0 3;
#X connect 27 0 4 0;
#X connect 27 1 0 2;
#X connect 28 0 4 0;
#X connect 28 1 0 1;
#X connect 29 1 0 0;
#X coords 0 -1 1 1 574 24 2 50 130;
