#N canvas 200 200 1480 430 16;
#X obj 830 100 tgl 18 0 empty empty empty 17 7 0 10 #404040 #fcfcfc #fcfcfc 0 1;
#X obj 810 100 tgl 18 0 empty empty empty 17 7 0 10 #404040 #fcfcfc #fcfcfc 0 1;
#X obj 790 100 tgl 18 0 empty empty empty 17 7 0 10 #404040 #fcfcfc #fcfcfc 0 1;
#X obj 770 100 tgl 18 0 empty empty empty 17 7 0 10 #404040 #fcfcfc #fcfcfc 0 1;
#X obj 750 100 tgl 18 0 empty empty empty 17 7 0 10 #404040 #fcfcfc #fcfcfc 0 1;
#X obj 730 100 tgl 18 0 empty empty empty 17 7 0 10 #404040 #fcfcfc #fcfcfc 0 1;
#X obj 710 100 tgl 18 0 empty empty empty 17 7 0 10 #404040 #fcfcfc #fcfcfc 0 1;
#X obj 690 100 tgl 18 0 empty empty empty 17 7 0 10 #404040 #fcfcfc #fcfcfc 0 1;
#X obj 670 100 tgl 18 0 empty empty empty 17 7 0 10 #404040 #fcfcfc #fcfcfc 0 1;
#X obj 650 100 tgl 18 0 empty empty empty 17 7 0 10 #404040 #fcfcfc #fcfcfc 0 1;
#X obj 630 100 tgl 18 0 empty empty empty 17 7 0 10 #404040 #fcfcfc #fcfcfc 0 1;
#X obj 610 100 tgl 18 0 empty empty empty 17 7 0 10 #404040 #fcfcfc #fcfcfc 0 1;
#X obj 590 100 tgl 18 0 empty empty empty 17 7 0 10 #404040 #fcfcfc #fcfcfc 0 1;
#X obj 570 100 tgl 18 0 empty empty empty 17 7 0 10 #404040 #fcfcfc #fcfcfc 0 1;
#X obj 550 100 tgl 18 0 empty empty empty 17 7 0 10 #404040 #fcfcfc #fcfcfc 0 1;
#X obj 530 100 tgl 18 0 empty empty empty 17 7 0 10 #404040 #fcfcfc #fcfcfc 0 1;
#X obj 510 100 tgl 18 0 empty empty empty 17 7 0 10 #404040 #fcfcfc #fcfcfc 0 1;
#X obj 490 100 tgl 18 0 empty empty empty 17 7 0 10 #404040 #fcfcfc #fcfcfc 0 1;
#X obj 470 100 tgl 18 0 empty empty empty 17 7 0 10 #404040 #fcfcfc #fcfcfc 0 1;
#X obj 450 100 tgl 18 0 empty empty empty 17 7 0 10 #404040 #fcfcfc #fcfcfc 0 1;
#X obj 430 100 tgl 18 0 empty empty empty 17 7 0 10 #404040 #fcfcfc #fcfcfc 0 1;
#X obj 410 100 tgl 18 0 empty empty empty 17 7 0 10 #404040 #fcfcfc #fcfcfc 0 1;
#X obj 390 100 tgl 18 0 empty empty empty 17 7 0 10 #404040 #fcfcfc #fcfcfc 0 1;
#X obj 1100 140 t b f;
#X obj 550 140 t b f;
#X obj 1050 140 t b f;
#X obj 500 140 t b f;
#X obj 1000 140 t b f;
#X obj 450 140 t b f;
#X obj 950 140 t b f;
#X obj 400 140 t b f;
#X obj 900 140 t b f;
#X obj 350 140 t b f;
#X obj 850 140 t b f;
#X obj 300 140 t b f;
#X obj 800 140 t b f;
#X obj 250 140 t b f;
#X obj 750 140 t b f;
#X obj 200 140 t b f;
#X obj 700 140 t b f;
#X obj 150 140 t b f;
#X obj 650 140 t b f;
#X obj 100 140 t b f;
#X obj 600 140 t b f;
#X obj 50 140 t b f;
#X obj 90 390 outlet;
#X obj 560 30 cnv 15 124 24 empty empty mant-calc 4 12 0 18 #000000 #fcfcfc 0;
#X text 540 60 mantissa calculator;
#X obj 50 260 b;
#X obj 90 340 expr $f1 + $f2 + $f3 + $f4 + $f5 + $f6 + $f7 + $f8 + $f9 + $f10 + $f11 + $f12 + $f13 + $f14 + $f15 + $f16 + $f17 + $f18 + $f19 + $f20 + $f21 + $f22 + $f23, f 123;
#X obj 90 290 /;
#X obj 140 290 /;
#X obj 190 290 /;
#X obj 240 290 /;
#X obj 290 290 /;
#X obj 340 290 /;
#X obj 390 290 /;
#X obj 440 290 /;
#X obj 490 290 /;
#X obj 540 290 /;
#X obj 590 290 /;
#X obj 640 290 /;
#X obj 690 290 /;
#X obj 740 290 /;
#X obj 790 290 /;
#X obj 840 290 /;
#X obj 890 290 /;
#X obj 940 290 /;
#X obj 990 290 /;
#X obj 1040 290 /;
#X obj 1090 290 /;
#X obj 1140 290 /;
#X obj 1190 290 /;
#X obj 120 260 << 1;
#X obj 170 260 << 2;
#X obj 220 260 << 3;
#X obj 270 260 << 4;
#X obj 320 260 << 5;
#X obj 370 260 << 6;
#X obj 420 260 << 7;
#X obj 470 260 << 8;
#X obj 520 260 << 9;
#X obj 570 260 << 10;
#X obj 620 260 << 11;
#X obj 670 260 << 12;
#X obj 720 260 << 13;
#X obj 770 260 << 14;
#X obj 820 260 << 15;
#X obj 870 260 << 16;
#X obj 920 260 << 17;
#X obj 970 260 << 18;
#X obj 1020 260 << 19;
#X obj 1070 260 << 20;
#X msg 1210 140 1;
#X obj 1210 110 loadbang;
#X obj 1120 260 << 21;
#X obj 1170 260 << 22;
#X obj 1220 260 << 23;
#X obj 1150 140 t b f;
#X connect 0 0 98 0;
#X connect 1 0 23 0;
#X connect 2 0 25 0;
#X connect 3 0 27 0;
#X connect 4 0 29 0;
#X connect 5 0 31 0;
#X connect 6 0 33 0;
#X connect 7 0 35 0;
#X connect 8 0 37 0;
#X connect 9 0 39 0;
#X connect 10 0 41 0;
#X connect 11 0 43 0;
#X connect 12 0 24 0;
#X connect 13 0 26 0;
#X connect 14 0 28 0;
#X connect 15 0 30 0;
#X connect 16 0 32 0;
#X connect 17 0 34 0;
#X connect 18 0 36 0;
#X connect 19 0 38 0;
#X connect 20 0 40 0;
#X connect 21 0 42 0;
#X connect 22 0 44 0;
#X connect 23 0 48 0;
#X connect 23 1 71 0;
#X connect 24 0 48 0;
#X connect 24 1 60 0;
#X connect 25 0 48 0;
#X connect 25 1 70 0;
#X connect 26 0 48 0;
#X connect 26 1 59 0;
#X connect 27 0 48 0;
#X connect 27 1 69 0;
#X connect 28 0 48 0;
#X connect 28 1 58 0;
#X connect 29 0 48 0;
#X connect 29 1 68 0;
#X connect 30 0 48 0;
#X connect 30 1 57 0;
#X connect 31 0 48 0;
#X connect 31 1 67 0;
#X connect 32 0 48 0;
#X connect 32 1 56 0;
#X connect 33 0 48 0;
#X connect 33 1 66 0;
#X connect 34 0 48 0;
#X connect 34 1 55 0;
#X connect 35 0 48 0;
#X connect 35 1 65 0;
#X connect 36 0 48 0;
#X connect 36 1 54 0;
#X connect 37 0 48 0;
#X connect 37 1 64 0;
#X connect 38 0 48 0;
#X connect 38 1 53 0;
#X connect 39 0 48 0;
#X connect 39 1 63 0;
#X connect 40 0 48 0;
#X connect 40 1 52 0;
#X connect 41 0 48 0;
#X connect 41 1 62 0;
#X connect 42 0 48 0;
#X connect 42 1 51 0;
#X connect 43 0 48 0;
#X connect 43 1 61 0;
#X connect 44 0 48 0;
#X connect 44 1 50 0;
#X connect 48 0 49 0;
#X connect 49 0 45 0;
#X connect 50 0 49 0;
#X connect 51 0 49 1;
#X connect 52 0 49 2;
#X connect 53 0 49 3;
#X connect 54 0 49 4;
#X connect 55 0 49 5;
#X connect 56 0 49 6;
#X connect 57 0 49 7;
#X connect 58 0 49 8;
#X connect 59 0 49 9;
#X connect 60 0 49 10;
#X connect 61 0 49 11;
#X connect 62 0 49 12;
#X connect 63 0 49 13;
#X connect 64 0 49 14;
#X connect 65 0 49 15;
#X connect 66 0 49 16;
#X connect 67 0 49 17;
#X connect 68 0 49 18;
#X connect 69 0 49 19;
#X connect 70 0 49 20;
#X connect 71 0 49 21;
#X connect 72 0 49 22;
#X connect 73 0 50 1;
#X connect 74 0 51 1;
#X connect 75 0 52 1;
#X connect 76 0 53 1;
#X connect 77 0 54 1;
#X connect 78 0 55 1;
#X connect 79 0 56 1;
#X connect 80 0 57 1;
#X connect 81 0 58 1;
#X connect 82 0 59 1;
#X connect 83 0 60 1;
#X connect 84 0 61 1;
#X connect 85 0 62 1;
#X connect 86 0 63 1;
#X connect 87 0 64 1;
#X connect 88 0 65 1;
#X connect 89 0 66 1;
#X connect 90 0 67 1;
#X connect 91 0 68 1;
#X connect 92 0 69 1;
#X connect 93 0 89 0;
#X connect 93 0 92 0;
#X connect 93 0 91 0;
#X connect 93 0 90 0;
#X connect 93 0 88 0;
#X connect 93 0 87 0;
#X connect 93 0 86 0;
#X connect 93 0 85 0;
#X connect 93 0 84 0;
#X connect 93 0 83 0;
#X connect 93 0 82 0;
#X connect 93 0 81 0;
#X connect 93 0 80 0;
#X connect 93 0 79 0;
#X connect 93 0 78 0;
#X connect 93 0 77 0;
#X connect 93 0 76 0;
#X connect 93 0 75 0;
#X connect 93 0 74 0;
#X connect 93 0 73 0;
#X connect 93 0 95 0;
#X connect 93 0 96 0;
#X connect 93 0 97 0;
#X connect 94 0 93 0;
#X connect 95 0 70 1;
#X connect 96 0 71 1;
#X connect 97 0 72 1;
#X connect 98 0 48 0;
#X connect 98 1 72 0;
#X coords 0 -1 1 1 462 22 2 388 98;
