#N canvas 200 200 1480 490 14;
#X obj 100 400 expr $f1 + $f2 + $f3 + $f4 + $f5 + $f6 + $f7 + $f8 +
$f9 + $f10 + $f11 + $f12 + $f13 + $f14 + $f15 + $f16 + $f17 + $f18
+ $f19 + $f20 + $f21 + $f22 + $f23, f 154;
#X obj 100 430 outlet;
#X obj 590 20 cnv 15 112 24 empty empty mantissa 4 12 0 18 #000000
#fcfcfc 0;
#X text 490 50 representation of a 23-bit mantissa;
#X obj 930 250 tgl 18 0 empty empty empty 17 7 0 10 #404040 #fcfcfc
#fcfcfc 0 1;
#X obj 910 250 tgl 18 0 empty empty empty 17 7 0 10 #404040 #fcfcfc
#fcfcfc 0 1;
#X obj 890 250 tgl 18 0 empty empty empty 17 7 0 10 #404040 #fcfcfc
#fcfcfc 0 1;
#X obj 870 250 tgl 18 0 empty empty empty 17 7 0 10 #404040 #fcfcfc
#fcfcfc 0 1;
#X obj 850 250 tgl 18 0 empty empty empty 17 7 0 10 #404040 #fcfcfc
#fcfcfc 0 1;
#X obj 830 250 tgl 18 0 empty empty empty 17 7 0 10 #404040 #fcfcfc
#fcfcfc 0 1;
#X obj 810 250 tgl 18 0 empty empty empty 17 7 0 10 #404040 #fcfcfc
#fcfcfc 0 1;
#X obj 790 250 tgl 18 0 empty empty empty 17 7 0 10 #404040 #fcfcfc
#fcfcfc 0 1;
#X obj 770 250 tgl 18 0 empty empty empty 17 7 0 10 #404040 #fcfcfc
#fcfcfc 0 1;
#X obj 750 250 tgl 18 0 empty empty empty 17 7 0 10 #404040 #fcfcfc
#fcfcfc 0 1;
#X obj 730 250 tgl 18 0 empty empty empty 17 7 0 10 #404040 #fcfcfc
#fcfcfc 0 1;
#X obj 710 250 tgl 18 0 empty empty empty 17 7 0 10 #404040 #fcfcfc
#fcfcfc 0 1;
#X obj 690 250 tgl 18 0 empty empty empty 17 7 0 10 #404040 #fcfcfc
#fcfcfc 0 1;
#X obj 670 250 tgl 18 0 empty empty empty 17 7 0 10 #404040 #fcfcfc
#fcfcfc 0 1;
#X obj 650 250 tgl 18 0 empty empty empty 17 7 0 10 #404040 #fcfcfc
#fcfcfc 0 1;
#X obj 630 250 tgl 18 0 empty empty empty 17 7 0 10 #404040 #fcfcfc
#fcfcfc 0 1;
#X obj 610 250 tgl 18 0 empty empty empty 17 7 0 10 #404040 #fcfcfc
#fcfcfc 0 1;
#X obj 590 250 tgl 18 0 empty empty empty 17 7 0 10 #404040 #fcfcfc
#fcfcfc 0 1;
#X obj 570 250 tgl 18 0 empty empty empty 17 7 0 10 #404040 #fcfcfc
#fcfcfc 0 1;
#X obj 550 250 tgl 18 0 empty empty empty 17 7 0 10 #404040 #fcfcfc
#fcfcfc 0 1;
#X obj 530 250 tgl 18 0 empty empty empty 17 7 0 10 #404040 #fcfcfc
#fcfcfc 0 1;
#X obj 510 250 tgl 18 0 empty empty empty 17 7 0 10 #404040 #fcfcfc
#fcfcfc 0 1;
#X obj 490 250 tgl 18 0 empty empty empty 17 7 0 10 #404040 #fcfcfc
#fcfcfc 0 1;
#X obj 1370 160 & 1;
#X obj 830 160 & 1;
#X obj 830 130 >> 9;
#X obj 890 160 & 1;
#X obj 890 130 >> 8;
#X obj 950 160 & 1;
#X obj 1010 160 & 1;
#X obj 1070 160 & 1;
#X obj 1130 160 & 1;
#X obj 1190 160 & 1;
#X obj 1250 160 & 1;
#X obj 1310 160 & 1;
#X obj 950 130 >> 7;
#X obj 1010 130 >> 6;
#X obj 1070 130 >> 5;
#X obj 1130 130 >> 4;
#X obj 1190 130 >> 3;
#X obj 1250 130 >> 2;
#X obj 1310 130 >> 1;
#X obj 770 160 & 1;
#X obj 230 160 & 1;
#X obj 290 160 & 1;
#X obj 350 160 & 1;
#X obj 410 160 & 1;
#X obj 470 160 & 1;
#X obj 530 160 & 1;
#X obj 590 160 & 1;
#X obj 650 160 & 1;
#X obj 710 160 & 1;
#X obj 770 130 >> 10;
#X obj 710 130 >> 11;
#X obj 650 130 >> 12;
#X obj 590 130 >> 13;
#X obj 530 130 >> 14;
#X obj 470 130 >> 15;
#X obj 410 130 >> 16;
#X obj 350 130 >> 17;
#X obj 290 130 >> 18;
#X obj 230 130 >> 19;
#X obj 50 190 & 1;
#X obj 110 160 & 1;
#X obj 170 160 & 1;
#X obj 170 130 >> 20;
#X obj 110 130 >> 21;
#X obj 50 130 >> 22;
#X obj 100 290 << 22;
#X obj 210 360 << 21;
#X obj 260 360 << 20;
#X obj 310 360 << 19;
#X obj 360 360 << 18;
#X obj 410 360 << 17;
#X obj 460 360 << 16;
#X obj 510 360 << 15;
#X obj 560 360 << 14;
#X obj 610 360 << 13;
#X obj 660 360 << 12;
#X obj 710 360 << 11;
#X obj 760 360 << 10;
#X obj 810 360 << 9;
#X obj 860 360 << 8;
#X obj 910 360 << 7;
#X obj 960 360 << 6;
#X obj 1010 360 << 5;
#X obj 1060 360 << 4;
#X obj 1110 360 << 3;
#X obj 1160 360 << 2;
#X obj 1210 360 << 1;
#X obj 190 290 t b f;
#X obj 240 290 t b f;
#X obj 290 290 t b f;
#X obj 340 290 t b f;
#X obj 390 290 t b f;
#X obj 440 290 t b f;
#X obj 490 290 t b f;
#X obj 540 290 t b f;
#X obj 590 290 t b f;
#X obj 640 290 t b f;
#X obj 690 290 t b f;
#X obj 740 290 t b f;
#X obj 790 290 t b f;
#X obj 840 290 t b f;
#X obj 890 290 t b f;
#X obj 940 290 t b f;
#X obj 990 290 t b f;
#X obj 1040 290 t b f;
#X obj 1090 290 t b f;
#X obj 1140 290 t b f;
#X obj 1190 290 t b f;
#X obj 1240 290 t b f;
#X obj 160 350 b;
#X obj 50 90 t f f f f f f f f f f f f f f f f f f f f f f f, f 165
;
#X obj 50 60 inlet;
#X msg 110 190 set \$1;
#X msg 170 190 set \$1;
#X msg 230 190 set \$1;
#X msg 290 190 set \$1;
#X msg 350 190 set \$1;
#X msg 410 190 set \$1;
#X msg 470 190 set \$1;
#X msg 530 190 set \$1;
#X msg 590 190 set \$1;
#X msg 650 190 set \$1;
#X msg 710 190 set \$1;
#X msg 770 190 set \$1;
#X msg 830 190 set \$1;
#X msg 890 190 set \$1;
#X msg 950 190 set \$1;
#X msg 1010 190 set \$1;
#X msg 1070 190 set \$1;
#X msg 1130 190 set \$1;
#X msg 1190 190 set \$1;
#X msg 1250 190 set \$1;
#X msg 1310 190 set \$1;
#X msg 1370 190 set \$1;
#X connect 0 0 1 0;
#X connect 4 0 115 0;
#X connect 5 0 114 0;
#X connect 6 0 113 0;
#X connect 7 0 112 0;
#X connect 8 0 111 0;
#X connect 9 0 110 0;
#X connect 10 0 109 0;
#X connect 11 0 108 0;
#X connect 12 0 107 0;
#X connect 13 0 106 0;
#X connect 14 0 105 0;
#X connect 15 0 104 0;
#X connect 16 0 103 0;
#X connect 17 0 102 0;
#X connect 18 0 101 0;
#X connect 19 0 100 0;
#X connect 20 0 99 0;
#X connect 21 0 98 0;
#X connect 22 0 97 0;
#X connect 23 0 96 0;
#X connect 24 0 95 0;
#X connect 25 0 94 0;
#X connect 26 0 72 0;
#X connect 27 0 140 0;
#X connect 27 0 0 22;
#X connect 28 0 131 0;
#X connect 28 0 85 0;
#X connect 29 0 28 0;
#X connect 30 0 132 0;
#X connect 30 0 86 0;
#X connect 31 0 30 0;
#X connect 32 0 133 0;
#X connect 32 0 87 0;
#X connect 33 0 134 0;
#X connect 33 0 88 0;
#X connect 34 0 135 0;
#X connect 34 0 89 0;
#X connect 35 0 136 0;
#X connect 35 0 90 0;
#X connect 36 0 137 0;
#X connect 36 0 91 0;
#X connect 37 0 138 0;
#X connect 37 0 92 0;
#X connect 38 0 139 0;
#X connect 38 0 93 0;
#X connect 39 0 32 0;
#X connect 40 0 33 0;
#X connect 41 0 34 0;
#X connect 42 0 35 0;
#X connect 43 0 36 0;
#X connect 44 0 37 0;
#X connect 45 0 38 0;
#X connect 46 0 130 0;
#X connect 46 0 84 0;
#X connect 47 0 121 0;
#X connect 47 0 75 0;
#X connect 48 0 122 0;
#X connect 48 0 76 0;
#X connect 49 0 123 0;
#X connect 49 0 77 0;
#X connect 50 0 124 0;
#X connect 50 0 78 0;
#X connect 51 0 125 0;
#X connect 51 0 79 0;
#X connect 52 0 126 0;
#X connect 52 0 80 0;
#X connect 53 0 127 0;
#X connect 53 0 81 0;
#X connect 54 0 128 0;
#X connect 54 0 82 0;
#X connect 55 0 129 0;
#X connect 55 0 83 0;
#X connect 56 0 46 0;
#X connect 57 0 55 0;
#X connect 58 0 54 0;
#X connect 59 0 53 0;
#X connect 60 0 52 0;
#X connect 61 0 51 0;
#X connect 62 0 50 0;
#X connect 63 0 49 0;
#X connect 64 0 48 0;
#X connect 65 0 47 0;
#X connect 66 0 26 0;
#X connect 67 0 119 0;
#X connect 67 0 73 0;
#X connect 68 0 120 0;
#X connect 68 0 74 0;
#X connect 69 0 68 0;
#X connect 70 0 67 0;
#X connect 71 0 66 0;
#X connect 72 0 0 0;
#X connect 73 0 0 1;
#X connect 74 0 0 2;
#X connect 75 0 0 3;
#X connect 76 0 0 4;
#X connect 77 0 0 5;
#X connect 78 0 0 6;
#X connect 79 0 0 7;
#X connect 80 0 0 8;
#X connect 81 0 0 9;
#X connect 82 0 0 10;
#X connect 83 0 0 11;
#X connect 84 0 0 12;
#X connect 85 0 0 13;
#X connect 86 0 0 14;
#X connect 87 0 0 15;
#X connect 88 0 0 16;
#X connect 89 0 0 17;
#X connect 90 0 0 18;
#X connect 91 0 0 19;
#X connect 92 0 0 20;
#X connect 93 0 0 21;
#X connect 94 0 116 0;
#X connect 94 1 73 0;
#X connect 95 0 116 0;
#X connect 95 1 74 0;
#X connect 96 0 116 0;
#X connect 96 1 75 0;
#X connect 97 0 116 0;
#X connect 97 1 76 0;
#X connect 98 0 116 0;
#X connect 98 1 77 0;
#X connect 99 0 116 0;
#X connect 99 1 78 0;
#X connect 100 0 116 0;
#X connect 100 1 79 0;
#X connect 101 0 116 0;
#X connect 101 1 80 0;
#X connect 102 0 116 0;
#X connect 102 1 81 0;
#X connect 103 0 116 0;
#X connect 103 1 82 0;
#X connect 104 0 116 0;
#X connect 104 1 83 0;
#X connect 105 0 116 0;
#X connect 105 1 84 0;
#X connect 106 0 116 0;
#X connect 106 1 85 0;
#X connect 107 0 116 0;
#X connect 107 1 86 0;
#X connect 108 0 116 0;
#X connect 108 1 87 0;
#X connect 109 0 116 0;
#X connect 109 1 88 0;
#X connect 110 0 116 0;
#X connect 110 1 89 0;
#X connect 111 0 116 0;
#X connect 111 1 90 0;
#X connect 112 0 116 0;
#X connect 112 1 91 0;
#X connect 113 0 116 0;
#X connect 113 1 92 0;
#X connect 114 0 116 0;
#X connect 114 1 93 0;
#X connect 115 0 116 0;
#X connect 115 1 0 22;
#X connect 116 0 0 0;
#X connect 117 0 71 0;
#X connect 117 1 70 0;
#X connect 117 2 69 0;
#X connect 117 3 65 0;
#X connect 117 4 64 0;
#X connect 117 5 63 0;
#X connect 117 6 62 0;
#X connect 117 7 61 0;
#X connect 117 8 60 0;
#X connect 117 9 59 0;
#X connect 117 10 58 0;
#X connect 117 11 57 0;
#X connect 117 12 56 0;
#X connect 117 13 29 0;
#X connect 117 14 31 0;
#X connect 117 15 39 0;
#X connect 117 16 40 0;
#X connect 117 17 41 0;
#X connect 117 18 42 0;
#X connect 117 19 43 0;
#X connect 117 20 44 0;
#X connect 117 21 45 0;
#X connect 117 22 27 0;
#X connect 118 0 117 0;
#X connect 119 0 25 0;
#X connect 120 0 24 0;
#X connect 121 0 23 0;
#X connect 122 0 22 0;
#X connect 123 0 21 0;
#X connect 124 0 20 0;
#X connect 125 0 19 0;
#X connect 126 0 18 0;
#X connect 127 0 17 0;
#X connect 128 0 16 0;
#X connect 129 0 15 0;
#X connect 130 0 14 0;
#X connect 131 0 13 0;
#X connect 132 0 12 0;
#X connect 133 0 11 0;
#X connect 134 0 10 0;
#X connect 135 0 9 0;
#X connect 136 0 8 0;
#X connect 137 0 7 0;
#X connect 138 0 6 0;
#X connect 139 0 5 0;
#X connect 140 0 4 0;
#X coords 0 -1 1 1 462 22 2 488 248;
