#N canvas 400 200 700 360 16;
#X declare -lib blunt;
#X obj 70 300 outlet;
#X obj 290 30 cnv 15 126 27 empty empty mant-calc 0 12 0 24 #535512 #fcfcfc 0;
#X text 260 60 mantissa calculator;
#X obj 30 140 b;
#X obj 70 220 expr $f1 + $f2 + $f3 + $f4 + $f5 + $f6 + $f7 + $f8 + $f9 + $f10 + $f11 + $f12 + $f13 + $f14 + $f15 + $f16 + $f17 + $f18 + $f19 + $f20 + $f21 + $f22 + $f23, f 55;
#X obj 50 100 bitgl 1;
#X obj 75 100 bitgl 2;
#X obj 100 100 bitgl 3;
#X obj 125 100 bitgl 4;
#X obj 150 100 bitgl 5;
#X obj 175 100 bitgl 6;
#X obj 200 100 bitgl 7;
#X obj 225 100 bitgl 8;
#X obj 250 100 bitgl 9;
#X obj 275 100 bitgl 10;
#X obj 300 100 bitgl 11;
#X obj 325 100 bitgl 12;
#X obj 350 100 bitgl 13;
#X obj 375 100 bitgl 14;
#X obj 400 100 bitgl 15;
#X obj 425 100 bitgl 16;
#X obj 450 100 bitgl 17;
#X obj 475 100 bitgl 18;
#X obj 500 100 bitgl 19;
#X obj 525 100 bitgl 20;
#X obj 550 100 bitgl 21;
#X obj 575 100 bitgl 22;
#X obj 600 100 bitgl 23;
#X obj 70 150 @/ 1;
#X obj 90 180 @/ 1;
#X obj 120 150 @/ 1;
#X obj 140 180 @/ 1;
#X obj 170 150 @/ 1;
#X obj 190 180 @/ 1;
#X obj 220 150 @/ 1;
#X obj 240 180 @/ 1;
#X obj 270 150 @/ 1;
#X obj 290 180 @/ 1;
#X obj 320 150 @/ 1;
#X obj 340 180 @/ 1;
#X obj 370 150 @/ 1;
#X obj 390 180 @/ 1;
#X obj 420 150 @/ 1;
#X obj 440 180 @/ 1;
#X obj 470 150 @/ 1;
#X obj 490 180 @/ 1;
#X obj 520 150 @/ 1;
#X obj 540 180 @/ 1;
#X obj 570 150 @/ 1;
#X obj 590 180 @/ 1;
#X obj 620 150 @/ 1;
#X obj 440 300 declare -lib blunt;
#X connect 3 0 4 0;
#X connect 4 0 0 0;
#X connect 5 1 28 0;
#X connect 6 0 3 0;
#X connect 6 1 29 0;
#X connect 7 0 3 0;
#X connect 7 1 30 0;
#X connect 8 0 3 0;
#X connect 8 1 31 0;
#X connect 9 0 3 0;
#X connect 9 1 32 0;
#X connect 10 0 3 0;
#X connect 10 1 33 0;
#X connect 11 0 3 0;
#X connect 11 1 34 0;
#X connect 12 0 3 0;
#X connect 12 1 35 0;
#X connect 13 0 3 0;
#X connect 13 1 36 0;
#X connect 14 0 3 0;
#X connect 14 1 37 0;
#X connect 15 0 3 0;
#X connect 15 1 38 0;
#X connect 16 0 3 0;
#X connect 16 1 39 0;
#X connect 17 0 3 0;
#X connect 17 1 40 0;
#X connect 18 0 3 0;
#X connect 18 1 41 0;
#X connect 19 0 3 0;
#X connect 19 1 42 0;
#X connect 20 0 3 0;
#X connect 20 1 43 0;
#X connect 21 0 3 0;
#X connect 21 1 44 0;
#X connect 22 0 3 0;
#X connect 22 1 45 0;
#X connect 23 0 3 0;
#X connect 23 1 46 0;
#X connect 24 0 3 0;
#X connect 24 1 47 0;
#X connect 25 0 3 0;
#X connect 25 1 48 0;
#X connect 26 0 3 0;
#X connect 26 1 49 0;
#X connect 27 0 3 0;
#X connect 27 1 50 0;
#X connect 28 0 4 0;
#X connect 29 0 4 1;
#X connect 30 0 4 2;
#X connect 31 0 4 3;
#X connect 32 0 4 4;
#X connect 33 0 4 5;
#X connect 34 0 4 6;
#X connect 35 0 4 7;
#X connect 36 0 4 8;
#X connect 37 0 4 9;
#X connect 38 0 4 10;
#X connect 39 0 4 11;
#X connect 40 0 4 12;
#X connect 41 0 4 13;
#X connect 42 0 4 14;
#X connect 43 0 4 15;
#X connect 44 0 4 16;
#X connect 45 0 4 17;
#X connect 46 0 4 18;
#X connect 47 0 4 19;
#X connect 48 0 4 20;
#X connect 49 0 4 21;
#X connect 50 0 4 22;
#X coords 0 -1 1 1 574 24 2 50 100;
