#N canvas 400 200 360 330 16;
#X obj 160 20 cnv 15 42 27 empty empty pan 0 12 0 24 #535512 #fcfcfc 0;
#X text 70 50 constant power panning;
#X obj 80 80 inlet;
#X obj 80 110 clip -1 1;
#X obj 80 260 cos;
#X obj 160 260 sin;
#X obj 80 290 outlet;
#X obj 160 290 outlet;
#X obj 80 230 t f f;
#X obj 190 200 * 2;
#X obj 80 200 *;
#X msg 190 140 1;
#X obj 190 170 atan;
#X obj 190 110 loadbang;
#X obj 80 140 * 0.5;
#X obj 80 170 + 0.5;
#X connect 2 0 3 0;
#X connect 3 0 14 0;
#X connect 4 0 6 0;
#X connect 5 0 7 0;
#X connect 8 0 4 0;
#X connect 8 1 5 0;
#X connect 9 0 10 1;
#X connect 10 0 8 0;
#X connect 11 0 12 0;
#X connect 12 0 9 0;
#X connect 13 0 11 0;
#X connect 14 0 15 0;
#X connect 15 0 10 0;
