#N canvas 400 200 370 290 14;
#X declare -lib cyclone;
#X obj 70 100 inlet~;
#X obj 170 100 inlet;
#X obj 70 130 phasor~ \$2;
#X obj 170 130 zp~ 5 0.5;
#X obj 260 100 sel;
#X msg 260 130 now \$1;
#X obj 70 170 >~;
#X obj 70 230 outlet~;
#X obj 80 30 cnv 15 86 24 empty empty pulse~ 4 12 0 18 #000000 #fcfcfc
0;
#X obj 70 200 -~ 0.5;
#X obj 160 230 declare -lib cyclone;
#X obj 260 70 f \$1;
#X obj 230 40 loadbang;
#X connect 0 0 2 0;
#X connect 1 0 3 0;
#X connect 2 0 6 0;
#X connect 3 0 6 1;
#X connect 4 1 5 0;
#X connect 5 0 3 1;
#X connect 6 0 9 0;
#X connect 9 0 7 0;
#X connect 11 0 4 0;
#X connect 12 0 11 0;
