#N canvas 400 200 370 310 16;
#X declare -lib cyclone;
#X obj 40 100 inlet~;
#X obj 130 70 inlet;
#X obj 130 130 zp~ 5 0.5;
#X obj 240 100 sel;
#X msg 240 130 now \$1;
#X obj 40 160 >~;
#X obj 40 250 outlet~;
#X obj 160 190 cnv 15 84 27 empty empty pulse~ 0 12 0 24 #535512 #fcfcfc 0;
#X obj 40 190 -~ 0.5;
#X obj 130 250 declare -lib cyclone;
#X obj 140 30 loadbang;
#X obj 140 100 inlet;
#X obj 40 130 phasor~;
#X obj 40 70 \$2;
#X obj 240 70 \$1;
#X obj 40 220 *~ 2;
#X connect 0 0 12 0;
#X connect 1 0 2 0;
#X connect 2 0 5 1;
#X connect 3 1 4 0;
#X connect 4 0 2 0;
#X connect 5 0 8 0;
#X connect 8 0 15 0;
#X connect 10 0 13 0;
#X connect 10 0 14 0;
#X connect 11 0 12 1;
#X connect 12 0 5 0;
#X connect 13 0 0 0;
#X connect 14 0 3 0;
#X connect 15 0 6 0;
