#N canvas 400 200 390 340 16;
#X obj 180 130 inlet;
#X obj 250 80 inlet reset;
#X obj 140 100 loadbang;
#X obj 140 270 ad 1.5 15;
#X obj 70 210 noise~;
#X obj 70 270 *~;
#X obj 70 300 outlet~;
#X obj 80 20 cnv 15 60 24 empty empty tick 4 12 0 18 #000000 #fcfcfc 0;
#X text 40 50 ticking metronome;
#X obj 140 170 tgl 15 0 empty empty empty 1 7 0 10 #0e4345 #fcfcfc #fcfcfc 0 1;
#X floatatom 160 170 6 0 0 0 - - - 0;
#X obj 140 210 metro;
#X obj 140 130 \$1;
#X obj 250 300 outlet;
#X obj 30 100 inlet;
#X obj 290 180 outlet;
#X obj 30 130 route bang;
#X msg 30 160 1;
#X msg 250 110 0;
#X obj 220 240 timer;
#X obj 290 140 + 1;
#X obj 250 270 /;
#X obj 250 140 f;
#X obj 230 180 t f f;
#X obj 220 210 sel;
#X obj 260 210 b, f 1;
#X connect 0 0 10 0;
#X connect 1 0 18 0;
#X connect 2 0 12 0;
#X connect 3 0 5 1;
#X connect 4 0 5 0;
#X connect 5 0 6 0;
#X connect 9 0 11 0;
#X connect 10 0 11 1;
#X connect 11 0 3 0;
#X connect 11 0 22 0;
#X connect 12 0 10 0;
#X connect 14 0 16 0;
#X connect 16 0 17 0;
#X connect 16 1 9 0;
#X connect 17 0 9 0;
#X connect 18 0 22 1;
#X connect 19 0 21 0;
#X connect 20 0 22 1;
#X connect 21 0 13 0;
#X connect 22 0 20 0;
#X connect 22 0 23 0;
#X connect 22 0 15 0;
#X connect 23 0 24 0;
#X connect 23 1 21 1;
#X connect 24 0 19 0;
#X connect 24 1 25 0;
#X connect 25 0 19 1;
#X coords 0 -1 1 1 90 30 2 135 165;
