#N canvas 400 200 400 380 16;
#X obj 180 120 inlet;
#X obj 250 90 inlet reset;
#X obj 140 90 loadbang;
#X obj 130 280 ad~ 1.5 15;
#X obj 60 240 noise~;
#X obj 90 280 *~;
#X obj 90 310 outlet~;
#X obj 170 20 cnv 15 56 27 empty empty tick 0 12 0 24 #535512 #fcfcfc 0;
#X text 110 50 ticking metronome;
#X obj 130 160 tgl 24 0 empty empty empty 0 -12 0 16 #0e4345 #fcfcfc #fcfcfc 0 1;
#X floatatom 160 160 6 0 0 0 - - - 0;
#X obj 140 120 \$1;
#X obj 270 340 outlet;
#X obj 30 90 inlet;
#X obj 310 190 outlet;
#X obj 30 120 route bang;
#X msg 30 150 1;
#X msg 250 120 0;
#X obj 240 250 timer;
#X obj 290 150 + 1;
#X obj 270 280 /;
#X obj 250 150 f;
#X obj 250 190 t f f;
#X obj 240 220 sel;
#X obj 280 220 b, f 1;
#X obj 130 240 metro~;
#X obj 130 190 *~;
#X msg 170 190 0;
#X obj 270 310 @/ 60000;
#X connect 0 0 10 0;
#X connect 1 0 17 0;
#X connect 2 0 11 0;
#X connect 3 0 5 1;
#X connect 4 0 5 0;
#X connect 5 0 6 0;
#X connect 9 0 26 0;
#X connect 9 0 27 0;
#X connect 10 0 26 1;
#X connect 11 0 10 0;
#X connect 13 0 15 0;
#X connect 15 0 16 0;
#X connect 15 1 9 0;
#X connect 16 0 9 0;
#X connect 17 0 21 1;
#X connect 18 0 20 0;
#X connect 19 0 21 1;
#X connect 20 0 28 0;
#X connect 21 0 19 0;
#X connect 21 0 22 0;
#X connect 21 0 14 0;
#X connect 22 0 23 0;
#X connect 22 1 20 1;
#X connect 23 0 18 0;
#X connect 23 1 24 0;
#X connect 24 0 18 1;
#X connect 25 0 3 0;
#X connect 25 0 21 0;
#X connect 26 0 25 0;
#X connect 27 0 25 1;
#X connect 28 0 12 0;
#X coords 0 -1 1 1 100 30 2 125 155;
