#N canvas 400 200 390 400 16;
#X obj 180 130 inlet;
#X obj 240 130 inlet reset;
#X obj 140 100 loadbang;
#X obj 150 270 ad 1.5 15;
#X obj 80 240 noise~;
#X obj 80 270 *~;
#X obj 80 330 outlet~;
#X obj 160 30 cnv 15 60 24 empty empty tick 4 12 0 18 #000000 #fcfcfc 0;
#X text 120 60 ticking metronome;
#X obj 140 170 tgl 15 0 empty empty empty 1 7 0 10 #0e4345 #fcfcfc #fcfcfc 0 1;
#X floatatom 160 170 6 0 0 0 - - - 0;
#X obj 80 300 *~;
#X obj 140 200 hsl 68 20 0.001 1 1 0 empty empty empty -2 -8 0 10 #2f004d #fcfcfc #fcfcfc 0 1;
#N canvas 970 490 450 300 vol 0;
#X obj 160 190 zp~ 15;
#X msg 160 120 0;
#X obj 160 60 inlet;
#X obj 160 220 outlet~;
#X obj 160 150 f;
#X obj 160 90 moses 0.00101;
#X connect 0 0 3 0;
#X connect 1 0 4 0;
#X connect 2 0 5 0;
#X connect 4 0 0 0;
#X connect 5 0 1 0;
#X connect 5 1 4 0;
#X restore 140 300 pd vol;
#X obj 150 240 metro;
#X obj 140 130 \$1;
#X obj 200 330 outlet;
#X obj 220 240 f;
#X obj 250 270 avg;
#X obj 40 100 inlet;
#X obj 270 330 outlet;
#X obj 40 130 route bang;
#X msg 40 160 1;
#X connect 0 0 10 0;
#X connect 1 0 18 1;
#X connect 2 0 15 0;
#X connect 3 0 5 1;
#X connect 4 0 5 0;
#X connect 5 0 11 0;
#X connect 9 0 14 0;
#X connect 10 0 14 1;
#X connect 10 0 17 1;
#X connect 11 0 6 0;
#X connect 12 0 13 0;
#X connect 13 0 11 1;
#X connect 14 0 3 0;
#X connect 14 0 17 0;
#X connect 15 0 10 0;
#X connect 17 0 18 0;
#X connect 18 0 16 0;
#X connect 18 1 20 0;
#X connect 19 0 21 0;
#X connect 21 0 22 0;
#X connect 21 1 9 0;
#X connect 22 0 9 0;
#X coords 0 -1 1 1 90 60 2 135 165;
