#N canvas 400 200 390 400 14;
#X obj 160 130 inlet;
#X obj 270 240 inlet;
#X obj 210 100 loadbang;
#X obj 150 270 ad 2 10;
#X obj 80 240 noise~;
#X obj 80 270 *~;
#X obj 80 330 outlet~;
#X obj 170 20 cnv 15 60 24 empty empty tick 4 12 0 18 #000000 #fcfcfc
0;
#X text 130 50 ticking metronome;
#X obj 140 170 tgl 15 0 empty empty empty 1 7 0 10 #0e4345 #fcfcfc
#fcfcfc 0 1;
#X floatatom 160 170 6 0 0 0 - - - 0;
#X obj 80 300 *~;
#X obj 143 200 hsl 65 20 0.001 1 1 0 empty empty empty -2 -8 0 10 #2f004d
#fcfcfc #fcfcfc 0 1;
#N canvas 970 490 450 300 vol 0;
#X obj 160 190 zp~ 15;
#X msg 160 120 0;
#X obj 160 60 inlet;
#X obj 160 220 outlet~;
#X obj 160 150 f;
#X obj 160 90 moses 0.00101;
#X connect 0 0 3 0;
#X connect 1 0 4 0;
#X connect 2 0 5 0;
#X connect 4 0 0 0;
#X connect 5 0 1 0;
#X connect 5 1 4 0;
#X restore 140 300 pd vol;
#X obj 150 240 metro;
#X obj 210 130 \$1;
#X obj 230 300 outlet;
#N canvas 970 490 380 300 avg 0;
#X obj 110 60 inlet;
#X obj 190 60 inlet;
#X obj 110 90 t f b;
#X obj 190 130 f;
#X obj 230 130 + 1;
#X msg 190 90 0;
#X obj 160 170 /;
#X obj 110 130 +;
#X obj 150 130 f;
#X obj 160 200 outlet;
#X connect 0 0 2 0;
#X connect 1 0 5 0;
#X connect 2 0 7 0;
#X connect 2 1 3 0;
#X connect 3 0 4 0;
#X connect 3 0 6 1;
#X connect 4 0 3 1;
#X connect 5 0 3 0;
#X connect 5 0 7 1;
#X connect 5 0 8 1;
#X connect 6 0 9 0;
#X connect 7 0 8 0;
#X connect 8 0 7 1;
#X connect 8 0 6 0;
#X restore 230 270 pd avg;
#X obj 230 240 f;
#X connect 0 0 10 0;
#X connect 1 0 17 1;
#X connect 2 0 15 0;
#X connect 3 0 5 1;
#X connect 4 0 5 0;
#X connect 5 0 11 0;
#X connect 9 0 14 0;
#X connect 10 0 14 1;
#X connect 10 0 18 1;
#X connect 11 0 6 0;
#X connect 12 0 13 0;
#X connect 13 0 11 1;
#X connect 14 0 3 0;
#X connect 14 0 18 0;
#X connect 15 0 10 0;
#X connect 17 0 16 0;
#X connect 18 0 17 0;
#X coords 0 -1 1 1 80 60 2 135 165;
