#N canvas 400 200 370 280 16;
#X obj 40 190 +~ 1;
#X obj 40 100 inlet~ rate;
#X obj 160 100 inlet~ depth;
#X obj 40 160 *~;
#X obj 40 130 osc~;
#X obj 40 220 outlet~;
#X obj 100 30 loadbang;
#X obj 40 70 \$1;
#X obj 160 70 \$2;
#X obj 170 130 inlet phase;
#X obj 170 180 cnv 15 60 24 empty empty vib~ 4 12 0 18 #000000 #fcfcfc
0;
#X text 130 210 vibrato multiplier;
#X connect 0 0 5 0;
#X connect 1 0 4 0;
#X connect 2 0 3 1;
#X connect 3 0 0 0;
#X connect 4 0 3 0;
#X connect 6 0 7 0;
#X connect 6 0 8 0;
#X connect 7 0 1 0;
#X connect 8 0 2 0;
#X connect 9 0 4 1;
