#N canvas 400 200 360 320 16;
#X obj 60 240 +~ 1;
#X obj 60 150 inlet~ rate;
#X obj 180 150 inlet~ depth;
#X obj 60 210 *~;
#X obj 60 180 osc~;
#X obj 60 270 outlet~;
#X obj 120 80 loadbang;
#X obj 60 120 \$1;
#X obj 180 120 \$2;
#X obj 190 180 inlet phase;
#X obj 150 20 cnv 15 56 27 empty empty vib~ 0 12 0 24 #535512 #fcfcfc 0;
#X text 90 50 vibrato multiplier;
#X connect 0 0 5 0;
#X connect 1 0 4 0;
#X connect 2 0 3 1;
#X connect 3 0 0 0;
#X connect 4 0 3 0;
#X connect 6 0 7 0;
#X connect 6 0 8 0;
#X connect 7 0 1 0;
#X connect 8 0 2 0;
#X connect 9 0 4 1;
