#N canvas 400 200 360 250 16;
#X obj 90 100 inlet;
#X obj 160 100 inlet;
#X obj 220 100 inlet;
#X obj 90 130 pack 0 \$1;
#X obj 90 160 line \$2 \$3;
#X obj 90 190 outlet;
#X text 40 60 ramp between value changes;
#X obj 160 30 cnv 15 28 27 empty empty zp 0 12 0 24 #535512 #fcfcfc 0;
#X connect 0 0 3 0;
#X connect 1 0 3 1;
#X connect 2 0 4 2;
#X connect 3 0 4 0;
#X connect 4 0 5 0;
