#N canvas 400 200 420 290 16;
#X obj 140 90 inlet;
#X obj 260 90 inlet;
#X obj 140 120 route now;
#X obj 170 160 pack 0 \$1;
#X obj 60 230 sel;
#X obj 170 200 line~;
#X obj 170 230 outlet~;
#X text 30 60 ramp between value changes (signal);
#X obj 190 30 cnv 15 42 27 empty empty zp~ 0 12 0 24 #7c7c7c #fcfcfc 0;
#X obj 60 200 \$2;
#X obj 60 160 loadbang;
#X connect 0 0 2 0;
#X connect 1 0 3 1;
#X connect 2 0 5 0;
#X connect 2 1 3 0;
#X connect 3 0 5 0;
#X connect 4 1 5 0;
#X connect 5 0 6 0;
#X connect 9 0 4 0;
#X connect 10 0 9 0;
