#N canvas 719 355 477 300 12;
#X text 175 91 inverts the bits;
#X obj 189 121 !~, f 2;
#X text 221 120 or;
#X obj 257 121 ~, f 1;
#X floatatom 26 124 0 0 0 0 - - -;
#X obj 36 154 mantissa;
#X obj 26 183 ~, f 1;
#X floatatom 26 207 0 0 0 0 - - -;
#X obj 36 237 mantissa;
#X text 176 71 bitwise negation;
#X obj 216 52 cnv 6 1 1 empty empty !~ 6 0 0 14 -233017 -66577 0;
#X connect 4 0 5 0;
#X connect 4 0 6 0;
#X connect 6 0 7 0;
#X connect 7 0 8 0;
