#N canvas 719 355 450 300 12;
#X text 219 35 XOR;
#X text 164 55 bitwise exclusive OR;
#X obj 186 85 ^;
#X text 219 84 and;
#X obj 254 85 #^;
#X text 279 84 (hot binop);
#X floatatom 23 88 0 0 0 0 - - -;
#X obj 33 118 mantissa;
#X obj 23 147 #^ 63;
#X floatatom 66 147 0 0 0 0 - - -;
#X floatatom 23 171 0 0 0 0 - - -;
#X obj 33 201 mantissa;
#X connect 6 0 7 0;
#X connect 6 0 8 0;
#X connect 8 0 10 0;
#X connect 9 0 8 1;
#X connect 10 0 11 0;
