#N canvas 686 498 469 315 14;
#X obj 90 46 inlet;
#X obj 100 114 \$1;
#X obj 141 46 inlet;
#X obj 146 114 \$2;
#X obj 192 46 inlet;
#X msg 100 181 1 \$1;
#X obj 146 151 pipe;
#X msg 146 181 0 \$1;
#X obj 119 224 line;
#X obj 119 250 outlet;
#X obj 312 46 cnv 15 28 22 empty empty ad 2 10 0 16 -228856 -66577
0;
#X text 278 70 attack-decay;
#X obj 90 72 t;
#X connect 0 0 12 0;
#X connect 1 0 5 0;
#X connect 1 0 6 1;
#X connect 2 0 1 1;
#X connect 3 0 6 0;
#X connect 4 0 3 1;
#X connect 5 0 8 0;
#X connect 6 0 7 0;
#X connect 7 0 8 0;
#X connect 8 0 9 0;
#X connect 12 0 3 0;
#X connect 12 1 1 0;
