#N canvas 719 355 450 300 12;
#X obj 180 36 inlet;
#X obj 180 62 t b b;
#X obj 197 94 \$1;
#X obj 231 62 inlet;
#X obj 232 94 \$2;
#X obj 282 62 inlet;
#X msg 186 154 1 \$1;
#X obj 232 131 pipe;
#X msg 232 154 0 \$1;
#X obj 205 204 line;
#X obj 205 230 outlet;
#X connect 0 0 1 0;
#X connect 1 0 4 0;
#X connect 1 1 2 0;
#X connect 2 0 6 0;
#X connect 2 0 7 1;
#X connect 3 0 2 1;
#X connect 4 0 7 0;
#X connect 5 0 4 1;
#X connect 6 0 9 0;
#X connect 7 0 8 0;
#X connect 8 0 9 0;
#X connect 9 0 10 0;
