#N canvas 719 355 450 300 12;
#X obj 90 66 inlet;
#X obj 90 92 t b b;
#X obj 107 124 \$1;
#X obj 141 92 inlet;
#X obj 142 124 \$2;
#X obj 192 92 inlet;
#X msg 96 184 1 \$1;
#X obj 142 161 pipe;
#X msg 142 184 0 \$1;
#X obj 115 234 line;
#X obj 115 260 outlet;
#X obj 312 66 cnv 6 1 1 empty empty ad 6 0 0 14 -233017 -66577 0;
#X text 288 80 attack-decay;
#X connect 0 0 1 0;
#X connect 1 0 4 0;
#X connect 1 1 2 0;
#X connect 2 0 6 0;
#X connect 2 0 7 1;
#X connect 3 0 2 1;
#X connect 4 0 7 0;
#X connect 5 0 4 1;
#X connect 6 0 9 0;
#X connect 7 0 8 0;
#X connect 8 0 9 0;
#X connect 9 0 10 0;
