#N canvas 400 200 750 520 14;
#X obj 40 40 inlet peak;
#X obj 490 40 inlet attack;
#X obj 520 70 inlet decay;
#X obj 550 100 inlet sustain;
#X obj 590 130 inlet release;
#X obj 40 70 route float bang a d #s s r z;
#X obj 290 70 unpak f f f f;
#X obj 260 160 t f;
#X obj 360 160 t f;
#X obj 460 160 t f;
#X obj 560 160 t f;
#X obj 60 100 1;
#X obj 60 130 sel;
#X obj 80 210 moses;
#X obj 80 240 * -1;
#X msg 80 310 0;
#X obj 130 210 sel;
#X msg 240 280 \$1;
#X obj 150 370 pack 0 10;
#X obj 90 270 pipe 10;
#X obj 130 310 t b f;
#X obj 240 370 pack 0 \$1;
#X obj 180 210 del \$1;
#X obj 330 300 f \$3;
#X obj 330 370 *;
#X obj 330 400 pack 0 \$2;
#X msg 180 180 stop;
#X obj 60 370 pack 0 \$4;
#X obj 240 430 vline~;
#X obj 240 460 outlet~;
#X text 290 50 list/anything;
#X text 250 200 on attack \, set a;
#X text 250 220 delay for sustain;
#X text 380 300 recall sustain value;
#X text 400 370 multiply by peak level;
#X text 420 400 pack with decay time;
#X obj 570 230 cnv 15 60 24 empty empty adsr 4 12 0 18 #000000 #fcfcfc
0;
#X obj 110 180 f \$5;
#X obj 110 130 loadbang;
#X connect 0 0 5 0;
#X connect 1 0 7 0;
#X connect 2 0 8 0;
#X connect 3 0 9 0;
#X connect 4 0 10 0;
#X connect 5 0 11 0;
#X connect 5 1 11 0;
#X connect 5 2 7 0;
#X connect 5 3 8 0;
#X connect 5 4 23 0;
#X connect 5 5 9 0;
#X connect 5 6 10 0;
#X connect 5 7 17 0;
#X connect 5 8 6 0;
#X connect 6 0 7 0;
#X connect 6 1 8 0;
#X connect 6 2 9 0;
#X connect 6 3 10 0;
#X connect 7 0 22 1;
#X connect 7 0 21 1;
#X connect 8 0 25 1;
#X connect 9 0 23 1;
#X connect 10 0 27 1;
#X connect 11 0 12 0;
#X connect 12 0 26 0;
#X connect 12 0 27 0;
#X connect 12 1 13 0;
#X connect 13 0 14 0;
#X connect 13 1 20 0;
#X connect 14 0 15 0;
#X connect 14 0 19 0;
#X connect 15 0 18 0;
#X connect 16 1 17 0;
#X connect 17 0 19 1;
#X connect 17 0 18 1;
#X connect 18 0 28 0;
#X connect 19 0 20 0;
#X connect 20 0 22 0;
#X connect 20 1 21 0;
#X connect 20 1 24 1;
#X connect 21 0 28 0;
#X connect 22 0 23 0;
#X connect 23 0 24 0;
#X connect 24 0 25 0;
#X connect 25 0 28 0;
#X connect 26 0 22 0;
#X connect 27 0 28 0;
#X connect 28 0 29 0;
#X connect 37 0 16 0;
#X connect 38 0 37 0;
