#N canvas 650 200 751 661 14;
#X obj 260 600 outlet~;
#X obj 260 570 line~;
#X obj 340 530 pack 0 \$2;
#X obj 260 530 pack 0 \$1;
#X obj 170 530 pack 0 10;
#X obj 80 530 pack 0 \$4;
#X obj 340 500 *;
#X obj 460 460 * 0.01;
#X obj 460 420 f \$3;
#X obj 460 380 del \$1;
#X obj 160 310 t b f;
#X obj 150 170 moses;
#X obj 140 200 * -1;
#X msg 190 230 \$1;
#X obj 80 130 sel;
#X msg 240 380 \$1;
#X msg 160 360 0;
#X obj 100 460 pipe 10;
#X obj 100 270 t f b;
#X msg 90 200 stop;
#X obj 420 270 sel;
#X obj 420 230 `f \$5!;
#X obj 590 190 route float;
#X obj 490 190 route float;
#X obj 390 190 route float;
#X obj 290 190 route float;
#X obj 620 100 inlet;
#X obj 550 100 inlet;
#X obj 490 100 inlet;
#X obj 430 100 inlet;
#X obj 300 100 unpak 1 2 3 4;
#X obj 80 100 route float a d #s s r z;
#X obj 80 70 inlet;
#X text 430 530 pack with decay time;
#X text 380 500 multiply by peak level;
#X text 510 460 convert from percent;
#X text 510 420 recall sustain value;
#X text 510 390 delay for sustain;
#X text 510 370 on attack \, set a;
#X text 620 80 release;
#X text 550 80 sustain;
#X text 490 80 decay;
#X text 430 80 attack;
#X text 300 80 list/anything;
#X text 80 50 volume;
#X obj 310 40 cnv 15 52 22 empty empty adsr 2 10 0 16 -1 -262144 0
;
#X connect 1 0 0 0;
#X connect 2 0 1 0;
#X connect 3 0 1 0;
#X connect 4 0 1 0;
#X connect 5 0 1 0;
#X connect 6 0 2 0;
#X connect 7 0 6 0;
#X connect 8 0 7 0;
#X connect 9 0 8 0;
#X connect 10 0 9 0;
#X connect 10 1 3 0;
#X connect 11 0 12 0;
#X connect 11 1 10 0;
#X connect 11 1 13 0;
#X connect 12 0 18 0;
#X connect 12 0 13 0;
#X connect 13 0 6 1;
#X connect 14 0 19 0;
#X connect 14 0 5 0;
#X connect 14 1 11 0;
#X connect 15 0 17 1;
#X connect 15 0 4 1;
#X connect 16 0 4 0;
#X connect 17 0 10 0;
#X connect 18 0 17 0;
#X connect 18 1 16 0;
#X connect 19 0 9 0;
#X connect 20 1 15 0;
#X connect 21 0 20 0;
#X connect 22 0 5 1;
#X connect 23 0 8 1;
#X connect 24 0 2 1;
#X connect 25 0 9 1;
#X connect 25 0 3 1;
#X connect 26 0 22 0;
#X connect 27 0 23 0;
#X connect 28 0 24 0;
#X connect 29 0 25 0;
#X connect 30 0 25 0;
#X connect 30 1 24 0;
#X connect 30 2 23 0;
#X connect 30 3 22 0;
#X connect 31 0 14 0;
#X connect 31 1 25 0;
#X connect 31 2 24 0;
#X connect 31 3 8 0;
#X connect 31 4 23 0;
#X connect 31 5 22 0;
#X connect 31 6 15 0;
#X connect 31 7 30 0;
#X connect 32 0 31 0;
