#N canvas 189 351 757 665 14;
#X obj 103 86 inlet;
#X text 424 92 attack;
#X obj 427 114 inlet;
#X text 478 91 decay;
#X obj 479 114 inlet;
#X text 528 92 sustain;
#X obj 533 114 inlet;
#X text 590 92 release;
#X obj 593 113 inlet;
#X obj 103 114 route float a d #s s r z;
#X obj 288 204 route float;
#X obj 385 204 route float;
#X obj 482 204 route float;
#X obj 580 204 route float;
#X text 308 91 list/anything;
#X obj 308 114 unpak 1 2 3 4;
#X text 103 184 trigger;
#X obj 84 206 sel;
#X obj 177 292 moses;
#X msg 224 361 \$1;
#X obj 407 512 *;
#X obj 407 541 pack 0 \$2;
#X obj 281 366 t b f;
#X obj 318 512 pack 0 \$1;
#X obj 205 256 del \$1;
#X obj 344 303 f \$3;
#X obj 344 328 * 0.01;
#X msg 263 424 \$1;
#X obj 177 319 * -1;
#X obj 157 361 t f b;
#X msg 222 424 0;
#X obj 229 512 pack 0 10;
#X obj 138 459 pipe 10;
#X obj 109 319 loadbang;
#X obj 109 348 \$5;
#X obj 109 377 sel;
#X msg 156 241 stop;
#X obj 103 544 pack 0 \$4;
#X obj 229 583 line~;
#X obj 229 611 outlet~;
#X text 99 66 volume;
#X obj 342 49 cnv 15 52 22 empty empty adsr 2 10 0 16 -1 -262144 0
;
#X connect 0 0 9 0;
#X connect 2 0 10 0;
#X connect 4 0 11 0;
#X connect 6 0 12 0;
#X connect 8 0 13 0;
#X connect 9 0 17 0;
#X connect 9 1 10 0;
#X connect 9 2 11 0;
#X connect 9 3 25 0;
#X connect 9 4 12 0;
#X connect 9 5 13 0;
#X connect 9 6 27 0;
#X connect 9 7 15 0;
#X connect 10 0 24 1;
#X connect 10 0 23 1;
#X connect 11 0 21 1;
#X connect 12 0 25 1;
#X connect 13 0 37 1;
#X connect 15 0 10 0;
#X connect 15 1 11 0;
#X connect 15 2 12 0;
#X connect 15 3 13 0;
#X connect 17 0 36 0;
#X connect 17 0 37 0;
#X connect 17 1 18 0;
#X connect 18 0 28 0;
#X connect 18 1 22 0;
#X connect 18 1 19 0;
#X connect 19 0 20 1;
#X connect 20 0 21 0;
#X connect 21 0 38 0;
#X connect 22 0 24 0;
#X connect 22 1 23 0;
#X connect 23 0 38 0;
#X connect 24 0 25 0;
#X connect 25 0 26 0;
#X connect 26 0 20 0;
#X connect 27 0 31 1;
#X connect 27 0 32 1;
#X connect 28 0 29 0;
#X connect 28 0 19 0;
#X connect 29 0 32 0;
#X connect 29 1 30 0;
#X connect 30 0 31 0;
#X connect 31 0 38 0;
#X connect 32 0 22 0;
#X connect 33 0 34 0;
#X connect 34 0 35 0;
#X connect 35 1 27 0;
#X connect 36 0 24 0;
#X connect 37 0 38 0;
#X connect 38 0 39 0;
