#N canvas 719 344 450 317 12;
#X obj 144 19 inlet;
#X obj 144 45 route z;
#X obj 144 71 t b f;
#X obj 144 106 del;
#X msg 84 106 0 \$1;
#X obj 144 137 t b b;
#X obj 190 106 b, f 1;
#X obj 176 169 \$2;
#X obj 233 137 inlet;
#X obj 144 169 \$1;
#X obj 189 137 inlet;
#X obj 144 194 pack;
#X msg 144 220 1 \$1 \, 0 \$2 \$1;
#X obj 133 251 vline~;
#X obj 133 277 outlet~;
#X text 46 45 trigger delay;
#X obj 305 67 cnv 6 1 1 empty empty ad~ 6 0 0 14 -233017 -66577 0;
#X text 257 81 attack-decay (signal);
#X connect 0 0 1 0;
#X connect 1 0 2 0;
#X connect 1 1 6 0;
#X connect 2 0 3 0;
#X connect 2 1 3 1;
#X connect 2 1 4 0;
#X connect 3 0 5 0;
#X connect 4 0 13 0;
#X connect 5 0 9 0;
#X connect 5 1 7 0;
#X connect 6 0 5 0;
#X connect 7 0 11 1;
#X connect 8 0 7 1;
#X connect 9 0 11 0;
#X connect 10 0 9 1;
#X connect 11 0 12 0;
#X connect 12 0 13 0;
#X connect 13 0 14 0;
