#N canvas 698 347 450 356 14;
#X obj 144 29 inlet;
#X obj 144 55 route z;
#X obj 144 81 t b f;
#X obj 144 116 del;
#X msg 84 116 0 \$1;
#X obj 197 116 b, f 1;
#X obj 176 179 \$2;
#X obj 246 147 inlet;
#X obj 144 179 \$1;
#X obj 192 147 inlet;
#X obj 144 214 pack;
#X msg 144 243 1 \$1 \, 0 \$2 \$1;
#X obj 133 271 vline~;
#X obj 133 297 outlet~;
#X text 26 55 trigger delay;
#X obj 305 67 cnv 15 40 22 empty empty ad~ 2 10 0 16 -1 -262144 0;
#X text 237 91 attack-decay (signal);
#X obj 144 147 t;
#X connect 0 0 1 0;
#X connect 1 0 2 0;
#X connect 1 1 5 0;
#X connect 2 0 3 0;
#X connect 2 1 3 1;
#X connect 2 1 4 0;
#X connect 3 0 17 0;
#X connect 4 0 12 0;
#X connect 5 0 17 0;
#X connect 6 0 10 1;
#X connect 7 0 6 1;
#X connect 8 0 10 0;
#X connect 9 0 8 1;
#X connect 10 0 11 0;
#X connect 11 0 12 0;
#X connect 12 0 13 0;
#X connect 17 0 8 0;
#X connect 17 1 6 0;
