#N canvas 719 355 450 300 10;
#X obj 201 33 inlet;
#X obj 201 56 route bang z;
#X obj 201 139 t b b;
#X obj 215 166 \$1;
#X obj 244 139 inlet;
#X obj 244 166 \$2;
#X obj 288 139 inlet;
#X obj 217 188 pack;
#X msg 217 210 1 \$1 \, 0 \$2 \$1;
#X obj 210 237 vline~;
#X obj 235 82 t b f;
#X obj 235 112 del;
#X msg 143 115 0 \$1;
#X obj 210 259 outlet~;
#X connect 0 0 1 0;
#X connect 1 0 2 0;
#X connect 1 1 10 0;
#X connect 2 0 3 0;
#X connect 2 1 5 0;
#X connect 3 0 7 0;
#X connect 4 0 3 1;
#X connect 5 0 7 1;
#X connect 6 0 5 1;
#X connect 7 0 8 0;
#X connect 8 0 9 0;
#X connect 9 0 13 0;
#X connect 10 0 11 0;
#X connect 10 1 11 1;
#X connect 10 1 12 0;
#X connect 11 0 2 0;
#X connect 12 0 9 0;
