#N canvas 719 355 450 300 12;
#X obj 204 14 inlet;
#X obj 204 40 route z;
#X obj 204 66 t b f;
#X obj 204 101 del;
#X msg 144 101 0 \$1;
#X obj 204 132 t b b;
#X obj 250 101 b, f 1;
#X obj 236 164 \$2;
#X obj 293 132 inlet;
#X obj 204 164 \$1;
#X obj 249 132 inlet;
#X obj 204 189 pack;
#X msg 204 215 1 \$1 \, 0 \$2 \$1;
#X obj 193 246 vline~;
#X obj 193 272 outlet~;
#X connect 0 0 1 0;
#X connect 1 0 2 0;
#X connect 1 1 6 0;
#X connect 2 0 3 0;
#X connect 2 1 3 1;
#X connect 2 1 4 0;
#X connect 3 0 5 0;
#X connect 4 0 13 0;
#X connect 5 0 9 0;
#X connect 5 1 7 0;
#X connect 6 0 5 0;
#X connect 7 0 11 1;
#X connect 8 0 7 1;
#X connect 9 0 11 0;
#X connect 10 0 9 1;
#X connect 11 0 12 0;
#X connect 12 0 13 0;
#X connect 13 0 14 0;
