#N canvas 719 354 450 300 12;
#X obj 55 107 inlet;
#X obj 55 135 f;
#X obj 117 243 outlet;
#X obj 91 135 + 1;
#X obj 91 163 % \$1;
#X obj 132 107 inlet;
#X obj 55 243 outlet;
#X obj 132 189 - 1;
#X obj 55 217 sel;
#X obj 132 135 route float;
#X obj 132 163 f;
#X obj 170 163 b, f 2;
#X obj 168 49 cnv 6 1 1 empty empty before-trigger 6 0 0 14 -233017
-66577 0;
#X text 146 68 send bang just before reaching count;
#X connect 0 0 1 0;
#X connect 1 0 2 0;
#X connect 1 0 3 0;
#X connect 1 0 8 0;
#X connect 3 0 4 0;
#X connect 4 0 1 1;
#X connect 5 0 9 0;
#X connect 7 0 8 1;
#X connect 8 0 6 0;
#X connect 9 0 10 0;
#X connect 9 1 11 0;
#X connect 10 0 4 1;
#X connect 10 0 7 0;
#X connect 11 0 10 0;
#X coords 0 300 1 299 85 60 0;
