#N canvas 669 249 664 594 12;
#X obj 150 241 cupqb;
#X obj 232 536 dac~;
#X obj 482 500 * 100;
#X floatatom 482 469 0 0 0 0 - - -;
#X obj 482 527 s dcay;
#X floatatom 429 469 0 0 0 0 - - -;
#X obj 429 527 s atak;
#N canvas 1253 247 513 409 chords 0;
#X msg 199 47 x 40;
#X msg 187 71 x 38;
#X msg 194 123 x 33;
#X msg 115 48 d 19 22 29;
#X obj 133 194 outlet;
#X msg 189 97 x 36;
#X msg 225 153 41 22 26 29 33;
#X msg 45 124 x \$1;
#X obj 45 78 cupqb;
#X obj 318 33 cupqb;
#X obj 273 89 pack;
#X obj 274 33 cupqb;
#X msg 228 211 d r 3 f s 8 10;
#X msg 228 187 65 2 4 5 7 9 11;
#X msg 115 247 n 5;
#X msg 150 247 n 6;
#X msg 39 195 x d+3;
#X msg 40 227 x d-3;
#X msg 230 271 d r m- f s l- t-;
#X msg 230 242 d r m+ f s l+ t+;
#X msg 362 141 d d+ m+ s+ t+;
#X msg 364 166 d d- m- s- t-;
#X msg 378 192 d 4 7;
#X msg 378 215 d m- s;
#X msg 378 238 d m s+;
#X msg 378 261 d m+ s+;
#X msg 378 285 d m+ s;
#X msg 378 308 d m s-;
#X msg 436 261 d m- s-;
#X msg 378 332 l d+ m- s-;
#X msg 378 355 l d- m+ s+;
#X msg 22 319 d 24 25 26 27 28 29 30 31 32 33 34 35;
#X msg 248 116 @ \$2 \$1;
#X connect 0 0 4 0;
#X connect 1 0 4 0;
#X connect 2 0 4 0;
#X connect 3 0 4 0;
#X connect 5 0 4 0;
#X connect 6 0 4 0;
#X connect 7 0 4 0;
#X connect 8 0 7 0;
#X connect 9 0 10 0;
#X connect 10 0 32 0;
#X connect 11 0 10 1;
#X connect 12 0 4 0;
#X connect 13 0 4 0;
#X connect 14 0 4 0;
#X connect 15 0 4 0;
#X connect 16 0 4 0;
#X connect 17 0 4 0;
#X connect 18 0 4 0;
#X connect 19 0 4 0;
#X connect 20 0 4 0;
#X connect 21 0 4 0;
#X connect 22 0 4 0;
#X connect 23 0 4 0;
#X connect 24 0 4 0;
#X connect 25 0 4 0;
#X connect 26 0 4 0;
#X connect 27 0 4 0;
#X connect 28 0 4 0;
#X connect 29 0 4 0;
#X connect 30 0 4 0;
#X connect 31 0 4 0;
#X connect 32 0 4 0;
#X restore 99 198 pd chords;
#X floatatom 532 493 0 0 0 0 - - -;
#X obj 532 527 s pmnto;
#X obj 75 250 bng 15 250 50 0 empty empty empty 17 7 0 10 -262144 -1
-1;
#X obj 236 495 *~;
#X msg 256 319 1;
#X msg 298 318 2;
#X msg 340 318 3;
#X msg 383 319 4;
#X obj 259 212 unpack 5 4 3 2 1;
#X obj 99 224 t b a;
#X obj 383 295 t b f;
#X obj 340 295 t b f;
#X obj 298 295 t b f;
#X obj 256 295 t b f;
#X obj 214 295 t b f;
#X msg 209 212 n 5;
#X obj 244 178 t a b;
#X obj 196 413 bng 15 250 50 0 empty empty empty 17 7 0 10 -262144
-1 -1;
#X obj 217 413 bng 15 250 50 0 empty empty empty 17 7 0 10 -262144
-1 -1;
#X obj 238 413 bng 15 250 50 0 empty empty empty 17 7 0 10 -262144
-1 -1;
#X obj 259 413 bng 15 250 50 0 empty empty empty 17 7 0 10 -262144
-1 -1;
#X obj 280 413 bng 15 250 50 0 empty empty empty 17 7 0 10 -262144
-1 -1;
#X obj 301 413 bng 15 250 50 0 empty empty empty 17 7 0 10 -262144
-1 -1;
#X obj 590 527 s z;
#X obj 428 429 unpack 1 2 3 4;
#X floatatom 590 490 0 0 0 0 - - -;
#X obj 429 500 * 10;
#X msg 427 342 5;
#X obj 427 318 t b a;
#X obj 77 400 cupqb;
#X msg 77 443 n \$1;
#X text 79 138 use all outlets;
#X text 105 153 on bang;
#X obj 53 138 tgl 15 0 empty empty empty 17 7 0 10 -262144 -1 -1 0
1;
#X msg 53 160 all \$1;
#X obj 52 300 tgl 15 0 empty empty empty 17 7 0 10 -262144 -1 -1 0
1;
#X msg 52 322 exp \$1;
#X msg 428 404 6 60 50 25;
#N canvas 210 451 513 323 instruments 0;
#N canvas 839 405 450 323 inst 0;
#X obj 221 267 *~;
#X obj 248 216 ad~ 1;
#X obj 140 98 inlet;
#X obj 221 299 outlet~;
#X obj 349 175 r dcay;
#X obj 299 175 r atak;
#X obj 142 179 zp~;
#X obj 175 140 r pmnto;
#X msg 257 175 z \$1;
#X obj 232 71 r z;
#X obj 291 125 f;
#X obj 272 125 b, f 1;
#X obj 140 140 pipe;
#X obj 142 211 phasor~;
#X obj 142 237 >~ 0.5;
#X connect 0 0 3 0;
#X connect 1 0 0 1;
#X connect 2 0 11 0;
#X connect 2 0 12 0;
#X connect 4 0 1 2;
#X connect 5 0 1 1;
#X connect 6 0 13 0;
#X connect 7 0 6 1;
#X connect 8 0 1 0;
#X connect 9 0 10 1;
#X connect 9 0 12 1;
#X connect 10 0 8 0;
#X connect 11 0 10 0;
#X connect 12 0 6 0;
#X connect 13 0 14 0;
#X connect 14 0 0 0;
#X restore 50 71 pd inst;
#N canvas 801 405 450 323 inst 0;
#X obj 221 267 *~;
#X obj 248 216 ad~ 1;
#X obj 140 98 inlet;
#X obj 221 299 outlet~;
#X obj 349 175 r dcay;
#X obj 299 175 r atak;
#X obj 142 179 zp~;
#X obj 175 140 r pmnto;
#X msg 257 175 z \$1;
#X obj 231 76 r z;
#X obj 291 125 f;
#X obj 272 125 b, f 1;
#X obj 140 140 pipe;
#X obj 142 211 phasor~;
#X connect 0 0 3 0;
#X connect 1 0 0 1;
#X connect 2 0 11 0;
#X connect 2 0 12 0;
#X connect 4 0 1 2;
#X connect 5 0 1 1;
#X connect 6 0 13 0;
#X connect 7 0 6 1;
#X connect 8 0 1 0;
#X connect 9 0 10 1;
#X connect 9 0 12 1;
#X connect 10 0 8 0;
#X connect 11 0 10 0;
#X connect 12 0 6 0;
#X connect 13 0 0 0;
#X restore 120 71 pd inst;
#N canvas 801 405 450 323 inst 0;
#X obj 221 267 *~;
#X obj 248 216 ad~ 1;
#X obj 140 98 inlet;
#X obj 221 299 outlet~;
#X obj 349 175 r dcay;
#X obj 299 175 r atak;
#X obj 142 179 zp~;
#X obj 175 140 r pmnto;
#X msg 257 175 z \$1;
#X obj 231 76 r z;
#X obj 291 125 f;
#X obj 272 125 b, f 1;
#X obj 140 140 pipe;
#X obj 142 211 phasor~;
#X connect 0 0 3 0;
#X connect 1 0 0 1;
#X connect 2 0 11 0;
#X connect 2 0 12 0;
#X connect 4 0 1 2;
#X connect 5 0 1 1;
#X connect 6 0 13 0;
#X connect 7 0 6 1;
#X connect 8 0 1 0;
#X connect 9 0 10 1;
#X connect 9 0 12 1;
#X connect 10 0 8 0;
#X connect 11 0 10 0;
#X connect 12 0 6 0;
#X connect 13 0 0 0;
#X restore 190 71 pd inst;
#N canvas 801 405 450 323 inst 0;
#X obj 221 267 *~;
#X obj 248 216 ad~ 1;
#X obj 140 98 inlet;
#X obj 221 299 outlet~;
#X obj 349 175 r dcay;
#X obj 299 175 r atak;
#X obj 142 179 zp~;
#X obj 175 140 r pmnto;
#X msg 257 175 z \$1;
#X obj 231 76 r z;
#X obj 291 125 f;
#X obj 272 125 b, f 1;
#X obj 140 140 pipe;
#X obj 142 211 phasor~;
#X connect 0 0 3 0;
#X connect 1 0 0 1;
#X connect 2 0 11 0;
#X connect 2 0 12 0;
#X connect 4 0 1 2;
#X connect 5 0 1 1;
#X connect 6 0 13 0;
#X connect 7 0 6 1;
#X connect 8 0 1 0;
#X connect 9 0 10 1;
#X connect 9 0 12 1;
#X connect 10 0 8 0;
#X connect 11 0 10 0;
#X connect 12 0 6 0;
#X connect 13 0 0 0;
#X restore 260 71 pd inst;
#N canvas 801 405 450 323 inst 0;
#X obj 221 267 *~;
#X obj 248 216 ad~ 1;
#X obj 140 98 inlet;
#X obj 221 299 outlet~;
#X obj 349 175 r dcay;
#X obj 299 175 r atak;
#X obj 142 179 zp~;
#X obj 175 140 r pmnto;
#X msg 257 175 z \$1;
#X obj 231 76 r z;
#X obj 291 125 f;
#X obj 272 125 b, f 1;
#X obj 140 140 pipe;
#X obj 142 211 phasor~;
#X connect 0 0 3 0;
#X connect 1 0 0 1;
#X connect 2 0 11 0;
#X connect 2 0 12 0;
#X connect 4 0 1 2;
#X connect 5 0 1 1;
#X connect 6 0 13 0;
#X connect 7 0 6 1;
#X connect 8 0 1 0;
#X connect 9 0 10 1;
#X connect 9 0 12 1;
#X connect 10 0 8 0;
#X connect 11 0 10 0;
#X connect 12 0 6 0;
#X connect 13 0 0 0;
#X restore 330 71 pd inst;
#N canvas 801 405 450 323 inst 0;
#X obj 221 267 *~;
#X obj 248 216 ad~ 1;
#X obj 140 98 inlet;
#X obj 221 299 outlet~;
#X obj 349 175 r dcay;
#X obj 299 175 r atak;
#X obj 142 179 zp~;
#X obj 175 140 r pmnto;
#X msg 257 175 z \$1;
#X obj 231 76 r z;
#X obj 291 125 f;
#X obj 272 125 b, f 1;
#X obj 140 140 pipe;
#X obj 142 211 phasor~;
#X connect 0 0 3 0;
#X connect 1 0 0 1;
#X connect 2 0 11 0;
#X connect 2 0 12 0;
#X connect 4 0 1 2;
#X connect 5 0 1 1;
#X connect 6 0 13 0;
#X connect 7 0 6 1;
#X connect 8 0 1 0;
#X connect 9 0 10 1;
#X connect 9 0 12 1;
#X connect 10 0 8 0;
#X connect 11 0 10 0;
#X connect 12 0 6 0;
#X connect 13 0 0 0;
#X restore 400 71 pd inst;
#X obj 50 24 inlet;
#X obj 120 24 inlet;
#X obj 190 24 inlet;
#X obj 260 24 inlet;
#X obj 330 24 inlet;
#X obj 400 24 inlet;
#X obj 208 262 *~ 0.1667;
#X obj 208 287 outlet~;
#X obj 86 118 vsl 15 128 0 1 0 0 empty empty empty 0 -9 0 10 -262144
-1 -1 0 1;
#X obj 50 118 *~ 1;
#X obj 120 118 *~ 1;
#X obj 190 118 *~ 1;
#X obj 260 118 *~ 1;
#X obj 330 118 *~ 1;
#X obj 400 118 *~ 1;
#X obj 156 118 vsl 15 128 0 1 0 0 empty empty empty 0 -9 0 10 -262144
-1 -1 0 1;
#X obj 226 118 vsl 15 128 0 1 0 0 empty empty empty 0 -9 0 10 -262144
-1 -1 0 1;
#X obj 296 118 vsl 15 128 0 1 0 0 empty empty empty 0 -9 0 10 -262144
-1 -1 0 1;
#X obj 366 118 vsl 15 128 0 1 0 0 empty empty empty 0 -9 0 10 -262144
-1 -1 0 1;
#X obj 436 118 vsl 15 128 0 1 0 0 empty empty empty 0 -9 0 10 -262144
-1 -1 0 1;
#X obj 345 96 hsl 128 15 0 1 0 0 empty empty empty -2 -8 0 10 -262144
-1 -1 0 1;
#X floatatom 57 47 0 0 0 0 - - -;
#X floatatom 127 47 0 0 0 0 - - -;
#X floatatom 197 47 0 0 0 0 - - -;
#X floatatom 267 47 0 0 0 0 - - -;
#X floatatom 337 47 0 0 0 0 - - -;
#X floatatom 407 47 0 0 0 0 - - -;
#X connect 0 0 15 0;
#X connect 1 0 16 0;
#X connect 2 0 17 0;
#X connect 3 0 18 0;
#X connect 4 0 19 0;
#X connect 5 0 20 0;
#X connect 6 0 0 0;
#X connect 6 0 27 0;
#X connect 7 0 1 0;
#X connect 7 0 28 0;
#X connect 8 0 2 0;
#X connect 8 0 29 0;
#X connect 9 0 3 0;
#X connect 9 0 30 0;
#X connect 10 0 4 0;
#X connect 10 0 31 0;
#X connect 11 0 5 0;
#X connect 11 0 32 0;
#X connect 12 0 13 0;
#X connect 14 0 15 1;
#X connect 15 0 12 0;
#X connect 16 0 12 0;
#X connect 17 0 12 0;
#X connect 18 0 12 0;
#X connect 19 0 12 0;
#X connect 20 0 12 0;
#X connect 21 0 16 1;
#X connect 22 0 17 1;
#X connect 23 0 18 1;
#X connect 24 0 19 1;
#X connect 25 0 20 1;
#X connect 26 0 24 0;
#X connect 26 0 25 0;
#X connect 26 0 23 0;
#X connect 26 0 22 0;
#X connect 26 0 21 0;
#X connect 26 0 14 0;
#X restore 216 450 pd instruments;
#X msg 427 295 @ 5 \$1;
#X obj 428 379 loadbang;
#X obj 330 418 vsl 15 128 0.001 1 1 0 empty empty empty 0 -9 0 10 -262144
-1 -1 0 1;
#X obj 256 253 cupqb 16;
#X obj 298 253 cupqb 19;
#X obj 340 253 cupqb 23;
#X obj 383 253 cupqb 26;
#X obj 176 384 chrd 40 16 19 23 26 24;
#X obj 214 253 cupqb 40;
#X msg 245 125 33 29 26 22 42;
#X msg 199 125 ot 12;
#X msg 251 148 44 39 35 29 33;
#X msg 204 148 ot 16;
#X msg 56 362 peek;
#X text 126 82 A derivative of [muse] that uses multiple outlets to
allow for chords and harmonization;
#X obj 291 65 cnv 6 1 1 empty empty chrd 6 0 0 14 -233017 -66577 0
;
#X msg 207 319 0;
#X obj 427 253 cupqb 24;
#X connect 0 0 54 0;
#X connect 2 0 4 0;
#X connect 3 0 2 0;
#X connect 5 0 34 0;
#X connect 7 0 17 0;
#X connect 8 0 9 0;
#X connect 10 0 54 0;
#X connect 11 0 1 0;
#X connect 11 0 1 1;
#X connect 12 0 54 0;
#X connect 13 0 54 0;
#X connect 14 0 54 0;
#X connect 15 0 54 0;
#X connect 16 0 53 1;
#X connect 16 1 52 1;
#X connect 16 2 51 1;
#X connect 16 3 50 1;
#X connect 16 4 55 1;
#X connect 17 0 54 0;
#X connect 17 1 54 0;
#X connect 18 0 15 0;
#X connect 18 1 54 5;
#X connect 19 0 14 0;
#X connect 19 1 54 4;
#X connect 20 0 13 0;
#X connect 20 1 54 3;
#X connect 21 0 12 0;
#X connect 21 1 54 2;
#X connect 22 0 63 0;
#X connect 22 1 54 1;
#X connect 23 0 54 0;
#X connect 24 0 16 0;
#X connect 24 1 23 0;
#X connect 32 0 5 0;
#X connect 32 1 3 0;
#X connect 32 2 8 0;
#X connect 32 3 33 0;
#X connect 33 0 31 0;
#X connect 34 0 6 0;
#X connect 35 0 54 0;
#X connect 36 0 35 0;
#X connect 36 1 54 0;
#X connect 37 0 38 0;
#X connect 38 0 54 0;
#X connect 41 0 42 0;
#X connect 42 0 54 0;
#X connect 43 0 44 0;
#X connect 44 0 54 0;
#X connect 45 0 32 0;
#X connect 46 0 11 0;
#X connect 47 0 36 0;
#X connect 48 0 45 0;
#X connect 49 0 11 1;
#X connect 50 0 21 0;
#X connect 51 0 20 0;
#X connect 52 0 19 0;
#X connect 53 0 18 0;
#X connect 54 0 25 0;
#X connect 54 0 46 0;
#X connect 54 1 26 0;
#X connect 54 1 46 1;
#X connect 54 2 27 0;
#X connect 54 2 46 2;
#X connect 54 3 28 0;
#X connect 54 3 46 3;
#X connect 54 4 29 0;
#X connect 54 4 46 4;
#X connect 54 5 30 0;
#X connect 54 5 46 5;
#X connect 55 0 22 0;
#X connect 56 0 24 0;
#X connect 57 0 54 0;
#X connect 58 0 24 0;
#X connect 59 0 54 0;
#X connect 60 0 54 0;
#X connect 63 0 54 0;
#X connect 64 0 47 0;
