#N canvas 719 355 450 300 14;
#X obj 77 85 inlet;
#X obj 77 113 f;
#X obj 162 241 outlet;
#X obj 122 113 + 1;
#X obj 122 141 % \$1;
#X obj 154 113 inlet;
#X obj 77 215 sel \$2;
#X obj 169 182 inlet;
#X obj 77 241 outlet;
#X obj 171 52 cnv 15 160 22 empty empty count-trigger 2 10 0 16 -1
-262144 0;
#X text 168 78 send bang after reaching count;
#X connect 0 0 1 0;
#X connect 1 0 2 0;
#X connect 1 0 3 0;
#X connect 1 0 6 0;
#X connect 3 0 4 0;
#X connect 4 0 1 1;
#X connect 5 0 4 1;
#X connect 6 0 8 0;
#X connect 7 0 6 1;
