#N canvas 400 200 380 300 14;
#X obj 130 100 inlet;
#X obj 190 100 inlet;
#X obj 190 130 route float on;
#X obj 130 130 `% \$1;
#X obj 70 160 + 1;
#X msg 70 200 f1 \$1;
#X obj 130 200 sel \$2;
#X obj 130 230 outlet;
#X obj 200 200 outlet;
#X text 50 60 send a bang on each zero remainder;
#X obj 100 30 cnv 15 178 24 empty empty count-trigger 4 12 0 18 #000000
#fcfcfc 0;
#X connect 0 0 3 0;
#X connect 1 0 2 0;
#X connect 2 0 3 1;
#X connect 2 1 6 1;
#X connect 3 0 4 0;
#X connect 3 0 8 0;
#X connect 3 0 6 0;
#X connect 4 0 5 0;
#X connect 5 0 3 0;
#X connect 6 0 7 0;
