#N canvas 719 355 450 300 12;
#X obj 77 85 inlet;
#X obj 77 113 f;
#X obj 139 241 outlet;
#X obj 122 113 + 1;
#X obj 122 141 % \$1;
#X obj 154 113 inlet;
#X obj 77 215 sel \$2;
#X obj 169 182 inlet;
#X obj 77 241 outlet;
#X obj 201 57 cnv 6 1 1 empty empty count-trigger 6 0 0 14 -233017
-66577 0;
#X text 198 78 send bang after reaching count;
#X connect 0 0 1 0;
#X connect 1 0 2 0;
#X connect 1 0 3 0;
#X connect 1 0 6 0;
#X connect 3 0 4 0;
#X connect 4 0 1 1;
#X connect 5 0 4 1;
#X connect 6 0 8 0;
#X connect 7 0 6 1;
