#N canvas 719 355 450 300 12;
#X text 201 246 cup-qube;
#X obj 171 26 inlet;
#X obj 142 207 - 1;
#X obj 286 207 + 1;
#X obj 210 223 inlet;
#X floatatom 210 122 5 0 0 0 - - -, f 5;
#X obj 210 141 bng 18 250 50 0 empty empty empty 17 7 0 10 -243850
-75900 -1;
#X obj 229 141 bng 18 250 50 0 empty empty empty 17 7 0 10 -243850
-75900 -1;
#X obj 210 182 outlet;
#X obj 342 181 loadbang;
#X obj 342 203 \$2;
#X obj 342 225 sel;
#X obj 142 182 \$1;
#X obj 286 182 \$1;
#X obj 171 51 route - + set;
#X msg 262 84 set \$1;
#X connect 1 0 14 0;
#X connect 2 0 5 0;
#X connect 3 0 5 0;
#X connect 4 0 2 1;
#X connect 4 0 3 1;
#X connect 5 0 8 0;
#X connect 5 0 12 1;
#X connect 5 0 13 1;
#X connect 6 0 12 0;
#X connect 7 0 13 0;
#X connect 9 0 10 0;
#X connect 10 0 11 0;
#X connect 11 1 3 1;
#X connect 11 1 2 1;
#X connect 12 0 2 0;
#X connect 13 0 3 0;
#X connect 14 0 12 0;
#X connect 14 1 13 0;
#X connect 14 2 15 0;
#X connect 14 2 13 1;
#X connect 14 2 12 1;
#X connect 14 3 5 0;
#X connect 15 0 5 0;
#X coords 0 -1 1 1 37 37 2 210 122;
