#N canvas 420 367 467 357 14;
#X obj 192 88 inlet;
#X obj 336 88 inlet;
#X obj 212 171 * -1;
#X obj 275 145 inlet;
#X obj 279 290 outlet;
#X obj 222 215 + \$1;
#X obj 212 145 1;
#X obj 346 171 1;
#X obj 290 58 loadbang;
#X obj 290 83 \$2;
#X obj 290 108 sel;
#X obj 279 253 \$1;
#X obj 259 171 route set;
#X obj 336 113 route set;
#X obj 192 113 route set;
#X obj 106 31 cnv 15 52 22 empty empty cupq 2 10 0 16 -1 -262144 0
;
#X text 20 58 forward/backward incrementer;
#X connect 0 0 14 0;
#X connect 1 0 13 0;
#X connect 2 0 5 0;
#X connect 3 0 12 0;
#X connect 5 0 11 0;
#X connect 6 0 2 0;
#X connect 7 0 5 0;
#X connect 8 0 9 0;
#X connect 9 0 10 0;
#X connect 10 1 7 1;
#X connect 10 1 6 1;
#X connect 11 0 5 1;
#X connect 11 0 4 0;
#X connect 12 0 11 1;
#X connect 12 0 5 1;
#X connect 12 1 11 0;
#X connect 13 0 7 1;
#X connect 13 1 7 0;
#X connect 14 0 6 1;
#X connect 14 1 6 0;
