#N canvas 719 355 450 300 10;
#X text 219 78 cup_qake;
#X obj 169 102 inlet;
#X obj 169 143 f;
#X obj 169 163 - 1;
#X obj 279 102 inlet;
#X obj 279 143 f;
#X obj 279 163 + 1;
#X obj 225 102 inlet;
#X obj 229 153 f;
#X obj 229 193 outlet;
#X connect 1 0 2 0;
#X connect 2 0 3 0;
#X connect 3 0 8 0;
#X connect 4 0 5 0;
#X connect 5 0 6 0;
#X connect 6 0 8 0;
#X connect 7 0 2 1;
#X connect 7 0 5 1;
#X connect 8 0 2 1;
#X connect 8 0 5 1;
#X connect 8 0 9 0;
