#N canvas 403 277 500 400 14;
#X obj 200 190 inlet;
#X obj 320 170 inlet;
#X obj 180 290 * -1;
#X obj 250 20 inlet;
#X obj 380 320 outlet;
#X obj 300 320 + \$1;
#X obj 180 260 1;
#X obj 300 240 1;
#X obj 30 30 loadbang;
#X obj 30 180 \$2;
#X obj 30 210 sel;
#X floatatom 200 123 5 0 0 0 - #0tonbx #0frnbx;
#X obj 201 144 bng 20 250 50 0 \$0-sdummy \$0-rdummy empty 17 7 0 10
-243850 -75900 -1;
#X obj 221 144 bng 20 250 50 0 \$0-sdummy \$0-rdummy empty 17 7 0 10
-243850 -75900 -1;
#X obj 70 100 \$1;
#X obj 70 130 sel;
#X msg 90 170 set \$1;
#X obj 200 220 route set;
#X obj 320 200 route set;
#X obj 316 99 cnv 15 64 22 empty empty cupqb 2 10 0 16 -1 -262144 0
;
#X obj 40 240 s \$0itr;
#X obj 220 260 r \$0itr;
#X obj 340 240 r \$0itr;
#X obj 120 120 s \$0itr;
#X obj 300 350 s \$0tonbx;
#X obj 280 60 s \$0tonbx;
#X obj 380 290 r \$0frnbx;
#X obj 90 200 s \$0tonbx;
#X obj 120 90 s \$0set;
#X obj 310 290 r \$0set;
#X text 275 123 number box with cup;
#X obj 120 60 route set step - +;
#X connect 0 0 17 0;
#X connect 1 0 18 0;
#X connect 2 0 5 0;
#X connect 3 0 31 0;
#X connect 5 0 24 0;
#X connect 6 0 2 0;
#X connect 7 0 5 0;
#X connect 8 0 9 0;
#X connect 8 0 14 0;
#X connect 9 0 10 0;
#X connect 10 1 20 0;
#X connect 12 0 6 0;
#X connect 13 0 7 0;
#X connect 14 0 15 0;
#X connect 15 1 16 0;
#X connect 16 0 27 0;
#X connect 17 0 6 1;
#X connect 17 1 6 0;
#X connect 18 0 7 1;
#X connect 18 1 7 0;
#X connect 21 0 6 1;
#X connect 22 0 7 1;
#X connect 26 0 5 1;
#X connect 26 0 4 0;
#X connect 29 0 5 1;
#X connect 31 0 16 0;
#X connect 31 0 28 0;
#X connect 31 1 23 0;
#X connect 31 2 6 0;
#X connect 31 3 7 0;
#X connect 31 4 25 0;
#X coords 0 -1 1 1 42 47 2 200 120;
