#N canvas 431 425 450 300 12;
#X text 205 61 cup_qake;
#X obj 115 59 inlet;
#X obj 275 59 inlet;
#X obj 212 89 inlet;
#X obj 217 148 f;
#X obj 217 195 outlet;
#X obj 145 137 \$1;
#X obj 275 137 \$1;
#X obj 332 142 loadbang;
#X obj 332 167 \$2;
#X obj 332 192 sel;
#X obj 275 160 + 1;
#X obj 145 160 - 1;
#X obj 115 84 route bang;
#X obj 275 84 route bang;
#X connect 1 0 13 0;
#X connect 2 0 14 0;
#X connect 3 0 11 1;
#X connect 3 0 12 1;
#X connect 4 0 5 0;
#X connect 4 0 6 1;
#X connect 4 0 7 1;
#X connect 6 0 12 0;
#X connect 7 0 11 0;
#X connect 8 0 9 0;
#X connect 9 0 10 0;
#X connect 10 1 11 1;
#X connect 10 1 12 1;
#X connect 11 0 4 0;
#X connect 12 0 4 0;
#X connect 13 0 6 0;
#X connect 13 1 6 1;
#X connect 13 1 7 1;
#X connect 14 0 7 0;
#X connect 14 1 7 1;
#X connect 14 1 6 1;
