#N canvas 420 360 351 361 14;
#X obj 60 100 inlet;
#X obj 220 100 inlet;
#X obj 130 190 inlet;
#X obj 60 140 route set;
#X obj 220 140 route set;
#X obj 130 220 route set;
#X obj 150 100 `f \$2!;
#X obj 150 140 sel;
#X obj 220 220 1;
#X obj 80 190 1;
#X obj 80 220 * -1;
#X obj 100 280 + \$1;
#X obj 200 280 \$1;
#X obj 200 310 outlet;
#X text 60 60 forward/backward incrementer;
#X obj 150 30 cnv 15 60 24 empty empty cupq 4 12 0 18 -1 -262144 0
;
#X connect 0 0 3 0;
#X connect 1 0 4 0;
#X connect 2 0 5 0;
#X connect 3 0 9 1;
#X connect 3 1 9 0;
#X connect 4 0 8 1;
#X connect 4 1 8 0;
#X connect 5 0 12 1;
#X connect 5 0 11 1;
#X connect 5 1 12 0;
#X connect 6 0 7 0;
#X connect 7 1 8 1;
#X connect 7 1 9 1;
#X connect 8 0 11 0;
#X connect 9 0 10 0;
#X connect 10 0 11 0;
#X connect 11 0 12 0;
#X connect 12 0 11 1;
#X connect 12 0 13 0;
