#N canvas 719 355 450 300 12;
#X text 201 236 cup-qube;
#X obj 201 46 inlet;
#X obj 201 71 route - +;
#X obj 142 172 f;
#X obj 142 197 - 1;
#X obj 286 172 f;
#X obj 286 197 + 1;
#X obj 210 213 inlet;
#X floatatom 210 112 5 0 0 0 - - -;
#X obj 210 131 bng 18 250 50 0 empty empty empty 17 7 0 10 -243850
-75900 -1;
#X obj 229 131 bng 18 250 50 0 empty empty empty 17 7 0 10 -243850
-75900 -1;
#X obj 210 172 outlet;
#X connect 1 0 2 0;
#X connect 2 0 3 0;
#X connect 2 1 5 0;
#X connect 2 2 8 0;
#X connect 3 0 4 0;
#X connect 4 0 8 0;
#X connect 5 0 6 0;
#X connect 6 0 8 0;
#X connect 7 0 4 1;
#X connect 7 0 6 1;
#X connect 8 0 3 1;
#X connect 8 0 5 1;
#X connect 8 0 11 0;
#X connect 9 0 3 0;
#X connect 10 0 5 0;
#X coords 0 -1 1 1 37 37 2 210 112;
