#N canvas 719 355 450 300 10;
#X obj 252 172 outlet;
#X obj 199 172 f;
#X obj 172 172 f;
#X obj 172 192 - 1;
#X obj 226 172 f;
#X obj 226 192 + 1;
#X obj 214 213 inlet;
#X floatatom 260 112 5 0 0 0 - - -, f 5;
#X obj 201 49 inlet;
#X text 188 236 cup-qube;
#X obj 201 71 route - +;
#X obj 260 128 bng 16 250 50 0 empty empty empty 17 7 0 10 -243850
-75900 -1;
#X obj 276 128 bng 16 250 50 0 empty empty empty 17 7 0 10 -243850
-75900 -1;
#X connect 1 0 7 0;
#X connect 2 0 3 0;
#X connect 3 0 1 0;
#X connect 4 0 5 0;
#X connect 5 0 1 0;
#X connect 6 0 5 1;
#X connect 6 0 3 1;
#X connect 7 0 2 1;
#X connect 7 0 4 1;
#X connect 7 0 0 0;
#X connect 8 0 10 0;
#X connect 10 0 2 0;
#X connect 10 1 4 0;
#X connect 10 2 7 0;
#X connect 11 0 2 0;
#X connect 12 0 4 0;
#X coords 0 -1 1 1 32 32 2 260 112;
