#N canvas 411 378 450 300 12;
#X obj 126 58 inlet;
#X obj 266 58 inlet;
#X obj 146 141 * -1;
#X obj 205 115 inlet;
#X obj 219 250 outlet;
#X obj 159 185 + \$1;
#X obj 146 115 1;
#X obj 266 141 1;
#X obj 220 28 loadbang;
#X obj 220 53 \$2;
#X obj 220 78 sel;
#X obj 209 213 \$1;
#X obj 189 141 route set;
#X obj 266 83 route set;
#X obj 126 83 route set;
#X connect 0 0 14 0;
#X connect 1 0 13 0;
#X connect 2 0 5 0;
#X connect 3 0 12 0;
#X connect 5 0 11 0;
#X connect 6 0 2 0;
#X connect 7 0 5 0;
#X connect 8 0 9 0;
#X connect 9 0 10 0;
#X connect 10 1 7 1;
#X connect 10 1 6 1;
#X connect 11 0 5 1;
#X connect 11 0 4 0;
#X connect 12 0 11 1;
#X connect 12 0 5 1;
#X connect 12 1 11 0;
#X connect 13 0 7 1;
#X connect 13 1 7 0;
#X connect 14 0 6 1;
#X connect 14 1 6 0;
