#N canvas 745 597 289 189 10;
#X obj 89 43 inlet;
#X obj 149 43 inlet;
#X obj 119 103 outlet;
#X obj 119 73 f;
#X obj 89 63 f;
#X obj 89 83 - 1;
#X obj 149 63 f;
#X obj 149 83 + 1;
#X text 113 28 cup_qake;
#X obj 119 122 inlet;
#X connect 0 0 4 0;
#X connect 1 0 6 0;
#X connect 3 0 2 0;
#X connect 3 0 4 1;
#X connect 3 0 6 1;
#X connect 4 0 5 0;
#X connect 5 0 3 0;
#X connect 6 0 7 0;
#X connect 7 0 3 0;
#X connect 9 0 6 1;
#X connect 9 0 4 1;
#X coords 0 189 1 188 85 60 0;
