#N canvas 701 332 453 519 14;
#X obj 109 78 inlet;
#X obj 350 333 inlet;
#X msg 103 261 stop;
#X obj 106 413 -;
#X obj 66 359 t b f;
#X obj 68 195 tgl 15 0 empty empty empty 17 7 0 10 -1 -262144 -262144
0 1;
#X obj 151 213 sel;
#X obj 179 279 b, f 2;
#X obj 147 423 outlet;
#X obj 169 335 del \$1 \$2 \$3;
#X obj 319 422 \$1;
#X obj 67 399 \$1;
#X obj 170 458 outlet;
#X obj 66 334 timer \$2 \$3;
#X obj 298 218 t;
#X obj 298 182 t b f;
#X obj 109 104 route pause stop bang float;
#X obj 342 292 outlet;
#X obj 68 215 t f f;
#X obj 147 362 t;
#X obj 58 165 spigot;
#X msg 118 137 0, f 2;
#X msg 170 170 set \$1;
#X msg 198 137 1, f 2;
#X obj 259 39 cnv 15 52 22 empty empty delp 2 10 0 16 -1 -262144 0
;
#X text 186 65 delay with pause feature;
#X connect 0 0 16 0;
#X connect 1 0 10 0;
#X connect 2 0 9 0;
#X connect 3 0 11 1;
#X connect 3 0 9 1;
#X connect 3 0 12 0;
#X connect 4 0 11 0;
#X connect 4 1 3 1;
#X connect 5 0 18 0;
#X connect 6 0 13 1;
#X connect 6 0 2 0;
#X connect 6 1 7 0;
#X connect 7 0 9 0;
#X connect 7 0 13 0;
#X connect 9 0 19 0;
#X connect 10 0 9 1;
#X connect 10 0 11 1;
#X connect 11 0 3 0;
#X connect 13 0 4 0;
#X connect 14 0 7 0;
#X connect 14 1 10 0;
#X connect 15 0 7 0;
#X connect 15 1 10 0;
#X connect 16 0 20 0;
#X connect 16 1 10 0;
#X connect 16 1 21 0;
#X connect 16 1 2 0;
#X connect 16 2 14 0;
#X connect 16 2 23 0;
#X connect 16 3 15 0;
#X connect 16 3 23 0;
#X connect 16 4 13 0;
#X connect 16 4 9 0;
#X connect 18 0 17 0;
#X connect 18 1 6 0;
#X connect 19 0 8 0;
#X connect 19 1 10 0;
#X connect 19 1 21 0;
#X connect 20 0 5 0;
#X connect 21 0 20 1;
#X connect 21 0 22 0;
#X connect 22 0 5 0;
#X connect 22 0 17 0;
#X connect 23 0 20 1;
#X connect 23 0 22 0;
