#N canvas 425 200 451 521 14;
#X obj 110 70 inlet;
#X obj 350 330 inlet;
#X obj 110 100 route pause stop bang float;
#X obj 60 190 spigot;
#X obj 60 220 tgl 15 0 empty empty empty 17 7 0 10 -1 -262144 -262144
0 1;
#X obj 60 240 t f f;
#X obj 150 220 sel;
#X obj 170 300 b;
#X msg 120 140 0;
#X msg 200 140 1;
#X msg 160 180 set \$1;
#X msg 100 280 stop;
#X obj 300 180 t b f;
#X obj 300 220 t;
#X obj 320 400 \$1;
#X obj 60 350 timer \$2 \$3;
#X obj 170 350 del \$1 \$2 \$3;
#X obj 60 380 t b f;
#X obj 140 380 t;
#X obj 60 430 \$1;
#X obj 100 440 -;
#X obj 140 440 outlet;
#X obj 160 480 outlet;
#X obj 340 290 outlet;
#X text 200 70 delay with pause feature;
#X obj 270 40 cnv 15 60 24 empty empty delp 4 12 0 18 -1 -262144 0
;
#X connect 0 0 2 0;
#X connect 1 0 14 0;
#X connect 2 0 3 0;
#X connect 2 1 14 0;
#X connect 2 1 8 0;
#X connect 2 1 11 0;
#X connect 2 2 13 0;
#X connect 2 2 9 0;
#X connect 2 3 12 0;
#X connect 2 3 9 0;
#X connect 2 4 15 0;
#X connect 2 4 16 0;
#X connect 3 0 4 0;
#X connect 4 0 5 0;
#X connect 5 0 23 0;
#X connect 5 1 6 0;
#X connect 6 0 15 1;
#X connect 6 0 11 0;
#X connect 6 1 7 0;
#X connect 7 0 16 0;
#X connect 7 0 15 0;
#X connect 8 0 3 1;
#X connect 8 0 10 0;
#X connect 9 0 3 1;
#X connect 9 0 10 0;
#X connect 10 0 4 0;
#X connect 10 0 23 0;
#X connect 11 0 16 0;
#X connect 12 0 7 0;
#X connect 12 1 14 0;
#X connect 13 0 7 0;
#X connect 13 1 14 0;
#X connect 14 0 16 1;
#X connect 14 0 19 1;
#X connect 15 0 17 0;
#X connect 16 0 18 0;
#X connect 17 0 19 0;
#X connect 17 1 20 1;
#X connect 18 0 21 0;
#X connect 18 1 14 0;
#X connect 18 1 8 0;
#X connect 19 0 20 0;
#X connect 20 0 19 1;
#X connect 20 0 16 1;
#X connect 20 0 22 0;
