#N canvas 926 537 549 403 10;
#X msg 53 103 0;
#X msg 82 105 1;
#X text 113 52 swaps numbers when they repeat too many times;
#X floatatom 127 128 5 0 0 0 - - -, f 5;
#X floatatom 144 150 5 0 0 0 - - -, f 5;
#X msg 205 259 0;
#X msg 233 260 1;
#X obj 219 318 print;
#X msg 111 107 2;
#X msg 39 255 0;
#X msg 67 256 1;
#X msg 96 257 2;
#X obj 80 318 print;
#X obj 339 107 tgl 15 0 empty empty empty 17 7 0 10 -262144 -1 -1 0
1;
#X floatatom 390 107 5 0 0 0 - - -, f 5;
#X obj 356 205 print;
#X obj 316 125 bng 15 250 50 0 empty empty empty 17 7 0 10 -262144
-1 -1;
#X floatatom 414 134 5 0 0 0 - - -, f 5;
#X obj 339 152 random 3;
#X obj 148 199 print stopped;
#X obj 107 199 print;
#X floatatom 433 179 5 0 0 0 - - -, f 5;
#X text 167 127 range (default 3);
#X text 185 149 count (default 2);
#X text 289 289 range 2 \, count 3;
#X msg 125 258 3;
#X obj 339 130 metro 200;
#X msg 155 260 4;
#X text 136 289 range 5;
#X text 250 27 DIVRT;
#X obj 111 171 divrt;
#X obj 356 178 divrt 3 1;
#X obj 80 289 divrt 5;
#X obj 219 289 divrt 2 3;
#X connect 0 0 30 0;
#X connect 1 0 30 0;
#X connect 3 0 30 1;
#X connect 4 0 30 2;
#X connect 5 0 33 0;
#X connect 6 0 33 0;
#X connect 8 0 30 0;
#X connect 9 0 32 0;
#X connect 10 0 32 0;
#X connect 11 0 32 0;
#X connect 13 0 26 0;
#X connect 14 0 26 1;
#X connect 16 0 18 0;
#X connect 17 0 18 1;
#X connect 17 0 31 1;
#X connect 18 0 31 0;
#X connect 21 0 31 2;
#X connect 25 0 32 0;
#X connect 26 0 18 0;
#X connect 27 0 32 0;
#X connect 30 0 20 0;
#X connect 30 1 19 0;
#X connect 31 0 15 0;
#X connect 32 0 12 0;
#X connect 33 0 7 0;
#X coords 0 403 1 402 85 60 0;
