#N canvas 400 200 500 580 14;
#X msg 70 40 list a b c 4 e f g;
#X msg 70 70 foo \$[:] bar;
#X msg 80 100 list a b c 4 e f g;
#X msg 80 130 foo \$[5:] bar;
#X msg 90 160 list a b c 4 e f g;
#X msg 90 190 foo \$[:4] bar;
#X msg 100 220 list a b c 4 e f g;
#X msg 100 250 foo \$[3:6] bar;
#X msg 110 280 list a b c 4 e f g;
#X msg 110 310 foo \$[-1] \$-2 \$[-3:] bar;
#X msg 120 340 list a b c 4 e f g;
#X msg 120 370 foo \$[:-1:2] bar;
#X msg 130 400 list a b c 4 e f g;
#X msg 130 430 foo \$[::-1] bar;
#X msg 140 460 list a b c 4 e f g;
#X msg 140 490 foo \$[5::-2] bar;
#X msg 30 100 \$-5;
#X obj 30 130 + 6;
#X floatatom 30 160 0 0 0 0 - - - 0;
#X obj 70 520 print;
#X text 220 40 foo a b c 4 e f g bar;
#X text 230 100 foo e f g bar;
#X text 240 160 foo a b c bar;
#X text 250 220 foo c 4 e bar;
#X text 260 280 foo g f e f g bar;
#X text 270 340 foo a c e bar;
#X text 280 400 foo g f e 4 c b a bar;
#X text 290 460 foo e c a bar;
#N canvas 1060 270 430 440 extra-features 0;
#X msg 40 40 list a b c 4 e f g;
#X msg 40 70 foo \$[:::] bar;
#X msg 50 100 list a b c 4 e f g;
#X msg 50 130 foo \$[5:::/] bar;
#X msg 60 160 list a b c 4 e f g;
#X msg 60 190 foo\$[:4] bar;
#X msg 70 220 list a b c 4 e f g;
#X msg 70 250 -\$[-3::::]-;
#X msg 80 280 list a b c wav;
#X msg 80 310 list \$[:-1::/] .\$-1;
#X msg 80 340 \$[:::];
#X obj 40 370 print;
#X text 190 40 foo abc4efg bar;
#X text 200 100 foo e/f/g bar;
#X text 210 160 fooa foob fooc bar;
#X text 220 220 -e-:-f-:-g-;
#X text 200 280 a/b/c.wav;
#X connect 0 0 1 0;
#X connect 1 0 11 0;
#X connect 2 0 3 0;
#X connect 3 0 11 0;
#X connect 4 0 5 0;
#X connect 5 0 11 0;
#X connect 6 0 7 0;
#X connect 7 0 11 0;
#X connect 8 0 9 0;
#X connect 9 0 10 0;
#X connect 10 0 11 0;
#X restore 300 510 pd extra-features;
#X connect 0 0 1 0;
#X connect 1 0 19 0;
#X connect 1 0 16 0;
#X connect 2 0 3 0;
#X connect 3 0 19 0;
#X connect 4 0 5 0;
#X connect 5 0 19 0;
#X connect 6 0 7 0;
#X connect 7 0 19 0;
#X connect 8 0 9 0;
#X connect 9 0 19 0;
#X connect 10 0 11 0;
#X connect 11 0 19 0;
#X connect 12 0 13 0;
#X connect 13 0 19 0;
#X connect 14 0 15 0;
#X connect 15 0 19 0;
#X connect 16 0 17 0;
#X connect 17 0 18 0;
