#N canvas 723 295 483 588 14;
#X obj 66 522 print;
#X msg 66 41 list a b c 4 e f g;
#X msg 66 68 foo \$[:] bar;
#X text 221 41 foo a b c 4 e f g bar;
#X msg 76 101 list a b c 4 e f g;
#X msg 76 128 foo \$[5:] bar;
#X text 231 101 foo e f g bar;
#X msg 86 161 list a b c 4 e f g;
#X msg 86 188 foo \$[:4] bar;
#X text 241 161 foo a b c bar;
#X msg 96 221 list a b c 4 e f g;
#X msg 96 248 foo \$[3:6] bar;
#X text 251 221 foo c 4 e bar;
#X msg 106 281 list a b c 4 e f g;
#X msg 106 308 foo \$[-1] \$-2 \$[-3:] bar;
#X text 261 281 foo g f e f g bar;
#X msg 116 341 list a b c 4 e f g;
#X msg 116 368 foo \$[:-1:2] bar;
#X text 271 341 foo a c e bar;
#X msg 126 401 list a b c 4 e f g;
#X msg 126 428 foo \$[::-1] bar;
#X text 281 401 foo g f e 4 c b a bar;
#X msg 136 461 list a b c 4 e f g;
#X msg 136 488 foo \$[5::-2] bar;
#X text 291 461 foo e c a bar;
#X msg 22 103 \$-5;
#X obj 22 128 + 6;
#X floatatom 22 153 5 0 0 0 - - -;
#N canvas 1206 295 426 443 extra-features 0;
#X obj 46 372 print;
#X msg 46 41 list a b c 4 e f g;
#X msg 56 101 list a b c 4 e f g;
#X msg 66 161 list a b c 4 e f g;
#X msg 46 68 foo \$[:::] bar;
#X text 201 41 foo abc4efg bar;
#X text 211 101 foo e/f/g bar;
#X msg 56 128 foo \$[5:::/] bar;
#X msg 66 188 foo\$[:4] bar;
#X text 221 161 fooa foob fooc bar;
#X msg 86 281 list a b c wav;
#X msg 86 335 \$[:::];
#X msg 86 308 list \$[:-1::/] .\$-1;
#X text 211 281 a/b/c.wav;
#X msg 76 221 list a b c 4 e f g;
#X msg 76 248 -\$[-3::::]-;
#X text 231 221 -e-:-f-:-g-;
#X connect 1 0 4 0;
#X connect 2 0 7 0;
#X connect 3 0 8 0;
#X connect 4 0 0 0;
#X connect 7 0 0 0;
#X connect 8 0 0 0;
#X connect 10 0 12 0;
#X connect 11 0 0 0;
#X connect 12 0 11 0;
#X connect 14 0 15 0;
#X connect 15 0 0 0;
#X restore 292 508 pd extra-features;
#X connect 1 0 2 0;
#X connect 2 0 0 0;
#X connect 2 0 25 0;
#X connect 4 0 5 0;
#X connect 5 0 0 0;
#X connect 7 0 8 0;
#X connect 8 0 0 0;
#X connect 10 0 11 0;
#X connect 11 0 0 0;
#X connect 13 0 14 0;
#X connect 14 0 0 0;
#X connect 16 0 17 0;
#X connect 17 0 0 0;
#X connect 19 0 20 0;
#X connect 20 0 0 0;
#X connect 22 0 23 0;
#X connect 23 0 0 0;
#X connect 25 0 26 0;
#X connect 26 0 27 0;
