#N canvas 718 293 450 425 10;
#X text 255 263 efficient kick drum;
#X text 306 285 ajf;
#X obj 170 49 inlet;
#X obj 170 71 b;
#X obj 170 93 \$1;
#X obj 197 93 inlet;
#X obj 170 115 t f f;
#X obj 170 150 / \$2;
#X obj 203 150 inlet;
#X obj 155 228 *~;
#X obj 155 252 *~;
#X obj 155 275 *~;
#X obj 155 298 cos~;
#X msg 214 172 1 \, 0 \$1;
#X obj 214 194 vline~;
#X obj 199 330 *~;
#X obj 199 357 outlet~;
#X connect 2 0 3 0;
#X connect 3 0 4 0;
#X connect 4 0 6 0;
#X connect 5 0 4 1;
#X connect 6 0 7 0;
#X connect 6 1 13 0;
#X connect 7 0 9 1;
#X connect 8 0 7 1;
#X connect 9 0 10 1;
#X connect 9 0 10 0;
#X connect 10 0 11 0;
#X connect 11 0 12 0;
#X connect 12 0 15 0;
#X connect 13 0 14 0;
#X connect 14 0 15 1;
#X connect 14 0 9 0;
#X connect 14 0 11 1;
#X connect 15 0 16 0;
