#N canvas 718 293 450 425 14;
#X text 221 85 efficient kick drum;
#X obj 81 46 inlet;
#X obj 81 75 b;
#X obj 81 104 \$1;
#X obj 116 75 inlet;
#X obj 81 133 t f f;
#X obj 81 162 / \$2;
#X obj 132 133 inlet;
#X obj 60 221 *~;
#X obj 60 249 *~;
#X obj 60 276 *~;
#X obj 60 302 cos~;
#X msg 132 162 1 \, 0 \$1;
#X obj 132 191 vline~;
#X obj 111 340 *~;
#X obj 111 371 outlet~;
#X obj 258 59 cnv 15 76 22 empty empty fkick~ 2 10 0 16 -1 -262144
0;
#X text 221 107 original patch by ajf;
#X connect 1 0 2 0;
#X connect 2 0 3 0;
#X connect 3 0 5 0;
#X connect 4 0 3 1;
#X connect 5 0 6 0;
#X connect 5 1 12 0;
#X connect 6 0 8 1;
#X connect 7 0 6 1;
#X connect 8 0 9 1;
#X connect 8 0 9 0;
#X connect 9 0 10 0;
#X connect 10 0 11 0;
#X connect 11 0 14 0;
#X connect 12 0 13 0;
#X connect 13 0 14 1;
#X connect 13 0 8 0;
#X connect 13 0 10 1;
#X connect 14 0 15 0;
