#N canvas 718 293 450 425 12;
#X text 231 105 efficient kick drum;
#X obj 87 77 inlet;
#X obj 87 103 b;
#X obj 87 128 \$1;
#X obj 117 103 inlet;
#X obj 87 154 t f f;
#X obj 87 185 / \$2;
#X obj 131 154 inlet;
#X obj 70 241 *~;
#X obj 70 269 *~;
#X obj 70 296 *~;
#X obj 70 322 cos~;
#X msg 139 185 1 \, 0 \$1;
#X obj 139 211 vline~;
#X obj 121 360 *~;
#X obj 121 391 outlet~;
#X obj 244 89 cnv 6 1 1 empty empty fkick~ 6 0 0 14 -233017 -66577
0;
#X text 231 127 original patch by ajf;
#X connect 1 0 2 0;
#X connect 2 0 3 0;
#X connect 3 0 5 0;
#X connect 4 0 3 1;
#X connect 5 0 6 0;
#X connect 5 1 12 0;
#X connect 6 0 8 1;
#X connect 7 0 6 1;
#X connect 8 0 9 1;
#X connect 8 0 9 0;
#X connect 9 0 10 0;
#X connect 10 0 11 0;
#X connect 11 0 14 0;
#X connect 12 0 13 0;
#X connect 13 0 14 1;
#X connect 13 0 8 0;
#X connect 13 0 10 1;
#X connect 14 0 15 0;
