#N canvas 719 355 450 425 10;
#X obj 213 194 vline~;
#X obj 198 330 *~;
#X obj 154 298 cos~;
#X obj 154 275 *~;
#X obj 154 252 *~;
#X obj 170 115 t f f;
#X obj 155 228 *~;
#X obj 197 357 outlet~;
#X obj 170 49 inlet;
#X text 255 263 efficient kick drum;
#X text 306 285 ajf;
#X obj 230 102 inlet;
#X obj 170 71 b;
#X obj 170 93 \$1;
#X obj 170 150 / \$2;
#X obj 200 71 inlet;
#X msg 213 172 1 \, 0 \$1;
#X connect 0 0 1 1;
#X connect 0 0 6 0;
#X connect 0 0 3 1;
#X connect 1 0 7 0;
#X connect 2 0 1 0;
#X connect 3 0 2 0;
#X connect 4 0 3 0;
#X connect 5 0 14 0;
#X connect 5 1 16 0;
#X connect 6 0 4 1;
#X connect 6 0 4 0;
#X connect 8 0 12 0;
#X connect 11 0 14 1;
#X connect 12 0 13 0;
#X connect 13 0 5 0;
#X connect 14 0 6 1;
#X connect 15 0 13 1;
#X connect 16 0 0 0;
