#N canvas 719 355 450 300 12;
#X obj 186 141 inlet~;
#X obj 186 166 *~;
#X obj 217 166 inlet~;
#X obj 186 192 +~;
#X obj 228 192 inlet~;
#X obj 186 218 osc~;
#X obj 186 243 outlet~;
#X obj 186 71 cnv 6 1 1 empty empty fmad~ 6 0 0 14 -233017 -66577 0
;
#X text 109 83 additional frequency modulation;
#X connect 0 0 1 0;
#X connect 1 0 3 0;
#X connect 2 0 1 1;
#X connect 3 0 5 0;
#X connect 4 0 3 1;
#X connect 5 0 6 0;
