#N canvas 529 394 450 300 14;
#X obj 186 108 inlet~;
#X obj 186 136 *~;
#X obj 220 136 inlet~;
#X obj 186 165 +~;
#X obj 228 165 inlet~;
#X obj 186 194 osc~;
#X obj 186 222 outlet~;
#X obj 186 41 cnv 15 64 22 empty empty fmad~ 2 10 0 16 -233017 -66577
0;
#X text 99 63 additional frequency modulation;
#X connect 0 0 1 0;
#X connect 1 0 3 0;
#X connect 2 0 1 1;
#X connect 3 0 5 0;
#X connect 4 0 3 1;
#X connect 5 0 6 0;
