#N canvas 688 363 450 300 14;
#X obj 194 102 inlet~;
#X obj 194 128 osc~;
#X obj 194 153 *~;
#X obj 238 153 inlet~;
#X obj 194 179 +~;
#X obj 250 179 inlet~;
#X obj 194 205 osc~;
#X obj 194 230 outlet~;
#X obj 184 44 cnv 6 1 1 empty empty fmod~ 6 0 0 14 -233017 -66577 0
;
#X text 129 59 simple frequency modulator;
#X connect 0 0 1 0;
#X connect 1 0 2 0;
#X connect 2 0 4 0;
#X connect 3 0 2 1;
#X connect 4 0 6 0;
#X connect 5 0 4 1;
#X connect 6 0 7 0;
