#N canvas 400 200 360 340 14;
#X obj 50 110 inlet~ signal;
#X obj 150 190 inlet~ mod-index;
#X obj 160 220 inlet~ carrier-freq;
#X obj 50 190 *~;
#X obj 50 220 +~;
#X obj 50 250 osc~;
#X obj 50 280 outlet~;
#X text 50 70 additional frequency modulation;
#X obj 130 40 cnv 15 86 24 empty empty fmore~ 4 12 0 18 #000000 #fcfcfc
0;
#X obj 190 110 loadbang;
#X obj 150 160 \$1;
#X obj 190 160 \$2;
#X connect 0 0 3 0;
#X connect 1 0 3 1;
#X connect 2 0 4 1;
#X connect 3 0 4 0;
#X connect 4 0 5 0;
#X connect 5 0 6 0;
#X connect 9 0 10 0;
#X connect 9 0 11 0;
#X connect 10 0 1 0;
#X connect 11 0 2 0;
