#N canvas 530 360 360 340 14;
#X obj 90 120 inlet~ signal;
#X obj 150 150 inlet~ mod-index;
#X obj 160 180 inlet~ carrier-freq;
#X obj 90 180 *~;
#X obj 90 210 +~;
#X obj 90 240 osc~;
#X obj 90 270 outlet~;
#X text 50 90 additional frequency modulation;
#X obj 130 60 cnv 15 86 24 empty empty fmore~ 4 12 0 18 -1 -262144
0;
#X connect 0 0 3 0;
#X connect 1 0 3 1;
#X connect 2 0 4 1;
#X connect 3 0 4 0;
#X connect 4 0 5 0;
#X connect 5 0 6 0;
