#N canvas 500 350 361 341 14;
#X obj 100 110 inlet~ mod-freq;
#X obj 150 150 inlet~ mod-index;
#X obj 160 190 inlet~ carrier-freq;
#X obj 100 150 osc~;
#X obj 100 190 *~;
#X obj 100 220 +~;
#X obj 100 250 osc~;
#X obj 100 280 outlet~;
#X text 110 70 frequency modulator;
#X obj 140 40 cnv 15 86 24 empty empty fmosc~ 4 12 0 18 -1 -262144
0;
#X connect 0 0 3 0;
#X connect 1 0 4 1;
#X connect 2 0 5 1;
#X connect 3 0 4 0;
#X connect 4 0 5 0;
#X connect 5 0 6 0;
#X connect 6 0 7 0;
