#N canvas 518 366 485 359 14;
#X obj 161 104 inlet~;
#X obj 161 177 osc~;
#X obj 161 208 *~;
#X obj 161 238 +~;
#X obj 161 267 osc~;
#X obj 161 301 outlet~;
#X obj 204 24 cnv 15 76 22 empty empty fmosc~ 2 10 0 16 -1 -262144
0;
#X text 161 49 frequency modulator;
#X obj 309 154 inlet~;
#X obj 319 224 inlet~;
#X text 229 129 modulation index;
#X text 231 199 carrier frequency;
#X text 49 79 modulation frequency;
#X connect 0 0 1 0;
#X connect 1 0 2 0;
#X connect 2 0 3 0;
#X connect 3 0 4 0;
#X connect 4 0 5 0;
#X connect 8 0 2 1;
#X connect 9 0 3 1;
