#N canvas 688 363 450 300 14;
#X obj 174 104 inlet~;
#X obj 174 132 osc~;
#X obj 174 160 *~;
#X obj 218 160 inlet~;
#X obj 174 189 +~;
#X obj 230 189 inlet~;
#X obj 174 218 osc~;
#X obj 174 246 outlet~;
#X obj 184 44 cnv 15 64 22 empty empty fmod~ 2 10 0 16 -1 -262144 0
;
#X text 109 69 simple frequency modulator;
#X connect 0 0 1 0;
#X connect 1 0 2 0;
#X connect 2 0 4 0;
#X connect 3 0 2 1;
#X connect 4 0 6 0;
#X connect 5 0 4 1;
#X connect 6 0 7 0;
