#N canvas 719 355 450 300 12;
#X obj 194 72 inlet~;
#X obj 194 98 osc~;
#X obj 194 123 *~;
#X obj 238 123 inlet~;
#X obj 194 149 +~;
#X obj 250 149 inlet~;
#X obj 194 175 osc~;
#X obj 194 200 outlet~;
#X connect 0 0 1 0;
#X connect 1 0 2 0;
#X connect 2 0 4 0;
#X connect 3 0 2 1;
#X connect 4 0 6 0;
#X connect 5 0 4 1;
#X connect 6 0 7 0;
