#N canvas 647 299 596 416 12;
#X text 206 91 default:;
#X obj 276 92 grdnt 0 1 100;
#X text 25 137 current;
#X floatatom 51 157 0 0 0 0 - - -;
#X obj 65 195 grdnt 25;
#X floatatom 65 222 0 0 0 0 - - -;
#X text 127 195 1 arg sets max;
#X text 97 137 min;
#X floatatom 96 157 0 0 0 0 - - -;
#X text 143 137 max;
#X floatatom 142 157 0 0 0 0 - - -;
#X floatatom 187 157 0 0 0 0 - - -;
#X floatatom 44 299 0 0 0 0 - - -;
#X floatatom 44 349 0 0 0 0 - - -;
#X text 73 300 2 args set min and max;
#X floatatom 349 154 0 0 0 0 - - -;
#X obj 337 191 grdnt 3 6 2;
#X floatatom 337 217 0 0 0 0 - - -;
#X text 384 145 3 args set:;
#X msg 271 132 0;
#X msg 303 132 1;
#X msg 337 132 2;
#X floatatom 269 305 0 0 0 0 - - -;
#X obj 269 327 expr $f1 / ($f4 / ($f3 - $f2)) + $f2;
#X floatatom 269 353 0 0 0 0 - - -;
#X obj 437 268 unpack 0 0 0;
#X floatatom 352 305 0 0 0 0 - - -;
#X floatatom 435 305 0 0 0 0 - - -;
#X floatatom 518 305 0 0 0 0 - - -;
#X obj 253 51 cnv 6 1 1 empty empty grdnt 6 0 0 14 -233017 -66577 0
;
#X text 172 67 gradient between min and max values;
#X text 186 137 steps;
#X text 384 165 min \, max \, steps;
#X obj 44 323 grdnt 5 50;
#X obj 437 217 loadbang;
#X msg 437 242 3 15 250;
#X text 364 351 alternative solution;
#X connect 3 0 4 0;
#X connect 4 0 5 0;
#X connect 8 0 4 1;
#X connect 10 0 4 2;
#X connect 11 0 4 3;
#X connect 12 0 33 0;
#X connect 15 0 16 0;
#X connect 16 0 17 0;
#X connect 19 0 16 0;
#X connect 20 0 16 0;
#X connect 21 0 16 0;
#X connect 22 0 23 0;
#X connect 23 0 24 0;
#X connect 25 0 26 0;
#X connect 25 1 27 0;
#X connect 25 2 28 0;
#X connect 26 0 23 1;
#X connect 27 0 23 2;
#X connect 28 0 23 3;
#X connect 33 0 13 0;
#X connect 34 0 35 0;
#X connect 35 0 25 0;
