#N canvas 669 249 549 496 10;
#X obj 139 157 cupqb;
#X obj 169 468 dac~;
#X obj 474 282 * 100;
#X floatatom 473 255 0 0 0 0 - - -;
#N canvas 839 405 450 323 inst 0;
#X obj 189 229 *~;
#X obj 213 185 ad~ 1;
#X obj 120 84 inlet;
#X obj 189 256 outlet~;
#X obj 299 150 r dcay;
#X obj 256 150 r atak;
#X obj 122 153 pad~;
#X obj 150 120 r pmnto;
#X obj 122 181 sound;
#X msg 220 150 z \$1;
#X obj 199 61 r z;
#X obj 249 107 f;
#X obj 233 107 b, f 1;
#X obj 120 120 pipe;
#X connect 0 0 3 0;
#X connect 1 0 0 1;
#X connect 2 0 12 0;
#X connect 2 0 13 0;
#X connect 4 0 1 2;
#X connect 5 0 1 1;
#X connect 6 0 8 0;
#X connect 7 0 6 1;
#X connect 8 0 0 0;
#X connect 9 0 1 0;
#X connect 10 0 11 1;
#X connect 10 0 13 1;
#X connect 11 0 9 0;
#X connect 12 0 11 0;
#X connect 13 0 6 0;
#X restore 48 334 pd inst;
#X obj 474 305 s dcay;
#X obj 175 157 cupqb;
#X floatatom 236 429 0 0 0 0 - - -;
#X obj 236 448 / 1000;
#X floatatom 428 255 0 0 0 0 - - -;
#X obj 429 305 s atak;
#N canvas 1253 247 450 346 chords 0;
#X msg 180 35 x 40;
#X msg 170 56 x 38;
#X msg 176 100 x 33;
#X msg 108 36 d 19 22 29;
#X obj 123 161 outlet;
#X msg 171 78 x 36;
#X msg 202 126 41 22 26 29 33;
#X msg 48 101 x \$1;
#X obj 48 62 cupqb;
#X obj 282 23 cupqb;
#X msg 222 94 set \$2 \$1;
#X obj 243 71 pack;
#X obj 244 23 cupqb;
#X msg 205 176 d r 3 f s 8 10;
#X msg 205 155 65 2 4 5 7 9 11;
#X msg 102 254 d 1 2 3 4 5 6 7 8 9 10 11;
#X msg 108 207 n 5;
#X msg 138 207 n 6;
#X msg 43 162 x d+3;
#X msg 44 189 x d-3;
#X msg 207 227 d r m- f s l- t-;
#X msg 207 202 d r m+ f s l+ t+;
#X msg 320 116 d d+ m+ s+ t+;
#X msg 321 137 d d- m- s- t-;
#X msg 333 159 d 4 7;
#X msg 333 179 d m- s;
#X msg 333 199 d m s+;
#X msg 333 219 d m+ s+;
#X msg 333 239 d m+ s;
#X msg 333 259 d m s-;
#X msg 383 219 d m- s-;
#X msg 333 279 l d+ m- s-;
#X msg 333 299 l d- m+ s+;
#X connect 0 0 4 0;
#X connect 1 0 4 0;
#X connect 2 0 4 0;
#X connect 3 0 4 0;
#X connect 5 0 4 0;
#X connect 6 0 4 0;
#X connect 7 0 4 0;
#X connect 8 0 7 0;
#X connect 9 0 11 0;
#X connect 10 0 4 0;
#X connect 11 0 10 0;
#X connect 12 0 11 1;
#X connect 13 0 4 0;
#X connect 14 0 4 0;
#X connect 15 0 4 0;
#X connect 16 0 4 0;
#X connect 17 0 4 0;
#X connect 18 0 4 0;
#X connect 19 0 4 0;
#X connect 20 0 4 0;
#X connect 21 0 4 0;
#X connect 22 0 4 0;
#X connect 23 0 4 0;
#X connect 24 0 4 0;
#X connect 25 0 4 0;
#X connect 26 0 4 0;
#X connect 27 0 4 0;
#X connect 28 0 4 0;
#X connect 29 0 4 0;
#X connect 30 0 4 0;
#X connect 31 0 4 0;
#X connect 32 0 4 0;
#X restore 76 122 pd chords;
#X floatatom 301 425 0 0 0 0 - - -;
#X obj 301 454 s pmnto;
#X obj 52 125 bng 15 250 50 0 empty empty empty 17 7 0 10 -262144 -1
-1;
#X obj 211 159 cupqb;
#X obj 247 161 cupqb;
#X obj 283 163 cupqb;
#X obj 320 165 cupqb;
#X obj 48 357 *~;
#X floatatom 74 353 0 0 100 0 - - -;
#X obj 74 372 / 100;
#X obj 172 433 *~;
#X obj 172 411 /~ 6;
#X msg 397 148 \$1;
#X obj 108 357 *~;
#X floatatom 134 353 0 0 100 0 - - -;
#X obj 134 372 / 100;
#X obj 168 357 *~;
#X floatatom 194 353 0 0 100 0 - - -;
#X obj 194 372 / 100;
#X obj 228 357 *~;
#X floatatom 254 353 0 0 100 0 - - -;
#X obj 254 372 / 100;
#X obj 288 357 *~;
#X floatatom 314 353 0 0 100 0 - - -;
#X obj 314 372 / 100;
#X obj 348 357 *~;
#X floatatom 374 353 0 0 100 0 - - -;
#X obj 374 372 / 100;
#X obj 277 282 unpack 1 2 3 4 5 6;
#X msg 184 213 0;
#X msg 211 215 1;
#X msg 247 217 2;
#X msg 283 219 3;
#X msg 320 221 4;
#X obj 244 125 unpack 5 4 3 2 1;
#X obj 78 150 t b a;
#X msg 312 68 octet 16;
#X msg 218 68 octet 12;
#X msg 312 89 44 39 35 29 33;
#X msg 218 89 33 29 26 22 42;
#X msg 397 125 12;
#X msg 413 128 1;
#X msg 278 262 100 100 85 85 100 70;
#X obj 405 234 ii;
#X obj 142 269 harm 40 19 18 21 26;
#X obj 320 201 t b f;
#X obj 283 199 t b f;
#X obj 247 197 t b f;
#X obj 211 195 t b f;
#X obj 175 193 t b f;
#X msg 150 101 n 5;
#X obj 198 118 t a b;
#X obj 151 294 bng 15 250 50 0 empty empty empty 17 7 0 10 -262144
-1 -1;
#X obj 169 294 bng 15 250 50 0 empty empty empty 17 7 0 10 -262144
-1 -1;
#X obj 187 294 bng 15 250 50 0 empty empty empty 17 7 0 10 -262144
-1 -1;
#X obj 205 294 bng 15 250 50 0 empty empty empty 17 7 0 10 -262144
-1 -1;
#X obj 223 294 bng 15 250 50 0 empty empty empty 17 7 0 10 -262144
-1 -1;
#X obj 241 294 bng 15 250 50 0 empty empty empty 17 7 0 10 -262144
-1 -1;
#X obj 470 428 s z;
#X obj 420 368 unpack 1 2 3 4;
#X floatatom 478 396 0 0 0 0 - - -;
#X obj 429 282 * 10;
#X msg 156 213 5;
#X msg 370 223 5;
#X obj 370 198 t b a;
#X obj 446 156 cupqb;
#X msg 370 178 set 5 \$1;
#X obj 102 65 cupqb;
#X msg 102 102 n \$1;
#X msg 416 344 6 60 300 25;
#N canvas 801 405 450 323 inst 0;
#X obj 189 229 *~;
#X obj 213 185 ad~ 1;
#X obj 120 84 inlet;
#X obj 189 256 outlet~;
#X obj 299 150 r dcay;
#X obj 256 150 r atak;
#X obj 122 153 pad~;
#X obj 150 120 r pmnto;
#X obj 122 181 sound;
#X msg 220 150 z \$1;
#X obj 198 65 r z;
#X obj 249 107 f;
#X obj 233 107 b, f 1;
#X obj 120 120 pipe;
#X connect 0 0 3 0;
#X connect 1 0 0 1;
#X connect 2 0 12 0;
#X connect 2 0 13 0;
#X connect 4 0 1 2;
#X connect 5 0 1 1;
#X connect 6 0 8 0;
#X connect 7 0 6 1;
#X connect 8 0 0 0;
#X connect 9 0 1 0;
#X connect 10 0 11 1;
#X connect 10 0 13 1;
#X connect 11 0 9 0;
#X connect 12 0 11 0;
#X connect 13 0 6 0;
#X restore 108 334 pd inst;
#N canvas 801 405 450 323 inst 0;
#X obj 189 229 *~;
#X obj 213 185 ad~ 1;
#X obj 120 84 inlet;
#X obj 189 256 outlet~;
#X obj 299 150 r dcay;
#X obj 256 150 r atak;
#X obj 122 153 pad~;
#X obj 150 120 r pmnto;
#X obj 122 181 sound;
#X msg 220 150 z \$1;
#X obj 198 65 r z;
#X obj 249 107 f;
#X obj 233 107 b, f 1;
#X obj 120 120 pipe;
#X connect 0 0 3 0;
#X connect 1 0 0 1;
#X connect 2 0 12 0;
#X connect 2 0 13 0;
#X connect 4 0 1 2;
#X connect 5 0 1 1;
#X connect 6 0 8 0;
#X connect 7 0 6 1;
#X connect 8 0 0 0;
#X connect 9 0 1 0;
#X connect 10 0 11 1;
#X connect 10 0 13 1;
#X connect 11 0 9 0;
#X connect 12 0 11 0;
#X connect 13 0 6 0;
#X restore 168 334 pd inst;
#N canvas 801 405 450 323 inst 0;
#X obj 189 229 *~;
#X obj 213 185 ad~ 1;
#X obj 120 84 inlet;
#X obj 189 256 outlet~;
#X obj 299 150 r dcay;
#X obj 256 150 r atak;
#X obj 122 153 pad~;
#X obj 150 120 r pmnto;
#X obj 122 181 sound;
#X msg 220 150 z \$1;
#X obj 198 65 r z;
#X obj 249 107 f;
#X obj 233 107 b, f 1;
#X obj 120 120 pipe;
#X connect 0 0 3 0;
#X connect 1 0 0 1;
#X connect 2 0 12 0;
#X connect 2 0 13 0;
#X connect 4 0 1 2;
#X connect 5 0 1 1;
#X connect 6 0 8 0;
#X connect 7 0 6 1;
#X connect 8 0 0 0;
#X connect 9 0 1 0;
#X connect 10 0 11 1;
#X connect 10 0 13 1;
#X connect 11 0 9 0;
#X connect 12 0 11 0;
#X connect 13 0 6 0;
#X restore 228 334 pd inst;
#N canvas 801 405 450 323 inst 0;
#X obj 189 229 *~;
#X obj 213 185 ad~ 1;
#X obj 120 84 inlet;
#X obj 189 256 outlet~;
#X obj 299 150 r dcay;
#X obj 256 150 r atak;
#X obj 122 153 pad~;
#X obj 150 120 r pmnto;
#X obj 122 181 sound;
#X msg 220 150 z \$1;
#X obj 198 65 r z;
#X obj 249 107 f;
#X obj 233 107 b, f 1;
#X obj 120 120 pipe;
#X connect 0 0 3 0;
#X connect 1 0 0 1;
#X connect 2 0 12 0;
#X connect 2 0 13 0;
#X connect 4 0 1 2;
#X connect 5 0 1 1;
#X connect 6 0 8 0;
#X connect 7 0 6 1;
#X connect 8 0 0 0;
#X connect 9 0 1 0;
#X connect 10 0 11 1;
#X connect 10 0 13 1;
#X connect 11 0 9 0;
#X connect 12 0 11 0;
#X connect 13 0 6 0;
#X restore 288 334 pd inst;
#N canvas 801 405 450 323 inst 0;
#X obj 189 229 *~;
#X obj 213 185 ad~ 1;
#X obj 120 84 inlet;
#X obj 189 256 outlet~;
#X obj 299 150 r dcay;
#X obj 256 150 r atak;
#X obj 122 153 pad~;
#X obj 150 120 r pmnto;
#X obj 122 181 sound;
#X msg 220 150 z \$1;
#X obj 198 65 r z;
#X obj 249 107 f;
#X obj 233 107 b, f 1;
#X obj 120 120 pipe;
#X connect 0 0 3 0;
#X connect 1 0 0 1;
#X connect 2 0 12 0;
#X connect 2 0 13 0;
#X connect 4 0 1 2;
#X connect 5 0 1 1;
#X connect 6 0 8 0;
#X connect 7 0 6 1;
#X connect 8 0 0 0;
#X connect 9 0 1 0;
#X connect 10 0 11 1;
#X connect 10 0 13 1;
#X connect 11 0 9 0;
#X connect 12 0 11 0;
#X connect 13 0 6 0;
#X restore 348 334 pd inst;
#X text 261 11 HARM;
#X text 108 27 uses similar logic as [muse] but with multiple outlets
to create chords;
#X text 25 225 use all outlets;
#X text 47 238 on bang;
#X obj 52 259 tgl 15 0 empty empty empty 17 7 0 10 -262144 -1 -1 0
1;
#X msg 52 278 all \$1;
#X obj 39 174 tgl 15 0 empty empty empty 17 7 0 10 -262144 -1 -1 0
1;
#X msg 39 193 exp \$1;
#X connect 0 0 56 0;
#X connect 2 0 5 0;
#X connect 3 0 2 0;
#X connect 4 0 19 0;
#X connect 6 0 61 0;
#X connect 7 0 8 0;
#X connect 8 0 22 1;
#X connect 9 0 73 0;
#X connect 11 0 47 0;
#X connect 12 0 13 0;
#X connect 14 0 56 0;
#X connect 15 0 60 0;
#X connect 16 0 59 0;
#X connect 17 0 58 0;
#X connect 18 0 57 0;
#X connect 19 0 23 0;
#X connect 20 0 21 0;
#X connect 21 0 19 1;
#X connect 22 0 1 0;
#X connect 22 0 1 1;
#X connect 23 0 22 0;
#X connect 24 0 6 1;
#X connect 24 0 15 1;
#X connect 24 0 16 1;
#X connect 24 0 17 1;
#X connect 24 0 18 1;
#X connect 25 0 23 0;
#X connect 26 0 27 0;
#X connect 27 0 25 1;
#X connect 28 0 23 0;
#X connect 29 0 30 0;
#X connect 30 0 28 1;
#X connect 31 0 23 0;
#X connect 32 0 33 0;
#X connect 33 0 31 1;
#X connect 34 0 23 0;
#X connect 35 0 36 0;
#X connect 36 0 34 1;
#X connect 37 0 23 0;
#X connect 38 0 39 0;
#X connect 39 0 37 1;
#X connect 40 0 20 0;
#X connect 40 1 26 0;
#X connect 40 2 29 0;
#X connect 40 3 32 0;
#X connect 40 4 35 0;
#X connect 40 5 38 0;
#X connect 41 0 56 0;
#X connect 42 0 56 0;
#X connect 43 0 56 0;
#X connect 44 0 56 0;
#X connect 45 0 56 0;
#X connect 46 0 18 0;
#X connect 46 1 17 0;
#X connect 46 2 16 0;
#X connect 46 3 15 0;
#X connect 46 4 6 0;
#X connect 47 0 56 0;
#X connect 47 1 56 0;
#X connect 48 0 56 0;
#X connect 49 0 56 0;
#X connect 50 0 63 0;
#X connect 51 0 63 0;
#X connect 52 0 24 0;
#X connect 53 0 24 0;
#X connect 54 0 40 0;
#X connect 55 0 54 0;
#X connect 55 0 81 0;
#X connect 56 0 4 0;
#X connect 56 0 64 0;
#X connect 56 1 65 0;
#X connect 56 1 82 0;
#X connect 56 2 66 0;
#X connect 56 2 83 0;
#X connect 56 3 67 0;
#X connect 56 3 84 0;
#X connect 56 4 68 0;
#X connect 56 4 85 0;
#X connect 56 5 69 0;
#X connect 56 5 86 0;
#X connect 57 0 45 0;
#X connect 57 1 56 5;
#X connect 58 0 44 0;
#X connect 58 1 56 4;
#X connect 59 0 43 0;
#X connect 59 1 56 3;
#X connect 60 0 42 0;
#X connect 60 1 56 2;
#X connect 61 0 41 0;
#X connect 61 0 74 0;
#X connect 61 1 56 1;
#X connect 62 0 56 0;
#X connect 63 0 46 0;
#X connect 63 1 62 0;
#X connect 71 0 9 0;
#X connect 71 1 3 0;
#X connect 71 2 12 0;
#X connect 71 3 72 0;
#X connect 72 0 70 0;
#X connect 73 0 10 0;
#X connect 74 0 56 0;
#X connect 75 0 56 0;
#X connect 76 0 75 0;
#X connect 76 1 56 0;
#X connect 77 0 78 0;
#X connect 78 0 76 0;
#X connect 79 0 80 0;
#X connect 80 0 56 0;
#X connect 81 0 71 0;
#X connect 82 0 25 0;
#X connect 83 0 28 0;
#X connect 84 0 31 0;
#X connect 85 0 34 0;
#X connect 86 0 37 0;
#X connect 91 0 92 0;
#X connect 92 0 56 0;
#X connect 93 0 94 0;
#X connect 94 0 56 0;
