#N canvas 743 360 450 351 14;
#X obj 250 212 % 60;
#X obj 148 313 outlet;
#X obj 197 116 change;
#X obj 197 144 t f f f;
#X obj 153 259 pack f f f;
#X obj 191 185 % 3600;
#X obj 116 212 div 3600;
#X msg 148 285 symbol \$1:\$2:\$3;
#X obj 191 212 div 60;
#X obj 197 58 / 1000;
#X obj 197 87 i;
#X obj 197 29 inlet;
#X connect 0 0 4 2;
#X connect 2 0 3 0;
#X connect 3 0 6 0;
#X connect 3 1 5 0;
#X connect 3 2 0 0;
#X connect 4 0 7 0;
#X connect 5 0 8 0;
#X connect 6 0 4 0;
#X connect 7 0 1 0;
#X connect 8 0 4 1;
#X connect 9 0 10 0;
#X connect 10 0 2 0;
#X connect 11 0 9 0;
