#N canvas 687 383 450 416 14;
#X obj 183 360 outlet;
#X obj 174 212 change;
#X obj 85 106 / 1000;
#X obj 174 186 i;
#X obj 85 23 inlet;
#X obj 85 132 t f f;
#X obj 174 160 / 60;
#X obj 234 238 % 60;
#X obj 174 269 div 60;
#X obj 85 211 f% 60;
#N canvas 172 290 450 300 format 0;
#X obj 173 30 inlet;
#X obj 226 87 i;
#X obj 199 115 ==;
#X obj 276 97 sel 0 1;
#X obj 173 57 t f f f;
#X msg 173 220 symbol \$1\$2;
#X obj 173 247 outlet;
#X obj 173 194 pack s s;
#X obj 173 147 lead0;
#X msg 300 160 symbol;
#X msg 302 129 symbol .\0;
#X connect 0 0 4 0;
#X connect 1 0 2 1;
#X connect 2 0 3 0;
#X connect 3 0 9 0;
#X connect 3 1 10 0;
#X connect 4 0 8 0;
#X connect 4 1 2 0;
#X connect 4 2 1 0;
#X connect 5 0 6 0;
#X connect 7 0 5 0;
#X connect 8 0 7 0;
#X connect 9 0 7 1;
#X connect 10 0 7 1;
#X restore 85 269 pd format;
#X obj 234 269 lead0;
#X msg 247 203 0;
#X obj 85 240 round 0.01;
#X obj 162 132 inlet;
#X obj 143 106 \$1;
#X obj 247 62 loadbang;
#X obj 133 211 sel;
#X obj 183 306 pack s f s s;
#X obj 85 78 abs;
#N canvas 317 379 450 300 neg 0;
#X obj 188 57 inlet;
#X obj 188 84 < 0;
#X obj 188 111 sel 0 1;
#X msg 214 142 symbol -;
#X obj 194 223 outlet;
#X msg 214 182 symbol;
#X connect 0 0 1 0;
#X connect 1 0 2 0;
#X connect 2 0 5 0;
#X connect 2 1 3 0;
#X connect 3 0 4 0;
#X connect 5 0 4 0;
#X restore 325 154 pd neg;
#X msg 183 332 symbol \$4\$2:\$3:\$1;
#X obj 85 50 t f f;
#X connect 1 0 7 0;
#X connect 1 0 8 0;
#X connect 2 0 5 0;
#X connect 3 0 1 0;
#X connect 4 0 22 0;
#X connect 5 0 9 0;
#X connect 5 1 6 0;
#X connect 6 0 3 0;
#X connect 7 0 11 0;
#X connect 8 0 18 1;
#X connect 9 0 13 0;
#X connect 10 0 18 0;
#X connect 11 0 18 2;
#X connect 12 0 7 0;
#X connect 13 0 10 0;
#X connect 14 0 13 1;
#X connect 15 0 17 0;
#X connect 16 0 15 0;
#X connect 16 0 12 0;
#X connect 17 1 13 1;
#X connect 18 0 21 0;
#X connect 19 0 2 0;
#X connect 20 0 18 3;
#X connect 21 0 0 0;
#X connect 22 0 19 0;
#X connect 22 1 20 0;
