#N canvas 570 180 351 421 14;
#X obj 110 20 inlet;
#X obj 150 140 inlet;
#X obj 200 80 loadbang;
#X msg 280 200 0;
#X obj 280 240 % 60;
#X obj 280 270 lead0;
#X obj 100 140 \$1;
#X obj 100 180 sel;
#X obj 110 50 t f f;
#N canvas 920 360 351 241 neg 0;
#X obj 130 30 inlet;
#X obj 130 60 < 0;
#X obj 130 90 sel;
#X msg 180 120 symbol -;
#X msg 180 160 symbol;
#X obj 130 190 outlet;
#X connect 0 0 1 0;
#X connect 1 0 2 0;
#X connect 2 0 4 0;
#X connect 2 1 3 0;
#X connect 3 0 5 0;
#X connect 4 0 5 0;
#X restore 220 200 pd neg;
#X obj 40 80 abs;
#X obj 40 110 / 1000;
#X obj 40 140 t f f;
#X obj 160 180 / 60;
#X obj 160 210 i;
#X obj 160 240 change;
#X obj 160 270 div 60;
#X obj 40 180 f% 60;
#X obj 40 240 round 0.01;
#N canvas 220 310 351 301 format 0;
#X obj 90 30 inlet;
#X obj 90 60 t f f f;
#X obj 140 90 i;
#X obj 110 120 ==;
#X obj 190 110 sel;
#X msg 230 140 symbol .\0;
#X msg 230 180 symbol;
#X obj 90 150 lead0;
#X obj 90 180 pack s s;
#X msg 90 210 symbol \$1\$2;
#X obj 90 240 outlet;
#X connect 0 0 1 0;
#X connect 1 0 7 0;
#X connect 1 1 3 0;
#X connect 1 2 2 0;
#X connect 2 0 3 1;
#X connect 3 0 4 0;
#X connect 4 0 6 0;
#X connect 4 1 5 0;
#X connect 5 0 8 1;
#X connect 6 0 8 1;
#X connect 7 0 8 0;
#X connect 8 0 9 0;
#X connect 9 0 10 0;
#X restore 40 270 pd format;
#X obj 160 310 pack s f s s;
#X msg 160 340 symbol \$3\$2:\$4:\$1;
#X obj 160 370 outlet;
#X connect 0 0 8 0;
#X connect 1 0 18 1;
#X connect 2 0 6 0;
#X connect 2 0 3 0;
#X connect 3 0 4 0;
#X connect 4 0 5 0;
#X connect 5 0 20 3;
#X connect 6 0 7 0;
#X connect 7 1 18 1;
#X connect 8 0 10 0;
#X connect 8 1 9 0;
#X connect 9 0 20 2;
#X connect 10 0 11 0;
#X connect 11 0 12 0;
#X connect 12 0 17 0;
#X connect 12 1 13 0;
#X connect 13 0 14 0;
#X connect 14 0 15 0;
#X connect 15 0 4 0;
#X connect 15 0 16 0;
#X connect 16 0 20 1;
#X connect 17 0 18 0;
#X connect 18 0 19 0;
#X connect 19 0 20 0;
#X connect 20 0 21 0;
#X connect 21 0 22 0;
