#N canvas 687 383 450 351 14;
#X obj 166 303 outlet;
#X obj 204 155 change;
#X obj 153 57 / 1000;
#X obj 204 129 i;
#X obj 153 31 inlet;
#X msg 166 275 symbol \$2:\$3:\$1;
#X obj 153 83 t f f;
#X obj 204 103 / 60;
#X obj 264 181 % 60;
#X obj 204 212 div 60;
#X obj 115 143 f% 60;
#X obj 115 171 round 0.1;
#X obj 166 249 pack s f s;
#N canvas 172 290 450 300 format 1;
#X obj 173 30 inlet;
#X obj 226 87 i;
#X obj 199 115 ==;
#X obj 276 97 sel 0 1;
#X obj 173 57 t f f f;
#X msg 173 220 symbol \$1\$2;
#X obj 173 247 outlet;
#X obj 173 194 pack s s;
#X obj 173 147 lead0;
#X msg 300 160 symbol;
#X msg 302 129 symbol .\0;
#X connect 0 0 4 0;
#X connect 1 0 2 1;
#X connect 2 0 3 0;
#X connect 3 0 9 0;
#X connect 3 1 10 0;
#X connect 4 0 8 0;
#X connect 4 1 2 0;
#X connect 4 2 1 0;
#X connect 5 0 6 0;
#X connect 7 0 5 0;
#X connect 8 0 7 0;
#X connect 9 0 7 1;
#X connect 10 0 7 1;
#X restore 115 212 pd format;
#X obj 264 212 lead0;
#X obj 277 119 loadbang;
#X msg 277 146 0;
#X connect 1 0 8 0;
#X connect 1 0 9 0;
#X connect 2 0 6 0;
#X connect 3 0 1 0;
#X connect 4 0 2 0;
#X connect 5 0 0 0;
#X connect 6 0 10 0;
#X connect 6 1 7 0;
#X connect 7 0 3 0;
#X connect 8 0 14 0;
#X connect 9 0 12 1;
#X connect 10 0 11 0;
#X connect 11 0 13 0;
#X connect 12 0 5 0;
#X connect 13 0 12 0;
#X connect 14 0 12 2;
#X connect 15 0 16 0;
#X connect 16 0 8 0;
