#N canvas 335 407 450 300 14;
#X obj 156 40 inlet;
#X obj 235 63 < 10;
#X obj 235 90 sel 0 1;
#X msg 259 151 symbol;
#X obj 156 177 pack f s;
#X obj 156 67 t f f;
#X msg 156 204 symbol \$2\$1;
#X obj 156 231 outlet;
#X msg 261 119 symbol \0;
#X connect 0 0 5 0;
#X connect 1 0 2 0;
#X connect 2 0 3 0;
#X connect 2 1 8 0;
#X connect 3 0 4 1;
#X connect 4 0 6 0;
#X connect 5 0 4 0;
#X connect 5 1 1 0;
#X connect 6 0 7 0;
#X connect 8 0 4 1;
