#N canvas 475 300 351 291 14;
#X obj 90 30 inlet;
#X obj 90 60 t f f;
#X obj 170 50 < 10;
#X obj 170 80 sel;
#X msg 210 110 symbol 0;
#X msg 210 150 symbol;
#X obj 90 180 pack f s;
#X msg 90 210 symbol \$2\$1;
#X obj 90 240 outlet;
#X connect 0 0 1 0;
#X connect 1 0 6 0;
#X connect 1 1 2 0;
#X connect 2 0 3 0;
#X connect 3 0 5 0;
#X connect 3 1 4 0;
#X connect 4 0 6 1;
#X connect 5 0 6 1;
#X connect 6 0 7 0;
#X connect 7 0 8 0;
