#N canvas 1168 346 450 519 14;
#X obj 70 232 timer;
#X obj 239 198 unpack;
#X obj 89 305 -;
#X obj 70 257 t b f;
#X obj 53 305 f;
#X obj 157 297 f;
#X obj 117 153 tgl 15 0 empty empty empty 17 7 0 10 -1 -262144 -262144
0 1;
#X obj 77 185 sel;
#X obj 236 422 line \$1 \$2;
#X obj 56 453 outlet;
#X obj 107 65 inlet;
#X obj 287 387 inlet;
#X obj 334 387 inlet;
#X obj 107 93 route pause float list;
#X obj 207 137 t b l;
#X obj 256 387 f;
#X obj 202 198 t;
#X obj 89 332 t f f;
#X obj 107 128 spigot;
#X msg 302 168 set \$1;
#X msg 302 98 1;
#X msg 335 107 0;
#X obj 297 312 del;
#X msg 119 232 stop;
#X obj 151 387 span;
#X obj 235 31 cnv 15 60 24 empty empty linp 4 12 0 18 -1 -262144 0
;
#X text 170 56 line with pause feature;
#X obj 163 456 outlet;
#X obj 320 199 outlet;
#X obj 40 148 t f f;
#X connect 0 0 3 0;
#X connect 1 0 5 0;
#X connect 1 0 24 1;
#X connect 1 1 4 1;
#X connect 1 1 15 0;
#X connect 1 1 20 0;
#X connect 1 1 24 3;
#X connect 2 0 4 1;
#X connect 2 0 17 0;
#X connect 3 0 4 0;
#X connect 3 1 2 1;
#X connect 4 0 2 0;
#X connect 5 0 8 0;
#X connect 6 0 29 0;
#X connect 7 0 0 1;
#X connect 7 0 23 0;
#X connect 7 1 16 0;
#X connect 8 0 9 0;
#X connect 10 0 13 0;
#X connect 11 0 8 1;
#X connect 12 0 8 2;
#X connect 13 0 18 0;
#X connect 13 1 5 0;
#X connect 13 1 24 2;
#X connect 13 2 14 0;
#X connect 13 3 8 0;
#X connect 13 3 21 0;
#X connect 14 0 0 0;
#X connect 14 1 1 0;
#X connect 15 0 8 1;
#X connect 15 0 22 0;
#X connect 16 0 5 0;
#X connect 16 0 0 0;
#X connect 16 1 15 0;
#X connect 17 0 24 0;
#X connect 17 1 15 1;
#X connect 18 0 6 0;
#X connect 19 0 6 0;
#X connect 19 0 28 0;
#X connect 20 0 19 0;
#X connect 20 0 18 1;
#X connect 21 0 19 0;
#X connect 21 0 18 1;
#X connect 22 0 21 0;
#X connect 23 0 22 0;
#X connect 24 0 8 0;
#X connect 24 0 27 0;
#X connect 29 0 28 0;
#X connect 29 1 7 0;
