#N canvas 704 327 450 490 14;
#X obj 60 202 timer;
#X obj 229 168 unpack;
#X obj 79 275 -;
#X obj 60 227 t b f;
#X obj 43 275 f;
#X obj 147 267 f;
#X obj 107 123 tgl 15 0 empty empty empty 17 7 0 10 -262144 -1 -1 1
1;
#X obj 97 141 sel;
#X obj 226 392 line \$1 \$2;
#X obj 226 424 outlet;
#X obj 97 35 inlet;
#X obj 277 357 inlet;
#X obj 324 357 inlet;
#X obj 97 63 route pause float list;
#X obj 197 107 t b l;
#X obj 246 357 f;
#X obj 192 168 t;
#X obj 79 302 t f f;
#X obj 97 98 spigot;
#X msg 292 138 set \$1;
#X msg 292 68 1;
#X msg 325 77 0;
#X obj 287 282 del;
#X msg 109 202 stop;
#X obj 141 357 grdnt;
#X connect 0 0 3 0;
#X connect 1 0 5 0;
#X connect 1 0 24 1;
#X connect 1 1 4 1;
#X connect 1 1 15 0;
#X connect 1 1 20 0;
#X connect 1 1 24 3;
#X connect 2 0 4 1;
#X connect 2 0 17 0;
#X connect 3 0 4 0;
#X connect 3 1 2 1;
#X connect 4 0 2 0;
#X connect 5 0 8 0;
#X connect 6 0 7 0;
#X connect 7 0 0 1;
#X connect 7 0 23 0;
#X connect 7 1 16 0;
#X connect 8 0 9 0;
#X connect 10 0 13 0;
#X connect 11 0 8 1;
#X connect 12 0 8 2;
#X connect 13 0 18 0;
#X connect 13 1 5 0;
#X connect 13 1 24 2;
#X connect 13 2 14 0;
#X connect 13 3 8 0;
#X connect 13 3 21 0;
#X connect 14 0 0 0;
#X connect 14 1 1 0;
#X connect 15 0 8 1;
#X connect 15 0 22 0;
#X connect 16 0 5 0;
#X connect 16 0 0 0;
#X connect 16 1 15 0;
#X connect 17 0 24 0;
#X connect 17 1 15 1;
#X connect 18 0 6 0;
#X connect 19 0 6 0;
#X connect 20 0 19 0;
#X connect 20 0 18 1;
#X connect 21 0 19 0;
#X connect 21 0 18 1;
#X connect 22 0 21 0;
#X connect 23 0 22 0;
#X connect 24 0 8 0;
