#N canvas 671 344 547 318 10;
#X obj 472 22 tgl 18 0 empty empty empty 17 7 0 10 -262144 -1 -1 0
1;
#X obj 452 22 tgl 18 0 empty empty empty 17 7 0 10 -262144 -1 -1 0
1;
#X obj 432 22 tgl 18 0 empty empty empty 17 7 0 10 -262144 -1 -1 0
1;
#X obj 412 22 tgl 18 0 empty empty empty 17 7 0 10 -262144 -1 -1 0
1;
#X obj 392 22 tgl 18 0 empty empty empty 17 7 0 10 -262144 -1 -1 0
1;
#X obj 372 22 tgl 18 0 empty empty empty 17 7 0 10 -262144 -1 -1 0
1;
#X obj 352 22 tgl 18 0 empty empty empty 17 7 0 10 -262144 -1 -1 0
1;
#X obj 332 22 tgl 18 0 empty empty empty 17 7 0 10 -262144 -1 -1 0
1;
#X obj 312 22 tgl 18 0 empty empty empty 17 7 0 10 -262144 -1 -1 0
1;
#X obj 292 22 tgl 18 0 empty empty empty 17 7 0 10 -262144 -1 -1 0
1;
#X obj 272 22 tgl 18 0 empty empty empty 17 7 0 10 -262144 -1 -1 0
1;
#X obj 252 22 tgl 18 0 empty empty empty 17 7 0 10 -262144 -1 -1 0
1;
#X obj 232 22 tgl 18 0 empty empty empty 17 7 0 10 -262144 -1 -1 0
1;
#X obj 212 22 tgl 18 0 empty empty empty 17 7 0 10 -262144 -1 -1 0
1;
#X obj 192 22 tgl 18 0 empty empty empty 17 7 0 10 -262144 -1 -1 0
1;
#X obj 172 22 tgl 18 0 empty empty empty 17 7 0 10 -262144 -1 -1 0
1;
#X obj 152 22 tgl 18 0 empty empty empty 17 7 0 10 -262144 -1 -1 0
1;
#X obj 132 22 tgl 18 0 empty empty empty 17 7 0 10 -262144 -1 -1 0
1;
#X obj 112 22 tgl 18 0 empty empty empty 17 7 0 10 -262144 -1 -1 0
1;
#X obj 92 22 tgl 18 0 empty empty empty 17 7 0 10 -262144 -1 -1 0 1
;
#X obj 72 22 tgl 18 0 empty empty empty 17 7 0 10 -262144 -1 -1 0 1
;
#X obj 52 22 tgl 18 0 empty empty empty 17 7 0 10 -262144 -1 -1 0 1
;
#X obj 32 22 tgl 18 0 empty empty empty 17 7 0 10 -262144 -1 -1 0 1
;
#X obj 472 68 t b f;
#X obj 452 48 t b f;
#X obj 432 68 t b f;
#X obj 412 48 t b f;
#X obj 392 68 t b f;
#X obj 372 48 t b f;
#X obj 352 68 t b f;
#X obj 332 48 t b f;
#X obj 312 68 t b f;
#X obj 292 48 t b f;
#X obj 272 68 t b f;
#X obj 252 48 t b f;
#X obj 232 68 t b f;
#X obj 212 48 t b f;
#X obj 192 68 t b f;
#X obj 172 48 t b f;
#X obj 152 68 t b f;
#X obj 132 48 t b f;
#X obj 112 68 t b f;
#X obj 92 48 t b f;
#X obj 72 68 t b f;
#X obj 52 48 t b f;
#X obj 499 132 << 23;
#X obj 479 112 << 22;
#X obj 459 132 << 21;
#X obj 439 152 << 20;
#X obj 419 112 << 19;
#X obj 399 132 << 18;
#X obj 379 152 << 17;
#X obj 359 172 << 16;
#X obj 339 112 << 15;
#X obj 319 132 << 14;
#X obj 299 152 << 13;
#X obj 279 172 << 12;
#X obj 259 112 << 11;
#X obj 239 132 << 10;
#X obj 219 152 << 9;
#X obj 199 172 << 8;
#X obj 179 112 << 7;
#X obj 159 132 << 6;
#X obj 139 152 << 5;
#X obj 119 172 << 4;
#X obj 99 132 << 3;
#X obj 79 152 << 2;
#X obj 32 172 << 1;
#X obj 61 117 b, f 1;
#X obj 92 227 expr 1/$f1 + 1/$f2 + 1/$f3 + 1/$f4 + 1/$f5 + 1/$f6 +
1/$f7 + 1/$f8 + 1/$f9 + 1/$f10 + 1/$f11 + 1/$f12 + 1/$f13 + 1/$f14
+ 1/$f15 + 1/$f16 + 1/$f17 + 1/$f18 + 1/$f19 + 1/$f20 + 1/$f21 + 1/$f22
+ 1/$f23;
#X obj 92 292 outlet;
#X connect 0 0 23 0;
#X connect 1 0 24 0;
#X connect 2 0 25 0;
#X connect 3 0 26 0;
#X connect 4 0 27 0;
#X connect 5 0 28 0;
#X connect 6 0 29 0;
#X connect 7 0 30 0;
#X connect 8 0 31 0;
#X connect 9 0 32 0;
#X connect 10 0 33 0;
#X connect 11 0 34 0;
#X connect 12 0 35 0;
#X connect 13 0 36 0;
#X connect 14 0 37 0;
#X connect 15 0 38 0;
#X connect 16 0 39 0;
#X connect 17 0 40 0;
#X connect 18 0 41 0;
#X connect 19 0 42 0;
#X connect 20 0 43 0;
#X connect 21 0 44 0;
#X connect 22 0 67 0;
#X connect 23 0 68 0;
#X connect 23 1 45 0;
#X connect 24 0 68 0;
#X connect 24 1 46 0;
#X connect 25 0 68 0;
#X connect 25 1 47 0;
#X connect 26 0 68 0;
#X connect 26 1 48 0;
#X connect 27 0 68 0;
#X connect 27 1 49 0;
#X connect 28 0 68 0;
#X connect 28 1 50 0;
#X connect 29 0 68 0;
#X connect 29 1 51 0;
#X connect 30 0 68 0;
#X connect 30 1 52 0;
#X connect 31 0 68 0;
#X connect 31 1 53 0;
#X connect 32 0 68 0;
#X connect 32 1 54 0;
#X connect 33 0 68 0;
#X connect 33 1 55 0;
#X connect 34 0 68 0;
#X connect 34 1 56 0;
#X connect 35 0 68 0;
#X connect 35 1 57 0;
#X connect 36 0 68 0;
#X connect 36 1 58 0;
#X connect 37 0 68 0;
#X connect 37 1 59 0;
#X connect 38 0 68 0;
#X connect 38 1 60 0;
#X connect 39 0 68 0;
#X connect 39 1 61 0;
#X connect 40 0 68 0;
#X connect 40 1 62 0;
#X connect 41 0 68 0;
#X connect 41 1 63 0;
#X connect 42 0 68 0;
#X connect 42 1 64 0;
#X connect 43 0 68 0;
#X connect 43 1 65 0;
#X connect 44 0 68 0;
#X connect 44 1 66 0;
#X connect 45 0 69 22;
#X connect 46 0 69 21;
#X connect 47 0 69 20;
#X connect 48 0 69 19;
#X connect 49 0 69 18;
#X connect 50 0 69 17;
#X connect 51 0 69 16;
#X connect 52 0 69 15;
#X connect 53 0 69 14;
#X connect 54 0 69 13;
#X connect 55 0 69 12;
#X connect 56 0 69 11;
#X connect 57 0 69 10;
#X connect 58 0 69 9;
#X connect 59 0 69 8;
#X connect 60 0 69 7;
#X connect 61 0 69 6;
#X connect 62 0 69 5;
#X connect 63 0 69 4;
#X connect 64 0 69 3;
#X connect 65 0 69 2;
#X connect 66 0 69 1;
#X connect 67 0 69 0;
#X connect 68 0 69 0;
#X connect 69 0 70 0;
#X coords 0 -1 1 1 462 22 2 30 20;
