#N canvas 619 267 589 518 14;
#X obj 82 54 inlet;
#X obj 482 242 tgl 18 0 empty empty empty 17 7 0 10 -1 -262144 -262144
1 1;
#X obj 462 242 tgl 18 0 empty empty empty 17 7 0 10 -1 -262144 -262144
1 1;
#X obj 442 242 tgl 18 0 empty empty empty 17 7 0 10 -1 -262144 -262144
0 1;
#X obj 422 242 tgl 18 0 empty empty empty 17 7 0 10 -1 -262144 -262144
1 1;
#X obj 402 242 tgl 18 0 empty empty empty 17 7 0 10 -1 -262144 -262144
0 1;
#X obj 382 242 tgl 18 0 empty empty empty 17 7 0 10 -1 -262144 -262144
1 1;
#X obj 362 242 tgl 18 0 empty empty empty 17 7 0 10 -1 -262144 -262144
0 1;
#X obj 342 242 tgl 18 0 empty empty empty 17 7 0 10 -1 -262144 -262144
1 1;
#X obj 322 242 tgl 18 0 empty empty empty 17 7 0 10 -1 -262144 -262144
0 1;
#X obj 302 242 tgl 18 0 empty empty empty 17 7 0 10 -1 -262144 -262144
1 1;
#X obj 282 242 tgl 18 0 empty empty empty 17 7 0 10 -1 -262144 -262144
0 1;
#X obj 262 242 tgl 18 0 empty empty empty 17 7 0 10 -1 -262144 -262144
1 1;
#X obj 242 242 tgl 18 0 empty empty empty 17 7 0 10 -1 -262144 -262144
0 1;
#X obj 222 242 tgl 18 0 empty empty empty 17 7 0 10 -1 -262144 -262144
1 1;
#X obj 202 242 tgl 18 0 empty empty empty 17 7 0 10 -1 -262144 -262144
0 1;
#X obj 182 242 tgl 18 0 empty empty empty 17 7 0 10 -1 -262144 -262144
1 1;
#X obj 162 242 tgl 18 0 empty empty empty 17 7 0 10 -1 -262144 -262144
0 1;
#X obj 142 242 tgl 18 0 empty empty empty 17 7 0 10 -1 -262144 -262144
1 1;
#X obj 122 242 tgl 18 0 empty empty empty 17 7 0 10 -1 -262144 -262144
0 1;
#X obj 102 242 tgl 18 0 empty empty empty 17 7 0 10 -1 -262144 -262144
1 1;
#X obj 82 242 tgl 18 0 empty empty empty 17 7 0 10 -1 -262144 -262144
0 1;
#X obj 62 242 tgl 18 0 empty empty empty 17 7 0 10 -1 -262144 -262144
1 1;
#X obj 42 242 tgl 18 0 empty empty empty 17 7 0 10 -1 -262144 -262144
0 1;
#X obj 482 208 & 1;
#X obj 462 178 2^ 1;
#X obj 442 148 2^ 2;
#X obj 422 118 2^ 3;
#X obj 402 208 2^ 4;
#X obj 382 178 2^ 5;
#X obj 362 148 2^ 6;
#X obj 342 118 2^ 7;
#X obj 322 208 2^ 8;
#X obj 302 178 2^ 9;
#X obj 282 148 2^ 10;
#X obj 262 118 2^ 11;
#X obj 242 208 2^ 12;
#X obj 222 178 2^ 13;
#X obj 202 148 2^ 14;
#X obj 182 118 2^ 15;
#X obj 162 208 2^ 16;
#X obj 142 178 2^ 17;
#X obj 122 148 2^ 18;
#X obj 102 118 2^ 19;
#X obj 82 208 2^ 20;
#X obj 62 178 2^ 21;
#X obj 42 148 2^ 22;
#X obj 462 272 << 1;
#X obj 442 302 << 2;
#X obj 422 332 << 3;
#X obj 402 272 << 4;
#X obj 382 302 << 5;
#X obj 362 332 << 6;
#X obj 342 362 << 7;
#X obj 322 272 << 8;
#X obj 302 302 << 9;
#X obj 282 332 << 10;
#X obj 262 362 << 11;
#X obj 242 272 << 12;
#X obj 222 302 << 13;
#X obj 202 332 << 14;
#X obj 182 362 << 15;
#X obj 162 272 << 16;
#X obj 142 302 << 17;
#X obj 122 332 << 18;
#X obj 102 362 << 19;
#X obj 82 302 << 20;
#X obj 62 332 << 21;
#X obj 42 362 << 22;
#X obj 55 397 expr $f1 + $f2 + $f3 + $f4 + $f5 + $f6 + $f7 + $f8 +
$f9 + $f10 + $f11 + $f12 + $f13 + $f14 + $f15 + $f16 + $f17 + $f18
+ $f19 + $f20 + $f21 + $f22 + $f23;
#X obj 55 465 outlet;
#X obj 30 278 b, f 1;
#X obj 332 35 cnv 15 64 22 empty empty mantr 2 10 0 16 -1 -262144 0
;
#X text 226 63 sends and receives mantissa values;
#X connect 0 0 24 0;
#X connect 0 0 25 0;
#X connect 0 0 26 0;
#X connect 0 0 27 0;
#X connect 0 0 28 0;
#X connect 0 0 29 0;
#X connect 0 0 30 0;
#X connect 0 0 31 0;
#X connect 0 0 32 0;
#X connect 0 0 33 0;
#X connect 0 0 34 0;
#X connect 0 0 35 0;
#X connect 0 0 36 0;
#X connect 0 0 37 0;
#X connect 0 0 38 0;
#X connect 0 0 39 0;
#X connect 0 0 40 0;
#X connect 0 0 41 0;
#X connect 0 0 42 0;
#X connect 0 0 43 0;
#X connect 0 0 44 0;
#X connect 0 0 45 0;
#X connect 0 0 46 0;
#X connect 1 0 69 22;
#X connect 1 0 71 0;
#X connect 2 0 47 0;
#X connect 2 0 71 0;
#X connect 3 0 48 0;
#X connect 3 0 71 0;
#X connect 4 0 49 0;
#X connect 4 0 71 0;
#X connect 5 0 50 0;
#X connect 5 0 71 0;
#X connect 6 0 51 0;
#X connect 6 0 71 0;
#X connect 7 0 52 0;
#X connect 7 0 71 0;
#X connect 8 0 53 0;
#X connect 8 0 71 0;
#X connect 9 0 54 0;
#X connect 9 0 71 0;
#X connect 10 0 55 0;
#X connect 10 0 71 0;
#X connect 11 0 56 0;
#X connect 11 0 71 0;
#X connect 12 0 57 0;
#X connect 12 0 71 0;
#X connect 13 0 58 0;
#X connect 13 0 71 0;
#X connect 14 0 59 0;
#X connect 14 0 71 0;
#X connect 15 0 60 0;
#X connect 15 0 71 0;
#X connect 16 0 61 0;
#X connect 16 0 71 0;
#X connect 17 0 62 0;
#X connect 17 0 71 0;
#X connect 18 0 63 0;
#X connect 18 0 71 0;
#X connect 19 0 64 0;
#X connect 19 0 71 0;
#X connect 20 0 65 0;
#X connect 20 0 71 0;
#X connect 21 0 66 0;
#X connect 21 0 71 0;
#X connect 22 0 67 0;
#X connect 22 0 71 0;
#X connect 23 0 68 0;
#X connect 24 0 1 0;
#X connect 25 0 2 0;
#X connect 26 0 3 0;
#X connect 27 0 4 0;
#X connect 28 0 5 0;
#X connect 29 0 6 0;
#X connect 30 0 7 0;
#X connect 31 0 8 0;
#X connect 32 0 9 0;
#X connect 33 0 10 0;
#X connect 34 0 11 0;
#X connect 35 0 12 0;
#X connect 36 0 13 0;
#X connect 37 0 14 0;
#X connect 38 0 15 0;
#X connect 39 0 16 0;
#X connect 40 0 17 0;
#X connect 41 0 18 0;
#X connect 42 0 19 0;
#X connect 43 0 20 0;
#X connect 44 0 21 0;
#X connect 45 0 22 0;
#X connect 46 0 23 0;
#X connect 47 0 69 21;
#X connect 48 0 69 20;
#X connect 49 0 69 19;
#X connect 50 0 69 18;
#X connect 51 0 69 17;
#X connect 52 0 69 16;
#X connect 53 0 69 15;
#X connect 54 0 69 14;
#X connect 55 0 69 13;
#X connect 56 0 69 12;
#X connect 57 0 69 11;
#X connect 58 0 69 10;
#X connect 59 0 69 9;
#X connect 60 0 69 8;
#X connect 61 0 69 7;
#X connect 62 0 69 6;
#X connect 63 0 69 5;
#X connect 64 0 69 4;
#X connect 65 0 69 3;
#X connect 66 0 69 2;
#X connect 67 0 69 1;
#X connect 68 0 69 0;
#X connect 69 0 70 0;
#X connect 71 0 69 0;
#X coords 0 -1 1 1 462 22 2 40 240;
