#N canvas 689 411 510 292 10;
#X obj 472 22 tgl 18 0 empty empty empty 17 7 0 10 -262144 -1 -1 0
1;
#X obj 452 22 tgl 18 0 empty empty empty 17 7 0 10 -262144 -1 -1 0
1;
#X obj 432 22 tgl 18 0 empty empty empty 17 7 0 10 -262144 -1 -1 0
1;
#X obj 412 22 tgl 18 0 empty empty empty 17 7 0 10 -262144 -1 -1 0
1;
#X obj 392 22 tgl 18 0 empty empty empty 17 7 0 10 -262144 -1 -1 0
1;
#X obj 372 22 tgl 18 0 empty empty empty 17 7 0 10 -262144 -1 -1 0
1;
#X obj 352 22 tgl 18 0 empty empty empty 17 7 0 10 -262144 -1 -1 0
1;
#X obj 332 22 tgl 18 0 empty empty empty 17 7 0 10 -262144 -1 -1 0
1;
#X obj 312 22 tgl 18 0 empty empty empty 17 7 0 10 -262144 -1 -1 0
1;
#X obj 292 22 tgl 18 0 empty empty empty 17 7 0 10 -262144 -1 -1 0
1;
#X obj 272 22 tgl 18 0 empty empty empty 17 7 0 10 -262144 -1 -1 0
1;
#X obj 252 22 tgl 18 0 empty empty empty 17 7 0 10 -262144 -1 -1 0
1;
#X obj 232 22 tgl 18 0 empty empty empty 17 7 0 10 -262144 -1 -1 0
1;
#X obj 212 22 tgl 18 0 empty empty empty 17 7 0 10 -262144 -1 -1 0
1;
#X obj 192 22 tgl 18 0 empty empty empty 17 7 0 10 -262144 -1 -1 0
1;
#X obj 172 22 tgl 18 0 empty empty empty 17 7 0 10 -262144 -1 -1 0
1;
#X obj 152 22 tgl 18 0 empty empty empty 17 7 0 10 -262144 -1 -1 0
1;
#X obj 132 22 tgl 18 0 empty empty empty 17 7 0 10 -262144 -1 -1 0
1;
#X obj 112 22 tgl 18 0 empty empty empty 17 7 0 10 -262144 -1 -1 0
1;
#X obj 92 22 tgl 18 0 empty empty empty 17 7 0 10 -262144 -1 -1 0 1
;
#X obj 72 22 tgl 18 0 empty empty empty 17 7 0 10 -262144 -1 -1 0 1
;
#X obj 52 22 tgl 18 0 empty empty empty 17 7 0 10 -262144 -1 -1 0 1
;
#X obj 32 22 tgl 18 0 empty empty empty 17 7 0 10 -262144 -1 -1 0 1
;
#X obj 452 92 << 1;
#X obj 432 112 << 2;
#X obj 412 132 << 3;
#X obj 392 92 << 4;
#X obj 372 112 << 5;
#X obj 352 132 << 6;
#X obj 332 152 << 7;
#X obj 312 92 << 8;
#X obj 292 112 << 9;
#X obj 272 132 << 10;
#X obj 252 152 << 11;
#X obj 232 92 << 12;
#X obj 212 112 << 13;
#X obj 192 132 << 14;
#X obj 172 152 << 15;
#X obj 152 92 << 16;
#X obj 132 112 << 17;
#X obj 112 132 << 18;
#X obj 92 152 << 19;
#X obj 72 112 << 20;
#X obj 52 132 << 21;
#X obj 32 152 << 22;
#X obj 65 207 expr $f1 + $f2 + $f3 + $f4 + $f5 + $f6 + $f7 + $f8 +
$f9 + $f10 + $f11 + $f12 + $f13 + $f14 + $f15 + $f16 + $f17 + $f18
+ $f19 + $f20 + $f21 + $f22 + $f23;
#X obj 65 255 outlet;
#X obj 20 88 b, f 1;
#X connect 0 0 45 22;
#X connect 0 0 47 0;
#X connect 1 0 23 0;
#X connect 1 0 47 0;
#X connect 2 0 24 0;
#X connect 2 0 47 0;
#X connect 3 0 25 0;
#X connect 3 0 47 0;
#X connect 4 0 26 0;
#X connect 4 0 47 0;
#X connect 5 0 27 0;
#X connect 5 0 47 0;
#X connect 6 0 28 0;
#X connect 6 0 47 0;
#X connect 7 0 29 0;
#X connect 7 0 47 0;
#X connect 8 0 30 0;
#X connect 8 0 47 0;
#X connect 9 0 31 0;
#X connect 9 0 47 0;
#X connect 10 0 32 0;
#X connect 10 0 47 0;
#X connect 11 0 33 0;
#X connect 11 0 47 0;
#X connect 12 0 34 0;
#X connect 12 0 47 0;
#X connect 13 0 35 0;
#X connect 13 0 47 0;
#X connect 14 0 36 0;
#X connect 14 0 47 0;
#X connect 15 0 37 0;
#X connect 15 0 47 0;
#X connect 16 0 38 0;
#X connect 16 0 47 0;
#X connect 17 0 39 0;
#X connect 17 0 47 0;
#X connect 18 0 40 0;
#X connect 18 0 47 0;
#X connect 19 0 41 0;
#X connect 19 0 47 0;
#X connect 20 0 42 0;
#X connect 20 0 47 0;
#X connect 21 0 43 0;
#X connect 21 0 47 0;
#X connect 22 0 44 0;
#X connect 23 0 45 21;
#X connect 24 0 45 20;
#X connect 25 0 45 19;
#X connect 26 0 45 18;
#X connect 27 0 45 17;
#X connect 28 0 45 16;
#X connect 29 0 45 15;
#X connect 30 0 45 14;
#X connect 31 0 45 13;
#X connect 32 0 45 12;
#X connect 33 0 45 11;
#X connect 34 0 45 10;
#X connect 35 0 45 9;
#X connect 36 0 45 8;
#X connect 37 0 45 7;
#X connect 38 0 45 6;
#X connect 39 0 45 5;
#X connect 40 0 45 4;
#X connect 41 0 45 3;
#X connect 42 0 45 2;
#X connect 43 0 45 1;
#X connect 44 0 45 0;
#X connect 45 0 46 0;
#X connect 47 0 45 0;
#X coords 0 -1 1 1 462 22 2 30 20;
