#N canvas 155 473 527 360 14;
#X obj 68 67 inlet;
#X obj 68 95 s \$0-in;
#X obj 428 131 r \$0-in;
#X obj 356 131 r \$0-in;
#X obj 284 131 r \$0-in;
#X obj 212 131 r \$0-in;
#X obj 140 131 r \$0-in;
#X obj 68 131 r \$0-in;
#X obj 428 292 tgl 15 0 empty empty empty 17 7 0 10 -1 -262144 -262144
0 1;
#X obj 410 292 tgl 15 0 empty empty empty 17 7 0 10 -1 -262144 -262144
0 1;
#X obj 392 292 tgl 15 0 empty empty empty 17 7 0 10 -1 -262144 -262144
0 1;
#X obj 374 292 tgl 15 0 empty empty empty 17 7 0 10 -1 -262144 -262144
0 1;
#X obj 356 292 tgl 15 0 empty empty empty 17 7 0 10 -1 -262144 -262144
0 1;
#X obj 338 292 tgl 15 0 empty empty empty 17 7 0 10 -1 -262144 -262144
0 1;
#X obj 320 292 tgl 15 0 empty empty empty 17 7 0 10 -1 -262144 -262144
0 1;
#X obj 302 292 tgl 15 0 empty empty empty 17 7 0 10 -1 -262144 -262144
0 1;
#X obj 284 292 tgl 15 0 empty empty empty 17 7 0 10 -1 -262144 -262144
0 1;
#X obj 266 292 tgl 15 0 empty empty empty 17 7 0 10 -1 -262144 -262144
0 1;
#X obj 248 292 tgl 15 0 empty empty empty 17 7 0 10 -1 -262144 -262144
0 1;
#X obj 230 292 tgl 15 0 empty empty empty 17 7 0 10 -1 -262144 -262144
0 1;
#X obj 212 292 tgl 15 0 empty empty empty 17 7 0 10 -1 -262144 -262144
0 1;
#X obj 194 292 tgl 15 0 empty empty empty 17 7 0 10 -1 -262144 -262144
0 1;
#X obj 176 292 tgl 15 0 empty empty empty 17 7 0 10 -1 -262144 -262144
0 1;
#X obj 158 292 tgl 15 0 empty empty empty 17 7 0 10 -1 -262144 -262144
0 1;
#X obj 140 292 tgl 15 0 empty empty empty 17 7 0 10 -1 -262144 -262144
0 1;
#X obj 122 292 tgl 15 0 empty empty empty 17 7 0 10 -1 -262144 -262144
0 1;
#X obj 104 292 tgl 15 0 empty empty empty 17 7 0 10 -1 -262144 -262144
0 1;
#X obj 86 292 tgl 15 0 empty empty empty 17 7 0 10 -1 -262144 -262144
0 1;
#X obj 68 292 tgl 15 0 empty empty empty 17 7 0 10 -1 -262144 -262144
0 1;
#X obj 50 292 tgl 15 0 empty empty empty 17 7 0 10 -1 -262144 -262144
0 1;
#X obj 32 292 tgl 15 0 empty empty empty 17 7 0 10 -1 -262144 -262144
0 1;
#X obj 428 258 & 1;
#X obj 410 228 2^ 1;
#X obj 392 198 2^ 2;
#X obj 374 168 2^ 3;
#X obj 356 258 2^ 4;
#X obj 338 228 2^ 5;
#X obj 320 198 2^ 6;
#X obj 302 168 2^ 7;
#X obj 284 258 2^ 8;
#X obj 266 228 2^ 9;
#X obj 248 198 2^ 10;
#X obj 230 168 2^ 11;
#X obj 212 258 2^ 12;
#X obj 194 228 2^ 13;
#X obj 176 198 2^ 14;
#X obj 158 168 2^ 15;
#X obj 140 258 2^ 16;
#X obj 122 228 2^ 17;
#X obj 104 198 2^ 18;
#X obj 86 168 2^ 19;
#X obj 68 258 2^ 20;
#X obj 50 228 2^ 21;
#X obj 32 198 2^ 22;
#X obj 265 59 cnv 15 112 24 empty empty mantissa 4 12 0 18 -1 -262144
0;
#X text 143 88 binary representation of a 23-bit mantissa;
#X connect 0 0 1 0;
#X connect 2 0 31 0;
#X connect 2 0 32 0;
#X connect 2 0 33 0;
#X connect 2 0 34 0;
#X connect 3 0 35 0;
#X connect 3 0 36 0;
#X connect 3 0 37 0;
#X connect 3 0 38 0;
#X connect 4 0 39 0;
#X connect 4 0 40 0;
#X connect 4 0 41 0;
#X connect 4 0 42 0;
#X connect 5 0 43 0;
#X connect 5 0 44 0;
#X connect 5 0 45 0;
#X connect 5 0 46 0;
#X connect 6 0 47 0;
#X connect 6 0 48 0;
#X connect 6 0 49 0;
#X connect 6 0 50 0;
#X connect 7 0 51 0;
#X connect 7 0 52 0;
#X connect 7 0 53 0;
#X connect 31 0 8 0;
#X connect 32 0 9 0;
#X connect 33 0 10 0;
#X connect 34 0 11 0;
#X connect 35 0 12 0;
#X connect 36 0 13 0;
#X connect 37 0 14 0;
#X connect 38 0 15 0;
#X connect 39 0 16 0;
#X connect 40 0 17 0;
#X connect 41 0 18 0;
#X connect 42 0 19 0;
#X connect 43 0 20 0;
#X connect 44 0 21 0;
#X connect 45 0 22 0;
#X connect 46 0 23 0;
#X connect 47 0 24 0;
#X connect 48 0 25 0;
#X connect 49 0 26 0;
#X connect 50 0 27 0;
#X connect 51 0 28 0;
#X connect 52 0 29 0;
#X connect 53 0 30 0;
#X coords 0 -1 1 1 415 19 2 30 290;
