#N canvas 200 200 1470 300 14;
#X obj 770 50 inlet;
#X obj 970 240 tgl 18 0 empty empty empty 17 7 0 10 #404040 #fcfcfc
#fcfcfc 0 1;
#X obj 950 240 tgl 18 0 empty empty empty 17 7 0 10 #404040 #fcfcfc
#fcfcfc 0 1;
#X obj 930 240 tgl 18 0 empty empty empty 17 7 0 10 #404040 #fcfcfc
#fcfcfc 0 1;
#X obj 910 240 tgl 18 0 empty empty empty 17 7 0 10 #404040 #fcfcfc
#fcfcfc 0 1;
#X obj 890 240 tgl 18 0 empty empty empty 17 7 0 10 #404040 #fcfcfc
#fcfcfc 0 1;
#X obj 870 240 tgl 18 0 empty empty empty 17 7 0 10 #404040 #fcfcfc
#fcfcfc 0 1;
#X obj 850 240 tgl 18 0 empty empty empty 17 7 0 10 #404040 #fcfcfc
#fcfcfc 0 1;
#X obj 830 240 tgl 18 0 empty empty empty 17 7 0 10 #404040 #fcfcfc
#fcfcfc 0 1;
#X obj 810 240 tgl 18 0 empty empty empty 17 7 0 10 #404040 #fcfcfc
#fcfcfc 0 1;
#X obj 790 240 tgl 18 0 empty empty empty 17 7 0 10 #404040 #fcfcfc
#fcfcfc 0 1;
#X obj 770 240 tgl 18 0 empty empty empty 17 7 0 10 #404040 #fcfcfc
#fcfcfc 0 1;
#X obj 750 240 tgl 18 0 empty empty empty 17 7 0 10 #404040 #fcfcfc
#fcfcfc 0 1;
#X obj 730 240 tgl 18 0 empty empty empty 17 7 0 10 #404040 #fcfcfc
#fcfcfc 0 1;
#X obj 710 240 tgl 18 0 empty empty empty 17 7 0 10 #404040 #fcfcfc
#fcfcfc 0 1;
#X obj 690 240 tgl 18 0 empty empty empty 17 7 0 10 #404040 #fcfcfc
#fcfcfc 0 1;
#X obj 670 240 tgl 18 0 empty empty empty 17 7 0 10 #404040 #fcfcfc
#fcfcfc 0 1;
#X obj 650 240 tgl 18 0 empty empty empty 17 7 0 10 #404040 #fcfcfc
#fcfcfc 0 1;
#X obj 630 240 tgl 18 0 empty empty empty 17 7 0 10 #404040 #fcfcfc
#fcfcfc 0 1;
#X obj 610 240 tgl 18 0 empty empty empty 17 7 0 10 #404040 #fcfcfc
#fcfcfc 0 1;
#X obj 590 240 tgl 18 0 empty empty empty 17 7 0 10 #404040 #fcfcfc
#fcfcfc 0 1;
#X obj 570 240 tgl 18 0 empty empty empty 17 7 0 10 #404040 #fcfcfc
#fcfcfc 0 1;
#X obj 550 240 tgl 18 0 empty empty empty 17 7 0 10 #404040 #fcfcfc
#fcfcfc 0 1;
#X obj 530 240 tgl 18 0 empty empty empty 17 7 0 10 #404040 #fcfcfc
#fcfcfc 0 1;
#X obj 1370 110 & 1;
#X obj 60 30 cnv 15 112 24 empty empty mantissa 4 12 0 18 #000000 #fcfcfc
0;
#X text 60 60 representation of a 23-bit mantissa;
#X obj 830 140 & 1;
#X obj 830 110 >> 9;
#X obj 890 140 & 1;
#X obj 890 110 >> 8;
#X obj 950 140 & 1;
#X obj 1010 140 & 1;
#X obj 1070 140 & 1;
#X obj 1130 140 & 1;
#X obj 1190 140 & 1;
#X obj 1250 140 & 1;
#X obj 1310 140 & 1;
#X obj 950 110 >> 7;
#X obj 1010 110 >> 6;
#X obj 1070 110 >> 5;
#X obj 1130 110 >> 4;
#X obj 1190 110 >> 3;
#X obj 1250 110 >> 2;
#X obj 1310 110 >> 1;
#X obj 770 140 & 1;
#X obj 230 140 & 1;
#X obj 290 140 & 1;
#X obj 350 140 & 1;
#X obj 410 140 & 1;
#X obj 470 140 & 1;
#X obj 530 140 & 1;
#X obj 590 140 & 1;
#X obj 650 140 & 1;
#X obj 710 140 & 1;
#X obj 770 110 >> 10;
#X obj 710 110 >> 11;
#X obj 650 110 >> 12;
#X obj 590 110 >> 13;
#X obj 530 110 >> 14;
#X obj 470 110 >> 15;
#X obj 410 110 >> 16;
#X obj 350 110 >> 17;
#X obj 290 110 >> 18;
#X obj 230 110 >> 19;
#X obj 50 140 & 1;
#X obj 110 140 & 1;
#X obj 170 140 & 1;
#X obj 170 110 >> 20;
#X obj 110 110 >> 21;
#X obj 50 110 >> 22;
#X msg 50 170 set \$1;
#X msg 110 170 set \$1;
#X msg 170 170 set \$1;
#X msg 230 170 set \$1;
#X msg 290 170 set \$1;
#X msg 350 170 set \$1;
#X msg 410 170 set \$1;
#X msg 470 170 set \$1;
#X msg 530 170 set \$1;
#X msg 590 170 set \$1;
#X msg 650 170 set \$1;
#X msg 710 170 set \$1;
#X msg 770 170 set \$1;
#X msg 830 170 set \$1;
#X msg 890 170 set \$1;
#X msg 950 170 set \$1;
#X msg 1010 170 set \$1;
#X msg 1070 170 set \$1;
#X msg 1130 170 set \$1;
#X msg 1190 170 set \$1;
#X msg 1250 170 set \$1;
#X msg 1310 170 set \$1;
#X msg 1370 170 set \$1;
#X connect 0 0 70 0;
#X connect 0 0 69 0;
#X connect 0 0 68 0;
#X connect 0 0 64 0;
#X connect 0 0 63 0;
#X connect 0 0 62 0;
#X connect 0 0 61 0;
#X connect 0 0 60 0;
#X connect 0 0 59 0;
#X connect 0 0 58 0;
#X connect 0 0 57 0;
#X connect 0 0 56 0;
#X connect 0 0 55 0;
#X connect 0 0 44 0;
#X connect 0 0 43 0;
#X connect 0 0 42 0;
#X connect 0 0 41 0;
#X connect 0 0 40 0;
#X connect 0 0 39 0;
#X connect 0 0 38 0;
#X connect 0 0 30 0;
#X connect 0 0 28 0;
#X connect 0 0 24 0;
#X connect 24 0 93 0;
#X connect 27 0 84 0;
#X connect 28 0 27 0;
#X connect 29 0 85 0;
#X connect 30 0 29 0;
#X connect 31 0 86 0;
#X connect 32 0 87 0;
#X connect 33 0 88 0;
#X connect 34 0 89 0;
#X connect 35 0 90 0;
#X connect 36 0 91 0;
#X connect 37 0 92 0;
#X connect 38 0 31 0;
#X connect 39 0 32 0;
#X connect 40 0 33 0;
#X connect 41 0 34 0;
#X connect 42 0 35 0;
#X connect 43 0 36 0;
#X connect 44 0 37 0;
#X connect 45 0 83 0;
#X connect 46 0 74 0;
#X connect 47 0 75 0;
#X connect 48 0 76 0;
#X connect 49 0 77 0;
#X connect 50 0 78 0;
#X connect 51 0 79 0;
#X connect 52 0 80 0;
#X connect 53 0 81 0;
#X connect 54 0 82 0;
#X connect 55 0 45 0;
#X connect 56 0 54 0;
#X connect 57 0 53 0;
#X connect 58 0 52 0;
#X connect 59 0 51 0;
#X connect 60 0 50 0;
#X connect 61 0 49 0;
#X connect 62 0 48 0;
#X connect 63 0 47 0;
#X connect 64 0 46 0;
#X connect 65 0 71 0;
#X connect 66 0 72 0;
#X connect 67 0 73 0;
#X connect 68 0 67 0;
#X connect 69 0 66 0;
#X connect 70 0 65 0;
#X connect 71 0 23 0;
#X connect 72 0 22 0;
#X connect 73 0 21 0;
#X connect 74 0 20 0;
#X connect 75 0 19 0;
#X connect 76 0 18 0;
#X connect 77 0 17 0;
#X connect 78 0 16 0;
#X connect 79 0 15 0;
#X connect 80 0 14 0;
#X connect 81 0 13 0;
#X connect 82 0 12 0;
#X connect 83 0 11 0;
#X connect 84 0 10 0;
#X connect 85 0 9 0;
#X connect 86 0 8 0;
#X connect 87 0 7 0;
#X connect 88 0 6 0;
#X connect 89 0 5 0;
#X connect 90 0 4 0;
#X connect 91 0 3 0;
#X connect 92 0 2 0;
#X connect 93 0 1 0;
#X coords 0 -1 1 1 462 22 2 528 238;
