#N canvas 719 355 450 300 10;
#X obj 205 173 dac~;
#X obj 159 102 catch~ L;
#X obj 262 102 catch~ R;
#X obj 159 156 *~;
#X obj 262 156 *~;
#X obj 214 125 inlet~;
#X connect 1 0 3 0;
#X connect 2 0 4 0;
#X connect 3 0 0 0;
#X connect 4 0 0 1;
#X connect 5 0 4 1;
#X connect 5 0 3 1;
#X coords 0 158 1 157 85 60 0;
