#N canvas 719 355 450 300 12;
#X text 159 30 "NOT EQUAL" ALIASES;
#X text 171 54 <> \, >< \, #<> \, #><;
#X floatatom 65 97 0 0 0 0 - - -;
#X floatatom 100 97 0 0 0 0 - - -;
#X floatatom 65 155 0 0 0 0 - - -;
#X obj 65 126 <>;
#X floatatom 158 97 0 0 0 0 - - -;
#X floatatom 193 97 0 0 0 0 - - -;
#X floatatom 158 155 0 0 0 0 - - -;
#X obj 158 126 ><;
#X floatatom 252 97 0 0 0 0 - - -;
#X floatatom 287 97 0 0 0 0 - - -;
#X floatatom 252 155 0 0 0 0 - - -;
#X obj 252 126 #<>;
#X floatatom 345 97 0 0 0 0 - - -;
#X floatatom 380 97 0 0 0 0 - - -;
#X floatatom 345 155 0 0 0 0 - - -;
#X obj 345 126 #><;
#X connect 2 0 5 0;
#X connect 3 0 5 1;
#X connect 5 0 4 0;
#X connect 6 0 9 0;
#X connect 7 0 9 1;
#X connect 9 0 8 0;
#X connect 10 0 13 0;
#X connect 11 0 13 1;
#X connect 13 0 12 0;
#X connect 14 0 17 0;
#X connect 15 0 17 1;
#X connect 17 0 16 0;
