#N canvas 719 355 450 300 10;
#X text 192 16 NTOF / FTON;
#X text 56 36 similar to [mtof] and [ftom] with the added ability to
change the reference pitch and the number of tones in an octave.;
#X obj 107 105 cupqb;
#X obj 133 155 ntof 432 13;
#X floatatom 94 181 5 0 0 0 - - -, f 5;
#X obj 133 182 phasor~;
#X obj 133 204 *~;
#X floatatom 176 203 5 0 0 0 - - -, f 5;
#X obj 176 222 / 1000;
#X obj 133 226 dac~;
#X floatatom 261 181 0 0 0 0 - - -;
#X floatatom 261 226 0 0 0 0 - - -;
#X floatatom 261 272 0 0 0 0 - - -;
#X floatatom 196 133 0 0 0 0 - - -;
#X floatatom 164 113 0 0 0 0 - - -;
#X msg 374 111 ref \$1;
#X text 192 112 reference pitch. default: 440;
#X msg 374 134 tet \$1;
#X text 228 133 # of tones. default: 12;
#X text 378 90 funcs;
#X floatatom 341 181 0 0 0 0 - - -;
#X obj 341 204 ntof;
#X floatatom 341 226 0 0 0 0 - - -;
#X obj 341 249 fton;
#X floatatom 341 272 0 0 0 0 - - -;
#X floatatom 311 161 0 0 0 0 - - -;
#X obj 261 204 mtof;
#X obj 261 249 ftom;
#X connect 2 0 3 0;
#X connect 3 0 4 0;
#X connect 3 0 5 0;
#X connect 5 0 6 0;
#X connect 6 0 9 0;
#X connect 6 0 9 1;
#X connect 7 0 8 0;
#X connect 8 0 6 1;
#X connect 10 0 26 0;
#X connect 11 0 27 0;
#X connect 13 0 3 2;
#X connect 14 0 3 1;
#X connect 20 0 21 0;
#X connect 21 0 22 0;
#X connect 22 0 23 0;
#X connect 23 0 24 0;
#X connect 25 0 20 0;
#X connect 25 0 10 0;
#X connect 26 0 11 0;
#X connect 27 0 12 0;
