#N canvas 719 355 450 300 10;
#X obj 190 127 inlet;
#X obj 190 149 pack 0 1;
#X obj 190 171 line;
#X obj 190 193 outlet;
#X obj 229 83 loadbang;
#X obj 229 105 \$1;
#X obj 229 127 sel;
#X obj 256 127 inlet;
#X connect 0 0 1 0;
#X connect 1 0 2 0;
#X connect 2 0 3 0;
#X connect 4 0 5 0;
#X connect 5 0 6 0;
#X connect 6 1 1 1;
#X connect 7 0 1 1;
