#N canvas 719 355 450 300 12;
#X obj 192 118 inlet;
#X obj 192 144 pack 0 1;
#X obj 192 169 line~;
#X obj 192 195 outlet~;
#X obj 237 67 loadbang;
#X obj 237 92 \$1;
#X obj 237 118 sel;
#X obj 269 118 inlet;
#X connect 0 0 1 0;
#X connect 1 0 2 0;
#X connect 2 0 3 0;
#X connect 4 0 5 0;
#X connect 5 0 6 0;
#X connect 6 1 1 1;
#X connect 7 0 1 1;
