#N canvas 400 200 790 540 14;
#X declare -lib zexy;
#X msg 260 100 one 2 3;
#X msg 340 100 4 five 6;
#X msg 340 130 7 8 nine;
#X obj 230 190 unpak any 2 3;
#X obj 230 270 pak hi b float;
#X msg 180 100 . . 234;
#N canvas 570 570 450 320 foo 0;
#X restore 50 140 pd foo;
#X msg 50 170 traverse pd-foo \, bang;
#X obj 50 200 pointer;
#X msg 50 230 list \$1 1234;
#X msg 120 200 hello;
#X msg 180 200 12;
#X msg 140 270 list bang;
#X obj 250 230 bng 15 250 50 0 empty empty empty 17 7 0 10 #ff8300
#fcfcfc #fcfcfc;
#X msg 290 220 . 6;
#X msg 350 170 traverse pd-foo \, bang;
#X obj 350 200 pointer;
#X msg 350 230 yo 42 34;
#X msg 450 220 mute 0;
#X obj 250 300 print;
#X obj 230 360 unpak a 2 f;
#X msg 150 310 1 2 three;
#X msg 90 360 mute 0;
#N canvas 570 390 350 270 out 0;
#X obj 70 50 inlet;
#X obj 70 80 x;
#X obj 100 110 is p;
#X obj 70 140 demux;
#X obj 70 180 route float bang;
#X obj 70 210 outlet;
#X obj 130 210 outlet;
#X obj 190 210 outlet;
#X obj 240 180 outlet;
#X connect 0 0 1 0;
#X connect 1 0 3 0;
#X connect 1 1 2 0;
#X connect 2 0 3 1;
#X connect 3 0 4 0;
#X connect 3 1 8 0;
#X connect 4 0 5 0;
#X connect 4 1 6 0;
#X connect 4 2 7 0;
#X restore 140 390 pd out;
#X floatatom 140 480 0 0 0 0 - - - 0;
#X obj 150 420 bng 15 250 50 0 empty empty empty 17 7 0 10 #ff8300
#fcfcfc #fcfcfc;
#X obj 170 450 symbol;
#X symbolatom 170 480 0 0 0 0 - - - 0;
#X obj 190 420 pointer;
#X obj 230 450 bng 15 250 50 0 empty empty empty 17 7 0 10 #ff8300
#fcfcfc #fcfcfc;
#N canvas 570 390 350 270 out 0;
#X obj 70 50 inlet;
#X obj 70 80 x;
#X obj 100 110 is p;
#X obj 70 140 demux;
#X obj 70 180 route float bang;
#X obj 70 210 outlet;
#X obj 130 210 outlet;
#X obj 190 210 outlet;
#X obj 240 180 outlet;
#X connect 0 0 1 0;
#X connect 1 0 3 0;
#X connect 1 1 2 0;
#X connect 2 0 3 1;
#X connect 3 0 4 0;
#X connect 3 1 8 0;
#X connect 4 0 5 0;
#X connect 4 1 6 0;
#X connect 4 2 7 0;
#X restore 260 390 pd out;
#X floatatom 260 480 0 0 0 0 - - - 0;
#X obj 270 420 bng 15 250 50 0 empty empty empty 17 7 0 10 #ff8300
#fcfcfc #fcfcfc;
#X obj 290 450 symbol;
#X symbolatom 290 480 0 0 0 0 - - - 0;
#X obj 310 420 pointer;
#X obj 350 450 bng 15 250 50 0 empty empty empty 17 7 0 10 #ff8300
#fcfcfc #fcfcfc;
#N canvas 570 390 350 270 out 0;
#X obj 70 50 inlet;
#X obj 70 80 x;
#X obj 100 110 is p;
#X obj 70 140 demux;
#X obj 70 180 route float bang;
#X obj 70 210 outlet;
#X obj 130 210 outlet;
#X obj 190 210 outlet;
#X obj 240 180 outlet;
#X connect 0 0 1 0;
#X connect 1 0 3 0;
#X connect 1 1 2 0;
#X connect 2 0 3 1;
#X connect 3 0 4 0;
#X connect 3 1 8 0;
#X connect 4 0 5 0;
#X connect 4 1 6 0;
#X connect 4 2 7 0;
#X restore 380 390 pd out;
#X floatatom 380 480 0 0 0 0 - - - 0;
#X obj 390 420 bng 15 250 50 0 empty empty empty 17 7 0 10 #ff8300
#fcfcfc #fcfcfc;
#X obj 410 450 symbol;
#X symbolatom 410 480 0 0 0 0 - - - 0;
#X obj 430 420 pointer;
#X obj 470 450 bng 15 250 50 0 empty empty empty 17 7 0 10 #ff8300
#fcfcfc #fcfcfc;
#X text 160 60 lazy pack/unpack objects with 'anything' inlets/outlets
;
#X text 50 100 "." skips args;
#X text 420 130 expect float but got symbol;
#X text 450 200 error messages are off by default;
#X text 510 220 print all strict errors;
#X text 450 240 acts as a bit mask. -1 mutes all;
#X text 360 270 with pak \, 'b' turns into a lazy 'bang';
#X text 360 290 and unrecognized types become lazy symbols;
#X text 330 340 use f(loat) \, s(ymbol) \, or p(ointer) for strict
type;
#X text 330 360 'a' \, 'any' \, or a number for 'anything';
#X text 40 310 type mismatch;
#X obj 300 30 cnv 15 152 24 empty empty pak\\\ &\\\ unpak 4 12 0 18
#000000 #fcfcfc 0;
#X obj 540 450 declare -lib zexy;
#X connect 0 0 3 0;
#X connect 1 0 3 0;
#X connect 2 0 3 0;
#X connect 3 0 4 0;
#X connect 3 1 4 1;
#X connect 3 2 4 2;
#X connect 4 0 20 0;
#X connect 4 0 19 0;
#X connect 5 0 4 0;
#X connect 7 0 8 0;
#X connect 8 0 9 0;
#X connect 9 0 4 0;
#X connect 10 0 4 0;
#X connect 11 0 4 0;
#X connect 12 0 4 0;
#X connect 13 0 4 0;
#X connect 14 0 4 1;
#X connect 15 0 16 0;
#X connect 16 0 4 1;
#X connect 17 0 4 1;
#X connect 18 0 4 0;
#X connect 20 0 23 0;
#X connect 20 1 30 0;
#X connect 20 2 37 0;
#X connect 21 0 20 0;
#X connect 22 0 20 0;
#X connect 23 0 24 0;
#X connect 23 1 25 0;
#X connect 23 2 26 0;
#X connect 23 3 28 0;
#X connect 26 0 27 0;
#X connect 28 0 29 0;
#X connect 30 0 31 0;
#X connect 30 1 32 0;
#X connect 30 2 33 0;
#X connect 30 3 35 0;
#X connect 33 0 34 0;
#X connect 35 0 36 0;
#X connect 37 0 38 0;
#X connect 37 1 39 0;
#X connect 37 2 40 0;
#X connect 37 3 42 0;
#X connect 40 0 41 0;
#X connect 42 0 43 0;
