#N canvas 710 360 350 300 14;
#X obj 110 90 inlet;
#X obj 170 90 loadbang;
#X msg 140 130 5;
#X obj 140 160 sqrt;
#X obj 140 190 + 1;
#X obj 140 220 / 2;
#X obj 140 250 outlet;
#X text 110 60 the golden ratio;
#X obj 150 30 cnv 15 48 24 empty empty phi 4 12 0 18 #000000 #fcfcfc
0;
#X connect 0 0 2 0;
#X connect 1 0 2 0;
#X connect 2 0 3 0;
#X connect 3 0 4 0;
#X connect 4 0 5 0;
#X connect 5 0 6 0;
