#N canvas 714 357 450 300 10;
#X obj 203 207 + 1;
#X obj 203 229 / 2;
#X obj 203 185 sqrt;
#X msg 203 163 5;
#X obj 173 131 inlet;
#X obj 203 251 outlet;
#X obj 232 131 loadbang;
#X obj 199 66 cnv 6 1 1 empty empty phi 6 0 0 14 -233017 -66577 0;
#X text 176 83 the golden ratio;
#X connect 0 0 1 0;
#X connect 1 0 5 0;
#X connect 2 0 0 0;
#X connect 3 0 2 0;
#X connect 4 0 3 0;
#X connect 6 0 3 0;
