#N canvas 714 357 450 300 14;
#X obj 93 163 + 1;
#X obj 93 192 / 2;
#X obj 93 134 sqrt;
#X msg 93 105 5;
#X obj 63 73 inlet;
#X obj 93 221 outlet;
#X obj 122 73 loadbang;
#X obj 269 75 cnv 15 40 22 empty empty phi 2 10 0 16 -1 -262144 0;
#X text 223 98 the golden ratio;
#X connect 0 0 1 0;
#X connect 1 0 5 0;
#X connect 2 0 0 0;
#X connect 3 0 2 0;
#X connect 4 0 3 0;
#X connect 6 0 3 0;
