#N canvas 78 505 463 410 14;
#X obj 146 242 cos~;
#X obj 146 280 *~;
#X obj 66 316 cos~;
#X obj 66 92 phasor~;
#X obj 146 215 *~;
#X obj 66 214 *~;
#X obj 216 252 inlet~;
#X obj 187 187 inlet~;
#X floatatom 216 225 0 0 0 1 modulation_index - -;
#X obj 66 62 inlet~;
#X obj 157 128 inlet~;
#X floatatom 187 160 0 0 0 1 modulator_ratio - -;
#X floatatom 157 101 0 0 0 1 carrier_ratio - -;
#X obj 66 353 outlet~;
#X floatatom 66 35 0 0 0 1 frequency - -;
#X connect 0 0 1 0;
#X connect 1 0 2 0;
#X connect 2 0 13 0;
#X connect 3 0 4 0;
#X connect 3 0 5 0;
#X connect 4 0 0 0;
#X connect 5 0 2 0;
#X connect 6 0 1 1;
#X connect 7 0 4 1;
#X connect 8 0 6 0;
#X connect 9 0 3 0;
#X connect 10 0 5 1;
#X connect 11 0 7 0;
#X connect 12 0 10 0;
#X connect 14 0 9 0;
