#N canvas 120 570 451 321 14;
#X obj 50 140 cnv 15 72 24 empty \$0clock 00:00 4 12 0 18 -1 -262144
0;
#N canvas 690 260 471 461 clock 0;
#X obj 30 60 bng 16 250 50 0 empty empty pause 20 8 0 11 -1 -262144
-262144;
#X msg 30 90 pause;
#X obj 30 130 s \$0p;
#X obj 30 30 bng 16 250 50 0 empty empty reset 20 8 0 11 -1 -262144
-262144;
#X obj 330 50 tgl 16 0 empty empty reset 20 8 0 11 -1 -262144 -262144
0 1;
#X obj 360 90 t f f;
#X obj 280 130 sel 1;
#X obj 360 250 metro 500;
#X floatatom 400 220 0 0 0 0 - - -;
#X msg 330 190 set \$1;
#X obj 330 220 tgl 16 0 empty empty empty 17 7 0 10 -1 -262144 -262144
0 1;
#X obj 280 160 r \$0p;
#X msg 280 190 bang;
#X msg 300 250 bang;
#X msg 130 70 tempo 0.016667 msec;
#X obj 90 130 delp;
#X obj 180 130 delp;
#X msg 90 160 5;
#X msg 180 160 25;
#X obj 90 190 * 60000;
#X obj 180 190 * 60000;
#X obj 90 220 - 1;
#X obj 180 220 - 1;
#X obj 90 250 * -1;
#X obj 180 250 * -1;
#N canvas 940 510 451 301 notify 0;
#X obj 40 30 inlet;
#X obj 100 30 inlet;
#X msg 100 60 1;
#X obj 100 90 +;
#X obj 140 90 f;
#X msg 40 120 kdialog --passivepopup 'Take a break' 8;
#X msg 50 150 kdialog --passivepopup 'Work Session \$1' 8;
#X obj 40 180 shell;
#X connect 0 0 5 0;
#X connect 1 0 2 0;
#X connect 2 0 3 0;
#X connect 3 0 4 0;
#X connect 3 0 6 0;
#X connect 4 0 3 1;
#X connect 5 0 7 0;
#X connect 6 0 7 0;
#X restore 90 300 pd notify;
#X obj 180 300 chrono;
#N canvas 1140 350 451 371 tick 0;
#X obj 100 20 inlet;
#X obj 140 260 inlet;
#X obj 100 50 abs;
#X obj 100 80 t f f;
#X obj 160 110 % 60000;
#X obj 100 110 % 1000;
#X obj 160 140 < 1000;
#X obj 100 140 >= 500;
#X obj 160 170 sel;
#X msg 160 200 0.33;
#X obj 100 170 ad 3 5;
#X obj 100 200 *~;
#X obj 100 230 *~;
#X obj 100 260 *~;
#X obj 100 300 *~ 0.05;
#X obj 100 330 dac~;
#X obj 140 230 noise~;
#X obj 180 300 hsl 128 15 0.001 1 1 0 empty empty empty -2 -8 0 10
-1 -262144 -262144 0 1;
#X floatatom 180 320 0 0 0 0 - - -;
#X connect 0 0 2 0;
#X connect 1 0 13 1;
#X connect 2 0 3 0;
#X connect 3 0 5 0;
#X connect 3 1 4 0;
#X connect 4 0 6 0;
#X connect 5 0 7 0;
#X connect 6 0 8 0;
#X connect 7 0 10 0;
#X connect 8 0 9 0;
#X connect 8 1 11 1;
#X connect 9 0 11 1;
#X connect 10 0 11 0;
#X connect 11 0 12 0;
#X connect 12 0 13 0;
#X connect 13 0 14 0;
#X connect 14 0 15 0;
#X connect 14 0 15 1;
#X connect 16 0 12 1;
#X connect 17 0 18 0;
#X connect 17 0 14 1;
#X restore 240 340 pd tick;
#X msg 300 300 0;
#X msg 340 300 1;
#N canvas 970 370 421 391 hms 0;
#X obj 130 30 inlet;
#X obj 130 60 abs;
#X obj 130 90 t f f;
#N canvas 980 380 451 301 blink 0;
#X obj 90 30 inlet;
#X obj 90 60 % 1000;
#X obj 90 90 >= 500;
#X obj 90 120 sel;
#X msg 130 150 symbol :;
#X msg 130 190 symbol \ ;
#X obj 90 220 outlet;
#X connect 0 0 1 0;
#X connect 1 0 2 0;
#X connect 2 0 3 0;
#X connect 3 0 5 0;
#X connect 3 1 4 0;
#X connect 4 0 6 0;
#X connect 5 0 6 0;
#X restore 240 180 pd blink;
#X obj 120 120 / 1000;
#X obj 120 150 t f f;
#X obj 180 180 div 60;
#X obj 180 210 lead0;
#X obj 120 180 % 60;
#X obj 120 210 lead0;
#X obj 170 260 pack s s s;
#X msg 170 290 symbol \$2\$3\$1;
#X obj 170 320 outlet;
#X connect 0 0 1 0;
#X connect 1 0 2 0;
#X connect 2 0 4 0;
#X connect 2 1 3 0;
#X connect 3 0 10 2;
#X connect 4 0 5 0;
#X connect 5 0 8 0;
#X connect 5 1 6 0;
#X connect 6 0 7 0;
#X connect 7 0 10 1;
#X connect 8 0 9 0;
#X connect 9 0 10 0;
#X connect 10 0 11 0;
#X connect 11 0 12 0;
#X restore 180 340 pd hms;
#X msg 180 370 label \$1;
#X obj 180 400 s \$0clock;
#X connect 0 0 1 0;
#X connect 1 0 2 0;
#X connect 1 0 16 0;
#X connect 1 0 15 0;
#X connect 3 0 4 0;
#X connect 4 0 5 0;
#X connect 5 0 7 0;
#X connect 5 0 9 0;
#X connect 5 1 6 0;
#X connect 6 0 18 0;
#X connect 7 0 26 1;
#X connect 8 0 7 1;
#X connect 9 0 10 0;
#X connect 10 0 7 0;
#X connect 11 0 12 0;
#X connect 11 0 26 0;
#X connect 12 0 10 0;
#X connect 12 0 26 1;
#X connect 13 0 26 0;
#X connect 13 0 10 0;
#X connect 14 0 15 0;
#X connect 14 0 16 0;
#X connect 14 0 26 0;
#X connect 15 0 17 0;
#X connect 16 0 18 0;
#X connect 17 0 19 0;
#X connect 18 0 20 0;
#X connect 19 0 21 0;
#X connect 20 0 22 0;
#X connect 21 0 16 0;
#X connect 21 0 23 0;
#X connect 22 0 15 0;
#X connect 22 0 24 0;
#X connect 23 0 26 0;
#X connect 23 0 28 0;
#X connect 23 0 25 0;
#X connect 24 0 26 0;
#X connect 24 0 29 0;
#X connect 24 0 25 1;
#X connect 26 0 30 0;
#X connect 26 0 27 0;
#X connect 28 0 27 1;
#X connect 29 0 27 1;
#X connect 30 0 31 0;
#X connect 31 0 32 0;
#X coords 0 -1 1 1 64 60 2 30 25;
#X restore 50 70 pd clock;
