#N canvas 120 570 451 321 14;
#X obj 50 140 cnv 15 72 24 empty \$0clock 00:00 4 12 0 18 -1 -262144
0;
#N canvas 690 260 491 431 clock 0;
#X obj 30 60 bng 16 250 50 0 empty empty pause 20 8 0 11 -1 -262144
-262144;
#X msg 30 90 pause;
#X obj 30 130 s \$0p;
#X obj 30 30 bng 16 250 50 0 empty empty reset 20 8 0 11 -1 -262144
-262144;
#X obj 380 60 tgl 16 0 empty empty reset 20 8 0 11 -1 -262144 -262144
1 1;
#X obj 380 90 t f f;
#X obj 250 130 sel 1;
#X floatatom 400 190 0 0 0 0 - - -;
#X msg 360 160 set \$1;
#X obj 330 190 tgl 16 0 empty empty empty 17 7 0 10 -1 -262144 -262144
0 1;
#X obj 310 130 r \$0p;
#X msg 310 160 bang;
#X msg 310 220 bang;
#X msg 80 170 5;
#X msg 170 170 25;
#N canvas 940 510 451 301 notify 0;
#X obj 40 30 inlet;
#X obj 100 30 inlet;
#X msg 100 60 1;
#X obj 100 90 +;
#X obj 140 90 f;
#X msg 40 120 kdialog --passivepopup '5-minute break' 10;
#X msg 50 150 kdialog --passivepopup 'Work Session \$1' 10;
#X obj 40 180 shell;
#X obj 160 30 inlet;
#X floatatom 60 90 0 0 0 0 - - -;
#X connect 0 0 5 0;
#X connect 1 0 2 0;
#X connect 2 0 3 0;
#X connect 3 0 4 0;
#X connect 3 0 6 0;
#X connect 3 0 9 0;
#X connect 4 0 3 1;
#X connect 5 0 7 0;
#X connect 6 0 7 0;
#X connect 8 0 3 1;
#X restore 80 280 pd notify;
#N canvas 1140 350 451 341 tick 0;
#X obj 100 30 inlet;
#X obj 140 220 inlet;
#X obj 100 60 abs;
#X obj 180 120 sel;
#X obj 100 120 ad 3 5;
#X obj 100 160 *~;
#X obj 100 190 *~;
#X obj 100 220 *~;
#X obj 100 290 dac~;
#X obj 140 190 noise~;
#X obj 170 260 hsl 128 15 0.001 1 1 0 empty empty empty -2 -8 0 10
-1 -262144 -262144 0 1;
#X floatatom 170 280 0 0 0 0 - - -;
#X msg 180 160 0.25;
#X obj 100 260 *~ 0.1;
#X obj 180 60 % 60;
#X obj 180 90 < 1;
#X obj 100 90 t b f;
#X connect 0 0 2 0;
#X connect 1 0 7 1;
#X connect 2 0 16 0;
#X connect 3 0 12 0;
#X connect 3 1 5 1;
#X connect 4 0 5 0;
#X connect 5 0 6 0;
#X connect 6 0 7 0;
#X connect 7 0 13 0;
#X connect 9 0 6 1;
#X connect 10 0 11 0;
#X connect 10 0 13 1;
#X connect 12 0 5 1;
#X connect 13 0 8 0;
#X connect 13 0 8 1;
#X connect 14 0 15 0;
#X connect 15 0 3 0;
#X connect 16 0 4 0;
#X connect 16 1 14 0;
#X restore 230 320 pd tick;
#X msg 280 280 0;
#X msg 320 280 1;
#N canvas 970 370 421 321 hms 0;
#X obj 130 30 inlet;
#X obj 130 60 abs;
#X obj 130 90 t f f;
#X obj 180 130 div 60;
#X obj 180 160 lead0;
#X obj 120 130 % 60;
#X obj 120 160 lead0;
#X obj 120 260 outlet;
#X msg 120 230 symbol \$2:\$1;
#X obj 120 200 pack s s;
#X connect 0 0 1 0;
#X connect 1 0 2 0;
#X connect 2 0 5 0;
#X connect 2 1 3 0;
#X connect 3 0 4 0;
#X connect 4 0 9 1;
#X connect 5 0 6 0;
#X connect 6 0 9 0;
#X connect 8 0 7 0;
#X connect 9 0 8 0;
#X restore 170 320 pd hms;
#X msg 170 350 label \$1;
#X obj 170 380 s \$0clock;
#X msg 240 90 stop;
#X obj 170 280 chrono sec;
#X obj 80 130 delp sec;
#X obj 170 130 delp sec;
#X obj 80 200 * 60;
#X obj 170 200 * 60;
#X obj 360 220 metro 1000;
#X connect 0 0 1 0;
#X connect 1 0 2 0;
#X connect 1 0 24 0;
#X connect 1 0 25 0;
#X connect 3 0 4 0;
#X connect 4 0 5 0;
#X connect 5 0 8 0;
#X connect 5 0 28 0;
#X connect 5 1 6 0;
#X connect 6 0 14 0;
#X connect 6 1 15 2;
#X connect 6 1 22 0;
#X connect 7 0 28 1;
#X connect 8 0 9 0;
#X connect 9 0 28 0;
#X connect 10 0 11 0;
#X connect 10 0 23 0;
#X connect 11 0 9 0;
#X connect 11 0 23 1;
#X connect 12 0 9 0;
#X connect 12 0 23 0;
#X connect 13 0 26 0;
#X connect 14 0 27 0;
#X connect 17 0 16 1;
#X connect 18 0 16 1;
#X connect 19 0 20 0;
#X connect 20 0 21 0;
#X connect 22 0 24 0;
#X connect 22 0 25 0;
#X connect 23 0 19 0;
#X connect 23 0 16 0;
#X connect 24 0 13 0;
#X connect 25 0 14 0;
#X connect 26 0 25 0;
#X connect 26 0 15 0;
#X connect 26 0 23 0;
#X connect 26 0 17 0;
#X connect 27 0 24 0;
#X connect 27 0 15 1;
#X connect 27 0 23 0;
#X connect 27 0 18 0;
#X connect 28 0 23 1;
#X coords 0 -1 1 1 64 60 2 30 25;
#X restore 50 70 pd clock;
