#N canvas 700 400 351 221 14;
#X obj 50 60 inlet~;
#X obj 150 60 inlet;
#X obj 50 90 phasor~ \$2;
#X obj 150 90 zp~ 5 0.5;
#X obj 240 30 `f \$1!;
#X obj 240 60 sel;
#X msg 240 90 bash \$1;
#X obj 50 130 >~;
#X obj 50 170 outlet~;
#X obj 120 20 cnv 15 86 24 empty empty pulse~ 4 12 0 18 -1 -262144
0;
#X connect 0 0 2 0;
#X connect 1 0 3 0;
#X connect 2 0 7 0;
#X connect 3 0 7 1;
#X connect 4 0 5 0;
#X connect 5 1 6 0;
#X connect 6 0 3 1;
#X connect 7 0 8 0;
