#N canvas 685 300 540 430 10;
#X obj 293 129 cupqb;
#X symbolatom 284 284 10 0 0 0 - - -, f 10;
#X obj 284 262 radx 12;
#X obj 214 182 /;
#X obj 211 142 cupqb;
#X obj 247 142 cupqb;
#X floatatom 302 226 10 0 0 0 - - -, f 10;
#X symbolatom 350 284 10 0 0 0 - - -, f 10;
#X symbolatom 152 284 10 0 0 0 - - -, f 10;
#X obj 152 262 radx 8;
#X symbolatom 416 284 10 0 0 0 - - -, f 10;
#X obj 416 262 radx 32;
#X obj 247 212 f;
#X obj 350 262 radx 16;
#X symbolatom 218 284 10 0 0 0 - - -, f 10;
#X obj 218 262 radx 9;
#X symbolatom 84 285 10 0 0 0 - - -, f 10;
#X obj 84 263 radx 7;
#X symbolatom 84 236 10 0 0 0 - - -, f 10;
#X symbolatom 84 192 10 0 0 0 - - -, f 10;
#X obj 84 214 radx 6;
#X obj 84 170 radx 5;
#X symbolatom 396 231 10 0 0 0 - - -, f 10;
#X symbolatom 396 187 10 0 0 0 - - -, f 10;
#X obj 396 165 radx 4;
#X obj 396 209 radx 3;
#X symbolatom 229 370 10 0 0 0 - - -, f 10;
#X obj 229 348 radx 11;
#X symbolatom 296 370 10 0 0 0 - - -, f 10;
#X obj 296 348 radx 13;
#X obj 196 239 s dec;
#X obj 50 146 r dec;
#X obj 357 204 r dec;
#X obj 274 314 r dec;
#X symbolatom 162 370 10 0 0 0 - - -, f 10;
#X obj 162 348 radx 2;
#X symbolatom 363 370 10 0 0 0 - - -, f 10;
#X obj 363 348 radx 15;
#X symbolatom 428 369 10 0 0 0 - - -, f 10;
#X obj 428 347 radx 23;
#X obj 178 211 pi;
#X msg 203 211 bang;
#X obj 237 118 b, f 1;
#X obj 135 134 cupqb;
#X obj 171 134 cupqb;
#X obj 147 174 *;
#X obj 335 121 cupqb;
#X obj 371 121 cupqb;
#X obj 360 98 b, f 1;
#X obj 347 161 woq;
#X obj 221 90 tgl 15 0 empty empty empty 17 7 0 10 -1 -262144 -220350
0 1;
#X obj 239 90 metro;
#X floatatom 279 89 5 0 0 0 - - -, f 5;
#X msg 262 119 +;
#X obj 310 89 ii 1300;
#X obj 247 191 +;
#X obj 164 109 b, f 1;
#X obj 282 165 r dc;
#X obj 145 211 s dc;
#X obj 347 183 s dc;
#N canvas 1218 317 450 300 words 0;
#X msg 168 24 518547;
#X obj 148 255 s dc;
#X msg 188 64 420185;
#X msg 198 84 848345;
#X msg 238 164 393619;
#X msg 240 63 506251;
#X msg 262 224 289593;
#X msg 178 44 181305;
#X msg 208 104 418262;
#X msg 218 124 14501;
#X msg 228 144 722085;
#X msg 258 204 15830;
#X msg 267 244 821029;
#X msg 248 184 656787;
#X connect 0 0 1 0;
#X connect 2 0 1 0;
#X connect 3 0 1 0;
#X connect 4 0 1 0;
#X connect 5 0 1 0;
#X connect 6 0 1 0;
#X connect 7 0 1 0;
#X connect 8 0 1 0;
#X connect 9 0 1 0;
#X connect 10 0 1 0;
#X connect 11 0 1 0;
#X connect 12 0 1 0;
#X connect 13 0 1 0;
#X restore 415 97 pd words;
#X obj 290 189 cupqb;
#X obj 274 192 b, f 1;
#X floatatom 186 309 5 0 0 0 - - -, f 5;
#X text 196 27 RADX - number base converter;
#X text 161 45 displays results in the form of a symbol;
#X connect 0 0 59 0;
#X connect 2 0 1 0;
#X connect 3 0 55 0;
#X connect 4 0 3 0;
#X connect 5 0 3 1;
#X connect 5 0 42 0;
#X connect 9 0 8 0;
#X connect 11 0 10 0;
#X connect 12 0 11 0;
#X connect 12 0 2 0;
#X connect 12 0 9 0;
#X connect 12 0 13 0;
#X connect 12 0 15 0;
#X connect 12 0 30 0;
#X connect 12 0 6 0;
#X connect 13 0 7 0;
#X connect 15 0 14 0;
#X connect 17 0 16 0;
#X connect 20 0 18 0;
#X connect 21 0 19 0;
#X connect 24 0 23 0;
#X connect 25 0 22 0;
#X connect 27 0 26 0;
#X connect 29 0 28 0;
#X connect 31 0 21 0;
#X connect 31 0 20 0;
#X connect 31 0 17 0;
#X connect 32 0 24 0;
#X connect 32 0 25 0;
#X connect 33 0 29 0;
#X connect 33 0 27 0;
#X connect 33 0 35 0;
#X connect 33 0 37 0;
#X connect 33 0 39 0;
#X connect 35 0 34 0;
#X connect 37 0 36 0;
#X connect 39 0 38 0;
#X connect 40 0 58 0;
#X connect 41 0 40 0;
#X connect 42 0 4 0;
#X connect 43 0 45 0;
#X connect 44 0 45 1;
#X connect 44 0 56 0;
#X connect 45 0 58 0;
#X connect 46 0 49 0;
#X connect 47 0 49 1;
#X connect 47 0 48 0;
#X connect 48 0 46 0;
#X connect 49 0 59 0;
#X connect 50 0 51 0;
#X connect 51 0 53 0;
#X connect 52 0 51 1;
#X connect 53 0 4 0;
#X connect 54 0 52 0;
#X connect 55 0 12 0;
#X connect 56 0 43 0;
#X connect 57 0 55 0;
#X connect 61 0 55 1;
#X connect 61 0 62 0;
#X connect 62 0 55 0;
#X connect 63 0 27 1;
