#N canvas 510 140 581 601 14;
#X text 60 60 Similar to [random] but with time worked into the seed
to produce different results upon each restart of pd. It also has several
additional features.;
#X text 290 250 1 arg behaves just like [random];
#X obj 230 250 rand 4;
#X floatatom 230 280 0 0 0 0 - - -;
#X floatatom 140 340 0 0 0 0 - - -;
#X text 220 330 number between -1 and 2 (-1 \, 0 \, 1 \, 2);
#X text 190 450 either 2 \, 8 \, or 10;
#X obj 50 370 bng 15 250 50 0 empty empty empty 17 7 0 10 -1 -262144
-262144;
#X floatatom 90 460 0 0 0 0 - - -;
#X obj 40 490 bng 15 250 50 0 empty empty empty 17 7 0 10 -1 -262144
-262144;
#X floatatom 110 560 0 0 0 0 - - -;
#X text 200 530 3 args with a non-number in the middle;
#X text 190 430 3 or more args creates a list;
#X obj 160 250 random 4;
#X msg 140 210 seed 123;
#X floatatom 160 280 0 0 0 0 - - -;
#X obj 90 430 rand 2 8 10;
#X msg 60 120 peek;
#X msg 70 150 ptr;
#X text 110 150 print pointer size;
#X msg 80 180 state;
#X msg 160 400 c 2;
#X msg 20 310 c 2;
#X text 20 260 act like a list;
#X text 200 400 act like a range;
#X msg 120 400 c 3;
#X msg 150 490 c 2;
#X msg 190 490 c 3;
#X obj 40 530 random 2;
#X msg 70 490 seed 1234;
#X floatatom 40 560 0 0 0 0 - - -;
#X obj 240 30 cnv 15 60 24 empty empty rand 4 12 0 18 -1 -262144 0
;
#X text 110 120 print range/list;
#X text 130 180 print seed's current state;
#X text 200 370 list-size = 4 \, at-index[3] = 7;
#X obj 140 310 rand 3 -1;
#X text 200 550 creates a small list (either 7 or 9);
#X obj 110 530 rand 7 | 9;
#X text 220 310 2 or 0 args act as boundaries (stop \, start);
#X obj 30 220 s \$0r;
#X msg 20 280 c 3 \, n 3 \, @2 7;
#X obj 90 340 r \$0r;
#X msg 120 370 n 4 \, @3 7;
#N canvas 580 380 471 331 no-repeats 0;
#X obj 120 60 bng 15 250 50 0 empty empty empty 17 7 0 10 -1 -262144
-262144;
#X floatatom 120 220 0 0 0 0 - - -;
#X msg 150 60 nop 1;
#X text 200 60 turn on no-repeat mode;
#X msg 170 90 max 2;
#X text 220 90 set max repeats (default 1);
#X text 170 120 nop works automatically with floats;
#X obj 150 30 `b !;
#X obj 120 190 rand 3;
#X msg 170 140 0, f 2;
#X msg 200 140 1, f 2;
#X msg 230 140 2, f 2;
#X connect 0 0 8 0;
#X connect 2 0 8 0;
#X connect 4 0 8 0;
#X connect 7 0 2 0;
#X connect 8 0 1 0;
#X connect 9 0 8 0;
#X connect 10 0 8 0;
#X connect 11 0 8 0;
#X restore 390 160 pd no-repeats;
#X obj 30 170 bng 15 250 50 0 empty empty empty 17 7 0 10 -1 -262144
-262144;
#X obj 230 210 r \$0r;
#X connect 2 0 3 0;
#X connect 7 0 16 0;
#X connect 9 0 28 0;
#X connect 9 0 37 0;
#X connect 13 0 15 0;
#X connect 14 0 2 0;
#X connect 14 0 13 0;
#X connect 14 0 35 0;
#X connect 16 0 8 0;
#X connect 17 0 39 0;
#X connect 18 0 39 0;
#X connect 20 0 39 0;
#X connect 21 0 16 0;
#X connect 22 0 35 0;
#X connect 25 0 16 0;
#X connect 26 0 37 0;
#X connect 27 0 37 0;
#X connect 28 0 30 0;
#X connect 29 0 28 0;
#X connect 29 0 37 0;
#X connect 35 0 4 0;
#X connect 37 0 10 0;
#X connect 40 0 35 0;
#X connect 41 0 35 0;
#X connect 41 0 16 0;
#X connect 42 0 16 0;
#X connect 44 0 39 0;
#X connect 44 0 13 0;
#X connect 45 0 2 0;
