#N canvas 719 355 450 300 12;
#X text 183 9 REVERSE BINOPS;
#X text 121 27 - \, / \, pow \, << \, >> \, % \, mod \, div;
#X text 124 51 binops with reversed operands;
#X floatatom 138 92 0 0 0 0 - - -;
#X floatatom 98 96 0 0 0 0 - - -;
#X floatatom 106 155 0 0 0 0 - - -;
#X obj 106 126 @-;
#X floatatom 199 97 0 0 0 0 - - -;
#X floatatom 234 97 0 0 0 0 - - -;
#X floatatom 199 155 0 0 0 0 - - -;
#X obj 199 126 @/;
#X floatatom 293 97 0 0 0 0 - - -;
#X floatatom 328 97 0 0 0 0 - - -;
#X floatatom 293 155 0 0 0 0 - - -;
#X obj 293 126 @pow;
#X floatatom 13 213 0 0 0 0 - - -;
#X floatatom 48 213 0 0 0 0 - - -;
#X floatatom 13 272 0 0 0 0 - - -;
#X obj 13 242 @<<;
#X floatatom 106 213 0 0 0 0 - - -;
#X floatatom 141 213 0 0 0 0 - - -;
#X floatatom 106 272 0 0 0 0 - - -;
#X obj 106 242 @>>;
#X floatatom 199 213 0 0 0 0 - - -;
#X floatatom 234 213 0 0 0 0 - - -;
#X floatatom 199 272 0 0 0 0 - - -;
#X obj 199 242 @%;
#X floatatom 292 213 0 0 0 0 - - -;
#X floatatom 327 213 0 0 0 0 - - -;
#X floatatom 292 272 0 0 0 0 - - -;
#X obj 292 242 @mod;
#X floatatom 385 213 0 0 0 0 - - -;
#X floatatom 420 213 0 0 0 0 - - -;
#X floatatom 385 272 0 0 0 0 - - -;
#X obj 385 242 @div;
#N canvas 257 341 450 346 @- 0;
#X obj 209 170 -;
#X obj 194 84 inlet;
#X obj 235 84 inlet;
#X obj 203 145 f;
#X obj 209 195 outlet;
#X obj 203 118 t b f;
#X connect 0 0 4 0;
#X connect 1 0 5 0;
#X connect 2 0 3 1;
#X connect 3 0 0 0;
#X connect 5 0 3 0;
#X connect 5 1 0 1;
#X restore 12 92 pd @-;
#X floatatom 55 59 0 0 0 0 - - -;
#X floatatom 15 63 0 0 0 0 - - -;
#X floatatom 23 122 0 0 0 0 - - -;
#X connect 3 0 6 1;
#X connect 4 0 6 0;
#X connect 6 0 5 0;
#X connect 7 0 10 1;
#X connect 8 0 10 0;
#X connect 10 0 9 0;
#X connect 11 0 14 1;
#X connect 12 0 14 0;
#X connect 14 0 13 0;
#X connect 15 0 18 1;
#X connect 16 0 18 0;
#X connect 18 0 17 0;
#X connect 19 0 22 1;
#X connect 20 0 22 0;
#X connect 22 0 21 0;
#X connect 23 0 26 1;
#X connect 24 0 26 0;
#X connect 26 0 25 0;
#X connect 27 0 30 1;
#X connect 28 0 30 0;
#X connect 30 0 29 0;
#X connect 31 0 34 1;
#X connect 32 0 34 0;
#X connect 34 0 33 0;
#X connect 35 0 38 0;
#X connect 36 0 35 1;
#X connect 37 0 35 0;
