#N canvas 212 240 535 377 10;
#X obj 134 210 muse 76 4 7;
#X obj 134 258 osc~;
#X text 217 209 E major arpeggio;
#X msg 139 107 1;
#X msg 109 107 -1;
#X obj 103 159 f;
#X obj 130 159 +;
#X floatatom 103 182 5 0 0 0 - - -, f 5;
#X obj 103 137 b;
#X obj 134 281 *~;
#X floatatom 176 266 5 0 0 0 - - -, f 5;
#X obj 176 285 * 0.01;
#X obj 124 308 dac~;
#X msg 186 84 3 7;
#X text 218 84 minor arpeggio;
#X msg 186 108 k 72;
#X text 226 108 change key to C;
#X text 108 89 down|up;
#X text 215 153 manually change size of scale;
#X msg 186 132 k 74 4 7 11;
#X text 273 132 D major seventh;
#X text 55 37 creates a music scale. The first argument is the root
note \, followed by the intervals that come after. More creation arguments
results in more inlets.;
#X text 283 291 default args: 0 7;
#X floatatom 247 264 5 0 0 0 - - -, f 5;
#X floatatom 272 313 5 0 0 0 - - -, f 5;
#X text 70 236 frequency;
#X floatatom 140 237 5 0 0 0 - - -, f 5;
#X floatatom 182 237 5 0 0 0 - - -, f 5;
#X text 221 237 midi note;
#X floatatom 299 264 5 0 0 0 - - -, f 5;
#X text 338 262 root inlet;
#X msg 186 154 n 3;
#X floatatom 45 168 5 0 0 0 - - -, f 5;
#X obj 45 187 * 0.01;
#X text 29 207 takes floats;
#X msg 218 186 oct \$1;
#X floatatom 218 171 5 0 0 0 - - -, f 5;
#X text 269 185 change octave;
#X obj 247 293 muse;
#X msg 346 75 k skip skip 10;
#X msg 346 110 list skip skip 8;
#X text 344 92 non-floats are skipped;
#X text 239 20 MUSE;
#X connect 0 0 1 0;
#X connect 0 0 26 0;
#X connect 0 1 27 0;
#X connect 1 0 9 0;
#X connect 3 0 6 1;
#X connect 3 0 8 0;
#X connect 4 0 6 1;
#X connect 4 0 8 0;
#X connect 5 0 6 0;
#X connect 5 0 7 0;
#X connect 5 0 0 0;
#X connect 6 0 5 1;
#X connect 8 0 6 0;
#X connect 8 0 5 0;
#X connect 9 0 12 0;
#X connect 9 0 12 1;
#X connect 10 0 11 0;
#X connect 11 0 9 1;
#X connect 13 0 0 0;
#X connect 15 0 0 0;
#X connect 19 0 0 0;
#X connect 23 0 38 0;
#X connect 29 0 38 1;
#X connect 31 0 0 0;
#X connect 32 0 33 0;
#X connect 33 0 0 0;
#X connect 35 0 0 0;
#X connect 36 0 35 0;
#X connect 38 1 24 0;
#X coords 0 377 1 376 85 60 0;
