#N canvas 719 355 450 300 10;
#X obj 106 40 inlet~;
#X obj 152 245 outlet~;
#X obj 155 191 cos~;
#X floatatom 312 63 5 0 0 0 - - -, f 5;
#X floatatom 365 63 5 0 0 0 - - -, f 5;
#X obj 270 158 osc~;
#X obj 249 64 osc~;
#X obj 163 148 *~;
#X floatatom 217 132 5 0 0 0 - - -, f 5;
#X obj 207 153 / 1000;
#X obj 71 146 phasor~;
#X obj 243 215 *~;
#X floatatom 271 206 5 0 0 0 - - -, f 5;
#X obj 271 234 / 1000;
#X obj 169 218 *~;
#X floatatom 197 209 5 0 0 0 - - -, f 5;
#X obj 197 237 / 1000;
#X obj 76 208 *~;
#X floatatom 104 199 5 0 0 0 - - -, f 5;
#X obj 104 227 / 1000;
#X obj 85 173 ii 750;
#X obj 203 186 ii 775;
#X obj 317 193 ii 2800;
#X obj 346 121 +~;
#X obj 282 96 *~ 1200;
#X obj 227 106 ii 1200;
#X connect 0 0 6 0;
#X connect 0 0 10 0;
#X connect 2 0 14 0;
#X connect 3 0 24 1;
#X connect 4 0 23 1;
#X connect 5 0 11 0;
#X connect 6 0 7 0;
#X connect 6 0 24 0;
#X connect 7 0 2 0;
#X connect 8 0 9 0;
#X connect 9 0 7 1;
#X connect 10 0 2 0;
#X connect 10 0 17 0;
#X connect 11 0 1 0;
#X connect 12 0 13 0;
#X connect 13 0 11 1;
#X connect 14 0 1 0;
#X connect 15 0 16 0;
#X connect 16 0 14 1;
#X connect 17 0 1 0;
#X connect 18 0 19 0;
#X connect 19 0 17 1;
#X connect 20 0 18 0;
#X connect 21 0 15 0;
#X connect 22 0 12 0;
#X connect 23 0 5 0;
#X connect 24 0 23 0;
#X connect 25 0 8 0;
