#N canvas 630 300 541 391 14;
#X floatatom 40 150 0 0 0 2 current - -;
#X floatatom 110 150 0 0 0 2 min - -;
#X floatatom 150 150 0 0 0 2 max - -;
#X floatatom 190 150 0 0 0 2 scale - -;
#X obj 50 200 span 25;
#X floatatom 50 230 0 0 0 0 - - -;
#X floatatom 50 270 0 0 0 0 - - -;
#X obj 50 300 span 5 50;
#X floatatom 50 330 0 0 0 0 - - -;
#X msg 280 120 0;
#X msg 320 120 1;
#X msg 360 120 2;
#X floatatom 400 120 0 0 0 0 - - -;
#X obj 280 170 span 3 6 2;
#X floatatom 280 200 0 0 0 0 - - -;
#X obj 280 230 naps 3 6 2;
#X floatatom 280 260 0 0 0 0 - - -;
#N canvas 560 450 451 311 expr 0;
#X obj 280 40 bng 15 250 50 0 empty empty empty 17 7 0 10 -1 -262144
-262144;
#X obj 310 40 b !;
#X msg 310 70 3 15 250;
#X obj 310 100 unpack f f f;
#X floatatom 310 130 0 0 0 0 - - -;
#X floatatom 350 130 0 0 0 0 - - -;
#X floatatom 390 130 0 0 0 0 - - -;
#X floatatom 30 130 0 0 0 0 - - -;
#X obj 30 160 expr $f1 * ($f3 - $f2) / $f4 + $f2;
#X floatatom 30 190 0 0 0 0 - - -;
#X obj 30 220 expr ($f1 - $f2) * $f4 / ($f3 - $f2);
#X floatatom 30 250 0 0 0 0 - - -;
#X connect 0 0 1 0;
#X connect 1 0 2 0;
#X connect 2 0 3 0;
#X connect 3 0 4 0;
#X connect 3 1 5 0;
#X connect 3 2 6 0;
#X connect 4 0 8 1;
#X connect 4 0 10 1;
#X connect 5 0 8 2;
#X connect 5 0 10 2;
#X connect 6 0 8 3;
#X connect 6 0 10 3;
#X connect 7 0 8 0;
#X connect 8 0 9 0;
#X connect 9 0 10 0;
#X connect 10 0 11 0;
#X restore 380 290 pd expr;
#X text 130 60 gradient between min and max values;
#X text 160 80 default:;
#X obj 230 80 span 0 1 100;
#X text 120 200 1 arg sets max;
#X text 130 300 2 args set min and max;
#X text 370 160 3 args set:;
#X text 370 180 min \, max \, scale;
#X text 370 230 reverse with naps;
#X obj 190 30 cnv 15 152 24 empty empty span\\\ &\\\ naps 4 12 0 18
-1 -262144 0;
#X connect 0 0 4 0;
#X connect 1 0 4 1;
#X connect 2 0 4 2;
#X connect 3 0 4 3;
#X connect 4 0 5 0;
#X connect 6 0 7 0;
#X connect 7 0 8 0;
#X connect 9 0 13 0;
#X connect 10 0 13 0;
#X connect 11 0 13 0;
#X connect 12 0 13 0;
#X connect 13 0 14 0;
#X connect 14 0 15 0;
#X connect 15 0 16 0;
