#N canvas 746 301 480 443 10;
#X obj 220 227 sploat;
#X floatatom 236 281 5 0 0 0 - - -, f 5;
#X floatatom 272 281 5 0 0 0 - - -, f 5;
#X floatatom 146 281 14 0 0 0 - - -, f 14;
#X msg 198 98 3.14159;
#X obj 264 155 cupqb;
#X obj 307 125 cupqb;
#X floatatom 292 224 12 0 0 0 - - -, f 12;
#X obj 295 197 pow;
#X obj 305 162 t b f;
#X obj 208 336 gloat;
#X floatatom 208 358 12 0 0 0 - - -, f 12;
#X obj 195 311 t b f;
#X obj 207 138 cupqb;
#X obj 291 315 - 127;
#X floatatom 291 337 5 0 0 0 - - -, f 5;
#X obj 104 155 cupqb;
#X obj 147 125 cupqb;
#X floatatom 132 224 12 0 0 0 - - -, f 12;
#X obj 145 162 t b f;
#X obj 135 197 /;
#N canvas 1083 314 474 323 mantissa 0;
#X obj 271 38 inlet;
#X obj 425 226 tgl 15 0 empty empty empty 17 7 0 10 -262144 -1 -1 0
1;
#X obj 407 226 tgl 15 0 empty empty empty 17 7 0 10 -262144 -1 -1 0
1;
#X obj 425 192 % 2;
#X obj 389 226 tgl 15 0 empty empty empty 17 7 0 10 -262144 -1 -1 0
1;
#X obj 371 226 tgl 15 0 empty empty empty 17 7 0 10 -262144 -1 -1 0
1;
#X obj 353 226 tgl 15 0 empty empty empty 17 7 0 10 -262144 -1 -1 0
1;
#X obj 335 226 tgl 15 0 empty empty empty 17 7 0 10 -262144 -1 -1 0
1;
#X obj 317 226 tgl 15 0 empty empty empty 17 7 0 10 -262144 -1 -1 0
1;
#X obj 299 226 tgl 15 0 empty empty empty 17 7 0 10 -262144 -1 -1 0
1;
#X obj 281 226 tgl 15 0 empty empty empty 17 7 0 10 -262144 -1 -1 0
1;
#X obj 263 226 tgl 15 0 empty empty empty 17 7 0 10 -262144 -1 -1 0
1;
#X obj 245 226 tgl 15 0 empty empty empty 17 7 0 10 -262144 -1 -1 0
1;
#X obj 227 226 tgl 15 0 empty empty empty 17 7 0 10 -262144 -1 -1 0
1;
#X obj 209 226 tgl 15 0 empty empty empty 17 7 0 10 -262144 -1 -1 0
1;
#X obj 191 226 tgl 15 0 empty empty empty 17 7 0 10 -262144 -1 -1 0
1;
#X obj 173 226 tgl 15 0 empty empty empty 17 7 0 10 -262144 -1 -1 0
1;
#X obj 155 226 tgl 15 0 empty empty empty 17 7 0 10 -262144 -1 -1 0
1;
#X obj 271 59 s in;
#X obj 197 95 r in;
#X obj 262 95 r in;
#X obj 340 95 r in;
#X obj 412 95 r in;
#X obj 137 226 tgl 15 0 empty empty empty 17 7 0 10 -262144 -1 -1 0
1;
#X obj 119 226 tgl 15 0 empty empty empty 17 7 0 10 -262144 -1 -1 0
1;
#X obj 101 226 tgl 15 0 empty empty empty 17 7 0 10 -262144 -1 -1 0
1;
#X obj 83 226 tgl 15 0 empty empty empty 17 7 0 10 -262144 -1 -1 0
1;
#X obj 118 95 r in;
#X obj 65 226 tgl 15 0 empty empty empty 17 7 0 10 -262144 -1 -1 0
1;
#X obj 47 226 tgl 15 0 empty empty empty 17 7 0 10 -262144 -1 -1 0
1;
#X obj 29 226 tgl 15 0 empty empty empty 17 7 0 10 -262144 -1 -1 0
1;
#X obj 48 95 r in;
#N canvas 0 0 450 300 2^1 0;
#X obj 188 107 % 4;
#X obj 188 85 inlet;
#X obj 188 173 outlet;
#X obj 188 129 / 4;
#X obj 188 151 >= 0.5;
#X connect 0 0 3 0;
#X connect 1 0 0 0;
#X connect 3 0 4 0;
#X connect 4 0 2 0;
#X restore 407 171 pd 2^1;
#N canvas 0 0 450 300 2^2 0;
#X obj 188 85 inlet;
#X obj 188 173 outlet;
#X obj 188 151 >= 0.5;
#X obj 188 107 % 8;
#X obj 188 129 / 8;
#X connect 0 0 3 0;
#X connect 2 0 1 0;
#X connect 3 0 4 0;
#X connect 4 0 2 0;
#X restore 389 150 pd 2^2;
#N canvas 0 0 450 300 2^3 0;
#X obj 188 85 inlet;
#X obj 188 173 outlet;
#X obj 188 151 >= 0.5;
#X obj 188 107 % 16;
#X obj 188 129 / 16;
#X connect 0 0 3 0;
#X connect 2 0 1 0;
#X connect 3 0 4 0;
#X connect 4 0 2 0;
#X restore 371 129 pd 2^3;
#N canvas 0 0 450 300 2^4 0;
#X obj 188 85 inlet;
#X obj 188 173 outlet;
#X obj 188 151 >= 0.5;
#X obj 188 107 % 32;
#X obj 188 129 / 32;
#X connect 0 0 3 0;
#X connect 2 0 1 0;
#X connect 3 0 4 0;
#X connect 4 0 2 0;
#X restore 353 192 pd 2^4;
#N canvas 0 0 450 300 2^5 0;
#X obj 188 85 inlet;
#X obj 188 173 outlet;
#X obj 188 151 >= 0.5;
#X obj 188 107 % 64;
#X obj 188 129 / 64;
#X connect 0 0 3 0;
#X connect 2 0 1 0;
#X connect 3 0 4 0;
#X connect 4 0 2 0;
#X restore 335 171 pd 2^5;
#N canvas 0 0 450 300 2^6 0;
#X obj 188 85 inlet;
#X obj 188 173 outlet;
#X obj 188 151 >= 0.5;
#X obj 188 107 % 128;
#X obj 188 129 / 128;
#X connect 0 0 3 0;
#X connect 2 0 1 0;
#X connect 3 0 4 0;
#X connect 4 0 2 0;
#X restore 317 150 pd 2^6;
#N canvas 0 0 450 300 2^7 0;
#X obj 188 85 inlet;
#X obj 188 173 outlet;
#X obj 188 151 >= 0.5;
#X obj 188 107 % 256;
#X obj 188 129 / 256;
#X connect 0 0 3 0;
#X connect 2 0 1 0;
#X connect 3 0 4 0;
#X connect 4 0 2 0;
#X restore 299 129 pd 2^7;
#N canvas 0 0 450 300 2^8 0;
#X obj 188 85 inlet;
#X obj 188 173 outlet;
#X obj 188 151 >= 0.5;
#X obj 188 107 % 512;
#X obj 188 129 / 512;
#X connect 0 0 3 0;
#X connect 2 0 1 0;
#X connect 3 0 4 0;
#X connect 4 0 2 0;
#X restore 281 192 pd 2^8;
#N canvas 0 0 450 300 2^9 0;
#X obj 188 85 inlet;
#X obj 188 173 outlet;
#X obj 188 151 >= 0.5;
#X obj 188 107 % 1024;
#X obj 188 129 / 1024;
#X connect 0 0 3 0;
#X connect 2 0 1 0;
#X connect 3 0 4 0;
#X connect 4 0 2 0;
#X restore 263 171 pd 2^9;
#N canvas 0 0 450 300 2^10 0;
#X obj 188 85 inlet;
#X obj 188 173 outlet;
#X obj 188 151 >= 0.5;
#X obj 188 107 % 2048;
#X obj 188 129 / 2048;
#X connect 0 0 3 0;
#X connect 2 0 1 0;
#X connect 3 0 4 0;
#X connect 4 0 2 0;
#X restore 245 150 pd 2^10;
#N canvas 0 0 450 300 2^11 0;
#X obj 188 85 inlet;
#X obj 188 173 outlet;
#X obj 188 151 >= 0.5;
#X obj 188 107 % 4096;
#X obj 188 129 / 4096;
#X connect 0 0 3 0;
#X connect 2 0 1 0;
#X connect 3 0 4 0;
#X connect 4 0 2 0;
#X restore 227 129 pd 2^11;
#N canvas 0 0 450 300 2^12 0;
#X obj 188 85 inlet;
#X obj 188 173 outlet;
#X obj 188 151 >= 0.5;
#X obj 188 107 % 8192;
#X obj 188 129 / 8192;
#X connect 0 0 3 0;
#X connect 2 0 1 0;
#X connect 3 0 4 0;
#X connect 4 0 2 0;
#X restore 209 192 pd 2^12;
#N canvas 0 0 450 300 2^13 0;
#X obj 188 85 inlet;
#X obj 188 173 outlet;
#X obj 188 151 >= 0.5;
#X obj 188 107 % 16384;
#X obj 188 129 / 16384;
#X connect 0 0 3 0;
#X connect 2 0 1 0;
#X connect 3 0 4 0;
#X connect 4 0 2 0;
#X restore 191 171 pd 2^13;
#N canvas 0 0 450 300 2^14 0;
#X obj 188 85 inlet;
#X obj 188 173 outlet;
#X obj 188 151 >= 0.5;
#X obj 188 107 % 32768;
#X obj 188 129 / 32768;
#X connect 0 0 3 0;
#X connect 2 0 1 0;
#X connect 3 0 4 0;
#X connect 4 0 2 0;
#X restore 173 150 pd 2^14;
#N canvas 0 0 450 300 2^15 0;
#X obj 188 85 inlet;
#X obj 188 173 outlet;
#X obj 188 151 >= 0.5;
#X obj 188 107 % 65536;
#X obj 188 129 / 65536;
#X connect 0 0 3 0;
#X connect 2 0 1 0;
#X connect 3 0 4 0;
#X connect 4 0 2 0;
#X restore 155 129 pd 2^15;
#N canvas 0 0 450 300 2^16 0;
#X obj 188 85 inlet;
#X obj 188 173 outlet;
#X obj 188 151 >= 0.5;
#X obj 188 107 % 131072;
#X obj 188 129 / 131072;
#X connect 0 0 3 0;
#X connect 2 0 1 0;
#X connect 3 0 4 0;
#X connect 4 0 2 0;
#X restore 137 192 pd 2^16;
#N canvas 0 0 450 300 2^17 0;
#X obj 188 85 inlet;
#X obj 188 173 outlet;
#X obj 188 151 >= 0.5;
#X obj 188 107 % 262144;
#X obj 188 129 / 262144;
#X connect 0 0 3 0;
#X connect 2 0 1 0;
#X connect 3 0 4 0;
#X connect 4 0 2 0;
#X restore 119 171 pd 2^17;
#N canvas 0 0 450 300 2^18 0;
#X obj 188 85 inlet;
#X obj 188 173 outlet;
#X obj 188 151 >= 0.5;
#X obj 188 107 % 524288;
#X obj 188 129 / 524288;
#X connect 0 0 3 0;
#X connect 2 0 1 0;
#X connect 3 0 4 0;
#X connect 4 0 2 0;
#X restore 101 150 pd 2^18;
#N canvas 890 393 450 323 2^19 0;
#X obj 188 85 inlet;
#X obj 188 173 outlet;
#X obj 188 151 >= 0.5;
#X obj 188 107 %;
#X obj 188 129 /;
#X obj 233 109 expr pow(2 \, 20);
#X obj 233 85 ii;
#X connect 0 0 3 0;
#X connect 2 0 1 0;
#X connect 3 0 4 0;
#X connect 4 0 2 0;
#X connect 5 0 3 1;
#X connect 5 0 4 1;
#X connect 6 0 5 0;
#X restore 83 129 pd 2^19;
#N canvas 0 0 450 300 2^20 0;
#X obj 188 85 inlet;
#X obj 188 173 outlet;
#X obj 188 151 >= 0.5;
#X obj 252 88 ii;
#X obj 284 90 bng 15 250 50 0 empty empty empty 17 7 0 10 -262144 -1
-1;
#X obj 188 107 %;
#X obj 188 129 /;
#X obj 252 112 expr pow(2 \, 21);
#X connect 0 0 5 0;
#X connect 2 0 1 0;
#X connect 3 0 7 0;
#X connect 4 0 7 0;
#X connect 5 0 6 0;
#X connect 6 0 2 0;
#X connect 7 0 5 1;
#X connect 7 0 6 1;
#X restore 65 192 pd 2^20;
#N canvas 0 0 450 300 2^21 0;
#X obj 188 85 inlet;
#X obj 188 173 outlet;
#X obj 188 151 >= 0.5;
#X obj 269 79 ii;
#X obj 301 81 bng 15 250 50 0 empty empty empty 17 7 0 10 -262144 -1
-1;
#X obj 269 103 expr pow(2 \, 22);
#X obj 188 107 %;
#X obj 188 129 /;
#X connect 0 0 6 0;
#X connect 2 0 1 0;
#X connect 3 0 5 0;
#X connect 4 0 5 0;
#X connect 5 0 6 1;
#X connect 5 0 7 1;
#X connect 6 0 7 0;
#X connect 7 0 2 0;
#X restore 47 171 pd 2^21;
#N canvas 0 0 450 300 2^22 0;
#X obj 188 85 inlet;
#X obj 188 173 outlet;
#X obj 188 151 >= 0.5;
#X obj 274 92 ii;
#X obj 306 94 bng 15 250 50 0 empty empty empty 17 7 0 10 -262144 -1
-1;
#X obj 274 116 expr pow(2 \, 23);
#X obj 188 107 %;
#X obj 188 129 /;
#X connect 0 0 6 0;
#X connect 2 0 1 0;
#X connect 3 0 5 0;
#X connect 4 0 5 0;
#X connect 5 0 6 1;
#X connect 5 0 7 1;
#X connect 6 0 7 0;
#X connect 7 0 2 0;
#X restore 29 150 pd 2^22;
#X connect 0 0 18 0;
#X connect 3 0 1 0;
#X connect 19 0 43 0;
#X connect 19 0 44 0;
#X connect 19 0 45 0;
#X connect 19 0 46 0;
#X connect 20 0 39 0;
#X connect 20 0 40 0;
#X connect 20 0 41 0;
#X connect 20 0 42 0;
#X connect 21 0 35 0;
#X connect 21 0 36 0;
#X connect 21 0 37 0;
#X connect 21 0 38 0;
#X connect 22 0 3 0;
#X connect 22 0 32 0;
#X connect 22 0 33 0;
#X connect 22 0 34 0;
#X connect 27 0 47 0;
#X connect 27 0 48 0;
#X connect 27 0 49 0;
#X connect 27 0 50 0;
#X connect 31 0 53 0;
#X connect 31 0 52 0;
#X connect 31 0 51 0;
#X connect 32 0 2 0;
#X connect 33 0 4 0;
#X connect 34 0 5 0;
#X connect 35 0 6 0;
#X connect 36 0 7 0;
#X connect 37 0 8 0;
#X connect 38 0 9 0;
#X connect 39 0 10 0;
#X connect 40 0 11 0;
#X connect 41 0 12 0;
#X connect 42 0 13 0;
#X connect 43 0 14 0;
#X connect 44 0 15 0;
#X connect 45 0 16 0;
#X connect 46 0 17 0;
#X connect 47 0 23 0;
#X connect 48 0 24 0;
#X connect 49 0 25 0;
#X connect 50 0 26 0;
#X connect 51 0 28 0;
#X connect 52 0 29 0;
#X connect 53 0 30 0;
#X coords 0 -1 1 1 415 19 2 27 224;
#X restore 40 390 pd mantissa;
#X text 164 265 mantissa;
#X text 238 264 exp.;
#X text 274 265 sign;
#X text 115 27 SPLOAT/GLOAT - split-float & glue-float;
#X text 58 47 splits and joins the sign \, exponent \, and mantissa
of a float;
#X connect 0 0 3 0;
#X connect 0 1 1 0;
#X connect 0 2 2 0;
#X connect 1 0 10 2;
#X connect 1 0 14 0;
#X connect 2 0 10 3;
#X connect 3 0 12 0;
#X connect 3 0 21 0;
#X connect 4 0 13 0;
#X connect 5 0 8 0;
#X connect 6 0 9 0;
#X connect 8 0 7 0;
#X connect 8 0 0 0;
#X connect 9 0 5 0;
#X connect 9 1 8 1;
#X connect 10 0 11 0;
#X connect 12 0 10 0;
#X connect 12 1 10 1;
#X connect 13 0 0 0;
#X connect 14 0 15 0;
#X connect 16 0 20 0;
#X connect 17 0 19 0;
#X connect 19 0 16 0;
#X connect 19 1 20 1;
#X connect 20 0 18 0;
#X connect 20 0 0 0;
#X coords 0 0 1 1 85 60 0;
