#N canvas 637 403 526 366 14;
#X obj 157 50 tgl 15 0 empty empty reset 17 7 0 11 -1 -262144 -262144
0 1;
#X obj 142 116 sel 1;
#X obj 142 258 hms;
#X symbolatom 142 285 0 0 0 0 - - -;
#X obj 157 70 t f f;
#X obj 211 116 metro 100;
#X obj 142 231 stopwatch;
#X msg 79 162 pause;
#X msg 240 143 tempo 3 msec;
#X msg 260 195 tempo 0.5 msec;
#X msg 250 169 tempo 1 msec;
#X obj 295 43 cnv 15 124 24 empty empty stopwatch 4 12 0 18 -1 -262144
0;
#X obj 232 258 hms;
#X symbolatom 232 285 0 0 0 0 - - -;
#X msg 57 196 lap;
#X obj 250 231 unpack;
#X obj 312 258 hms;
#X symbolatom 312 285 0 0 0 0 - - -;
#X text 306 231 lap / total;
#X text 215 67 timer with pause and lap features;
#N canvas 1033 467 450 300 printit 0;
#X obj 147 155 pack s s;
#X obj 147 209 print -n;
#X msg 147 182 total: \$2________lap: \$1;
#X obj 147 101 inlet;
#X obj 208 101 inlet;
#X connect 0 0 2 0;
#X connect 2 0 1 0;
#X connect 3 0 0 0;
#X connect 4 0 0 1;
#X restore 233 316 pd printit;
#X connect 0 0 4 0;
#X connect 1 0 6 0;
#X connect 2 0 3 0;
#X connect 4 0 5 0;
#X connect 4 1 1 0;
#X connect 5 0 6 1;
#X connect 6 0 2 0;
#X connect 6 1 15 0;
#X connect 7 0 6 0;
#X connect 8 0 6 0;
#X connect 9 0 6 0;
#X connect 10 0 6 0;
#X connect 12 0 13 0;
#X connect 13 0 20 0;
#X connect 14 0 6 0;
#X connect 15 0 12 0;
#X connect 15 1 16 0;
#X connect 16 0 17 0;
#X connect 17 0 20 1;
