#N canvas 20 600 380 170 14;
#N canvas 400 420 420 490 clock 0;
#X obj 50 110 bng 16 250 50 0 empty empty pause -4 -10 0 11 #000000
#fcfcfc #fcfcfc;
#X msg 50 250 pause;
#X obj 50 60 bng 16 250 50 0 empty empty reset -4 -10 0 11 #000000
#fcfcfc #fcfcfc;
#X obj 80 160 tgl 16 0 empty empty reset 20 8 0 11 #000000 #fcfcfc
#fcfcfc 0 1;
#X obj 190 200 sel 1;
#N canvas 820 420 350 370 tick 0;
#X obj 120 220 inlet;
#X obj 80 220 *~;
#X obj 80 20 inlet;
#X obj 80 50 abs;
#X obj 80 190 ad 3 5;
#X obj 80 250 *~;
#X obj 80 310 dac~;
#X obj 120 250 noise~;
#X obj 160 280 hsl 128 20 0.001 1 1 0 empty empty empty -2 -8 0 10
#000000 #fcfcfc #fcfcfc 0 1;
#X floatatom 160 310 0 0 0 0 - - - 0;
#X obj 80 80 % 60;
#X obj 80 110 sel;
#X msg 80 150 1;
#X obj 130 110 sel;
#X obj 130 80 % 4;
#X obj 180 250 r \$0vol;
#X obj 80 280 *~;
#X msg 120 150 0.36;
#X msg 170 150 0.13;
#X floatatom 240 80 0 0 0 0 - - - 0;
#X obj 240 110 dbtorms;
#X floatatom 240 140 0 0 0 0 - - - 0;
#X connect 0 0 1 1;
#X connect 1 0 5 0;
#X connect 2 0 3 0;
#X connect 3 0 10 0;
#X connect 4 0 1 0;
#X connect 5 0 16 0;
#X connect 7 0 5 1;
#X connect 8 0 9 0;
#X connect 8 0 16 1;
#X connect 10 0 11 0;
#X connect 11 0 12 0;
#X connect 11 1 14 0;
#X connect 12 0 4 0;
#X connect 13 0 17 0;
#X connect 13 1 18 0;
#X connect 14 0 13 0;
#X connect 15 0 8 0;
#X connect 16 0 6 0;
#X connect 16 0 6 1;
#X connect 17 0 4 0;
#X connect 18 0 4 0;
#X connect 19 0 20 0;
#X connect 20 0 21 0;
#X restore 250 380 pd tick;
#N canvas 970 370 420 320 hms 0;
#X obj 130 30 inlet;
#X obj 130 60 abs;
#X obj 130 90 t f f;
#X obj 180 130 div 60;
#X obj 180 160 lead0;
#X obj 120 130 % 60;
#X obj 120 160 lead0;
#X obj 120 260 outlet;
#X msg 120 230 symbol \$2:\$1;
#X obj 120 200 pack s s;
#X connect 0 0 1 0;
#X connect 1 0 2 0;
#X connect 2 0 5 0;
#X connect 2 1 3 0;
#X connect 3 0 4 0;
#X connect 4 0 9 1;
#X connect 5 0 6 0;
#X connect 6 0 9 0;
#X connect 8 0 7 0;
#X connect 9 0 8 0;
#X restore 190 380 pd hms;
#X msg 190 410 label \$1;
#X obj 190 440 s \$0clock;
#X msg 110 250 stop;
#X obj 160 320 delp sec;
#X obj 290 260 metro 1000;
#X floatatom 100 60 0 0 0 2 work - - 0;
#X floatatom 150 60 0 0 0 2 break - - 0;
#X floatatom 200 60 0 0 0 2 rest - - 0;
#X obj 270 40 loadbang;
#X obj 90 110 cnv 15 72 24 empty \$0clock 00:00 4 12 0 18 #000000 #fcfcfc
0;
#X obj 100 10 s \$0w;
#X obj 150 10 s \$0b;
#X obj 200 10 s \$0r;
#X obj 250 40 bng 15 250 50 0 empty empty empty 17 7 0 10 #000000 #fcfcfc
#fcfcfc;
#N canvas 820 610 450 300 notify 0;
#X obj 30 30 inlet;
#X obj 30 260 outlet;
#X obj 120 30 inlet reset;
#X obj 30 90 tgl 15 0 empty empty empty 17 7 0 10 #000000 #fcfcfc #fcfcfc
0 1;
#X obj 30 120 sel 0 1;
#X msg 60 60 set \$1;
#N canvas 820 230 450 300 notify-work 0;
#X obj 110 90 v \$0c;
#X obj 110 180 shell;
#X msg 110 150 kdialog --passivepopup 'Work \$1' 10;
#X obj 90 60 inlet;
#X obj 110 120 + 1;
#X obj 150 120 s \$0c;
#X obj 90 210 v \$0w;
#X obj 90 240 outlet;
#X connect 0 0 4 0;
#X connect 2 0 1 0;
#X connect 3 0 0 0;
#X connect 3 0 6 0;
#X connect 4 0 5 0;
#X connect 4 0 2 0;
#X connect 6 0 7 0;
#X restore 60 150 pd notify-work;
#X obj 120 60 s \$0c;
#X obj 30 230 * 60;
#N canvas 820 230 450 330 notify-break 0;
#X obj 90 90 v \$0c;
#X obj 110 150 shell;
#X obj 90 60 inlet;
#X obj 90 270 outlet;
#X msg 110 120 kdialog --passivepopup 'Break \$1' 10;
#X obj 90 180 % 4;
#X obj 90 210 sel;
#X obj 90 240 v \$0r;
#X obj 150 210 b;
#X obj 150 240 v \$0b;
#X connect 0 0 4 0;
#X connect 0 0 5 0;
#X connect 2 0 0 0;
#X connect 4 0 1 0;
#X connect 5 0 6 0;
#X connect 6 0 7 0;
#X connect 6 1 8 0;
#X connect 7 0 3 0;
#X connect 8 0 9 0;
#X connect 9 0 3 0;
#X restore 30 180 pd notify-break;
#X obj 60 90 outlet;
#X connect 0 0 3 0;
#X connect 2 0 5 0;
#X connect 2 0 7 0;
#X connect 3 0 4 0;
#X connect 3 0 10 0;
#X connect 4 0 9 0;
#X connect 4 1 6 0;
#X connect 5 0 3 0;
#X connect 6 0 8 0;
#X connect 8 0 1 0;
#X connect 9 0 8 0;
#X restore 190 260 pd notify;
#X msg 290 290 time;
#X msg 50 380 tempo \$1;
#X msg 50 320 1;
#X obj 50 350 / 60;
#X msg 90 320 60;
#X obj 100 90 hsl 128 15 0.001 1 1 0 empty empty volume 7 7 0 10 #000000
#fcfcfc #fcfcfc 0 1;
#X floatatom 190 110 5 0 0 0 - - \$0vol 0;
#X obj 270 160 r \$0c;
#X floatatom 270 190 0 0 0 0 - - - 0;
#X obj 270 100 unpack 0 0 0 0;
#X msg 270 70 25 5 35 0.1;
#X connect 0 0 1 0;
#X connect 1 0 10 0;
#X connect 2 0 3 0;
#X connect 3 0 4 0;
#X connect 4 0 21 0;
#X connect 4 1 9 0;
#X connect 4 1 6 0;
#X connect 4 1 21 1;
#X connect 6 0 7 0;
#X connect 7 0 8 0;
#X connect 9 0 10 0;
#X connect 10 0 21 0;
#X connect 10 1 6 0;
#X connect 10 1 5 0;
#X connect 10 2 11 0;
#X connect 11 0 22 0;
#X connect 12 0 17 0;
#X connect 13 0 18 0;
#X connect 14 0 19 0;
#X connect 15 0 32 0;
#X connect 20 0 32 0;
#X connect 21 0 10 0;
#X connect 21 1 5 1;
#X connect 22 0 10 0;
#X connect 23 0 10 0;
#X connect 24 0 25 0;
#X connect 25 0 23 0;
#X connect 26 0 25 0;
#X connect 27 0 28 0;
#X connect 29 0 30 0;
#X connect 31 0 12 0;
#X connect 31 1 13 0;
#X connect 31 2 14 0;
#X connect 31 3 27 0;
#X connect 32 0 31 0;
#X coords 0 -1 1 1 200 100 2 40 40;
#X restore 20 30 pd clock;
