#N canvas 80 600 370 210 14;
#X obj 40 30 cnv 15 100 24 empty \$0clock 0:00:00 4 12 0 18 #000000
#fcfcfc 0;
#N canvas 390 600 555 400 guts 0;
#X obj 290 210 tgl 15 0 empty empty empty 17 7 0 10 #ff0400 #fcfcfc
#fcfcfc 0 1;
#N canvas 480 600 450 340 hms 0;
#X obj 110 30 inlet;
#X obj 110 60 abs;
#X obj 110 90 t f f;
#X obj 160 190 lead0;
#X obj 100 160 % 60;
#X obj 100 190 lead0;
#X obj 130 290 outlet;
#X obj 160 160 % 60;
#X msg 130 260 symbol \$3:\$2:\$1;
#X obj 160 130 / 60;
#X obj 210 130 div 3600;
#X obj 130 230 pack s s f;
#X connect 0 0 1 0;
#X connect 1 0 2 0;
#X connect 2 0 4 0;
#X connect 2 1 9 0;
#X connect 2 1 10 0;
#X connect 3 0 11 1;
#X connect 4 0 5 0;
#X connect 5 0 11 0;
#X connect 7 0 3 0;
#X connect 8 0 6 0;
#X connect 9 0 7 0;
#X connect 10 0 11 2;
#X connect 11 0 8 0;
#X restore 160 290 pd hms;
#X obj 290 290 metro 1000;
#X msg 160 320 label \$1;
#X obj 160 350 s \$0clock;
#N canvas 610 600 450 330 tick 0;
#X obj 130 30 inlet;
#X obj 130 60 abs;
#X obj 130 200 ad 3 5;
#X obj 130 230 *~;
#X obj 130 290 dac~;
#X obj 170 230 noise~;
#X obj 210 260 hsl 128 20 0.001 1 1 0 empty empty empty -2 -8 0 10
#2f004d #fcfcfc #fcfcfc 0 1;
#X floatatom 210 290 0 0 0 0 - - - 0;
#X obj 130 90 % 60;
#X obj 130 120 sel;
#X msg 130 160 1;
#X obj 180 120 sel;
#X obj 130 260 *~ 0.1;
#X obj 230 230 r \$0vol;
#X obj 180 90 % 4;
#X msg 170 160 0.36;
#X msg 220 160 0.13;
#X connect 0 0 1 0;
#X connect 1 0 8 0;
#X connect 2 0 3 0;
#X connect 3 0 12 0;
#X connect 5 0 3 1;
#X connect 6 0 7 0;
#X connect 6 0 12 1;
#X connect 8 0 9 0;
#X connect 9 0 10 0;
#X connect 9 1 14 0;
#X connect 10 0 2 0;
#X connect 11 0 15 0;
#X connect 11 1 16 0;
#X connect 12 0 4 0;
#X connect 12 0 4 1;
#X connect 13 0 6 0;
#X connect 14 0 11 0;
#X connect 15 0 2 0;
#X connect 16 0 2 0;
#X restore 90 290 pd tick;
#X msg 130 170 pause;
#X obj 190 260 chrono sec;
#X obj 240 140 * 3600;
#N canvas 840 600 450 300 notify 0;
#X obj 50 130 b;
#X obj 50 220 shell;
#X obj 50 160 f;
#X obj 50 70 inlet;
#X obj 90 160 + 1;
#X msg 120 100 stop;
#X obj 110 70 inlet;
#X obj 50 100 sel 1;
#X obj 220 160 outlet;
#X obj 110 130 delp 3600 sec;
#X floatatom 130 160 0 0 0 0 - - - 0;
#X msg 50 190 kdialog --passivepopup 'Worked \$1 hours' 10;
#X connect 0 0 2 0;
#X connect 0 0 9 0;
#X connect 2 0 4 0;
#X connect 2 0 11 0;
#X connect 3 0 7 0;
#X connect 4 0 2 1;
#X connect 5 0 9 0;
#X connect 6 0 9 0;
#X connect 7 0 0 0;
#X connect 7 1 2 1;
#X connect 7 1 5 0;
#X connect 9 0 0 0;
#X connect 9 1 10 0;
#X connect 9 2 8 0;
#X connect 11 0 1 0;
#X restore 290 260 pd notify;
#X msg 330 200 tempo \$1;
#X obj 190 170 t b f;
#X obj 130 200 t a;
#X msg 50 200 push \$1;
#X obj 50 170 f;
#X floatatom 90 170 0 0 0 0 - - - 0;
#X obj 200 70 bng 15 250 50 0 empty empty empty 17 7 0 10 #ff8300 #fcfcfc
#fcfcfc;
#X obj 190 140 f;
#X obj 110 40 bng 20 250 50 0 empty empty reset -4 -10 0 12 #ff8300
#fcfcfc #fcfcfc;
#X floatatom 160 40 0 0 0 2 hours - - 0;
#X msg 40 90 -3590;
#X obj 110 90 bng 20 250 50 0 empty empty pause -4 -10 0 12 #ff8300
#fcfcfc #fcfcfc;
#X floatatom 160 90 0 0 0 2 push - - 0;
#X obj 140 140 * -60;
#X obj 330 170 / 600;
#X msg 330 130 1;
#X msg 370 130 600;
#X obj 260 100 textfile;
#N canvas 930 600 450 300 save-on-close 0;
#X obj 180 110 inlet;
#X obj 120 200 textfile;
#X obj 120 80 r \$0save;
#X obj 90 80 bng 15 250 50 0 empty empty empty 17 7 0 10 #ff8300 #fcfcfc
#fcfcfc;
#X msg 120 170 clear \, add \$1 \, write hours.txt;
#X obj 120 110 f;
#X obj 120 140 * -1;
#X connect 0 0 5 1;
#X connect 2 0 5 0;
#X connect 3 0 5 0;
#X connect 4 0 1 0;
#X connect 5 0 6 0;
#X connect 6 0 4 0;
#X restore 270 320 pd save-on-close;
#X obj 260 40 loadbang;
#X msg 260 70 read hours.txt \, rewind \, bang;
#X connect 0 0 9 0;
#X connect 1 0 3 0;
#X connect 2 0 7 1;
#X connect 3 0 4 0;
#X connect 6 0 12 0;
#X connect 7 0 1 0;
#X connect 7 0 5 0;
#X connect 7 0 28 0;
#X connect 8 0 17 1;
#X connect 9 0 2 0;
#X connect 10 0 7 0;
#X connect 10 0 9 1;
#X connect 11 0 0 0;
#X connect 11 1 7 0;
#X connect 12 0 7 0;
#X connect 12 0 9 1;
#X connect 13 0 12 0;
#X connect 14 0 13 0;
#X connect 15 0 14 1;
#X connect 16 0 14 0;
#X connect 17 0 11 0;
#X connect 18 0 17 0;
#X connect 19 0 8 0;
#X connect 20 0 15 0;
#X connect 21 0 6 0;
#X connect 22 0 23 0;
#X connect 23 0 15 0;
#X connect 24 0 10 0;
#X connect 25 0 24 0;
#X connect 26 0 24 0;
#X connect 27 0 17 1;
#X connect 29 0 30 0;
#X connect 30 0 27 0;
#X coords 0 -1 1 1 120 100 2 100 20;
#X restore 40 70 pd guts;
#X obj 200 50 hsl 128 20 0.001 1 1 0 empty empty tick-volume -2 7 0
10 #2f004d #fcfcfc #fcfcfc 0 1;
#X floatatom 200 80 0 0 0 0 - - \$0vol 0;
#X obj 250 120 closebang;
#X obj 250 150 s \$0save;
#X connect 2 0 3 0;
#X connect 4 0 5 0;
