#N canvas 719 355 450 300 10;
#X text 211 26 [woq];
#X floatatom 205 170 0 0 0 0 - - -;
#X floatatom 205 113 0 0 0 0 - - -;
#X floatatom 255 113 0 0 0 0 - - -;
#X obj 205 143 woq 2;
#X text 72 46 similar to [pow] \, except the second inlet and creation
argument assign the base \, and the first inlet assigns the exponent
;
#X connect 2 0 4 0;
#X connect 3 0 4 1;
#X connect 4 0 1 0;
