#N canvas 400 200 590 450 14;
#X obj 100 290 t a;
#X msg 80 150 list 12;
#X msg 100 180 list hi;
#X obj 110 240 pointer;
#X obj 80 360 is list;
#X obj 150 360 is float;
#X obj 220 360 is symbol;
#X obj 300 360 is pointer;
#X msg 280 150 list 12;
#X msg 300 180 list hi;
#X obj 320 240 pointer;
#X obj 300 270 x a;
#X msg 180 240 1 2 3;
#X msg 390 240 1 2 3;
#X obj 80 390 tgl 15 0 empty empty empty 17 7 0 10 #0e4345 #fcfcfc
#fcfcfc 0 1;
#X obj 150 390 tgl 15 0 empty empty empty 17 7 0 10 #0e4345 #fcfcfc
#fcfcfc 0 1;
#X obj 220 390 tgl 15 0 empty empty empty 17 7 0 10 #0e4345 #fcfcfc
#fcfcfc 0 1;
#X obj 300 390 tgl 15 0 empty empty empty 17 7 0 10 #0e4345 #fcfcfc
#fcfcfc 0 1;
#X obj 420 300 is p;
#X obj 400 330 spigot;
#X obj 400 360 pointer;
#X obj 400 390 bng 15 250 50 0 empty empty empty 17 7 0 10 #ff8300
#ff0400 #fcfcfc;
#X obj 380 300 x;
#X obj 280 40 cnv 15 21 24 empty empty x 4 12 0 18 #000000 #fcfcfc
0;
#X text 220 70 explicit trigger;
#X text 50 90 A variation of [trigger] that sends 1-atom lists as the
atom itself when either a number \, the letter 'a' \, or no creation
args are used.;
#X obj 420 50 namecanvas foo;
#X msg 110 210 traverse foo \, bang;
#X msg 320 210 traverse foo \, bang;
#X connect 0 0 4 0;
#X connect 0 0 5 0;
#X connect 0 0 6 0;
#X connect 0 0 7 0;
#X connect 0 0 22 0;
#X connect 1 0 0 0;
#X connect 2 0 0 0;
#X connect 3 0 0 0;
#X connect 4 0 14 0;
#X connect 5 0 15 0;
#X connect 6 0 16 0;
#X connect 7 0 17 0;
#X connect 8 0 11 0;
#X connect 9 0 11 0;
#X connect 10 0 11 0;
#X connect 11 0 4 0;
#X connect 11 0 5 0;
#X connect 11 0 6 0;
#X connect 11 0 7 0;
#X connect 11 0 22 0;
#X connect 12 0 0 0;
#X connect 13 0 11 0;
#X connect 18 0 19 1;
#X connect 19 0 20 0;
#X connect 20 0 21 0;
#X connect 22 0 19 0;
#X connect 22 1 18 0;
#X connect 27 0 3 0;
#X connect 28 0 10 0;
