#N canvas 728 367 450 300 14;
#X obj 72 104 inlet;
#X obj 72 190 outlet;
#X obj 141 104 inlet;
#X obj 245 48 cnv 15 28 22 empty empty zp 2 10 0 16 -1 -262144 0;
#X obj 72 133 pack 0 \$1;
#X text 154 74 ramp between value changes;
#X obj 214 104 inlet;
#X obj 72 161 line \$2 \$3;
#X connect 0 0 4 0;
#X connect 2 0 4 1;
#X connect 4 0 7 0;
#X connect 6 0 7 2;
#X connect 7 0 1 0;
