#N canvas 719 355 450 300 14;
#X obj 52 117 inlet;
#X obj 52 213 line~;
#X obj 52 242 outlet~;
#X obj 121 117 inlet;
#X obj 249 55 cnv 15 40 22 empty empty zp~ 2 10 0 16 -1 -262144 0;
#X obj 52 146 pack 0 \$1;
#X text 127 80 ramp between value changes (signal);
#X obj 183 144 \$2;
#X obj 183 171 sel;
#X obj 183 117 loadbang;
#X connect 0 0 5 0;
#X connect 1 0 2 0;
#X connect 3 0 5 1;
#X connect 5 0 1 0;
#X connect 7 0 8 0;
#X connect 8 1 1 0;
#X connect 9 0 7 0;
