#N canvas 730 360 350 250 14;
#X obj 140 90 inlet;
#X obj 210 90 inlet;
#X obj 170 120 route bash;
#X obj 140 150 pack 0 \$1;
#X obj 80 150 `f \$2!;
#X obj 80 180 sel;
#X obj 140 180 line~;
#X obj 140 210 outlet~;
#X text 30 60 ramp between value changes (signal);
#X obj 150 30 cnv 15 48 24 empty empty zp~ 4 12 0 18 #000000 #fcfcfc
0;
#X connect 0 0 3 0;
#X connect 1 0 2 0;
#X connect 2 0 6 0;
#X connect 2 1 3 1;
#X connect 3 0 6 0;
#X connect 4 0 5 0;
#X connect 5 1 6 0;
#X connect 6 0 7 0;
