#N canvas 664 387 560 382 10;
#X floatatom 66 180 5 0 0 0 - - -, f 5;
#X floatatom 93 116 5 0 0 0 - - -, f 5;
#X floatatom 132 116 5 0 0 0 - - -, f 5;
#X floatatom 311 181 5 0 0 0 - - -, f 5;
#X floatatom 54 116 5 0 0 0 - - -, f 5;
#X text 34 100 current;
#X msg 259 94 0;
#X msg 287 94 1;
#X msg 316 94 2;
#X floatatom 326 113 5 0 0 0 - - -, f 5;
#X floatatom 55 226 5 0 0 0 - - -, f 5;
#X floatatom 55 269 5 0 0 0 - - -, f 5;
#X floatatom 321 285 5 0 0 0 - - -, f 5;
#X floatatom 392 285 5 0 0 0 - - -, f 5;
#X floatatom 463 285 5 0 0 0 - - -, f 5;
#X floatatom 250 285 5 0 0 0 - - -, f 5;
#X floatatom 250 326 5 0 0 0 - - -, f 5;
#X obj 358 212 bng 15 250 50 0 empty empty empty 17 7 0 10 -262144
-1 -1;
#X obj 358 257 unpack 0 0 0;
#X text 331 324 alternate solution;
#X text 188 45 default:;
#X text 250 8 GRAID;
#X obj 55 246 graid 10 0;
#X text 139 100 min;
#X text 100 100 max;
#X text 143 23 add steps between max and min values;
#X obj 248 46 graid 1 0 100;
#X obj 316 144 graid 5 2 2;
#X text 132 246 2 args set max and min;
#X obj 250 304 expr $f1 / ($f4 / ($f2 - $f3)) + $f3;
#X obj 358 232 list 15 3 250;
#X text 144 148 1 arg sets max;
#X obj 66 149 graid 25;
#X text 406 150 max \, min \, scale;
#X floatatom 392 106 5 0 0 0 - - -, f 5;
#X text 384 90 scale;
#X text 417 136 3 args set:;
#X text 370 164 and create a third inlet;
#X connect 1 0 32 1;
#X connect 2 0 32 2;
#X connect 4 0 32 0;
#X connect 6 0 27 0;
#X connect 7 0 27 0;
#X connect 8 0 27 0;
#X connect 9 0 27 0;
#X connect 10 0 22 0;
#X connect 12 0 29 1;
#X connect 13 0 29 2;
#X connect 14 0 29 3;
#X connect 15 0 29 0;
#X connect 17 0 30 0;
#X connect 18 0 12 0;
#X connect 18 1 13 0;
#X connect 18 2 14 0;
#X connect 22 0 11 0;
#X connect 27 0 3 0;
#X connect 29 0 16 0;
#X connect 30 0 18 0;
#X connect 32 0 0 0;
#X connect 34 0 27 3;
#X coords 0 382 1 381 85 60 0;
