#N canvas 1275 446 541 384 10;
#X obj 288 90 cupqb;
#X symbolatom 279 245 10 0 0 0 - - -, f 10;
#X obj 279 223 radix 12;
#X obj 209 143 /;
#X obj 206 103 cupqb;
#X obj 242 103 cupqb;
#X floatatom 297 187 10 0 0 0 - - -, f 10;
#X symbolatom 345 245 10 0 0 0 - - -, f 10;
#X symbolatom 147 245 10 0 0 0 - - -, f 10;
#X obj 147 223 radix 8;
#X symbolatom 411 245 10 0 0 0 - - -, f 10;
#X obj 411 223 radix 32;
#X obj 242 173 f;
#X obj 345 223 radix 16;
#X symbolatom 213 245 10 0 0 0 - - -, f 10;
#X obj 213 223 radix 9;
#X symbolatom 79 246 10 0 0 0 - - -, f 10;
#X obj 79 224 radix 7;
#X symbolatom 79 197 10 0 0 0 - - -, f 10;
#X symbolatom 79 153 10 0 0 0 - - -, f 10;
#X obj 79 175 radix 6;
#X obj 79 131 radix 5;
#X symbolatom 391 192 10 0 0 0 - - -, f 10;
#X symbolatom 391 148 10 0 0 0 - - -, f 10;
#X obj 391 126 radix 4;
#X obj 391 170 radix 3;
#X symbolatom 224 331 10 0 0 0 - - -, f 10;
#X obj 224 309 radix 11;
#X symbolatom 291 331 10 0 0 0 - - -, f 10;
#X obj 291 309 radix 13;
#X obj 191 200 s dec;
#X obj 45 107 r dec;
#X obj 352 165 r dec;
#X obj 269 275 r dec;
#X symbolatom 157 331 10 0 0 0 - - -, f 10;
#X obj 157 309 radix 2;
#X symbolatom 358 331 10 0 0 0 - - -, f 10;
#X obj 358 309 radix 15;
#X symbolatom 423 330 10 0 0 0 - - -, f 10;
#X obj 423 308 radix 23;
#X obj 173 172 pi;
#X msg 198 172 bang;
#X obj 232 79 b, f 1;
#X obj 130 95 cupqb;
#X obj 166 95 cupqb;
#X obj 142 135 *;
#X obj 330 82 cupqb;
#X obj 366 82 cupqb;
#X obj 355 59 b, f 1;
#X obj 342 122 pow;
#X obj 216 51 tgl 15 0 empty empty empty 17 7 0 10 -1 -262144 -220350
0 1;
#X obj 234 51 metro;
#X floatatom 274 50 5 0 0 0 - - -, f 5;
#X msg 257 80 +;
#X obj 305 50 ii 1300;
#X obj 242 152 +;
#X obj 159 70 b, f 1;
#X obj 277 126 r dc;
#X obj 140 172 s dc;
#X obj 342 144 s dc;
#N canvas 719 355 450 300 words 1;
#X msg 168 24 518547;
#X msg 178 44 803897;
#X obj 148 255 s dc;
#X msg 188 64 420185;
#X msg 198 84 848345;
#X msg 208 104 417237;
#X msg 218 124 15128;
#X msg 228 144 689944;
#X msg 238 164 393619;
#X msg 248 184 420243;
#X msg 258 204 15829;
#X msg 240 63 506251;
#X msg 262 225 289593;
#X connect 0 0 2 0;
#X connect 1 0 2 0;
#X connect 3 0 2 0;
#X connect 4 0 2 0;
#X connect 5 0 2 0;
#X connect 6 0 2 0;
#X connect 7 0 2 0;
#X connect 8 0 2 0;
#X connect 9 0 2 0;
#X connect 10 0 2 0;
#X connect 11 0 2 0;
#X connect 12 0 2 0;
#X restore 410 58 pd words;
#X obj 285 150 cupqb;
#X obj 269 153 b, f 1;
#X floatatom 181 270 5 0 0 0 - - -, f 5;
#X connect 0 0 59 0;
#X connect 2 0 1 0;
#X connect 3 0 55 0;
#X connect 4 0 3 0;
#X connect 5 0 3 1;
#X connect 5 0 42 0;
#X connect 9 0 8 0;
#X connect 11 0 10 0;
#X connect 12 0 11 0;
#X connect 12 0 2 0;
#X connect 12 0 9 0;
#X connect 12 0 13 0;
#X connect 12 0 15 0;
#X connect 12 0 30 0;
#X connect 12 0 6 0;
#X connect 13 0 7 0;
#X connect 15 0 14 0;
#X connect 17 0 16 0;
#X connect 20 0 18 0;
#X connect 21 0 19 0;
#X connect 24 0 23 0;
#X connect 25 0 22 0;
#X connect 27 0 26 0;
#X connect 29 0 28 0;
#X connect 31 0 21 0;
#X connect 31 0 20 0;
#X connect 31 0 17 0;
#X connect 32 0 24 0;
#X connect 32 0 25 0;
#X connect 33 0 29 0;
#X connect 33 0 27 0;
#X connect 33 0 35 0;
#X connect 33 0 37 0;
#X connect 33 0 39 0;
#X connect 35 0 34 0;
#X connect 37 0 36 0;
#X connect 39 0 38 0;
#X connect 40 0 58 0;
#X connect 41 0 40 0;
#X connect 42 0 4 0;
#X connect 43 0 45 0;
#X connect 44 0 45 1;
#X connect 44 0 56 0;
#X connect 45 0 58 0;
#X connect 46 0 49 0;
#X connect 47 0 49 1;
#X connect 47 0 48 0;
#X connect 48 0 46 0;
#X connect 49 0 59 0;
#X connect 50 0 51 0;
#X connect 51 0 53 0;
#X connect 52 0 51 1;
#X connect 53 0 4 0;
#X connect 54 0 52 0;
#X connect 55 0 12 0;
#X connect 56 0 43 0;
#X connect 57 0 55 0;
#X connect 61 0 55 1;
#X connect 61 0 62 0;
#X connect 62 0 55 0;
#X connect 63 0 27 1;
#X coords 0 0 1 1 85 60 0;
