#N canvas 400 200 560 310 14;
#X declare -lib blunt;
#X obj 160 90 ^;
#X text 190 90 and;
#X obj 230 90 #^;
#X text 260 90 (hot binop);
#X floatatom 40 120 0 0 0 0 - - - 0;
#X floatatom 110 180 0 0 0 0 - - - 0;
#X floatatom 40 210 0 0 0 0 - - - 0;
#X obj 240 30 cnv 15 25 24 empty empty ^ 4 12 0 18 #000000 #fcfcfc
0;
#X text 150 60 XOR - bitwise exclusive OR;
#X obj 50 150 mantissa;
#X obj 50 240 mantissa;
#N canvas 400 200 450 300 lib 0;
#X obj 140 120 declare -lib blunt;
#X restore 30 30 pd lib;
#X obj 40 90 `f 64 !;
#X obj 40 180 #^ -32;
#X connect 4 0 9 0;
#X connect 4 0 13 0;
#X connect 5 0 13 1;
#X connect 6 0 10 0;
#X connect 12 0 4 0;
#X connect 13 0 6 0;
