#N canvas 400 200 480 350 16;
#X declare -lib blunt;
#X floatatom 160 130 0 0 0 0 - - - 0;
#X floatatom 200 130 0 0 0 0 - - - 0;
#X floatatom 250 130 0 0 0 0 - - - 0;
#X floatatom 290 130 0 0 0 0 - - - 0;
#X floatatom 70 230 0 0 0 0 - - - 0;
#X floatatom 110 230 0 0 0 0 - - - 0;
#X floatatom 160 230 0 0 0 0 - - - 0;
#X floatatom 200 230 0 0 0 0 - - - 0;
#X floatatom 250 230 0 0 0 0 - - - 0;
#X floatatom 290 230 0 0 0 0 - - - 0;
#X floatatom 340 230 0 0 0 0 - - - 0;
#X floatatom 380 230 0 0 0 0 - - - 0;
#X obj 250 260 #>=;
#X obj 340 260 #<=;
#X floatatom 160 190 0 0 0 0 - - - 0;
#X floatatom 250 190 0 0 0 0 - - - 0;
#X floatatom 70 290 0 0 0 0 - - - 0;
#X floatatom 160 290 0 0 0 0 - - - 0;
#X floatatom 250 290 0 0 0 0 - - - 0;
#X floatatom 340 290 0 0 0 0 - - - 0;
#X text 150 60 == \, != \, > \, < \, >= \, <=;
#X text 130 80 arithmetic with hot inlets;
#X obj 160 30 cnv 15 164 24 empty empty hot\\\ binops\\\ 2 4 12 0 18
#000000 #fcfcfc 0;
#N canvas 400 200 450 300 lib 0;
#X obj 140 120 declare -lib blunt;
#X restore 30 30 pd lib;
#X obj 160 160 #== 0 !;
#X obj 250 160 #!= 3 4 !;
#X obj 70 260 #> 1 0 !;
#X obj 160 260 #< 2 3 !;
#X connect 0 0 24 0;
#X connect 1 0 24 1;
#X connect 2 0 25 0;
#X connect 3 0 25 1;
#X connect 4 0 26 0;
#X connect 5 0 26 1;
#X connect 6 0 27 0;
#X connect 7 0 27 1;
#X connect 8 0 12 0;
#X connect 9 0 12 1;
#X connect 10 0 13 0;
#X connect 11 0 13 1;
#X connect 12 0 18 0;
#X connect 13 0 19 0;
#X connect 24 0 14 0;
#X connect 25 0 15 0;
#X connect 26 0 16 0;
#X connect 27 0 17 0;
