#N canvas 400 200 500 370 16;
#X declare -lib blunt;
#X floatatom 60 130 0 0 0 0 - - - 0;
#X floatatom 100 130 0 0 0 0 - - - 0;
#X floatatom 160 130 0 0 0 0 - - - 0;
#X floatatom 200 130 0 0 0 0 - - - 0;
#X floatatom 260 130 0 0 1 0 - - - 0;
#X floatatom 300 130 0 0 1 0 - - - 0;
#X floatatom 350 130 0 0 1 0 - - - 0;
#X floatatom 390 130 0 0 1 0 - - - 0;
#X floatatom 30 240 0 0 0 0 - - - 0;
#X floatatom 70 240 0 0 0 0 - - - 0;
#X floatatom 120 240 0 0 0 0 - - - 0;
#X floatatom 160 240 0 0 0 0 - - - 0;
#X floatatom 230 240 0 0 0 0 - - - 0;
#X floatatom 270 240 0 0 0 0 - - - 0;
#X floatatom 310 240 0 0 0 0 - - - 0;
#X floatatom 350 240 0 0 0 0 - - - 0;
#X floatatom 390 240 0 0 0 0 - - - 0;
#X floatatom 430 240 0 0 0 0 - - - 0;
#X obj 260 160 #&&;
#X obj 350 160 #||;
#X obj 230 270 #%;
#X obj 310 270 #mod;
#X obj 390 270 #div;
#X floatatom 60 190 0 0 0 0 - - - 0;
#X floatatom 160 190 0 0 0 0 - - - 0;
#X floatatom 260 190 0 0 0 0 - - - 0;
#X floatatom 350 190 0 0 0 0 - - - 0;
#X floatatom 30 300 0 0 0 0 - - - 0;
#X floatatom 120 300 0 0 0 0 - - - 0;
#X floatatom 230 300 0 0 0 0 - - - 0;
#X floatatom 310 300 0 0 0 0 - - - 0;
#X floatatom 390 300 0 0 0 0 - - - 0;
#X text 130 60 & \, | \, && \, || \, << \, >> \, % \, mod \, div;
#X text 150 80 arithmetic with hot inlets;
#X obj 170 30 cnv 15 164 24 empty empty hot\\\ binops\\\ 3 4 12 0 18
#000000 #fcfcfc 0;
#N canvas 400 200 450 300 lib 0;
#X obj 140 120 declare -lib blunt;
#X restore 30 30 pd lib;
#X obj 60 160 #& 53 29 !;
#X obj 160 160 #| 32 16 !;
#X obj 30 270 #<< 1 8 !;
#X obj 120 270 #>> 200 1 !;
#X connect 0 0 36 0;
#X connect 1 0 36 1;
#X connect 2 0 37 0;
#X connect 3 0 37 1;
#X connect 4 0 18 0;
#X connect 5 0 18 1;
#X connect 6 0 19 0;
#X connect 7 0 19 1;
#X connect 8 0 38 0;
#X connect 9 0 38 1;
#X connect 10 0 39 0;
#X connect 11 0 39 1;
#X connect 12 0 20 0;
#X connect 13 0 20 1;
#X connect 14 0 21 0;
#X connect 15 0 21 1;
#X connect 16 0 22 0;
#X connect 17 0 22 1;
#X connect 18 0 25 0;
#X connect 19 0 26 0;
#X connect 20 0 29 0;
#X connect 21 0 30 0;
#X connect 22 0 31 0;
#X connect 36 0 23 0;
#X connect 37 0 24 0;
#X connect 38 0 27 0;
#X connect 39 0 28 0;
