#N canvas 400 200 550 420 14;
#X declare -lib blunt;
#X floatatom 100 200 0 0 0 0 - - - 0;
#X floatatom 150 200 0 0 0 0 - - - 0;
#X floatatom 200 200 0 0 0 0 - - - 0;
#X floatatom 240 200 0 0 0 0 - - - 0;
#X floatatom 290 200 0 0 0 0 - - - 0;
#X floatatom 330 200 0 0 0 0 - - - 0;
#X floatatom 380 200 0 0 0 0 - - - 0;
#X floatatom 420 200 0 0 0 0 - - - 0;
#X floatatom 70 300 0 0 0 0 - - - 0;
#X floatatom 110 300 0 0 0 0 - - - 0;
#X floatatom 190 300 0 0 0 0 - - - 0;
#X floatatom 230 300 0 0 0 0 - - - 0;
#X floatatom 300 300 0 0 0 0 - - - 0;
#X floatatom 340 300 0 0 0 0 - - - 0;
#X floatatom 400 300 0 0 0 0 - - - 0;
#X floatatom 440 300 0 0 0 0 - - - 0;
#X obj 290 230 #*;
#X obj 380 230 #/;
#X obj 400 330 #min;
#X floatatom 90 260 0 0 0 0 - - - 0;
#X floatatom 200 260 0 0 0 0 - - - 0;
#X floatatom 290 260 0 0 0 0 - - - 0;
#X floatatom 380 260 0 0 0 0 - - - 0;
#X floatatom 70 360 0 0 0 0 - - - 0;
#X floatatom 190 360 0 0 0 0 - - - 0;
#X floatatom 300 360 0 0 0 0 - - - 0;
#X floatatom 400 360 0 0 0 0 - - - 0;
#X floatatom 50 140 0 0 0 0 - - - 0;
#X floatatom 130 140 0 0 0 0 - - - 0;
#X msg 80 140 . \$1;
#X msg 160 140 . \$1;
#X msg 70 170 f2 45;
#X msg 130 170 f1 234;
#X text 190 170 set the opposite inlet;
#X text 200 140 set the opposite inlet and push result;
#X text 170 70 + \, - \, * \, / \, pow \, max \, min;
#X text 170 90 arithmetic with hot inlets;
#X obj 190 40 cnv 15 164 24 empty empty hot\\\ binops\\\ 1 4 12 0 18
#000000 #fcfcfc 0;
#N canvas 400 200 450 300 lib 0;
#X obj 140 120 declare -lib blunt;
#X restore 30 30 pd lib;
#X obj 90 230 #+ 123 !;
#X obj 200 230 #- 50 5 !;
#X obj 70 330 #log 1024 2 !;
#X obj 190 330 #pow 2 10 !;
#X obj 300 330 #max 8 2 !;
#X connect 0 0 39 0;
#X connect 1 0 39 1;
#X connect 2 0 40 0;
#X connect 3 0 40 1;
#X connect 4 0 16 0;
#X connect 5 0 16 1;
#X connect 6 0 17 0;
#X connect 7 0 17 1;
#X connect 8 0 41 0;
#X connect 9 0 41 1;
#X connect 10 0 42 0;
#X connect 11 0 42 1;
#X connect 12 0 43 0;
#X connect 13 0 43 1;
#X connect 14 0 18 0;
#X connect 15 0 18 1;
#X connect 16 0 21 0;
#X connect 17 0 22 0;
#X connect 18 0 26 0;
#X connect 27 0 29 0;
#X connect 28 0 30 0;
#X connect 29 0 39 0;
#X connect 30 0 39 1;
#X connect 31 0 39 0;
#X connect 32 0 39 1;
#X connect 39 0 19 0;
#X connect 40 0 20 0;
#X connect 41 0 23 0;
#X connect 42 0 24 0;
#X connect 43 0 25 0;
