#N canvas 400 200 560 310 16;
#X declare -lib blunt;
#X floatatom 40 110 0 0 0 0 - - - 0;
#X obj 50 140 mantissa;
#X obj 40 170 ~, f 1;
#X floatatom 40 200 0 0 0 0 - - - 0;
#X obj 50 240 mantissa;
#X obj 150 40 cnv 15 102 24 empty empty !\\\ and\\\ ~ 4 12 0 18 #000000
#fcfcfc 0;
#X text 90 70 logical and bitwise negation;
#X obj 400 40 tgl 15 0 empty empty empty 17 7 0 10 #0e4345 #fcfcfc
#fcfcfc 0 1;
#X obj 400 60 !, f 1;
#X obj 400 90 tgl 15 0 empty empty empty 17 7 0 10 #0e4345 #fcfcfc
#fcfcfc 0 1;
#X text 420 60 logical;
#X text 60 170 bitwise;
#N canvas 400 200 450 300 lib 0;
#X obj 140 120 declare -lib blunt;
#X restore 30 30 pd lib;
#X connect 0 0 2 0;
#X connect 0 0 1 0;
#X connect 2 0 3 0;
#X connect 3 0 4 0;
#X connect 7 0 8 0;
#X connect 8 0 9 0;
