#N canvas 400 200 400 320 16;
#X obj 130 200 cupqb;
#X obj 130 50 bng 24 250 50 0 empty empty play/pause 28 12 0 16 #ff8300 #ff0400 #7c7c7c;
#X msg 30 80 stop;
#X text 190 210 tracks;
#X obj 130 170 bng 24 250 50 0 empty empty restart 28 12 0 16 #ff8300 #ff0400 #7c7c7c;
#N canvas 800 200 450 290 time 0;
#X obj 30 40 inlet;
#X obj 130 200 outlet;
#N canvas 800 200 390 300 display 0;
#X obj 50 30 r \$1time;
#X obj 50 150 @-;
#X msg 140 180 set \$1;
#X obj 140 150 /;
#X obj 140 210 s \$1trackbar;
#X obj 280 180 hms;
#X obj 50 180 hms;
#X obj 140 30 r \$0pos;
#X obj 280 210 outlet;
#X obj 50 210 outlet;
#X text 40 240 remaining time, f 9;
#X text 270 240 current time, f 7;
#X obj 150 90 f;
#X obj 160 60 r \$1seek;
#X obj 250 30 r \$1stop;
#X msg 250 90 0;
#X obj 50 70 t b f;
#X msg 50 100 0;
#X connect 0 0 16 0;
#X connect 1 0 6 0;
#X connect 2 0 4 0;
#X connect 3 0 2 0;
#X connect 5 0 8 0;
#X connect 6 0 9 0;
#X connect 7 0 12 0;
#X connect 7 0 3 0;
#X connect 12 0 5 0;
#X connect 12 0 1 0;
#X connect 13 0 12 0;
#X connect 14 0 15 0;
#X connect 15 0 5 0;
#X connect 15 0 1 0;
#X connect 16 0 17 0;
#X connect 16 1 1 1;
#X connect 16 1 3 1;
#X connect 17 0 1 0;
#X restore 30 160 pd display;
#X obj 110 40 route stop;
#X msg 240 80 0;
#N canvas 800 200 360 260 is-playing 0;
#X obj 100 40 r \$0play;
#X obj 100 130 #&&;
#N canvas 800 200 360 260 check-dsp 0;
#X obj 90 30 loadbang;
#X obj 90 60 t;
#X obj 90 100 del 5;
#X obj 150 170 snapshot~;
#X msg 150 100 set 0;
#X obj 170 130 sig~ 1;
#X obj 60 30 bng 24 250 50 0 empty empty empty 0 -12 0 16 #ff8300 #ff0400 #fcfcfc;
#X obj 150 210 outlet;
#X obj 50 140 r pd;
#X obj 50 170 route dsp;
#X connect 0 0 1 0;
#X connect 1 0 2 0;
#X connect 1 1 4 0;
#X connect 2 0 3 0;
#X connect 3 0 7 0;
#X connect 4 0 3 0;
#X connect 5 0 3 0;
#X connect 6 0 1 0;
#X connect 8 0 9 0;
#X connect 9 0 7 0;
#X restore 140 80 pd check-dsp;
#X obj 100 210 outlet;
#X obj 190 120 r \$0forever;
#X obj 100 160 spigot 1;
#X obj 190 160 !;
#X connect 0 0 1 0;
#X connect 1 0 5 0;
#X connect 2 0 1 1;
#X connect 4 0 6 0;
#X connect 5 0 3 0;
#X connect 6 0 5 1;
#X restore 290 80 pd is-playing;
#X obj 30 200 outlet;
#X floatatom 360 160 0 0 0 0 - - - 0;
#X obj 30 110 s \$1msg;
#X obj 30 70 t a a;
#X obj 220 40 r \$0end;
#X msg 240 190 pos;
#X obj 110 80 s \$1stop;
#X obj 280 120 r \$1reset;
#X obj 240 160 del;
#X obj 280 160 f 1000;
#N canvas 800 200 360 230 tgl 0;
#X obj 150 60 tgl 24 0 empty empty empty 0 -12 0 16 #0e4345 #fcfcfc #fcfcfc 0 1;
#X obj 150 30 inlet;
#X obj 150 90 sel;
#X msg 130 130 stop;
#X msg 190 130 0;
#X obj 150 170 outlet;
#X connect 0 0 2 0;
#X connect 1 0 0 0;
#X connect 2 0 3 0;
#X connect 2 1 4 0;
#X connect 3 0 5 0;
#X connect 4 0 5 0;
#X coords 0 -1 1 1 26 26 2 149 59;
#X restore 240 120 pd tgl;
#X connect 0 0 9 0;
#X connect 2 0 6 0;
#X connect 2 1 1 0;
#X connect 3 0 4 0;
#X connect 3 0 12 0;
#X connect 4 0 16 0;
#X connect 5 0 16 0;
#X connect 7 0 15 1;
#X connect 9 0 8 0;
#X connect 9 1 3 0;
#X connect 10 0 4 0;
#X connect 11 0 8 0;
#X connect 13 0 14 0;
#X connect 14 0 11 0;
#X connect 14 0 15 0;
#X connect 15 0 14 0;
#X connect 16 0 14 0;
#X restore 30 110 pd time;
#N canvas 800 200 480 340 bounds 0;
#X obj 50 30 inlet;
#X obj 130 60 + 1;
#X obj 130 30 r \$1n;
#X obj 50 60 moses 1;
#X obj 60 90 moses 2;
#X obj 150 130 s \$1nbx;
#X obj 240 90 r \$1start;
#X obj 50 290 s \$1msg;
#X obj 150 90 s \$0end;
#X obj 140 200 s \$1reset;
#X msg 60 240 \$1 \, print %disc%|%track% [%ftime%] - %title% \, time \, bpm \, sytc, f 34;
#X obj 60 170 t b a;
#X msg 240 130 symbol bang;
#X msg 140 170 0;
#X connect 0 0 3 0;
#X connect 1 0 4 1;
#X connect 2 0 1 0;
#X connect 3 0 7 0;
#X connect 3 1 4 0;
#X connect 4 0 5 0;
#X connect 4 0 11 0;
#X connect 4 1 8 0;
#X connect 6 0 5 0;
#X connect 6 0 12 0;
#X connect 10 0 7 0;
#X connect 11 0 13 0;
#X connect 11 1 10 0;
#X connect 12 0 11 0;
#X connect 13 0 9 0;
#X restore 130 270 pd bounds;
#N canvas 800 200 620 290 route 0;
#X obj 30 30 inlet;
#X obj 460 130 s \$1n;
#X obj 30 200 sel;
#X obj 30 240 s \$1start;
#X obj 80 130 s \$0play;
#X msg 450 100 tracks \$1;
#X obj 70 210 t f b;
#X obj 130 240 s \$1msg;
#X obj 30 160 pipe 10;
#X msg 130 160 \; pd dsp 1;
#N canvas 800 200 360 260 fmt 0;
#X obj 80 30 inlet;
#X obj 80 180 s \$1msg;
#X msg 80 150 print \$1: \$2;
#X obj 150 30 list length;
#X obj 80 60 t a a;
#X obj 150 60 < 2;
#X obj 80 120 list;
#X obj 150 90 sel 1;
#X msg 150 120 symbol;
#X connect 0 0 4 0;
#X connect 2 0 1 0;
#X connect 3 0 5 0;
#X connect 4 0 6 0;
#X connect 4 1 3 0;
#X connect 5 0 7 0;
#X connect 6 0 2 0;
#X connect 7 0 8 0;
#X connect 8 0 6 1;
#X restore 450 160 pd fmt;
#X obj 100 100 s \$1done;
#X obj 200 130 s \$1time;
#X obj 220 100 s \$0pos;
#X msg 130 210 print %path% \, tracks \, print %artist% - %album%;
#X obj 310 160 s \$1pad;
#X obj 370 100 s \$1bpm;
#X obj 340 130 s \$1sync;
#X obj 30 60 route open play done time pos delay sytc bpm tracks;
#X connect 0 0 18 0;
#X connect 2 1 6 0;
#X connect 5 0 10 0;
#X connect 6 0 3 0;
#X connect 6 1 14 0;
#X connect 6 1 9 0;
#X connect 8 0 2 0;
#X connect 14 0 7 0;
#X connect 18 0 8 0;
#X connect 18 1 4 0;
#X connect 18 2 11 0;
#X connect 18 3 12 0;
#X connect 18 4 13 0;
#X connect 18 5 15 0;
#X connect 18 6 17 0;
#X connect 18 7 16 0;
#X connect 18 8 5 0;
#X connect 18 8 1 0;
#X connect 18 9 10 0;
#X restore 30 260 pd route;
#X symbolatom 150 110 10 0 0 0 - - - 0;
#X symbolatom 140 140 11 0 0 0 - - - 0;
#X obj 30 230 r \$1route;
#X obj 130 80 bng 24 250 50 0 empty empty stop 28 12 0 16 #ff8300 #ff0400 #7c7c7c;
#X obj 280 140 p-next \$1;
#X connect 0 0 6 0;
#X connect 1 0 5 0;
#X connect 2 0 5 0;
#X connect 4 0 0 1;
#X connect 5 0 9 0;
#X connect 5 1 8 0;
#X connect 10 0 7 0;
#X connect 11 0 2 0;
#X connect 12 0 0 1;
#X coords 0 -1 1 1 140 220 2 130 40;
