#N canvas 400 200 420 460 16;
#X declare -lib blunt;
#X obj 180 30 cnv 15 56 27 empty empty avr~ 0 12 0 24 #535512 #fcfcfc 0;
#N canvas 820 200 360 90 lib 0;
#X obj 60 30 declare -lib blunt;
#X restore 30 30 pd lib;
#X obj 250 150 av-common \$0;
#N canvas 820 510 360 150 docs 0;
#X obj 90 60 av-docs \$0;
#X obj 90 30 player-docs \$0;
#X obj 90 90 rubberband-docs \$0;
#X restore 290 400 pd docs;
#X text 70 60 Variant of [av~] that uses Rubber Band library for tempo, f 29;
#X obj 20 390 *~;
#X obj 20 210 openpanel;
#X obj 70 390 *~;
#X obj 20 150 bng 24 250 50 0 empty empty previous_directory 28 12 0 16 #ff8300 #ff0400 #7c7c7c;
#X msg 20 240 open \$1;
#X obj 20 420 dac~;
#X obj 30 270 r \$0msg;
#X obj 120 230 r~ \$0speed;
#X obj 130 260 r~ \$0tempo;
#X obj 220 370 s \$0route;
#N canvas 820 200 360 270 record 0;
#X obj 60 170 inlet~ L;
#X obj 150 170 inlet~ R;
#X obj 240 50 r \$0done;
#X msg 150 110 stop;
#X obj 150 50 r \$0stop;
#X obj 50 50 spigot;
#X obj 190 20 inlet;
#X obj 50 20 r \$0reset;
#X obj 240 170 r~ \$0met;
#X obj 50 210 writesf~ 3, f 19;
#X msg 50 140 open out\$1.wav \, start;
#X obj 50 110 f;
#X obj 100 110 + 1;
#X obj 50 80 b;
#X msg 100 80 0;
#X connect 0 0 9 0;
#X connect 1 0 9 1;
#X connect 2 0 3 0;
#X connect 3 0 9 0;
#X connect 4 0 3 0;
#X connect 4 0 14 0;
#X connect 5 0 13 0;
#X connect 6 0 5 1;
#X connect 7 0 5 0;
#X connect 8 0 9 2;
#X connect 10 0 9 0;
#X connect 11 0 12 0;
#X connect 11 0 10 0;
#X connect 12 0 11 1;
#X connect 13 0 11 0;
#X connect 14 0 11 1;
#X restore 30 360 pd record;
#X obj 130 360 tgl 24 0 empty empty empty 0 -12 0 16 #0e4345 #fcfcfc #fcfcfc 0 1;
#X obj 120 390 hsl 81 24 -80 0 0 0 empty empty volume 10 12 0 16 #2f004d #ff8300 #fcfcfc 0 1;
#X obj 120 420 dB~;
#X floatatom 170 420 0 0 0 0 - - - 0;
#X msg 30 180 symbol ~/Music;
#X obj 20 310 avr~ 3 channels=together, f 17;
#X obj 20 120 p-trackbar \$0;
#X connect 5 0 10 0;
#X connect 6 0 9 0;
#X connect 7 0 10 1;
#X connect 8 0 6 0;
#X connect 9 0 21 0;
#X connect 11 0 21 0;
#X connect 12 0 21 1;
#X connect 13 0 21 2;
#X connect 16 0 15 2;
#X connect 17 0 18 0;
#X connect 18 0 7 1;
#X connect 18 0 5 1;
#X connect 18 1 19 0;
#X connect 20 0 6 0;
#X connect 21 0 15 0;
#X connect 21 0 5 0;
#X connect 21 1 15 1;
#X connect 21 1 7 0;
#X connect 21 2 14 0;
