#N canvas 400 200 430 470 16;
#X declare -lib blunt;
#X obj 30 390 *~;
#X obj 30 250 openpanel;
#X obj 80 390 *~;
#X obj 180 20 cnv 15 42 27 empty empty av~ 0 12 0 24 #7c7c7c #fcfcfc 0;
#X obj 30 190 bng 24 250 50 0 empty empty previous_directory 28 12 0 16 #ff8300 #ff0400 #7c7c7c;
#X msg 30 280 open \$1;
#X obj 30 420 dac~;
#N canvas 830 200 360 90 lib 0;
#X obj 60 30 declare -lib blunt;
#X restore 30 20 pd lib;
#X obj 40 310 r \$0msg;
#X obj 130 310 r~ \$0speed;
#X text 30 50 An implementation of the FFmpeg libraries for the audio playback of various media formats. Includes m3u playlist functionality and playback speed manipulation., f 38;
#X obj 130 350 s \$0route;
#X obj 260 190 av-common \$0;
#N canvas 830 520 360 150 docs 0;
#X obj 110 60 av-docs \$0;
#X obj 110 30 player-docs \$0;
#N canvas 830 200 360 220 speed 0;
#X obj 80 170 s~ \$0speed;
#X obj 80 110 *;
#X obj 80 140 exp;
#X obj 160 20 loadbang;
#X obj 140 80 expr ln(2) / 12;
#X obj 110 20 t;
#X obj 120 140 s \$0pow;
#X obj 160 50 bpm-finder \$0;
#X obj 80 70 radix 12 6 3 3 _ _ 0 0 _ _ _ 0;
#X connect 1 0 2 0;
#X connect 2 0 0 0;
#X connect 2 0 6 0;
#X connect 3 0 5 0;
#X connect 4 0 1 1;
#X connect 5 0 8 0;
#X connect 5 1 4 0;
#X connect 8 0 1 0;
#X restore 110 90 pd speed;
#X restore 290 420 pd docs;
#X obj 130 390 hsl 81 24 -80 0 0 0 empty empty volume 10 12 0 16 #2f004d #ff8300 #fcfcfc 0 1;
#X obj 130 420 dB~;
#X floatatom 180 420 0 0 0 0 - - - 0;
#X msg 40 220 symbol ~/Music;
#X obj 30 350 av~ 3;
#X obj 30 160 p-trackbar \$0;
#X connect 0 0 6 0;
#X connect 1 0 5 0;
#X connect 2 0 6 1;
#X connect 4 0 1 0;
#X connect 5 0 18 0;
#X connect 8 0 18 0;
#X connect 9 0 18 1;
#X connect 14 0 15 0;
#X connect 15 0 2 1;
#X connect 15 0 0 1;
#X connect 15 1 16 0;
#X connect 17 0 1 0;
#X connect 18 0 0 0;
#X connect 18 1 2 0;
#X connect 18 2 11 0;
