#N canvas 400 200 410 350 16;
#X declare -lib blunt;
#X floatatom 50 160 0 0 0 0 - - - 0;
#X floatatom 150 190 0 0 0 0 - - - 0;
#X symbolatom 230 160 10 0 0 0 - - - 0;
#X obj 160 20 cnv 15 84 27 empty empty Blunt! 0 12 0 24 #535512 #fcfcfc 0;
#N canvas 1000 200 360 90 lib 0;
#X obj 80 30 declare -lib blunt;
#X restore 40 20 pd lib;
#N canvas 810 200 480 290 loadbangs 0;
#X text 180 30 normal loadbang - occurs at object instantiation, f 24;
#X text 190 80 loaded but not yet connected to parent patch, f 25;
#X text 210 140 about to close;
#X text 250 180 multiple loadbangs can be specified, f 18;
#X msg 40 190 \$1;
#X obj 40 230 print -n;
#X obj 40 40 `s LB_LOAD !;
#X obj 50 90 `s LB_INIT $;
#X obj 60 140 `s LB_CLOSE &;
#X obj 100 190 `s LB_ALL !$&;
#X connect 4 0 5 0;
#X connect 6 0 4 0;
#X connect 7 0 4 0;
#X connect 8 0 4 0;
#X connect 9 0 4 0;
#X restore 50 230 pd loadbangs;
#N canvas 810 200 360 290 unary-ops 0;
#X text 40 20 Unary operations allow for an initial value \, which can then be calculated and sent with a loadbang, f 29;
#X floatatom 60 160 0 0 0 0 - - - 0;
#X obj 60 200 `f;
#X obj 60 230 `i;
#X obj 60 130 `sqrt 2 !;
#X obj 100 230 `sin;
#X obj 150 230 `cos;
#X obj 200 230 `tan;
#X obj 250 230 `atan;
#X obj 100 200 `exp;
#X obj 250 200 `sqrt;
#X obj 250 170 floor;
#X obj 200 170 ceil;
#X obj 270 140 ~;
#X obj 230 140 !;
#X obj 190 140 n!;
#X obj 150 200 exp2;
#X obj 150 170 log2;
#X obj 200 200 `abs;
#X connect 4 0 1 0;
#X restore 50 290 pd unary-ops;
#X obj 50 130 `f 5.4 !;
#X obj 150 160 `- 9 6;
#X obj 230 130 `s hello !;
#X obj 150 130 `b !;
#N canvas 810 200 360 390 binary-ops 0;
#X obj 230 190 `+;
#X obj 270 190 `-;
#X obj 230 220 `*;
#X obj 270 220 `/;
#X obj 50 280 `min;
#X obj 100 280 `max;
#X obj 50 310 `log;
#X obj 100 310 `pow;
#X obj 230 250 `<;
#X obj 270 250 `>;
#X obj 230 280 `<=;
#X obj 270 280 `>=;
#X obj 230 310 `==;
#X obj 270 310 `!=;
#X obj 150 310 `&&;
#X obj 190 310 `||;
#X obj 150 280 `&;
#X obj 190 280 `|;
#X obj 150 250 `<<;
#X obj 190 250 `>>;
#X obj 150 340 `%;
#X obj 190 340 f%;
#X obj 50 340 `mod;
#X obj 100 340 `div;
#X obj 230 340 fmod;
#X floatatom 50 50 0 0 0 0 - - - 0;
#X msg 100 50 f2 \$1;
#X floatatom 50 80 0 0 0 0 - - - 0;
#X msg 100 80 . \$1;
#X floatatom 80 210 0 0 0 0 - - - 0;
#X floatatom 50 20 0 0 0 0 - - - 0;
#X msg 100 20 f1 \$1;
#X msg 100 110 set 123 11;
#X obj 180 140 bng 24 250 50 0 empty empty empty 0 -12 0 16 #ff8300 #551312 #fcfcfc;
#X msg 110 140 print;
#X floatatom 50 110 0 0 0 0 - - - 0;
#X text 150 80 set f2 and output;
#X text 160 50 set the 2nd inlet;
#X text 160 20 set the 1st inlet;
#X text 210 110 set both;
#X obj 80 180 `+ 1 2 !;
#X obj 80 250 `atan2;
#X obj 190 220 ^;
#X connect 25 0 26 0;
#X connect 26 0 40 0;
#X connect 27 0 28 0;
#X connect 28 0 40 0;
#X connect 30 0 31 0;
#X connect 31 0 40 0;
#X connect 32 0 40 0;
#X connect 33 0 40 0;
#X connect 34 0 40 0;
#X connect 35 0 40 0;
#X connect 40 0 29 0;
#X restore 50 260 pd binary-ops;
#X text 40 50 Exclamation point loadbangs the result. Objects based on pre-existing ones start with '`', f 32;
#N canvas 810 200 390 250 hot-inlets 0;
#X obj 100 160 #+;
#X floatatom 90 110 0 0 0 0 - - - 0;
#X floatatom 140 110 0 0 0 0 - - - 0;
#X floatatom 100 190 0 0 0 0 - - - 0;
#X floatatom 220 110 0 0 1 0 - - - 0;
#X floatatom 270 110 0 0 1 0 - - - 0;
#X floatatom 230 190 0 0 0 0 - - - 0;
#X obj 230 160 #||;
#X text 30 20 A binop that starts with '#' indicates that its 2nd inlet is hot. All binops have this variant., f 34;
#X connect 0 0 3 0;
#X connect 1 0 0 0;
#X connect 2 0 0 1;
#X connect 4 0 7 0;
#X connect 5 0 7 1;
#X connect 7 0 6 0;
#X restore 210 230 pd hot-inlets;
#N canvas 810 200 390 250 reverse-ops 0;
#X floatatom 80 190 0 0 0 0 - - - 0;
#X floatatom 80 110 0 0 0 0 - - - 0;
#X floatatom 140 110 0 0 0 0 - - - 0;
#X floatatom 240 110 0 0 0 0 - - - 0;
#X floatatom 300 110 0 0 0 0 - - - 0;
#X floatatom 250 190 0 0 0 0 - - - 0;
#X obj 80 160 @- 100;
#X obj 250 160 @/ 1;
#X text 30 20 A binop that starts with '@' indicates that its operands are in reverse order. Only some binops have this variant., f 34;
#X connect 1 0 6 0;
#X connect 2 0 6 1;
#X connect 3 0 7 0;
#X connect 4 0 7 1;
#X connect 6 0 0 0;
#X connect 7 0 5 0;
#X restore 210 260 pd reverse-ops;
#X connect 7 0 0 0;
#X connect 8 0 1 0;
#X connect 9 0 2 0;
#X connect 10 0 8 0;
