#N canvas 400 200 430 430 16;
#X msg 140 200 pause;
#X msg 130 170 stop;
#X obj 60 110 bng 24 250 50 0 empty empty empty 0 -12 0 16 #ff8300 #551312 #fcfcfc;
#X obj 250 330 tgl 24 0 empty empty empty 0 -12 0 16 #0e4345 #fcfcfc #fcfcfc 0 1;
#X floatatom 140 360 0 0 0 0 - - - 0;
#X obj 100 360 bng 24 250 50 0 empty empty empty 0 -12 0 16 #ff8300 #551312 #fcfcfc;
#X text 20 60 delay with the ability to pause/resume;
#X obj 180 30 cnv 15 58 27 empty empty delp 0 12 0 24 #535512 #fcfcfc 0;
#X msg 150 300 time;
#X msg 110 110 tempo 3 sec;
#X text 230 110 any order args;
#X text 230 230 add to the delay;
#X msg 150 230 delay 5;
#X obj 100 330 delp 3 sec 0.5;
#X msg 270 170 pause 1;
#X text 210 200 toggle;
#X text 190 170 same as;
#X obj 150 270 metro 100;
#X obj 60 270 t b a;
#X msg 120 140 tempo sec 1;
#X floatatom 250 270 0 0 0 0 - - - 0;
#X obj 250 360 bng 24 250 50 0 empty empty empty 0 -12 0 16 #ff8300 #551312 #fcfcfc;
#X msg 70 140 5 1;
#X connect 0 0 18 0;
#X connect 1 0 18 0;
#X connect 2 0 18 0;
#X connect 3 0 21 0;
#X connect 8 0 13 0;
#X connect 9 0 18 0;
#X connect 12 0 18 0;
#X connect 13 0 5 0;
#X connect 13 1 4 0;
#X connect 13 2 3 0;
#X connect 17 0 8 0;
#X connect 18 0 17 0;
#X connect 18 1 13 0;
#X connect 19 0 18 0;
#X connect 20 0 17 1;
#X connect 22 0 18 0;
