#N canvas 760 200 400 300 16;
#X declare -lib blunt;
#X obj 140 30 radix 10 6 0 3 1 _ 0 0 _ _ _ 0;
#X obj 70 30 radix 10 6 0 3 1 _ 0 0 _ _ _ 0;
#N canvas 0 50 450 250 (subpatch) 0;
#X array \$0view 6 float 2;
#A color 1.65798e+07;
#A width 2;
#X coords 0 1 6 -1 180 140 1;
#X restore 200 150 graph;
#X obj 20 260 tabwrite~ \$0view;
#N canvas 830 200 370 290 view 0;
#X obj 20 120 #+;
#X obj 20 190 pack f \$0;
#X msg 20 220 \; \$2view resize \$1;
#X obj 20 160 + 1;
#X obj 80 20 inlet;
#X obj 140 20 inlet;
#X obj 100 160 outlet;
#X obj 170 160 outlet;
#X obj 210 20 loadbang;
#X obj 210 50 samplerate~;
#X obj 210 80 @/ 1000;
#X obj 170 120 *;
#X obj 100 120 *;
#N canvas 800 200 360 80 lib 0;
#X obj 80 30 declare -lib blunt;
#X restore 260 240 pd lib;
#X connect 0 0 3 0;
#X connect 1 0 2 0;
#X connect 3 0 1 0;
#X connect 4 0 12 0;
#X connect 4 0 0 0;
#X connect 5 0 11 0;
#X connect 5 0 0 1;
#X connect 8 0 9 0;
#X connect 9 0 10 0;
#X connect 10 0 11 1;
#X connect 10 0 12 1;
#X connect 11 0 7 0;
#X connect 12 0 6 0;
#X restore 60 70 pd view;
#X msg 60 130 a \$1;
#X msg 80 160 d \$1;
#X obj 70 230 inlet~;
#X floatatom 170 100 0 0 0 0 - - - 0;
#X floatatom 70 100 0 0 0 0 - - - 0;
#X msg 20 160 1;
#X obj 20 230 b;
#N canvas 800 200 390 310 args 0;
#X msg 50 20 1;
#X obj 90 170 bng 24 250 50 0 empty empty empty 0 -12 0 16 #ff8300 #ff0400 #7c7c7c;
#X msg 80 210 . 10000;
#X text 120 170 bang reuses previous peak;
#X msg 90 240 2 .;
#X text 170 210 list sets durations symbols are skipped, f 19;
#X msg 60 50 0.25;
#X msg 70 100 -1;
#X text 120 40 float performs with a given peak value, f 21;
#X text 120 90 negative float releases before next attack, f 23;
#X text 130 140 zero releases (no attack);
#X msg 80 140 0;
#X obj 40 270 s \$1msg;
#X connect 0 0 12 0;
#X connect 1 0 12 0;
#X connect 2 0 12 0;
#X connect 4 0 12 0;
#X connect 6 0 12 0;
#X connect 7 0 12 0;
#X connect 11 0 12 0;
#X restore 240 50 pd args;
#N canvas 800 200 360 340 methods 0;
#X text 90 50 set attack duration;
#X floatatom 40 20 0 0 0 0 - - - 0;
#X msg 40 50 a \$1;
#X floatatom 50 90 0 0 0 0 - - - 0;
#X msg 50 120 d \$1;
#X text 100 120 set decay duration;
#X floatatom 70 230 0 0 0 0 - - - 0;
#X msg 70 260 r \$1;
#X text 120 260 set release duration;
#X floatatom 60 160 0 0 0 0 - - - 0;
#X msg 60 190 s \$1;
#X text 110 190 set sustain target;
#X obj 40 300 s \$1msg;
#X connect 1 0 2 0;
#X connect 2 0 12 0;
#X connect 3 0 4 0;
#X connect 4 0 12 0;
#X connect 6 0 7 0;
#X connect 7 0 12 0;
#X connect 9 0 10 0;
#X connect 10 0 12 0;
#X restore 240 80 pd methods;
#X obj 70 190 s \$1msg;
#X connect 0 0 4 1;
#X connect 1 0 4 0;
#X connect 4 0 5 0;
#X connect 4 0 9 0;
#X connect 4 1 6 0;
#X connect 4 1 8 0;
#X connect 5 0 14 0;
#X connect 6 0 14 0;
#X connect 7 0 3 0;
#X connect 10 0 11 0;
#X connect 10 0 14 0;
#X connect 11 0 3 0;
