#N canvas 400 200 650 600 16;
#X declare -lib blunt;
#X declare -lib gme~;
#X obj 210 510 *~;
#X obj 220 540 dac~;
#N canvas 710 780 450 300 (subpatch) 0;
#X array \$0view 480 float 2;
#X coords 0 1.0833 480 -1.0833 120 130 1 0 0;
#X restore 380 160 graph;
#X obj 60 480 tgl 15 0 empty empty empty 17 7 0 10 #0e4345 #fcfcfc #fcfcfc 0 1;
#X floatatom 90 480 0 0 0 0 - - - 0;
#X obj 40 380 cupqb;
#X obj 50 200 openpanel;
#X obj 250 510 *~;
#X obj 250 140 bng 15 250 50 0 empty empty play/pause 17 7 0 12 #ff8300 #ff0400 #7c7c7c;
#X msg 260 170 stop;
#X text 90 390 tracks;
#X obj 100 350 bng 15 250 50 0 empty empty restart 17 7 0 12 #ff8300 #ff0400 #7c7c7c;
#X obj 300 480 hsl 128 20 0.001 1 1 0 empty empty volume 35 10 0 12 #2f004d #fcfcfc #fcfcfc 0 1;
#X floatatom 300 540 0 0 0 0 - - - 0;
#X obj 220 30 cnv 15 102 24 empty empty ffband~ 4 12 0 18 #000000 #fcfcfc 0;
#N canvas 650 190 400 300 time 0;
#X obj 50 30 inlet;
#X obj 290 220 outlet;
#N canvas 970 290 480 340 display 0;
#X obj 330 40 r \$0time;
#X obj 330 160 @-;
#X msg 190 190 set \$1;
#X obj 190 160 /;
#X obj 190 220 s \$0trackbar;
#X obj 90 190 hms;
#X obj 330 190 hms;
#X obj 170 40 r \$0pos;
#X obj 90 220 outlet;
#X obj 330 220 outlet;
#X text 300 250 remaining time;
#X text 70 250 current time;
#X obj 90 80 f;
#X obj 90 40 r \$0seek;
#X obj 240 40 r \$0stop;
#X msg 240 80 0;
#X obj 330 80 t b f;
#X msg 330 130 0;
#X connect 0 0 16 0;
#X connect 1 0 6 0;
#X connect 2 0 4 0;
#X connect 3 0 2 0;
#X connect 5 0 8 0;
#X connect 6 0 9 0;
#X connect 7 0 12 0;
#X connect 7 0 3 0;
#X connect 12 0 5 0;
#X connect 12 0 1 0;
#X connect 13 0 12 0;
#X connect 14 0 15 0;
#X connect 15 0 5 0;
#X connect 15 0 1 0;
#X connect 16 0 17 0;
#X connect 16 1 1 1;
#X connect 16 1 3 1;
#X connect 17 0 1 0;
#X restore 220 180 pd display;
#X obj 60 60 route stop;
#X msg 140 90 0;
#N canvas 260 520 450 300 is-playing 0;
#X obj 100 70 r \$0play;
#X obj 140 100 #&&;
#N canvas 1140 350 450 300 check-dsp 0;
#X obj 150 50 loadbang;
#X obj 150 80 t;
#X obj 150 120 del 5;
#X obj 200 190 snapshot~;
#X msg 200 120 set 0;
#X obj 220 150 sig~ 1;
#X obj 130 50 bng 15 250 50 0 empty empty empty 17 7 0 10 #ff8300 #ff0400 #fcfcfc;
#X obj 200 220 outlet;
#X obj 110 160 r pd;
#X obj 110 190 route dsp;
#X connect 0 0 1 0;
#X connect 1 0 2 0;
#X connect 1 1 4 0;
#X connect 2 0 3 0;
#X connect 3 0 7 0;
#X connect 4 0 3 0;
#X connect 5 0 3 0;
#X connect 6 0 1 0;
#X connect 8 0 9 0;
#X connect 9 0 7 0;
#X restore 180 70 pd check-dsp;
#X obj 150 180 outlet;
#X obj 300 50 r \$0seek;
#X msg 230 130 0;
#X obj 150 140 #&&;
#X msg 250 170 1;
#X obj 310 140 loadbang;
#X obj 300 80 b;
#X floatatom 110 140 0 0 0 0 - - - 0;
#X floatatom 110 180 0 0 0 0 - - - 0;
#X obj 300 110 del 500;
#X connect 0 0 1 0;
#X connect 1 0 6 0;
#X connect 1 0 10 0;
#X connect 2 0 1 1;
#X connect 4 0 9 0;
#X connect 5 0 6 1;
#X connect 6 0 3 0;
#X connect 6 0 11 0;
#X connect 7 0 6 1;
#X connect 8 0 7 0;
#X connect 9 0 5 0;
#X connect 9 0 12 0;
#X connect 12 0 7 0;
#X restore 180 90 pd is-playing;
#X obj 220 220 outlet;
#X obj 140 120 tgl 15 0 empty empty empty 17 7 0 10 #0e4345 #fcfcfc #fcfcfc 0 1;
#X msg 160 180 pos;
#X floatatom 200 120 0 0 0 0 - - - 0;
#X obj 140 150 metro 1000;
#X obj 60 90 s \$0stop;
#X obj 50 220 s \$0ffband;
#X obj 160 60 r \$0end;
#X obj 70 120 s stop;
#X connect 0 0 3 0;
#X connect 0 0 12 0;
#X connect 2 0 6 0;
#X connect 2 1 1 0;
#X connect 3 0 4 0;
#X connect 3 0 11 0;
#X connect 3 0 14 0;
#X connect 4 0 7 0;
#X connect 5 0 7 0;
#X connect 7 0 10 0;
#X connect 8 0 12 0;
#X connect 9 0 10 1;
#X connect 10 0 8 0;
#X connect 13 0 4 0;
#X connect 13 0 8 0;
#X restore 250 200 pd time;
#X obj 50 140 bng 15 250 50 0 empty empty previous\ directory 17 7 0 12 #ff8300 #ff0400 #7c7c7c;
#N canvas 980 500 550 300 bounds 0;
#X obj 40 30 inlet;
#X obj 110 60 + 1;
#X obj 110 30 r \$0n;
#X obj 40 60 moses 1;
#X obj 50 90 moses 2;
#X obj 70 150 s \$0nbx;
#X obj 140 120 r \$0start;
#X msg 140 150 symbol bang;
#X obj 40 240 s \$0ffband;
#X obj 140 90 s \$0end;
#X msg 50 190 \$1 \, print %disc%|%track% - %title% [%ftime%] \, time \, bpm \, sytc, f 46;
#X connect 0 0 3 0;
#X connect 1 0 4 1;
#X connect 2 0 1 0;
#X connect 3 0 8 0;
#X connect 3 1 4 0;
#X connect 4 0 5 0;
#X connect 4 0 10 0;
#X connect 4 1 9 0;
#X connect 6 0 5 0;
#X connect 6 0 7 0;
#X connect 7 0 10 0;
#X connect 10 0 8 0;
#X restore 40 440 pd bounds;
#N canvas 120 600 500 290 route 0;
#X obj 40 30 inlet;
#X obj 260 110 s \$0n;
#X obj 40 140 sel;
#X obj 330 140 print -n;
#X obj 90 170 s \$0start;
#X obj 100 140 s \$0time;
#X obj 180 140 s \$0play;
#X obj 260 140 s \$0pos;
#X obj 180 110 s \$0done;
#X msg 310 110 \$1 track(s);
#X msg 100 30 \; pd dsp \$1;
#X msg 40 200 print %path% \, tracks \, print %artist% - %album%;
#X obj 40 170 t f b;
#X obj 40 230 s \$0ffband;
#X obj 40 80 route open time play done pos bpm tracks sytc;
#X obj 350 50 s sync;
#X obj 40 110 pipe 10;
#N canvas 730 350 450 300 bpm 0;
#X obj 180 60 inlet;
#X obj 180 150 symbol;
#X obj 180 180 f;
#X obj 180 210 s bpm;
#X obj 180 90 t a a;
#X obj 180 120 spigot;
#X obj 240 90 is s;
#X connect 0 0 4 0;
#X connect 1 0 2 0;
#X connect 2 0 3 0;
#X connect 4 0 5 0;
#X connect 4 1 6 0;
#X connect 5 0 1 0;
#X connect 6 0 5 1;
#X restore 280 50 pd bpm;
#X connect 0 0 14 0;
#X connect 2 1 12 0;
#X connect 9 0 3 0;
#X connect 11 0 13 0;
#X connect 12 0 4 0;
#X connect 12 1 11 0;
#X connect 14 0 10 0;
#X connect 14 0 16 0;
#X connect 14 1 5 0;
#X connect 14 2 6 0;
#X connect 14 3 8 0;
#X connect 14 4 7 0;
#X connect 14 5 17 0;
#X connect 14 6 1 0;
#X connect 14 6 9 0;
#X connect 14 7 15 0;
#X connect 14 8 3 0;
#X connect 16 0 2 0;
#X restore 320 410 pd route;
#X msg 60 170 symbol ~/Music;
#X msg 50 230 open \$1;
#X obj 60 510 metro 40;
#N canvas 390 610 590 170 trackbar 0;
#X msg 40 80 seek \$1;
#X obj 60 20 hsl 476 20 0 1 0 0 empty \$0trackbar trackbar 200 10 0 12 #2f004d #fcfcfc #fcfcfc 0 1;
#X obj 80 50 r \$0time;
#X obj 40 20 bng 15 250 50 0 empty empty empty 17 7 0 10 #ff8300 #ff0400 #fcfcfc;
#X obj 40 50 *;
#X obj 110 80 s \$0seek;
#X obj 40 110 s \$0ffband;
#X connect 0 0 6 0;
#X connect 1 0 4 0;
#X connect 2 0 4 1;
#X connect 3 0 4 0;
#X connect 4 0 0 0;
#X connect 4 0 5 0;
#X coords 0 -1 1 1 502 24 2 38 18;
#X restore 30 300 pd trackbar;
#N canvas 980 400 520 400 metadata 0;
#X msg 40 40 print;
#X text 90 40 general track info;
#X text 90 70 file path;
#X text 120 100 total tracks in playlist;
#X msg 50 70 path;
#X text 270 250 custom track info;
#X msg 60 100 tracks;
#X text 190 140 send metadata via last outlet;
#X msg 130 140 album;
#X msg 190 170 artist;
#X msg 130 170 title;
#X msg 150 280 print %artist% - %title% (%album%);
#X msg 150 310 print from %album%\\\, released %date%;
#X msg 80 170 date;
#X msg 70 140 track;
#N canvas 970 230 450 300 specs 0;
#X obj 40 170 outlet;
#X msg 40 60 print Bit Rate: %bitrate% kb/s;
#X msg 50 90 print Sample Rate: %samplerate% Hz;
#X msg 60 120 print Sample Format: %samplefmt%;
#X connect 1 0 0 0;
#X connect 2 0 0 0;
#X connect 3 0 0 0;
#X restore 190 200 pd specs;
#X obj 40 340 s \$0ffband;
#X connect 0 0 16 0;
#X connect 4 0 16 0;
#X connect 6 0 16 0;
#X connect 8 0 16 0;
#X connect 9 0 16 0;
#X connect 10 0 16 0;
#X connect 11 0 16 0;
#X connect 12 0 16 0;
#X connect 13 0 16 0;
#X connect 14 0 16 0;
#X connect 15 0 16 0;
#X restore 450 350 pd metadata;
#X text 30 60 An implementation of the FFmpeg libraries for the audio playback of various media formats. Includes m3u playlist functionality and playback speed manipulation., f 57;
#N canvas 980 200 390 280 next 0;
#X obj 160 220 outlet;
#X obj 50 100 r \$0done;
#X obj 160 170 + 1;
#X obj 70 130 r \$0nbx;
#X obj 120 170 %;
#X obj 50 170 f;
#X obj 200 70 bng 15 250 50 0 empty empty repeat\ track 17 7 0 12 #ff8300 #ff0400 #7c7c7c;
#X obj 170 50 bng 15 250 50 0 empty empty repeat\ playlist 17 7 0 12 #ff8300 #ff0400 #7c7c7c;
#X obj 220 130 r \$0start;
#X msg 220 160 set \$1;
#X obj 140 30 bng 15 250 50 0 empty empty no-repeat\ playlist 17 7 0 12 #ff8300 #ff0400 #7c7c7c;
#N canvas 980 480 390 290 order 0;
#X obj 270 70 r \$0nbx;
#X obj 270 150 spigot;
#X obj 260 190 f;
#X obj 70 230 outlet mod;
#X obj 180 230 outlet add;
#X obj 260 30 inlet reptrk;
#X obj 140 30 inlet replst;
#X obj 30 30 inlet norep;
#X obj 70 190 +;
#X obj 80 100 r \$0n;
#X obj 80 130 t b f;
#X obj 270 100 t b f;
#X obj 80 160 spigot 1;
#X obj 160 100 f;
#X obj 200 100 !;
#X msg 130 70 1;
#X msg 30 70 1;
#X obj 30 100 f;
#X msg 80 70 0;
#X msg 210 150 1;
#X msg 180 70 0;
#X connect 0 0 11 0;
#X connect 1 0 2 0;
#X connect 2 0 4 0;
#X connect 5 0 2 0;
#X connect 5 0 19 0;
#X connect 5 0 20 0;
#X connect 6 0 15 0;
#X connect 6 0 18 0;
#X connect 7 0 15 0;
#X connect 7 0 16 0;
#X connect 8 0 3 0;
#X connect 9 0 10 0;
#X connect 10 0 12 0;
#X connect 10 1 8 1;
#X connect 11 0 1 0;
#X connect 11 1 2 1;
#X connect 12 0 8 0;
#X connect 13 0 12 1;
#X connect 13 0 14 0;
#X connect 14 0 1 1;
#X connect 15 0 13 0;
#X connect 15 0 4 0;
#X connect 16 0 17 0;
#X connect 17 0 8 0;
#X connect 18 0 17 0;
#X connect 19 0 3 0;
#X connect 20 0 13 0;
#X restore 140 130 pd order;
#X connect 1 0 5 0;
#X connect 2 0 0 0;
#X connect 3 0 5 1;
#X connect 4 0 2 0;
#X connect 5 0 4 0;
#X connect 6 0 11 2;
#X connect 7 0 11 1;
#X connect 8 0 9 0;
#X connect 9 0 0 0;
#X connect 10 0 11 0;
#X connect 11 0 4 1;
#X connect 11 1 2 1;
#X restore 30 350 pd next;
#N canvas 970 490 450 300 vol 0;
#X obj 160 190 zp~ 15;
#X msg 160 120 0;
#X obj 160 60 inlet;
#X obj 160 220 outlet~;
#X obj 230 190 outlet;
#X obj 160 150 f;
#X obj 160 90 moses 0.00101;
#X connect 0 0 3 0;
#X connect 1 0 5 0;
#X connect 2 0 6 0;
#X connect 5 0 0 0;
#X connect 5 0 4 0;
#X connect 6 0 1 0;
#X connect 6 1 5 0;
#X restore 300 510 pd vol;
#N canvas 400 200 450 300 lib 0;
#X obj 140 120 declare -lib blunt;
#X obj 140 170 declare -lib gme~;
#X text 40 200 let gme~ load the custom version of libgme before FFmpeg can load the standard version, f 44;
#X restore 30 30 pd lib;
#X obj 210 410 ffband~ 1 2;
#X obj 210 380 r \$0ffband;
#X obj 50 260 s \$0ffband;
#X obj 60 540 tabwrite~ \$0view;
#N canvas 980 420 800 380 misc 0;
#X msg 530 220 0;
#X obj 410 130 cupqb;
#X text 540 310 Playback speed factor;
#X obj 50 220 cupqb 2;
#X msg 50 280 interp \$1;
#X obj 30 310 s \$0ffband;
#X text 110 170 0 = Sinc (Best Quality);
#X text 110 190 1 = Sinc (Medium Quality);
#X text 110 210 2 = Sinc (Fastest) (default);
#X text 110 230 3 = Zero-order hold;
#X text 110 250 4 = Linear;
#X msg 30 50 open https://upload.wikimedia.org/wikipedia/en/1/10/Michael_Jackson_Thriller.ogg, f 81;
#X text 30 20 FFmpeg accepts urls;
#X text 150 280 Interpolation method;
#X msg 40 100 play 0;
#X msg 50 130 play;
#X text 100 100 force pause;
#X text 100 130 toggle play/pause;
#X obj 490 340 s~ \$0speed;
#X obj 430 310 s pow;
#X obj 490 310 *~;
#X obj 490 250 line;
#X obj 430 90 loadbang;
#X msg 510 160 -2.77259 10000;
#X msg 520 190 2.77259 10000;
#X obj 490 280 exp;
#X msg 410 220 \$1 50;
#X obj 500 130 expr ln(2) / 12;
#X obj 410 190 *;
#N canvas 1050 430 420 370 swing 1;
#X obj 300 150 #/;
#X obj 40 120 #*;
#X floatatom 40 180 5 0 0 1 rate - - 0;
#X floatatom 60 210 5 0 0 1 depth - - 0;
#X floatatom 80 240 5 0 0 1 phase - - 0;
#X floatatom 330 120 0 1 5000 0 - - - 0;
#X floatatom 280 120 0 1 5000 0 - - - 0;
#X obj 190 50 loadbang;
#X obj 40 310 outlet~;
#X obj 40 60 r bpm;
#X obj 100 30 r pow;
#X obj 40 90 #* 1;
#X obj 130 280 r sync;
#X msg 130 310 0;
#X msg 200 90 2;
#N canvas 1050 200 450 300 sync 0;
#X obj 180 30 r sync;
#X obj 180 120 symbol;
#X obj 180 160 f;
#X obj 180 190 / 1;
#X obj 220 190 r pow;
#X obj 180 250 outlet;
#X obj 240 60 is s;
#X obj 180 60 t a a;
#X obj 180 90 spigot;
#X obj 250 90 sel 1;
#X obj 180 220 del;
#X floatatom 220 220 0 0 0 0 - - - 0;
#X connect 0 0 7 0;
#X connect 1 0 2 0;
#X connect 2 0 3 0;
#X connect 3 0 11 0;
#X connect 3 0 10 0;
#X connect 4 0 3 1;
#X connect 6 0 8 1;
#X connect 6 0 9 0;
#X connect 7 0 8 0;
#X connect 7 1 6 0;
#X connect 8 0 1 0;
#X connect 9 1 2 0;
#X connect 10 0 5 0;
#X restore 100 150 pd sync;
#X obj 30 30 r _bpm;
#X obj 190 210 r beat;
#X obj 40 150 / 60;
#X obj 300 180 s ratio;
#X msg 190 180 0.25;
#X msg 240 180 0.75;
#X msg 330 90 3;
#X msg 280 90 3;
#X msg 240 90 4;
#N canvas 730 350 350 300 vib~ 0;
#X obj 60 200 +~ 1;
#X obj 60 30 inlet~ rate;
#X obj 110 170 inlet~ depth;
#X obj 60 170 *~;
#X obj 60 230 outlet~;
#X obj 180 30 inlet phase;
#X obj 240 70 * 2;
#X obj 240 100 + 0.25;
#X obj 180 70 t f f;
#X obj 180 100 pack;
#X obj 60 140 fm2op~ 1 2 0.125;
#X obj 90 70 r dynbpm;
#X floatatom 90 100 0 0 0 0 - - - 0;
#X connect 0 0 4 0;
#X connect 1 0 10 0;
#X connect 2 0 3 1;
#X connect 3 0 0 0;
#X connect 5 0 8 0;
#X connect 6 0 7 0;
#X connect 7 0 9 1;
#X connect 8 0 9 0;
#X connect 8 1 6 0;
#X connect 9 0 10 4;
#X connect 10 0 3 0;
#X connect 11 0 1 0;
#X connect 11 0 12 0;
#X restore 40 280 pd vib~;
#X msg 110 60 0.393;
#X obj 200 280 r stop;
#X msg 120 90 0.5;
#X floatatom 310 210 0 0 0 0 - - - 0;
#X obj 260 210 / 18;
#X connect 0 0 19 0;
#X connect 0 0 1 1;
#X connect 1 0 18 0;
#X connect 2 0 25 0;
#X connect 3 0 25 1;
#X connect 4 0 25 2;
#X connect 5 0 0 1;
#X connect 6 0 0 0;
#X connect 7 0 22 0;
#X connect 7 0 23 0;
#X connect 7 0 20 0;
#X connect 9 0 11 0;
#X connect 10 0 11 1;
#X connect 11 0 1 0;
#X connect 12 0 13 0;
#X connect 13 0 25 1;
#X connect 14 0 6 0;
#X connect 15 0 3 0;
#X connect 15 0 4 0;
#X connect 16 0 11 0;
#X connect 17 0 4 0;
#X connect 18 0 2 0;
#X connect 20 0 4 0;
#X connect 21 0 4 0;
#X connect 22 0 5 0;
#X connect 23 0 6 0;
#X connect 24 0 6 0;
#X connect 25 0 8 0;
#X connect 26 0 3 0;
#X connect 27 0 13 0;
#X connect 28 0 3 0;
#X connect 29 0 30 0;
#X connect 30 0 4 0;
#X restore 570 270 pd swing;
#X connect 0 0 21 0;
#X connect 1 0 28 0;
#X connect 3 0 4 0;
#X connect 4 0 5 0;
#X connect 11 0 5 0;
#X connect 14 0 5 0;
#X connect 15 0 5 0;
#X connect 20 0 18 0;
#X connect 21 0 25 0;
#X connect 22 0 1 1;
#X connect 22 0 27 0;
#X connect 23 0 21 0;
#X connect 24 0 21 0;
#X connect 25 0 19 0;
#X connect 25 0 20 0;
#X connect 26 0 21 0;
#X connect 27 0 28 1;
#X connect 28 0 26 0;
#X connect 29 0 20 1;
#X restore 450 410 pd misc;
#N canvas 990 170 470 660 channel_layout 0;
#X text 30 20 1 = Front Left;
#X text 30 40 2 = Front Right;
#X text 30 60 3 = Front Center;
#X text 30 80 4 = Low Frequency;
#X text 30 100 5 = Back Left;
#X text 30 120 6 = Back Right;
#X text 30 140 7 = Front Left-of-Center;
#X text 30 160 8 = Front Right-of-Center;
#X text 30 180 9 = Back Center;
#X text 30 200 10 = Side Left;
#X text 30 220 11 = Side Right;
#X text 30 240 12 = Top Center;
#X text 30 260 13 = Top Front Left;
#X text 30 280 14 = Top Front Center;
#X text 30 300 15 = Top Front Right;
#X text 30 320 16 = Top Back Left;
#X text 30 340 17 = Top Back Center;
#X text 30 360 18 = Top Back Right;
#X text 30 380 30 = Stereo Left (Stereo down-mix);
#X text 30 400 31 = Stereo Right (Stereo down-mix);
#X text 30 420 32 = Wide Left;
#X text 30 440 33 = Wide Right;
#X text 30 460 34 = Surround Direct Left;
#X text 30 480 35 = Surround Direct Right;
#X text 30 500 36 = Low Frequency 2;
#X text 30 520 37 = Top Side Left;
#X text 30 540 38 = Top Side Right;
#X text 30 560 39 = Bottom Front Center;
#X text 30 580 40 = Bottom Front Left;
#X text 30 600 41 = Bottom Front Right;
#X restore 210 350 pd channel_layout;
#X obj 140 510 *~ 0.5;
#X obj 310 380 r~ \$0speed;
#X symbolatom 280 230 0 0 0 0 - - - 0;
#X symbolatom 280 260 0 0 0 0 - - - 0;
#N canvas 730 350 400 300 streams 0;
#X obj 60 100 cupqb;
#X obj 230 100 cupqb;
#X msg 230 160 subtitle \$1;
#X obj 150 240 s \$0ffband;
#X msg 60 160 audio \$1;
#X text 30 30 Some file formats allow for multiple streams of the same media type \, such as language dubs for movies., f 37;
#X connect 0 0 4 0;
#X connect 1 0 2 0;
#X connect 2 0 3 0;
#X connect 4 0 3 0;
#X restore 450 380 pd streams;
#X obj 450 540 writesf~ 2;
#X msg 460 480 stop;
#X msg 450 450 open out.wav \, start;
#X connect 0 0 1 0;
#X connect 3 0 21 0;
#X connect 4 0 21 1;
#X connect 5 0 40 0;
#X connect 5 0 17 0;
#X connect 6 0 20 0;
#X connect 7 0 1 1;
#X connect 8 0 15 0;
#X connect 9 0 15 0;
#X connect 9 0 40 0;
#X connect 11 0 5 1;
#X connect 11 0 41 0;
#X connect 12 0 26 0;
#X connect 15 0 37 0;
#X connect 15 1 36 0;
#X connect 16 0 6 0;
#X connect 19 0 6 0;
#X connect 20 0 30 0;
#X connect 21 0 31 0;
#X connect 25 0 5 1;
#X connect 26 0 7 1;
#X connect 26 0 0 1;
#X connect 26 1 13 0;
#X connect 28 0 34 0;
#X connect 28 0 0 0;
#X connect 28 0 39 0;
#X connect 28 1 34 0;
#X connect 28 1 7 0;
#X connect 28 1 39 1;
#X connect 28 2 18 0;
#X connect 29 0 28 0;
#X connect 34 0 31 0;
#X connect 35 0 28 1;
#X connect 40 0 39 0;
#X connect 41 0 39 0;
