#N canvas 400 200 580 600 14;
#X declare -lib blunt;
#X obj 210 500 *~;
#X obj 220 530 dac~;
#N canvas 710 780 450 300 (subpatch) 0;
#X array \$0ffplay 480 float 2;
#X coords 0 1.0833 480 -1.0833 120 130 1 0 0;
#X restore 390 150 graph;
#X obj 50 440 tgl 15 0 empty empty empty 17 7 0 10 #0e4345 #fcfcfc
#fcfcfc 0 1;
#X floatatom 110 440 0 0 0 0 - - - 0;
#X obj 70 340 cupqb;
#X obj 130 210 openpanel;
#X obj 260 500 *~;
#X obj 250 210 bng 15 250 50 0 empty empty play/pause 19 7 0 11 #ff8300
#ff0400 #7c7c7c;
#X msg 260 240 stop;
#X text 120 350 tracks;
#X obj 90 310 bng 15 250 50 0 empty empty restart 19 7 0 11 #ff8300
#ff0400 #7c7c7c;
#X obj 360 440 hsl 128 20 0.001 1 1 0 empty empty vol 25 9 0 12 #2f004d
#fcfcfc #fcfcfc 0 1;
#X floatatom 420 470 0 0 0 0 - - - 0;
#X obj 220 30 cnv 15 102 24 empty empty ffplay~ 4 12 0 18 #000000 #fcfcfc
0;
#N canvas 180 430 480 370 time 0;
#X obj 80 40 inlet;
#X obj 380 220 outlet;
#X obj 80 230 outlet;
#N canvas 140 230 480 340 display 0;
#X obj 130 40 r \$0time;
#X obj 110 160 @-;
#X msg 190 190 set \$1;
#X obj 190 160 /;
#X obj 190 220 s \$0trackbar;
#X obj 320 190 hms;
#X obj 110 190 hms;
#X obj 230 40 r \$0pos;
#X obj 320 220 outlet;
#X obj 110 220 outlet;
#X text 110 250 remaining time;
#X text 320 250 current time;
#X floatatom 340 120 0 0 0 0 - - - 0;
#X obj 320 80 f;
#X obj 320 40 r \$0seek;
#X connect 0 0 3 1;
#X connect 0 0 1 1;
#X connect 1 0 6 0;
#X connect 2 0 4 0;
#X connect 3 0 2 0;
#X connect 5 0 8 0;
#X connect 6 0 9 0;
#X connect 7 0 13 0;
#X connect 7 0 3 0;
#X connect 13 0 12 0;
#X connect 13 0 5 0;
#X connect 13 0 1 0;
#X connect 14 0 13 0;
#X restore 300 170 pd display;
#X obj 140 80 route stop;
#X msg 140 110 0;
#N canvas 260 520 450 300 is-playing 0;
#X obj 100 70 r \$0play;
#X obj 140 100 #&&;
#N canvas 1140 350 450 300 check-dsp 0;
#X obj 150 50 loadbang;
#X obj 150 80 t;
#X obj 150 120 del 5;
#X obj 200 190 snapshot~;
#X msg 200 120 set 0;
#X obj 220 150 sig~ 1;
#X obj 130 50 bng 15 250 50 0 empty empty empty 17 7 0 10 #ff8300 #ff0400
#fcfcfc;
#X obj 200 220 outlet;
#X obj 110 160 r pd;
#X obj 110 190 route dsp;
#X connect 0 0 1 0;
#X connect 1 0 2 0;
#X connect 1 1 4 0;
#X connect 2 0 3 0;
#X connect 3 0 7 0;
#X connect 4 0 3 0;
#X connect 5 0 3 0;
#X connect 6 0 1 0;
#X connect 8 0 9 0;
#X connect 9 0 7 0;
#X restore 180 70 pd check-dsp;
#X obj 150 180 outlet;
#X obj 290 50 r \$0seek;
#X msg 230 130 0;
#X obj 150 140 #&&;
#X msg 250 170 1;
#X obj 300 140 loadbang;
#X obj 290 80 b;
#X floatatom 110 140 0 0 0 0 - - - 0;
#X floatatom 110 180 0 0 0 0 - - - 0;
#X obj 290 110 del 500;
#X connect 0 0 1 0;
#X connect 1 0 6 0;
#X connect 1 0 10 0;
#X connect 2 0 1 1;
#X connect 4 0 9 0;
#X connect 5 0 6 1;
#X connect 6 0 3 0;
#X connect 6 0 11 0;
#X connect 7 0 6 1;
#X connect 8 0 7 0;
#X connect 9 0 5 0;
#X connect 9 0 12 0;
#X connect 12 0 7 0;
#X restore 230 80 pd is-playing;
#X obj 300 220 outlet;
#X obj 160 140 tgl 15 0 empty empty empty 17 7 0 10 #0e4345 #fcfcfc
#fcfcfc 0 1;
#X msg 160 190 pos;
#X floatatom 230 130 0 0 0 0 - - - 0;
#X obj 160 160 metro 250;
#X connect 0 0 2 0;
#X connect 0 0 4 0;
#X connect 3 0 7 0;
#X connect 3 1 1 0;
#X connect 4 0 5 0;
#X connect 5 0 8 0;
#X connect 6 0 8 0;
#X connect 8 0 11 0;
#X connect 9 0 2 0;
#X connect 10 0 11 1;
#X connect 11 0 9 0;
#X restore 250 270 pd time;
#X obj 130 160 bng 15 250 50 0 empty empty previous_directory 19 7
0 11 #ff8300 #ff0400 #7c7c7c;
#N canvas 970 560 450 300 bounds 0;
#X obj 40 40 inlet;
#X obj 120 70 + 1;
#X obj 40 240 outlet;
#X obj 120 40 r \$0n;
#X obj 40 70 moses 1;
#X obj 70 100 moses 2;
#X obj 160 150 s \$0nbx;
#X obj 160 100 r \$0start;
#X msg 120 240 info %disc%|%track% - %title% \, time;
#X obj 120 190 t;
#X obj 70 150 t b f;
#X connect 0 0 4 0;
#X connect 1 0 5 1;
#X connect 3 0 1 0;
#X connect 4 0 2 0;
#X connect 4 1 5 0;
#X connect 5 0 6 0;
#X connect 5 0 10 0;
#X connect 7 0 9 0;
#X connect 7 0 6 0;
#X connect 8 0 2 0;
#X connect 9 0 8 0;
#X connect 9 1 2 0;
#X connect 10 0 8 0;
#X connect 10 1 2 0;
#X restore 70 400 pd bounds;
#N canvas 120 600 450 270 route 0;
#X obj 40 30 inlet;
#X obj 260 110 s \$0n;
#X obj 40 110 sel;
#X obj 330 140 print -n;
#X obj 90 140 s \$0start;
#X obj 80 110 s \$0time;
#X obj 180 140 s \$0play;
#X obj 40 210 s \$0open;
#X obj 260 140 s \$0pos;
#X obj 180 110 s \$0done;
#X msg 310 110 \$1 track(s);
#X msg 100 30 \; pd dsp \$1;
#X msg 40 180 path \, tracks \, info %artist% - %album%;
#X obj 40 80 route open time play done pos tracks;
#X obj 40 140 t f b;
#X connect 0 0 13 0;
#X connect 2 1 14 0;
#X connect 10 0 3 0;
#X connect 12 0 7 0;
#X connect 13 0 2 0;
#X connect 13 0 11 0;
#X connect 13 1 5 0;
#X connect 13 2 6 0;
#X connect 13 3 9 0;
#X connect 13 4 8 0;
#X connect 13 5 10 0;
#X connect 13 5 1 0;
#X connect 13 6 3 0;
#X connect 14 0 4 0;
#X connect 14 1 12 0;
#X restore 360 400 pd route;
#X symbolatom 300 300 0 0 0 0 - - - 0;
#X msg 140 180 symbol ~/Music;
#X msg 130 240 open \$1;
#X obj 50 470 metro 40;
#X obj 140 470 /~ 2;
#N canvas 100 670 680 200 trackbar 0;
#X obj 30 140 outlet;
#X msg 30 110 seek \$1;
#X obj 60 20 hsl 576 20 0 1 0 0 empty \$0trackbar empty -2 -8 0 10
#2f004d #fcfcfc #fcfcfc 0 1;
#X obj 70 50 r \$0time;
#X obj 30 20 bng 15 250 50 0 empty empty empty 17 7 0 10 #ff8300 #ff0400
#fcfcfc;
#X obj 30 50 *;
#X obj 40 80 s \$0seek;
#X floatatom 300 110 9 0 0 0 - - - 0;
#X msg 300 140 speed \$1;
#N canvas 1090 420 400 440 kseek 0;
#X obj 50 20 keyname;
#X obj 50 110 spigot;
#X obj 60 80 symbol;
#X obj 50 50 t b f;
#X obj 50 170 route Left Right;
#X msg 50 140 \$1;
#X obj 170 280 +;
#X obj 220 250 r \$0pos;
#X obj 110 250 * -1;
#X obj 110 220 f;
#X obj 170 220 f;
#X obj 170 370 outlet;
#X obj 190 170 inlet;
#X msg 240 340 set \$1;
#X obj 240 370 s \$0trackbar;
#X obj 240 310 /;
#X obj 290 250 r \$0time;
#X obj 220 220 r \$0seek;
#X connect 0 0 3 0;
#X connect 0 1 2 1;
#X connect 1 0 5 0;
#X connect 2 0 1 0;
#X connect 3 0 2 0;
#X connect 3 1 1 1;
#X connect 4 0 9 0;
#X connect 4 1 10 0;
#X connect 5 0 4 0;
#X connect 6 0 11 0;
#X connect 6 0 15 0;
#X connect 7 0 6 1;
#X connect 8 0 6 0;
#X connect 9 0 8 0;
#X connect 10 0 6 0;
#X connect 12 0 10 1;
#X connect 12 0 9 1;
#X connect 13 0 14 0;
#X connect 15 0 13 0;
#X connect 16 0 15 1;
#X connect 17 0 6 1;
#X restore 220 110 pd kseek;
#X floatatom 220 80 0 0 0 0 - - - 0;
#X obj 170 50 loadbang;
#X msg 170 80 3000;
#X obj 330 80 @pow 2;
#X msg 460 110 0;
#X obj 390 50 cupqb;
#X obj 390 110 / 12;
#X msg 460 80 -4 10000;
#X msg 460 50 4 10000;
#X msg 500 110 0 \, -2 60000;
#X obj 410 140 line 0 2;
#X connect 1 0 0 0;
#X connect 2 0 5 0;
#X connect 3 0 5 1;
#X connect 4 0 5 0;
#X connect 5 0 1 0;
#X connect 5 0 6 0;
#X connect 7 0 8 0;
#X connect 8 0 0 0;
#X connect 9 0 6 0;
#X connect 9 0 1 0;
#X connect 10 0 9 0;
#X connect 11 0 12 0;
#X connect 12 0 10 0;
#X connect 13 0 7 0;
#X connect 14 0 20 0;
#X connect 15 0 16 0;
#X connect 16 0 20 0;
#X connect 17 0 20 0;
#X connect 18 0 20 0;
#X connect 19 0 20 0;
#X connect 20 0 13 0;
#X restore 420 310 pd trackbar;
#N canvas 970 390 480 400 metadata 0;
#X obj 40 320 outlet;
#X msg 40 40 info;
#X text 80 40 general track info;
#X text 90 70 file path;
#X text 120 100 total tracks in playlist;
#X msg 50 70 path;
#X text 310 260 custom info;
#X msg 60 100 tracks;
#X text 270 220 send through outlet;
#X text 190 140 print metadata;
#X text 150 340 print is an alias for info;
#X msg 130 140 album;
#X msg 190 170 artist;
#X msg 130 170 title;
#X msg 170 220 send title;
#X msg 150 280 info %artist% - %title% (%album%);
#X msg 150 310 print from %album%\\\, released %date%;
#X msg 80 170 date;
#X msg 70 140 track;
#N canvas 970 230 450 300 specs 0;
#X obj 40 170 outlet;
#X msg 40 60 print Bit Rate: %bitrate% kb/s;
#X msg 50 90 print Sample Rate: %samplerate% Hz;
#X msg 60 120 print Sample Format: %samplefmt%;
#X connect 1 0 0 0;
#X connect 2 0 0 0;
#X connect 3 0 0 0;
#X restore 160 250 pd specs;
#X connect 1 0 0 0;
#X connect 5 0 0 0;
#X connect 7 0 0 0;
#X connect 11 0 0 0;
#X connect 12 0 0 0;
#X connect 13 0 0 0;
#X connect 14 0 0 0;
#X connect 15 0 0 0;
#X connect 16 0 0 0;
#X connect 17 0 0 0;
#X connect 18 0 0 0;
#X connect 19 0 0 0;
#X restore 420 340 pd metadata;
#X obj 160 270 r \$0open;
#N canvas 160 270 720 300 http 0;
#X obj 180 210 outlet;
#X msg 20 40 open https://upload.wikimedia.org/wikipedia/en/1/10/Michael_Jackson_Thriller.ogg
, f 81;
#X connect 1 0 0 0;
#X restore 420 370 pd http;
#X symbolatom 280 330 0 0 0 0 - - - 0;
#X obj 50 500 tabwrite~ \$0ffplay;
#X obj 220 400 ffplay~ 1 2 5 6;
#X text 60 60 An implementation of the FFmpeg libraries for the audio
playback of various media formats. Includes m3u playlist functionality
and playback speed manipulation.;
#N canvas 970 200 450 310 next 0;
#X obj 60 250 outlet;
#X obj 300 90 r \$0n;
#X obj 80 80 r \$0done;
#X obj 60 200 + 1;
#X obj 100 110 r \$0nbx;
#X obj 60 170 %;
#X obj 60 140 f;
#X msg 210 170 1;
#X obj 300 130 f;
#X msg 170 130 1;
#X obj 210 40 bng 15 250 50 0 empty empty repeat\\\ track 17 7 0 12
#000000 #fcfcfc #fcfcfc;
#X obj 250 60 bng 15 250 50 0 empty empty repeat\\\ playlist 17 7 0
12 #000000 #fcfcfc #fcfcfc;
#X obj 170 200 spigot;
#X obj 110 200 f;
#X msg 250 170 0;
#X obj 240 200 r \$0start;
#X msg 240 230 set \$1;
#X connect 1 0 8 0;
#X connect 1 0 9 0;
#X connect 1 0 14 0;
#X connect 2 0 6 0;
#X connect 3 0 0 0;
#X connect 4 0 12 0;
#X connect 4 0 13 1;
#X connect 4 0 6 1;
#X connect 5 0 3 0;
#X connect 6 0 5 0;
#X connect 7 0 5 1;
#X connect 7 0 12 1;
#X connect 8 0 5 1;
#X connect 9 0 3 1;
#X connect 10 0 13 0;
#X connect 10 0 7 0;
#X connect 11 0 8 0;
#X connect 11 0 9 0;
#X connect 11 0 14 0;
#X connect 12 0 13 0;
#X connect 13 0 3 1;
#X connect 14 0 12 1;
#X connect 15 0 16 0;
#X connect 16 0 0 0;
#X restore 50 270 pd next;
#N canvas 970 490 450 300 vol 0;
#X obj 160 190 zp~ 15;
#X msg 160 120 0;
#X obj 160 60 inlet;
#X obj 160 220 outlet~;
#X obj 230 190 outlet;
#X obj 160 150 f;
#X obj 160 90 moses 0.00101;
#X connect 0 0 3 0;
#X connect 1 0 5 0;
#X connect 2 0 6 0;
#X connect 5 0 0 0;
#X connect 5 0 4 0;
#X connect 6 0 1 0;
#X connect 6 1 5 0;
#X restore 360 470 pd vol;
#N canvas 400 200 450 300 lib 0;
#X obj 140 120 declare -lib blunt;
#X restore 30 30 pd lib;
#X connect 0 0 1 0;
#X connect 3 0 22 0;
#X connect 4 0 22 1;
#X connect 5 0 17 0;
#X connect 6 0 21 0;
#X connect 7 0 1 1;
#X connect 8 0 15 0;
#X connect 9 0 15 0;
#X connect 11 0 5 1;
#X connect 12 0 33 0;
#X connect 15 0 30 0;
#X connect 15 1 28 0;
#X connect 15 2 19 0;
#X connect 16 0 6 0;
#X connect 17 0 30 0;
#X connect 20 0 6 0;
#X connect 21 0 30 0;
#X connect 22 0 29 0;
#X connect 23 0 29 0;
#X connect 24 0 30 0;
#X connect 25 0 30 0;
#X connect 26 0 30 0;
#X connect 27 0 30 0;
#X connect 30 0 0 0;
#X connect 30 0 23 0;
#X connect 30 1 7 0;
#X connect 30 1 23 0;
#X connect 30 4 18 0;
#X connect 32 0 5 1;
#X connect 33 0 7 1;
#X connect 33 0 0 1;
#X connect 33 1 13 0;
