#N canvas 400 200 650 540 16;
#X declare -lib blunt;
#X obj 120 200 #/;
#X floatatom 120 230 0 0 0 0 - - - 0;
#X floatatom 360 200 0 0 0 0 - - - 0;
#X obj 280 230 fldec -0.25;
#X floatatom 190 300 0 0 0 2 mantissa - - 0;
#X floatatom 310 300 0 0 255 2 exponent - - 0;
#X floatatom 420 300 0 0 1 2 sign - - 0;
#X obj 410 350 - 127;
#X obj 410 380 exp2;
#X floatatom 410 410 0 0 0 0 - - - 0;
#X floatatom 480 380 0 0 0 0 - - - 0;
#X msg 210 350 m 2000 \, e 131 \, s 0;
#X msg 220 380 set . 125 1;
#X obj 210 410 flenc 0 125 1;
#X obj 170 410 bng 24 250 50 0 empty empty empty 0 -12 0 16 #ff8300 #551312 #fcfcfc;
#X obj 240 40 cnv 15 182 27 empty empty flenc\ &\ fldec 0 12 0 24 #7c7c7c #fcfcfc 0;
#X obj 40 470 mantissa;
#N canvas 400 200 450 300 lib 0;
#X obj 140 120 declare -lib blunt;
#X restore 30 30 pd lib;
#X msg 120 300 print;
#X text 100 70 float-encode & float-decode. Splits and joins the sign \, exponent \, and mantissa of a float., f 45;
#X obj 320 170 bng 24 250 50 0 empty empty empty 0 -12 0 16 #ff8300 #551312 #fcfcfc;
#X obj 360 170 exp2;
#X obj 120 140 radix 10 6 0 3 _ _ 0 0 _ _ _ 0;
#X obj 140 170 radix 10 6 0 3 _ _ 0 0 _ _ _ 0;
#X obj 280 140 radix 10 6 0 3 _ _ 0 0 _ _ _ 0;
#X obj 360 140 radix 10 6 0 3 _ _ 0 0 _ _ _ 0;
#X obj 40 410 radix 10 6 0 3 _ _ 0 0 _ _ _ 0;
#X obj 210 440 radix 2 24 0 3 _ _ 0 0 _ _ _ 0;
#X connect 0 0 1 0;
#X connect 0 0 3 0;
#X connect 3 0 4 0;
#X connect 3 1 5 0;
#X connect 3 2 6 0;
#X connect 4 0 13 0;
#X connect 4 0 16 0;
#X connect 5 0 13 1;
#X connect 5 0 7 0;
#X connect 6 0 13 2;
#X connect 7 0 10 0;
#X connect 7 0 8 0;
#X connect 8 0 9 0;
#X connect 11 0 13 0;
#X connect 12 0 13 0;
#X connect 13 0 27 0;
#X connect 14 0 13 0;
#X connect 18 0 3 0;
#X connect 18 0 13 0;
#X connect 20 0 3 0;
#X connect 21 0 2 0;
#X connect 21 0 3 0;
#X connect 22 0 0 0;
#X connect 23 0 0 1;
#X connect 24 0 3 0;
#X connect 25 0 21 0;
#X connect 26 0 16 0;
