#N canvas 400 200 360 230 16;
#N canvas 760 200 580 420 metadata 0;
#X msg 50 30 print;
#X text 110 30 general track info;
#X text 110 60 file path;
#X text 140 90 total tracks in playlist;
#X msg 60 60 path;
#X text 310 270 custom track info;
#X msg 70 90 tracks;
#X msg 80 130 system;
#X msg 90 160 game;
#X msg 150 160 song;
#X msg 100 190 author;
#X msg 180 190 copyright;
#X msg 130 220 comment;
#X msg 220 220 dumper;
#X text 200 160 send metadata via last outlet;
#X msg 150 300 print ©%copyright%\\\, for the %system%;
#X msg 150 330 print %author% - %song% (%comment%);
#X obj 50 360 s \$1msg;
#X connect 0 0 17 0;
#X connect 4 0 17 0;
#X connect 6 0 17 0;
#X connect 7 0 17 0;
#X connect 8 0 17 0;
#X connect 9 0 17 0;
#X connect 10 0 17 0;
#X connect 11 0 17 0;
#X connect 12 0 17 0;
#X connect 13 0 17 0;
#X connect 15 0 17 0;
#X connect 16 0 17 0;
#X restore 110 70 pd metadata;
#N canvas 760 200 360 200 seeking 0;
#X obj 130 80 f;
#X msg 130 110 seek \$1;
#X obj 130 40 bng 24 250 50 0 empty empty empty 0 -12 0 16 #ff8300 #ff0400 #7c7c7c;
#X obj 130 140 s \$1msg;
#X obj 180 50 * 1000;
#X obj 180 20 radix 10 6 0 3 _ _ 0 0 _ _ _ 0;
#X connect 0 0 1 0;
#X connect 1 0 3 0;
#X connect 2 0 0 0;
#X connect 4 0 0 1;
#X connect 5 0 4 0;
#X restore 110 40 pd seeking;
#N canvas 760 200 440 370 voice-masking 0;
#X text 150 200 get;
#X text 150 170 set;
#X msg 70 170 mask \$1;
#X obj 70 60 cupqb;
#X msg 100 200 mask;
#X text 130 80 mask helper;
#X msg 140 280 bmask;
#X msg 40 30 set \$1;
#X msg 130 230 voices;
#X obj 70 310 s \$1msg;
#X obj 120 120 cnv 5 1 30 empty empty empty 20 12 0 16 #9f9f9f #404040 0;
#X obj 170 120 cnv 5 1 36 empty empty empty 20 12 0 16 #dfdfdf #404040 0;
#X obj 220 120 cnv 5 1 30 empty empty empty 20 12 0 16 #9f9f9f #404040 0;
#X obj 270 120 cnv 5 1 36 empty empty empty 20 12 0 16 #dfdfdf #404040 0;
#X obj 320 120 cnv 5 1 30 empty empty empty 20 12 0 16 #9f9f9f #404040 0;
#X obj 370 120 cnv 5 1 36 empty empty empty 20 12 0 16 #dfdfdf #404040 0;
#X obj 70 120 gme-mask;
#X text 140 260 print mask in binary;
#X connect 2 0 9 0;
#X connect 3 0 16 0;
#X connect 4 0 9 0;
#X connect 6 0 9 0;
#X connect 7 0 3 1;
#X connect 8 0 9 0;
#X connect 16 0 7 0;
#X connect 16 0 2 0;
#X restore 110 160 pd voice-masking;
#N canvas 760 200 450 300 voice-muting 0;
#X msg 120 180 mute \$1;
#X msg 210 180 mute 0 -1 -2;
#X obj 120 240 s \$1msg;
#X msg 210 210 mute x 1 2;
#X text 90 20 zero unmutes all voices;
#X text 90 40 symbol mutes all voices;
#X text 90 60 negative indexes reverse order;
#X obj 120 210 t b a;
#X msg 60 210 bmask;
#X text 90 80 repeat indexes toggle voices (except zero and symbol), f 28;
#X obj 120 150 hradio 24 1 0 9 empty empty empty 0 -12 0 16 #000000 #fcfcfc #fcfcfc 0;
#X floatatom 80 180 0 0 0 0 - - - 0;
#X connect 0 0 7 0;
#X connect 1 0 7 0;
#X connect 3 0 7 0;
#X connect 7 0 8 0;
#X connect 7 1 2 0;
#X connect 8 0 2 0;
#X connect 10 0 11 0;
#X connect 10 0 0 0;
#X restore 110 100 pd voice-muting;
#N canvas 760 200 370 210 voice-soloing 0;
#X obj 100 160 s \$1msg;
#X msg 100 100 solo \$1;
#X msg 190 60 1 2;
#X msg 190 100 solo \$1 \$2;
#X msg 240 60 -1 -2;
#X obj 40 70 cupqb;
#X obj 100 70 bng 24 250 50 0 empty empty empty 0 -12 0 16 #ff8300 #ff0400 #7c7c7c;
#X msg 40 130 bmask;
#X obj 100 130 t b a;
#X text 20 20 allows solo voices to be toggled;
#X connect 1 0 8 0;
#X connect 2 0 3 0;
#X connect 3 0 8 0;
#X connect 4 0 3 0;
#X connect 5 0 1 0;
#X connect 6 0 5 1;
#X connect 7 0 0 0;
#X connect 8 0 7 0;
#X connect 8 1 0 0;
#X restore 110 130 pd voice-soloing;
