#N canvas 400 200 400 300 16;
#X obj 130 180 cupqb;
#X obj 130 30 bng 24 250 50 0 empty empty play/pause 28 12 0 16 #ff8300 #ff0400 #7c7c7c;
#X msg 30 60 stop;
#X text 190 190 tracks;
#X obj 130 150 bng 24 250 50 0 empty empty restart 28 12 0 16 #ff8300 #ff0400 #7c7c7c;
#N canvas 800 200 450 290 time 0;
#X obj 30 40 inlet;
#X obj 320 230 outlet;
#N canvas 800 200 460 350 display 0;
#X obj 320 250 hms;
#X obj 230 250 hms;
#X obj 320 280 outlet;
#X obj 200 280 outlet;
#X text 140 310 remaining time;
#X text 310 310 current time;
#X obj 210 150 delp;
#X obj 310 70 inlet;
#X msg 310 110 time;
#N canvas 800 200 360 260 defaults 0;
#X obj 40 70 moses;
#X obj 40 220 outlet;
#X obj 210 70 moses;
#X msg 210 100 5000;
#X obj 210 220 outlet;
#X msg 40 100 90000;
#X obj 40 30 r \$0time;
#X obj 210 30 r \$0fade;
#X floatatom 270 70 0 0 0 0 - - - 0;
#X floatatom 100 70 0 0 0 0 - - - 0;
#X obj 40 180 f;
#X obj 210 180 f;
#X obj 120 130 t;
#X obj 120 100 r \$1stop;
#X connect 0 0 5 0;
#X connect 0 1 10 0;
#X connect 2 0 3 0;
#X connect 2 1 11 0;
#X connect 3 0 11 0;
#X connect 5 0 10 0;
#X connect 6 0 0 0;
#X connect 6 0 9 0;
#X connect 7 0 2 0;
#X connect 7 0 8 0;
#X connect 10 0 1 0;
#X connect 11 0 4 0;
#X connect 12 0 10 0;
#X connect 12 1 11 0;
#X connect 13 0 12 0;
#X restore 180 70 pd defaults;
#X obj 260 110 +;
#X obj 40 220 linp~;
#X obj 50 120 delp;
#X text 40 310 fade;
#X obj 130 150 t f b;
#X msg 140 180 1 0;
#X text 180 40 time;
#X text 250 40 fade;
#X obj 40 280 s~ \$1fade;
#X obj 320 220 +;
#N canvas 800 200 360 220 fade 0;
#X obj 120 40 inlet~;
#X obj 120 70 cos~;
#X obj 120 100 *~ 0.5;
#X obj 120 130 +~ 0.5;
#X obj 120 160 outlet~;
#X connect 0 0 1 0;
#X connect 1 0 2 0;
#X connect 2 0 3 0;
#X connect 3 0 4 0;
#X restore 40 250 pd fade;
#X msg 50 150 0.5;
#N canvas 800 200 360 240 scale 0;
#X obj 70 50 inlet;
#X obj 70 80 f;
#X obj 70 170 outlet;
#X obj 70 140 * 1;
#X obj 160 50 r \$1tscale;
#X obj 160 80 t b f;
#X connect 0 0 1 0;
#X connect 1 0 3 0;
#X connect 3 0 2 0;
#X connect 4 0 5 0;
#X connect 5 0 1 0;
#X connect 5 1 3 1;
#X restore 110 220 pd scale;
#X obj 210 220 s \$1done;
#N canvas 800 200 360 130 fv 0;
#X obj 80 60 spigot 1;
#X obj 170 60 == 0;
#X obj 170 30 r \$1forever;
#X obj 80 30 inlet;
#X obj 80 90 outlet;
#X connect 0 0 4 0;
#X connect 1 0 0 1;
#X connect 2 0 1 0;
#X connect 3 0 0 0;
#X restore 210 180 pd fv;
#N canvas 800 200 360 130 fv 0;
#X obj 80 60 spigot 1;
#X obj 170 60 == 0;
#X obj 170 30 r \$1forever;
#X obj 80 30 inlet;
#X obj 80 90 outlet;
#X connect 0 0 4 0;
#X connect 1 0 0 1;
#X connect 2 0 1 0;
#X connect 3 0 0 0;
#X restore 50 180 pd fv;
#N canvas 800 200 360 160 msgs 0;
#X msg 40 60 1;
#X obj 140 110 outlet;
#X obj 40 110 outlet;
#X obj 190 30 r \$1tscale;
#X msg 190 60 tempo \$1 msec;
#X obj 90 60 r \$0pause;
#X obj 40 30 r \$1forever;
#X connect 0 0 2 0;
#X connect 3 0 4 0;
#X connect 4 0 1 0;
#X connect 5 0 1 0;
#X connect 5 0 2 0;
#X connect 6 0 0 0;
#X restore 40 70 pd msgs;
#X connect 0 0 2 0;
#X connect 1 0 3 0;
#X connect 6 0 24 0;
#X connect 6 1 1 0;
#X connect 6 1 19 0;
#X connect 7 0 8 0;
#X connect 8 0 6 0;
#X connect 9 0 12 0;
#X connect 9 0 10 0;
#X connect 9 1 14 0;
#X connect 9 1 10 1;
#X connect 10 0 6 0;
#X connect 10 0 19 1;
#X connect 11 0 20 0;
#X connect 12 0 21 0;
#X connect 14 0 22 0;
#X connect 14 1 15 0;
#X connect 15 0 11 0;
#X connect 19 0 0 0;
#X connect 20 0 18 0;
#X connect 21 0 25 0;
#X connect 22 0 11 1;
#X connect 24 0 23 0;
#X connect 25 0 11 0;
#X connect 26 0 11 0;
#X connect 26 1 6 0;
#X connect 26 1 12 0;
#X restore 220 190 pd display;
#X obj 110 40 route stop;
#X msg 240 80 0;
#N canvas 800 200 360 260 is-playing 0;
#X obj 100 40 r \$0play;
#X obj 100 130 #&&;
#N canvas 800 200 360 260 check-dsp 0;
#X obj 90 30 loadbang;
#X obj 90 60 t;
#X obj 90 100 del 5;
#X obj 150 170 snapshot~;
#X msg 150 100 set 0;
#X obj 170 130 sig~ 1;
#X obj 60 30 bng 24 250 50 0 empty empty empty 0 -12 0 16 #ff8300 #ff0400 #fcfcfc;
#X obj 150 210 outlet;
#X obj 50 140 r pd;
#X obj 50 170 route dsp;
#X connect 0 0 1 0;
#X connect 1 0 2 0;
#X connect 1 1 4 0;
#X connect 2 0 3 0;
#X connect 3 0 7 0;
#X connect 4 0 3 0;
#X connect 5 0 3 0;
#X connect 6 0 1 0;
#X connect 8 0 9 0;
#X connect 9 0 7 0;
#X restore 140 80 pd check-dsp;
#X obj 100 210 outlet;
#X obj 190 120 r \$0forever;
#X obj 100 160 spigot 1;
#X obj 190 160 !;
#X connect 0 0 1 0;
#X connect 1 0 5 0;
#X connect 2 0 1 1;
#X connect 4 0 6 0;
#X connect 5 0 3 0;
#X connect 6 0 5 1;
#X restore 290 80 pd is-playing;
#X obj 220 230 outlet;
#X obj 240 120 tgl 24 0 empty empty empty 0 -12 0 16 #0e4345 #fcfcfc #fcfcfc 0 1;
#X floatatom 360 160 0 0 0 0 - - - 0;
#X obj 110 160 !, f 2;
#X msg 110 190 pause \$1;
#X obj 110 230 s \$0pause;
#X obj 240 160 metro 1000;
#X obj 30 110 s \$1msg;
#X obj 30 70 t a a;
#X obj 220 40 r \$0end;
#X obj 280 120 r \$1reset;
#X obj 110 80 s \$1stop;
#X connect 0 0 14 0;
#X connect 2 0 6 0;
#X connect 2 1 1 0;
#X connect 3 0 4 0;
#X connect 3 0 17 0;
#X connect 4 0 7 0;
#X connect 5 0 7 0;
#X connect 7 0 9 0;
#X connect 7 0 12 0;
#X connect 8 0 12 1;
#X connect 9 0 10 0;
#X connect 10 0 11 0;
#X connect 12 0 2 0;
#X connect 14 0 13 0;
#X connect 14 1 3 0;
#X connect 15 0 4 0;
#X connect 15 0 2 0;
#X connect 16 0 12 0;
#X restore 30 90 pd time;
#N canvas 800 200 430 340 bounds 0;
#X obj 50 30 inlet;
#X obj 130 60 + 1;
#X obj 130 30 r \$1n;
#X obj 50 60 moses 1;
#X obj 60 90 moses 2;
#X obj 150 130 s \$1nbx;
#X obj 240 90 r \$1start;
#X obj 50 290 s \$1msg;
#X obj 150 90 s \$0end;
#X msg 60 240 \$1 \, print %!\$2:02% [%ftime%] - %song% \, fade \, time \, sytc, f 32;
#X msg 240 130 list bang 1;
#X obj 60 170 t b l;
#X msg 60 130 \$1 \$1;
#X obj 60 210 s \$1reset;
#X connect 0 0 3 0;
#X connect 1 0 4 1;
#X connect 2 0 1 0;
#X connect 3 0 7 0;
#X connect 3 1 4 0;
#X connect 4 0 5 0;
#X connect 4 0 12 0;
#X connect 4 1 8 0;
#X connect 6 0 5 0;
#X connect 6 0 10 0;
#X connect 9 0 7 0;
#X connect 10 0 11 0;
#X connect 11 0 13 0;
#X connect 11 1 9 0;
#X connect 12 0 11 0;
#X restore 130 250 pd bounds;
#N canvas 800 200 540 300 route 0;
#X obj 40 30 inlet;
#X obj 460 130 s \$1n;
#X obj 40 210 sel;
#X obj 40 250 s \$1start;
#X obj 150 130 s \$0time;
#X obj 170 100 s \$0fade;
#X msg 390 100 tracks \$1;
#X obj 80 220 t f b;
#X obj 50 100 s \$0play;
#X msg 140 220 print %path% \, print %game% \, tracks;
#X obj 140 250 s \$1msg;
#X obj 40 170 pipe 10;
#X msg 140 170 \; pd dsp 1;
#X obj 40 60 route open play time fade delay sytc tracks;
#X obj 270 130 s \$1pad;
#X obj 290 100 s \$1sync;
#N canvas 800 200 360 260 fmt 0;
#X obj 80 30 inlet;
#X obj 80 180 s \$1msg;
#X msg 80 150 print \$1: \$2;
#X obj 150 30 list length;
#X obj 80 60 t a a;
#X obj 150 60 < 2;
#X obj 80 120 list;
#X obj 150 90 sel 1;
#X msg 150 120 symbol;
#X connect 0 0 4 0;
#X connect 2 0 1 0;
#X connect 3 0 5 0;
#X connect 4 0 6 0;
#X connect 4 1 3 0;
#X connect 5 0 7 0;
#X connect 6 0 2 0;
#X connect 7 0 8 0;
#X connect 8 0 6 1;
#X restore 390 130 pd fmt;
#X connect 0 0 13 0;
#X connect 2 1 7 0;
#X connect 6 0 16 0;
#X connect 7 0 3 0;
#X connect 7 1 9 0;
#X connect 7 1 12 0;
#X connect 9 0 10 0;
#X connect 11 0 2 0;
#X connect 13 0 11 0;
#X connect 13 1 8 0;
#X connect 13 2 4 0;
#X connect 13 3 5 0;
#X connect 13 4 14 0;
#X connect 13 5 15 0;
#X connect 13 6 6 0;
#X connect 13 6 1 0;
#X connect 13 7 16 0;
#X restore 30 240 pd route;
#X symbolatom 150 90 10 0 0 0 - - - 0;
#X symbolatom 140 120 11 0 0 0 - - - 0;
#X obj 30 210 r \$1route;
#X obj 130 60 bng 24 250 50 0 empty empty stop 28 12 0 16 #ff8300 #ff0400 #7c7c7c;
#X obj 270 120 p-next \$1;
#X connect 0 0 6 0;
#X connect 1 0 5 0;
#X connect 2 0 5 0;
#X connect 4 0 0 1;
#X connect 5 0 9 0;
#X connect 5 1 8 0;
#X connect 10 0 7 0;
#X connect 11 0 2 0;
#X connect 12 0 0 1;
#X coords 0 -1 1 1 130 210 2 130 30;
