#N canvas 400 200 550 630 14;
#X declare -lib blunt;
#X obj 190 520 *~;
#N canvas 710 770 450 300 (subpatch) 0;
#X array \$0view 120 float 2;
#X coords 0 1.0833 120 -1.0833 120 130 1 0 0;
#X restore 370 190 graph;
#X obj 50 490 tgl 15 0 empty empty empty 17 7 0 10 #0e4345 #fcfcfc
#fcfcfc 0 1;
#X floatatom 90 490 0 0 0 0 - - - 0;
#X obj 60 380 cupqb;
#X obj 40 240 openpanel;
#X obj 240 520 *~;
#X obj 240 180 bng 15 250 50 0 empty empty play/pause 17 7 0 12 #ff8300
#ff0400 #7c7c7c;
#X msg 250 210 stop;
#X text 110 390 tracks;
#X obj 210 410 gme~;
#X obj 120 350 bng 15 250 50 0 empty empty restart 17 7 0 12 #ff8300
#ff0400 #7c7c7c;
#X obj 220 30 cnv 15 60 24 empty empty gme~ 4 12 0 18 #000000 #fcfcfc
0;
#X obj 120 520 *~ 0.5;
#X obj 240 470 *~;
#X obj 190 470 *~;
#N canvas 950 200 410 320 time 0;
#X obj 30 40 inlet;
#X obj 180 230 outlet;
#N canvas 950 540 460 360 display 0;
#X obj 180 240 hms;
#X obj 290 240 hms;
#X obj 180 270 outlet;
#X obj 290 270 outlet;
#X text 270 300 remaining time;
#X text 160 300 current time;
#X obj 170 170 delp;
#X obj 280 60 inlet;
#X msg 280 100 time;
#X obj 100 210 s \$0done;
#N canvas 950 370 450 300 defaults 0;
#X obj 100 80 moses;
#X obj 100 220 outlet;
#X obj 270 80 moses;
#X msg 270 110 5000;
#X obj 270 220 outlet;
#X msg 100 110 90000;
#X obj 100 40 r \$0time;
#X obj 270 40 r \$0fade;
#X floatatom 330 80 0 0 0 0 - - - 0;
#X floatatom 160 80 0 0 0 0 - - - 0;
#X obj 100 190 f;
#X obj 270 190 f;
#X obj 180 110 r \$0stop;
#X obj 180 140 t;
#X connect 0 0 5 0;
#X connect 0 1 10 0;
#X connect 2 0 3 0;
#X connect 2 1 11 0;
#X connect 3 0 11 0;
#X connect 5 0 10 0;
#X connect 6 0 0 0;
#X connect 6 0 9 0;
#X connect 7 0 2 0;
#X connect 7 0 8 0;
#X connect 10 0 1 0;
#X connect 11 0 4 0;
#X connect 12 0 13 0;
#X connect 13 0 10 0;
#X connect 13 1 11 0;
#X restore 150 60 pd defaults;
#X obj 230 100 +;
#X obj 50 180 linp~;
#X obj 120 100 delp;
#X text 60 300 fade;
#X msg 70 130 0;
#X obj 170 100 t f b;
#X msg 170 130 1 0;
#X obj 50 60 r \$0pause;
#X obj 180 210 @-;
#X text 140 30 time;
#X text 220 30 fade;
#X obj 50 270 s~ \$0fade;
#X connect 0 0 2 0;
#X connect 1 0 3 0;
#X connect 6 0 9 0;
#X connect 6 1 19 0;
#X connect 6 1 1 0;
#X connect 7 0 8 0;
#X connect 8 0 6 0;
#X connect 10 0 13 0;
#X connect 10 0 11 0;
#X connect 10 1 16 0;
#X connect 10 1 11 1;
#X connect 11 0 19 1;
#X connect 11 0 6 0;
#X connect 12 0 22 0;
#X connect 13 0 15 0;
#X connect 15 0 12 0;
#X connect 16 0 12 1;
#X connect 16 1 17 0;
#X connect 17 0 12 0;
#X connect 18 0 13 0;
#X connect 18 0 12 0;
#X connect 18 0 6 0;
#X connect 19 0 0 0;
#X restore 180 190 pd display;
#X obj 120 70 route stop;
#X msg 160 100 0;
#N canvas 260 520 450 300 is-playing 0;
#X obj 140 70 r \$0play;
#X obj 140 130 #&&;
#N canvas 710 520 450 300 check-dsp 0;
#X obj 150 50 loadbang;
#X obj 150 80 t;
#X obj 150 120 del 5;
#X obj 200 190 snapshot~;
#X msg 200 120 set 0;
#X obj 220 150 sig~ 1;
#X obj 130 50 bng 15 250 50 0 empty empty empty 17 7 0 10 #ff8300 #ff0400
#fcfcfc;
#X obj 200 220 outlet;
#X obj 110 160 r pd;
#X obj 110 190 route dsp;
#X connect 0 0 1 0;
#X connect 1 0 2 0;
#X connect 1 1 4 0;
#X connect 2 0 3 0;
#X connect 3 0 7 0;
#X connect 4 0 3 0;
#X connect 5 0 3 0;
#X connect 6 0 1 0;
#X connect 8 0 9 0;
#X connect 9 0 7 0;
#X restore 220 70 pd check-dsp;
#X obj 140 210 outlet;
#X floatatom 150 160 0 0 0 0 - - - 0;
#X connect 0 0 1 0;
#X connect 1 0 4 0;
#X connect 1 0 3 0;
#X connect 2 0 1 1;
#X restore 200 100 pd is-playing;
#X obj 250 230 outlet;
#X obj 180 130 tgl 15 0 empty empty empty 17 7 0 10 #0e4345 #fcfcfc
#fcfcfc 0 1;
#X floatatom 270 160 0 0 0 0 - - - 0;
#X obj 90 130 !, f 2;
#X msg 90 160 pause \$1;
#X obj 90 190 s \$0pause;
#X obj 210 130 r \$0reset;
#X obj 180 160 metro 1000;
#X obj 80 100 s \$0stop;
#X obj 30 230 s \$0gme;
#X obj 30 70 t a a;
#X obj 220 70 r \$0end;
#X connect 0 0 16 0;
#X connect 2 0 1 0;
#X connect 2 1 6 0;
#X connect 3 0 4 0;
#X connect 3 0 14 0;
#X connect 4 0 7 0;
#X connect 5 0 7 0;
#X connect 7 0 9 0;
#X connect 7 0 13 0;
#X connect 8 0 13 1;
#X connect 9 0 10 0;
#X connect 10 0 11 0;
#X connect 12 0 13 0;
#X connect 13 0 2 0;
#X connect 16 0 15 0;
#X connect 16 1 3 0;
#X connect 17 0 4 0;
#X connect 17 0 2 0;
#X restore 240 240 pd time;
#X text 50 60 A Pd interface for the Game Music Emu library \, created
by Shay Green and maintained by Michael Pyne at https://bitbucket.org/mpyne/game-music-emu
Compatible formats include: AY \, GBS \, GYM \, HES \, KSS \, NSF/NSFE
\, AP \, SPC \, RSN \, VGM/VGZ;
#X obj 40 180 bng 15 250 50 0 empty empty previous_directory 17 7 0
12 #ff8300 #ff0400 #7c7c7c;
#X msg 50 210 symbol ~/Music/Games;
#N canvas 860 330 460 340 bounds 0;
#X obj 40 30 inlet;
#X obj 110 60 + 1;
#X obj 110 30 r \$0n;
#X obj 40 60 moses 1;
#X obj 50 90 moses 2;
#X obj 100 180 s \$0nbx;
#X obj 120 120 r \$0start;
#X obj 50 180 t b f;
#X obj 50 210 s \$0reset;
#X obj 40 270 s \$0gme;
#X obj 120 90 s \$0end;
#X msg 50 240 \$1 \, print \$1 - %song% [%ftime%] \, fade \, time;
#X connect 0 0 3 0;
#X connect 1 0 4 1;
#X connect 2 0 1 0;
#X connect 3 0 9 0;
#X connect 3 1 4 0;
#X connect 4 0 5 0;
#X connect 4 0 7 0;
#X connect 4 1 10 0;
#X connect 6 0 5 0;
#X connect 6 0 7 0;
#X connect 7 0 8 0;
#X connect 7 1 11 0;
#X connect 11 0 9 0;
#X restore 60 440 pd bounds;
#N canvas 800 530 450 280 route 0;
#X obj 70 30 inlet;
#X obj 260 110 s \$0n;
#X obj 70 140 sel;
#X obj 320 140 print -n;
#X obj 120 170 s \$0start;
#X obj 180 110 s \$0time;
#X obj 220 140 s \$0play;
#X msg 310 110 \$1 track(s);
#X msg 130 30 \; pd dsp \$1;
#X obj 70 170 t f b;
#X obj 110 140 s \$0fade;
#X obj 70 80 route open fade time play tracks;
#X msg 70 200 print %path% \, tracks \, print %game%;
#X obj 70 230 s \$0gme;
#X obj 70 110 pipe 10;
#X connect 0 0 11 0;
#X connect 2 1 9 0;
#X connect 7 0 3 0;
#X connect 9 0 4 0;
#X connect 9 1 12 0;
#X connect 11 0 8 0;
#X connect 11 0 14 0;
#X connect 11 1 10 0;
#X connect 11 2 5 0;
#X connect 11 3 6 0;
#X connect 11 4 7 0;
#X connect 11 4 1 0;
#X connect 11 5 3 0;
#X connect 12 0 13 0;
#X connect 14 0 2 0;
#X restore 260 410 pd route;
#X symbolatom 180 270 0 0 0 0 - - - 0;
#X msg 40 270 open \$1;
#X obj 50 520 metro 40;
#X obj 200 550 dac~;
#N canvas 400 200 450 300 lib 0;
#X obj 140 120 declare -lib blunt;
#X restore 30 30 pd lib;
#N canvas 950 270 570 440 muting 0;
#X text 140 260 get;
#X text 140 230 set;
#X msg 70 230 mask \$1;
#X obj 70 60 cupqb;
#X obj 70 110 gme-mask;
#X msg 250 320 0, f 2;
#X msg 280 320 1, f 2;
#X msg 90 260 mask;
#X text 140 90 mask helper;
#X floatatom 30 140 0 0 0 0 - - - 0;
#X msg 310 320 2, f 2;
#X msg 340 320 3, f 2;
#X msg 370 320 4, f 2;
#X msg 400 320 5, f 2;
#X msg 430 320 6, f 2;
#X msg 460 320 7, f 2;
#X msg 490 320 8, f 2;
#X msg 250 210 0, f 2;
#X msg 280 210 1, f 2;
#X msg 310 210 2, f 2;
#X msg 340 210 3, f 2;
#X msg 370 210 4, f 2;
#X msg 400 210 5, f 2;
#X msg 430 210 6, f 2;
#X msg 460 210 7, f 2;
#X msg 490 210 8, f 2;
#X text 240 160 mute toggles while solo does not;
#X text 240 180 negative values are reverse indexes;
#X msg 290 260 mute \$1;
#X msg 290 370 solo \$1;
#X text 240 140 zero resets all channels;
#X msg 110 290 bmask;
#X text 160 290 print;
#X msg 30 30 set \$1;
#X msg 130 320 voices;
#X obj 70 370 s \$0gme;
#X msg 360 260 mute 0 -1 -2;
#X obj 290 290 s \$0gme;
#X msg 390 370 solo 1 3 -1 -3;
#X text 360 280 zero prevents toggle;
#X connect 2 0 35 0;
#X connect 3 0 4 0;
#X connect 4 0 2 0;
#X connect 4 0 9 0;
#X connect 5 0 29 0;
#X connect 6 0 29 0;
#X connect 7 0 35 0;
#X connect 9 0 33 0;
#X connect 10 0 29 0;
#X connect 11 0 29 0;
#X connect 12 0 29 0;
#X connect 13 0 29 0;
#X connect 14 0 29 0;
#X connect 15 0 29 0;
#X connect 16 0 29 0;
#X connect 17 0 28 0;
#X connect 18 0 28 0;
#X connect 19 0 28 0;
#X connect 20 0 28 0;
#X connect 21 0 28 0;
#X connect 22 0 28 0;
#X connect 23 0 28 0;
#X connect 24 0 28 0;
#X connect 25 0 28 0;
#X connect 28 0 37 0;
#X connect 29 0 35 0;
#X connect 31 0 35 0;
#X connect 33 0 3 1;
#X connect 34 0 35 0;
#X connect 36 0 37 0;
#X connect 38 0 35 0;
#X restore 380 380 pd muting;
#N canvas 950 410 490 420 metadata 0;
#X msg 50 30 print;
#X text 100 30 general track info;
#X text 100 60 file path;
#X text 130 90 total tracks in playlist;
#X msg 60 60 path;
#X text 290 270 custom track info;
#X msg 70 90 tracks;
#X msg 80 130 system;
#X msg 90 160 game;
#X msg 140 160 song;
#X msg 100 190 author;
#X msg 160 190 copyright;
#X msg 130 220 comment;
#X msg 140 250 dumper;
#X text 190 160 send metadata via last outlet;
#X msg 130 300 print ©%copyright%\\\, for the "%system%";
#X msg 130 330 print %author% - %song% (%comment%);
#X obj 50 360 s \$0gme;
#X connect 0 0 17 0;
#X connect 4 0 17 0;
#X connect 6 0 17 0;
#X connect 7 0 17 0;
#X connect 8 0 17 0;
#X connect 9 0 17 0;
#X connect 10 0 17 0;
#X connect 11 0 17 0;
#X connect 12 0 17 0;
#X connect 13 0 17 0;
#X connect 15 0 17 0;
#X connect 16 0 17 0;
#X restore 380 350 pd metadata;
#X symbolatom 270 270 0 0 0 0 - - - 0;
#X obj 290 490 hsl 128 20 0.001 1 1 0 empty empty volume 35 10 0 12
#2f004d #fcfcfc #fcfcfc 0 1;
#X floatatom 350 520 0 0 0 0 - - - 0;
#N canvas 970 490 450 300 vol 0;
#X obj 160 190 zp~ 15;
#X msg 160 120 0;
#X obj 160 60 inlet;
#X obj 160 220 outlet~;
#X obj 230 190 outlet;
#X obj 160 150 f;
#X obj 160 90 moses 0.00101;
#X connect 0 0 3 0;
#X connect 1 0 5 0;
#X connect 2 0 6 0;
#X connect 5 0 0 0;
#X connect 5 0 4 0;
#X connect 6 0 1 0;
#X connect 6 1 5 0;
#X restore 290 520 pd vol;
#X obj 50 550 tabwrite~ \$0view;
#X obj 210 310 r \$0gme;
#X obj 260 440 r~ \$0fade;
#X obj 40 300 s \$0gme;
#N canvas 950 480 780 350 misc 0;
#X obj 80 190 cupqb 4;
#X msg 80 250 interp \$1;
#X text 130 140 0 = Sinc (Best Quality);
#X text 130 160 1 = Sinc (Medium Quality);
#X text 130 180 2 = Sinc (Fastest);
#X text 130 200 3 = Zero-order hold;
#X text 130 220 4 = Linear (default);
#X text 170 250 Interpolation method;
#X obj 50 290 s \$0gme;
#N canvas 1000 610 450 300 pitch 0;
#X obj 110 180 outlet~;
#X obj 190 180 outlet~;
#X obj 110 60 inlet;
#X obj 180 60 inlet~;
#X obj 110 150 *~;
#X obj 250 60 inlet~;
#X obj 190 150 *~;
#X obj 250 90 -~ 1;
#X obj 250 120 *~ 0.693147;
#X obj 250 150 exp~;
#X obj 110 90 exp;
#X connect 2 0 10 0;
#X connect 3 0 4 1;
#X connect 4 0 0 0;
#X connect 5 0 7 0;
#X connect 6 0 1 0;
#X connect 7 0 8 0;
#X connect 8 0 9 0;
#X connect 9 0 6 1;
#X connect 10 0 4 0;
#X connect 10 0 6 0;
#X restore 440 240 pd pitch;
#X msg 510 140 0;
#X obj 380 60 cupqb;
#X msg 50 60 play 0;
#X msg 60 90 play;
#X text 110 60 force pause;
#X text 110 90 toggle play/pause;
#X text 530 240 speed = playback rate;
#X text 530 260 tempo = emulation rate;
#X obj 440 290 s~ \$0speed;
#X obj 530 290 s~ \$0tempo;
#X obj 490 210 vib~;
#X obj 440 180 line;
#X floatatom 490 180 0 0 0 0 - - - 0;
#X floatatom 540 180 0 0 0 0 - - - 0;
#X obj 380 30 loadbang;
#X obj 590 210 vib~;
#X floatatom 590 180 0 0 0 0 - - - 0;
#X floatatom 640 180 0 0 0 0 - - - 0;
#X msg 380 140 \$1 50;
#X obj 380 110 * 0.0577623;
#X msg 490 80 2.77259 10000;
#X msg 500 110 -2.77259 10000;
#X msg 550 140 0 \, 1.38629 60000;
#X connect 0 0 1 0;
#X connect 1 0 8 0;
#X connect 9 0 18 0;
#X connect 9 1 19 0;
#X connect 10 0 21 0;
#X connect 11 0 29 0;
#X connect 12 0 8 0;
#X connect 13 0 8 0;
#X connect 20 0 9 1;
#X connect 21 0 9 0;
#X connect 22 0 20 0;
#X connect 23 0 20 1;
#X connect 24 0 11 1;
#X connect 25 0 9 2;
#X connect 26 0 25 0;
#X connect 27 0 25 1;
#X connect 28 0 21 0;
#X connect 29 0 28 0;
#X connect 30 0 21 0;
#X connect 31 0 21 0;
#X connect 32 0 21 0;
#X restore 380 410 pd misc;
#N canvas 980 200 390 280 next 0;
#X obj 160 220 outlet;
#X obj 50 100 r \$0done;
#X obj 160 170 + 1;
#X obj 70 130 r \$0nbx;
#X obj 120 170 %;
#X obj 50 170 f;
#X obj 200 70 bng 15 250 50 0 empty empty repeat\\\ track 17 7 0 12
#ff8300 #ff0400 #7c7c7c;
#X obj 170 50 bng 15 250 50 0 empty empty repeat\\\ playlist 17 7 0
12 #ff8300 #ff0400 #7c7c7c;
#X obj 220 130 r \$0start;
#X msg 220 160 set \$1;
#X obj 140 30 bng 15 250 50 0 empty empty no-repeat\\\ playlist 17
7 0 12 #ff8300 #ff0400 #7c7c7c;
#N canvas 980 500 390 300 order 0;
#X obj 260 70 r \$0nbx;
#X obj 260 160 spigot;
#X obj 250 190 f;
#X obj 70 230 outlet mod;
#X obj 180 230 outlet add;
#X obj 250 30 inlet reptrk;
#X obj 140 30 inlet replst;
#X obj 40 30 inlet norep;
#X obj 70 190 +;
#X obj 80 100 r \$0n;
#X obj 80 130 t b f;
#X obj 260 100 t b f;
#X obj 80 160 spigot 1;
#X obj 160 100 f;
#X obj 200 100 !;
#X msg 130 70 1;
#X msg 40 70 1;
#X obj 40 100 f;
#X msg 80 70 0;
#X msg 210 160 1;
#X msg 170 70 0;
#X connect 0 0 11 0;
#X connect 1 0 2 0;
#X connect 2 0 4 0;
#X connect 5 0 2 0;
#X connect 5 0 19 0;
#X connect 5 0 20 0;
#X connect 6 0 15 0;
#X connect 6 0 18 0;
#X connect 7 0 15 0;
#X connect 7 0 16 0;
#X connect 8 0 3 0;
#X connect 9 0 10 0;
#X connect 10 0 12 0;
#X connect 10 1 8 1;
#X connect 11 0 1 0;
#X connect 11 1 2 1;
#X connect 12 0 8 0;
#X connect 13 0 14 0;
#X connect 13 0 12 1;
#X connect 14 0 1 1;
#X connect 15 0 13 0;
#X connect 15 0 4 0;
#X connect 16 0 17 0;
#X connect 17 0 8 0;
#X connect 18 0 17 0;
#X connect 19 0 3 0;
#X connect 20 0 13 0;
#X restore 140 130 pd order;
#X connect 1 0 5 0;
#X connect 2 0 0 0;
#X connect 3 0 5 1;
#X connect 4 0 2 0;
#X connect 5 0 4 0;
#X connect 6 0 11 2;
#X connect 7 0 11 1;
#X connect 8 0 9 0;
#X connect 9 0 0 0;
#X connect 10 0 11 0;
#X connect 11 0 4 1;
#X connect 11 1 2 1;
#X restore 50 350 pd next;
#X obj 220 340 r~ \$0speed;
#X obj 240 370 r~ \$0tempo;
#X connect 0 0 25 0;
#X connect 2 0 24 0;
#X connect 3 0 24 1;
#X connect 4 0 20 0;
#X connect 5 0 23 0;
#X connect 6 0 25 1;
#X connect 7 0 16 0;
#X connect 8 0 16 0;
#X connect 10 0 15 0;
#X connect 10 1 14 0;
#X connect 10 2 21 0;
#X connect 11 0 4 1;
#X connect 13 0 33 0;
#X connect 14 0 6 0;
#X connect 14 0 13 0;
#X connect 15 0 0 0;
#X connect 15 0 13 0;
#X connect 16 0 22 0;
#X connect 16 1 29 0;
#X connect 18 0 5 0;
#X connect 19 0 5 0;
#X connect 23 0 36 0;
#X connect 24 0 33 0;
#X connect 30 0 32 0;
#X connect 32 0 6 1;
#X connect 32 0 0 1;
#X connect 32 1 31 0;
#X connect 34 0 10 0;
#X connect 35 0 14 1;
#X connect 35 0 15 1;
#X connect 38 0 4 1;
#X connect 39 0 10 1;
#X connect 40 0 10 2;
