#N canvas 400 200 490 340 16;
#X msg 10 140 1 2 hi 4;
#X msg 110 140 1 2 3 hi;
#X msg 210 140 3;
#X obj 30 250 has hi;
#X obj 110 250 has 3;
#X obj 180 250 has 4;
#X obj 180 280 tgl 24 0 empty empty empty 0 -12 0 16 #0e4345 #fcfcfc #fcfcfc 0 1;
#X obj 220 30 cnv 15 42 27 empty empty has 0 12 0 24 #535512 #fcfcfc 0;
#X obj 260 140 pointer;
#X msg 250 250 2;
#X obj 260 170 t p p;
#X msg 340 140 symbol bang;
#X obj 320 250 namecanvas foo;
#X msg 260 110 traverse foo \, bang;
#X obj 110 210 t a;
#X obj 340 170 t s s;
#X obj 180 220 bng 24 250 50 0 empty empty empty 0 -12 0 16 #ff8300 #551312 #fcfcfc;
#X text 110 60 checks if a list contains a specific atom value, f 25;
#X obj 110 280 tgl 24 0 empty empty empty 0 -12 0 16 #0e4345 #fcfcfc #fcfcfc 0 1;
#X obj 30 280 tgl 24 0 empty empty empty 0 -12 0 16 #0e4345 #fcfcfc #fcfcfc 0 1;
#X connect 0 0 14 0;
#X connect 1 0 14 0;
#X connect 2 0 14 0;
#X connect 3 0 19 0;
#X connect 4 0 18 0;
#X connect 5 0 6 0;
#X connect 8 0 10 0;
#X connect 9 0 5 1;
#X connect 10 0 14 0;
#X connect 10 1 5 1;
#X connect 11 0 15 0;
#X connect 13 0 8 0;
#X connect 14 0 3 0;
#X connect 14 0 4 0;
#X connect 14 0 5 0;
#X connect 15 0 14 0;
#X connect 15 1 5 1;
#X connect 16 0 5 0;
