#N canvas 400 200 510 440 16;
#X declare -lib blunt;
#X obj 150 30 cnv 15 42 27 empty empty hsv 0 12 0 24 #535512 #fcfcfc 0;
#X obj 60 280 hsv 0 1 1;
#X text 150 60 translate hue-saturation-value to a 24-bit rgb int, f 30;
#X obj 70 230 t b f;
#X obj 130 230 t b f;
#X obj 70 130 hsl 181 22 0 360 0 0 empty empty empty -2 -11 0 14 #2f004d #fcfcfc #fcfcfc 0 1;
#X obj 90 160 hsl 181 22 0 1 0 0 empty empty empty -2 -11 0 14 #2f004d #fcfcfc #fcfcfc 0 1;
#X obj 110 190 hsl 181 22 0 1 0 0 empty empty empty -2 -11 0 14 #2f004d #fcfcfc #fcfcfc 0 1;
#X obj 250 280 cnv 22 146 88 empty \$0cnv empty 20 12 0 14 #ff0000 #404040 0;
#X msg 60 340 color \$1;
#X obj 60 370 s \$0cnv;
#X text 270 130 hue: 0 - 360;
#X text 290 160 saturation: 0 - 1;
#X text 310 190 value: 0 - 1;
#X obj 60 310 ~;
#N canvas 400 200 450 300 lib 0;
#X obj 140 120 declare -lib blunt;
#X restore 30 30 pd lib;
#X obj 100 310 radix 0 20 0 0 0 0 empty empty empty 0 -11 0 16 #000000 #fcfcfc #fcfcfc 16 6 16 0 256;
#X obj 30 70 loadbang;
#X msg 30 160 1;
#X msg 40 100 360;
#X connect 1 0 14 0;
#X connect 1 0 16 0;
#X connect 3 0 1 0;
#X connect 3 1 1 1;
#X connect 4 0 1 0;
#X connect 4 1 1 2;
#X connect 5 0 1 0;
#X connect 6 0 3 0;
#X connect 7 0 4 0;
#X connect 9 0 10 0;
#X connect 14 0 9 0;
#X connect 17 0 18 0;
#X connect 17 0 19 0;
#X connect 18 0 6 0;
#X connect 18 0 7 0;
#X connect 19 0 5 0;
