#N canvas 400 200 450 360 16;
#X obj 200 230 linp;
#X msg 90 130 pause;
#X floatatom 200 260 0 0 0 0 - - - 0;
#X msg 280 200 20;
#X msg 340 130 0 \, 1 2000;
#X msg 340 160 1 \, 0 2000;
#X msg 210 130 2000 \, 0 2000;
#X floatatom 110 290 0 0 0 0 - - - 0;
#X msg 200 100 2000 \, 3000 5000;
#X obj 190 30 cnv 15 60 24 empty empty linp 4 12 0 18 #000000 #fcfcfc 0;
#X obj 130 230 unpack;
#X obj 200 200 t a;
#X text 70 60 line with the ability to pause/resume;
#X obj 90 290 bng 15 250 50 0 empty empty empty 17 7 0 10 #ff8300 #ff0400 #fcfcfc;
#X obj 100 230 b, f 2;
#X obj 140 270 tgl 15 0 empty empty empty 17 7 0 10 #0e4345 #fcfcfc #fcfcfc 0 1;
#X msg 240 200 200;
#X obj 90 260 delp;
#X obj 250 240 tgl 15 0 empty empty empty 17 7 0 10 #0e4345 #fcfcfc #fcfcfc 0 1;
#X text 320 200 time grain;
#X text 30 130 toggle;
#X msg 80 160 pause 1;
#X text 30 160 force;
#X connect 0 0 2 0;
#X connect 0 1 18 0;
#X connect 1 0 0 0;
#X connect 1 0 17 0;
#X connect 3 0 0 2;
#X connect 4 0 11 0;
#X connect 5 0 11 0;
#X connect 6 0 11 0;
#X connect 8 0 11 0;
#X connect 10 0 14 0;
#X connect 10 1 17 1;
#X connect 11 0 0 0;
#X connect 11 0 10 0;
#X connect 14 0 17 0;
#X connect 16 0 0 2;
#X connect 17 0 13 0;
#X connect 17 1 7 0;
#X connect 17 2 15 0;
#X connect 21 0 17 0;
#X connect 21 0 0 0;
