#N canvas 400 200 450 410 16;
#X msg 90 130 pause;
#X floatatom 110 350 0 0 0 0 - - - 0;
#X obj 180 30 cnv 15 72 24 empty empty linp~ 4 12 0 18 #000000 #fcfcfc
0;
#X obj 150 250 unpack;
#X obj 210 220 t a;
#X obj 80 350 bng 15 250 50 0 empty empty empty 17 7 0 10 #ff8300 #ff0400
#fcfcfc;
#X obj 100 290 b, f 2;
#X obj 140 330 tgl 15 0 empty empty empty 17 7 0 10 #0e4345 #fcfcfc
#fcfcfc 0 1;
#X text 70 60 line~ with the ability to pause/resume;
#X obj 210 250 linp~;
#X obj 210 320 *~;
#X obj 210 350 dac~;
#X obj 320 230 vsl 15 128 0.001 1 1 0 empty empty empty 0 -9 0 10 #2f004d
#fcfcfc #fcfcfc 0 1;
#X obj 210 290 phasor~ 220;
#X msg 230 160 27 \, 440 6000;
#X msg 240 190 440 \, 27 6000;
#X obj 90 320 delp;
#X msg 220 130 336 \, 42 1500;
#X msg 210 100 42 \, 336 1500;
#X obj 270 260 tgl 15 0 empty empty empty 17 7 0 10 #0e4345 #fcfcfc
#fcfcfc 0 1;
#X text 30 130 toggle;
#X msg 80 160 pause 1;
#X text 30 160 force;
#X connect 0 0 9 0;
#X connect 0 0 16 0;
#X connect 3 0 6 0;
#X connect 3 1 16 1;
#X connect 4 0 3 0;
#X connect 4 0 9 0;
#X connect 6 0 16 0;
#X connect 9 0 13 0;
#X connect 9 1 19 0;
#X connect 10 0 11 0;
#X connect 10 0 11 1;
#X connect 12 0 10 1;
#X connect 13 0 10 0;
#X connect 14 0 4 0;
#X connect 15 0 4 0;
#X connect 16 0 5 0;
#X connect 16 1 1 0;
#X connect 16 2 7 0;
#X connect 17 0 4 0;
#X connect 18 0 4 0;
#X connect 21 0 16 0;
#X connect 21 0 9 0;
