#N canvas 400 200 460 460 16;
#X obj 160 20 cnv 15 86 24 empty empty metro~ 4 12 0 18 #000000 #fcfcfc 0;
#X text 110 50 signal-based metronome;
#X text 60 80 works by generating a sawtooth wave and sending a bang on each new ramp, f 37;
#X obj 130 310 ad 1 10;
#X obj 210 310 noise~;
#X obj 130 340 *~;
#X obj 130 370 *~;
#X obj 130 400 dac~;
#X obj 180 370 hsl 128 20 0.001 1 1 0 empty empty volume 35 10 0 12 #2f004d #fcfcfc #fcfcfc 0 1;
#X floatatom 250 400 0 0 0 0 - - - 0;
#N canvas 970 490 450 300 vol 0;
#X obj 160 190 zp~ 15;
#X msg 160 120 0;
#X obj 160 60 inlet;
#X obj 160 220 outlet~;
#X obj 230 190 outlet;
#X obj 160 150 f;
#X obj 160 90 moses 0.00101;
#X connect 0 0 3 0;
#X connect 1 0 5 0;
#X connect 2 0 6 0;
#X connect 5 0 0 0;
#X connect 5 0 4 0;
#X connect 6 0 1 0;
#X connect 6 1 5 0;
#X restore 180 400 pd vol;
#X text 230 270 tempo is in Hz;
#X obj 100 200 *~ 6;
#X floatatom 160 140 0 0 0 0 - - - 0;
#X obj 100 170 vib~ 2 0.5;
#X text 260 230 phase;
#X obj 130 240 *~;
#X obj 130 270 metro~ 10;
#X msg 220 230 0;
#X msg 220 170 0.25;
#X msg 70 140 2;
#X msg 110 140 1.2;
#X msg 30 140 3;
#X msg 280 170 0.5;
#X msg 220 200 \$1;
#X obj 220 140 tgl 24 0 empty empty start 28 10 0 16 #0e4345 #fcfcfc #7c7c7c 0 1;
#X connect 3 0 5 0;
#X connect 4 0 5 1;
#X connect 5 0 6 0;
#X connect 6 0 7 0;
#X connect 6 0 7 1;
#X connect 8 0 10 0;
#X connect 8 0 6 1;
#X connect 10 1 9 0;
#X connect 12 0 16 0;
#X connect 13 0 14 1;
#X connect 14 0 12 0;
#X connect 16 0 17 0;
#X connect 17 0 3 0;
#X connect 18 0 17 1;
#X connect 19 0 24 0;
#X connect 20 0 14 0;
#X connect 21 0 14 0;
#X connect 22 0 14 0;
#X connect 23 0 24 0;
#X connect 24 0 18 0;
#X connect 24 0 14 2;
#X connect 25 0 16 1;
#X connect 25 0 19 0;
