#N canvas 400 200 770 560 14;
#X obj 80 460 *~;
#X obj 80 490 dac~;
#X floatatom 420 480 0 0 0 3 frequency - - 0;
#X floatatom 560 480 0 0 0 3 midi-note - - 0;
#X text 380 140 root inlet;
#X obj 70 140 tgl 15 0 empty empty empty 17 7 0 10 #0e4345 #fcfcfc
#fcfcfc 0 1;
#X floatatom 100 140 0 0 0 0 - - - 0;
#X obj 80 400 *~;
#X obj 100 340 ad 5;
#X obj 110 170 metro;
#X floatatom 340 140 0 0 0 0 - - - 0;
#X obj 680 250 cupqb;
#X obj 300 170 muse;
#X floatatom 330 200 0 0 0 0 - - - 0;
#X obj 80 430 *~;
#N canvas 560 500 360 330 scaler 0;
#X obj 100 210 sel;
#X obj 240 210 sel;
#X obj 160 30 inlet;
#X obj 240 140 inlet;
#X obj 150 200 outlet;
#X obj 210 30 inlet;
#X obj 100 190 <= 0;
#X obj 240 190 >=;
#X msg 40 260 1;
#X msg 80 260 -1;
#X obj 120 120 cupqb -1;
#X msg 90 90 step \$1;
#X obj 50 20 1;
#X obj 50 50 * 1;
#X obj 30 90 t b f;
#X connect 0 1 8 0;
#X connect 1 1 9 0;
#X connect 2 0 10 2;
#X connect 3 0 7 1;
#X connect 5 0 12 0;
#X connect 6 0 0 0;
#X connect 7 0 1 0;
#X connect 8 0 14 0;
#X connect 9 0 14 0;
#X connect 10 0 6 0;
#X connect 10 0 4 0;
#X connect 10 0 7 0;
#X connect 11 0 10 1;
#X connect 12 0 13 0;
#X connect 13 0 11 0;
#X connect 14 0 12 0;
#X connect 14 1 13 1;
#X coords 0 -1 1 1 46 50 2 118 118;
#X restore 160 240 pd scaler;
#X text 340 170 default args: 69 7;
#X obj 290 120 cupqb;
#N canvas 880 200 720 560 commands 0;
#X msg 50 110 size \$1;
#X obj 420 160 pack;
#X obj 470 100 cupqb;
#X obj 420 100 cupqb;
#X obj 50 60 cupqb;
#X text 50 40 change scale size;
#X msg 280 60 tet \$1;
#X text 340 60 # tones per octave;
#X obj 170 100 cupqb;
#X obj 230 120 cupqb;
#X text 230 100 reference pitch;
#X msg 230 170 ref \$1;
#X msg 60 340 print foobar;
#X obj 290 150 cupqb;
#X text 290 130 change key;
#X text 110 370 print pointer size;
#X msg 80 400 ptr foobar;
#X msg 50 310 print;
#X msg 70 370 ptr;
#X msg 170 150 ot \$1;
#X text 160 340 optional label;
#X obj 110 80 cupqb;
#X msg 110 130 oct \$1;
#X text 110 60 # notes per octave;
#X obj 320 320 tgl 15 0 empty empty empty 17 7 0 10 #0e4345 #fcfcfc
#fcfcfc 0 1;
#X text 170 80 oct and tet.;
#X obj 50 490 s cmd;
#X obj 100 260 s cmd;
#X obj 420 220 s cmd;
#X text 480 190 scale[\$2] = \$1;
#X obj 320 460 s cmd;
#X text 90 310 print current scale;
#X floatatom 90 430 0 0 0 0 - - - 0;
#X text 340 260 ^ and v are non-unary + and -;
#X msg 320 340 strict \$1;
#X text 410 430 normal list (adheres to default);
#X text 390 370 lazy list (ignores default);
#X text 400 400 strict list (ignores default);
#X msg 340 400 #1 4 7;
#X msg 290 200 # \$1;
#X msg 290 230 # ^3;
#X msg 290 260 # v3;
#X msg 420 190 #\$2 \$1;
#X text 380 460 number that comes right after symbol;
#X text 380 480 indicates the offset value;
#X text 340 300 default list behavior;
#X text 340 320 strict means scale size doesn't change;
#N canvas 410 340 450 300 slices 0;
#X obj 50 230 outlet;
#X msg 150 200 slice \$1 \$2;
#X msg 50 200 slice \$1;
#X msg 50 70 1;
#X msg 70 130 -1;
#X msg 60 100 2;
#X msg 80 160 -2;
#X msg 150 70 3 0;
#X msg 160 100 0 3;
#X msg 170 130 1 -1;
#X msg 180 160 -1 1;
#X msg 260 200 slice \$1 \$2 \$3;
#X msg 260 130 list . . 2;
#X msg 270 160 list . . -2;
#X connect 1 0 0 0;
#X connect 2 0 0 0;
#X connect 3 0 2 0;
#X connect 4 0 2 0;
#X connect 5 0 2 0;
#X connect 6 0 2 0;
#X connect 7 0 1 0;
#X connect 8 0 1 0;
#X connect 9 0 1 0;
#X connect 10 0 1 0;
#X connect 11 0 0 0;
#X connect 12 0 11 0;
#X connect 13 0 11 0;
#X restore 110 490 pd slices;
#X text 120 440 sent throuth 2nd inlet;
#X msg 90 460 slice \$1;
#X msg 350 430 @1 4 7;
#X msg 330 370 !1 4 7;
#N canvas 410 340 450 300 send 0;
#X obj 150 200 outlet;
#X msg 150 170 send >\$1;
#X floatatom 150 140 0 0 0 0 - - - 0;
#X text 90 70 send a scale alteration through the;
#X text 90 90 2nd inlet without changing;
#X text 90 110 muse's internal scale;
#X connect 1 0 0 0;
#X connect 2 0 1 0;
#X restore 200 460 pd send;
#X connect 0 0 27 0;
#X connect 1 0 42 0;
#X connect 2 0 1 0;
#X connect 3 0 1 1;
#X connect 4 0 0 0;
#X connect 8 0 19 0;
#X connect 9 0 11 0;
#X connect 11 0 27 0;
#X connect 12 0 26 0;
#X connect 13 0 39 0;
#X connect 16 0 26 0;
#X connect 17 0 26 0;
#X connect 18 0 26 0;
#X connect 19 0 27 0;
#X connect 21 0 22 0;
#X connect 22 0 27 0;
#X connect 24 0 34 0;
#X connect 32 0 49 0;
#X connect 34 0 30 0;
#X connect 38 0 30 0;
#X connect 39 0 27 0;
#X connect 40 0 27 0;
#X connect 41 0 27 0;
#X connect 42 0 28 0;
#X connect 47 0 26 0;
#X connect 49 0 26 0;
#X connect 50 0 30 0;
#X connect 51 0 30 0;
#X connect 52 0 26 0;
#X restore 550 140 pd commands;
#X obj 260 230 cupqb;
#X floatatom 260 320 0 0 0 0 - - - 0;
#X obj 160 170 cupqb;
#X floatatom 60 270 0 0 0 0 - - - 0;
#X text 290 360 takes floats;
#X obj 80 370 phasor~;
#X obj 100 70 loadbang;
#X msg 100 100 160;
#X text 160 150 # steps;
#X floatatom 100 270 0 0 0 0 - - - 0;
#X text 230 150 peak;
#X obj 260 290 zp 1000;
#X obj 400 30 cnv 15 60 24 empty empty muse 4 12 0 18 #000000 #fcfcfc
0;
#X obj 230 170 cupqb 14;
#X obj 330 250 cupqb 33;
#X obj 380 250 cupqb 2;
#X obj 430 250 cupqb 4;
#X obj 480 250 cupqb 5;
#X obj 530 250 cupqb 7;
#X obj 580 250 cupqb 9;
#X obj 630 250 cupqb 11;
#X text 230 60 A number list that acts as a scale or arpeggio. The
first argument is the root note \, followed by the intervals that come
after. More creation arguments results in more inlets.;
#N canvas 580 410 450 320 accent 0;
#X obj 70 50 inlet;
#X obj 70 240 outlet~;
#X obj 70 160 1;
#X obj 70 110 sel 0 1 2 3;
#X floatatom 210 80 0 0 0 0 - - - 0;
#X floatatom 270 80 0 0 0 0 - - - 0;
#X obj 70 210 zp~ 1;
#X floatatom 120 210 0 0 0 0 - - - 0;
#X obj 210 110 / 100;
#X obj 270 110 / 100;
#X obj 70 80 mod 4;
#X floatatom 120 80 0 0 0 0 - - - 0;
#X obj 180 110 b, f 1;
#X floatatom 210 40 0 0 0 0 - - - 0;
#X obj 110 160 0.66;
#X obj 210 160 0.66;
#X obj 160 160 0.75;
#X connect 0 0 10 0;
#X connect 2 0 6 0;
#X connect 3 0 2 0;
#X connect 3 1 14 0;
#X connect 3 2 16 0;
#X connect 3 3 15 0;
#X connect 3 4 12 0;
#X connect 4 0 8 0;
#X connect 5 0 9 0;
#X connect 6 0 1 0;
#X connect 7 0 6 1;
#X connect 8 0 16 1;
#X connect 9 0 14 1;
#X connect 9 0 15 1;
#X connect 10 0 3 0;
#X connect 11 0 10 1;
#X connect 12 0 15 0;
#X connect 13 0 4 0;
#X connect 13 0 5 0;
#X connect 14 0 6 0;
#X connect 15 0 6 0;
#X connect 16 0 6 0;
#X restore 120 430 pd accent;
#X obj 160 300 t b f;
#X obj 120 460 hsl 128 15 0.001 1 1 0 empty empty empty -2 -8 0 10
#2f004d #fcfcfc #fcfcfc 0 1;
#X obj 350 490 r cmd;
#X floatatom 120 490 0 0 0 0 - - - 0;
#X obj 40 240 * 0.25;
#X obj 100 240 * 0.85;
#X obj 420 450 muse 40 2 4 5 7 9 11;
#N canvas 910 310 740 630 notation 0;
#X text 310 40 change the root+intervals respectively;
#X text 520 170 major scale;
#X text 520 230 change notes relative;
#X text 520 250 to their current value;
#X obj 140 110 s cmd;
#X obj 350 320 s cmd;
#X msg 370 140 foo bar 10;
#X text 550 200 major to minor;
#X msg 380 170 do 2 4 5 7 9 11;
#X msg 220 70 --;
#X msg 260 70 ++;
#X text 130 230 same shift for next two;
#X msg 50 140 . 4 7;
#X msg 230 330 . 4 7 11;
#X obj 50 410 s cmd;
#X text 300 70 do the same shift for all intervals that follow;
#X msg 120 440 print;
#X msg 70 200 . . +;
#X msg 60 170 . - .;
#X msg 90 260 . + .;
#X msg 100 290 . . -;
#X msg 390 200 do re 3 fa so 8 10;
#X text 460 140 unrecognized terms are skipped;
#X msg 220 130 ^12 --12;
#X text 310 360 inversion;
#X msg 230 390 <;
#X msg 270 390 >;
#X text 310 390 inversion with unaltered root;
#X obj 120 530 s cmd;
#X msg 270 360 >>;
#X msg 230 360 <<2;
#X msg 290 450 . 2 4 7;
#X msg 330 480 . >;
#X msg 290 480 . <;
#X text 350 420 last interval is excluded from the inversion;
#X text 370 480 root note is excluded from the inversion;
#X text 340 540 shift root by 3rd interval amount;
#X text 370 510 swap 2nd and 3rd intervals;
#X msg 230 420 # -1<;
#X msg 290 420 # -1>;
#X msg 290 510 #2 &3 &2;
#X msg 290 540 # +&3;
#X msg 290 570 #1 ++&-3;
#X msg 400 230 @2 + f s ++;
#X msg 410 260 @2 - f s --;
#X msg 420 290 @2 *1.5 f s *1.5 *1.5;
#X msg 430 320 @2 /1.5 f s /1.5 /1.5;
#X text 370 570 shift intervals by -3rd interval amount;
#X msg 210 40 40 16 21 23;
#X msg 80 230 . 2++;
#X msg 110 320 + --;
#X msg 270 100 ++12;
#X msg 220 100 --12;
#X connect 6 0 5 0;
#X connect 8 0 5 0;
#X connect 9 0 4 0;
#X connect 10 0 4 0;
#X connect 12 0 14 0;
#X connect 13 0 14 0;
#X connect 16 0 28 0;
#X connect 17 0 14 0;
#X connect 18 0 14 0;
#X connect 19 0 14 0;
#X connect 20 0 14 0;
#X connect 21 0 5 0;
#X connect 23 0 4 0;
#X connect 25 0 14 0;
#X connect 26 0 14 0;
#X connect 29 0 14 0;
#X connect 30 0 14 0;
#X connect 31 0 28 0;
#X connect 32 0 28 0;
#X connect 33 0 28 0;
#X connect 38 0 28 0;
#X connect 39 0 28 0;
#X connect 40 0 28 0;
#X connect 41 0 28 0;
#X connect 42 0 28 0;
#X connect 43 0 5 0;
#X connect 44 0 5 0;
#X connect 45 0 5 0;
#X connect 46 0 5 0;
#X connect 48 0 4 0;
#X connect 49 0 14 0;
#X connect 50 0 14 0;
#X connect 51 0 4 0;
#X connect 52 0 4 0;
#X restore 550 180 pd notation;
#X msg 610 310 #6 \$1;
#X msg 670 310 #7 \$1;
#X obj 260 360 +;
#X obj 330 380 pack;
#X floatatom 370 380 0 0 0 0 - - - 0;
#X msg 330 410 \$1+\$2;
#X obj 590 450 route float;
#X obj 630 480 print -n;
#X floatatom 110 210 0 0 0 0 - - - 0;
#X floatatom 40 190 0 0 0 0 - - - 0;
#X text 380 410 note + semitone;
#X connect 0 0 1 0;
#X connect 0 0 1 1;
#X connect 5 0 9 0;
#X connect 6 0 9 1;
#X connect 6 0 46 0;
#X connect 6 0 47 0;
#X connect 7 0 14 0;
#X connect 8 0 7 1;
#X connect 9 0 15 0;
#X connect 10 0 12 1;
#X connect 11 0 51 0;
#X connect 12 1 13 0;
#X connect 14 0 0 0;
#X connect 15 0 42 0;
#X connect 17 0 12 0;
#X connect 19 0 30 0;
#X connect 20 0 52 0;
#X connect 21 0 15 1;
#X connect 22 0 8 1;
#X connect 24 0 7 0;
#X connect 25 0 26 0;
#X connect 25 0 32 1;
#X connect 26 0 6 0;
#X connect 28 0 8 2;
#X connect 30 0 20 0;
#X connect 32 0 15 2;
#X connect 33 0 48 1;
#X connect 34 0 48 2;
#X connect 35 0 48 3;
#X connect 36 0 48 4;
#X connect 37 0 48 5;
#X connect 38 0 48 6;
#X connect 39 0 50 0;
#X connect 41 0 14 1;
#X connect 42 0 8 0;
#X connect 42 0 52 0;
#X connect 42 1 41 0;
#X connect 42 1 52 1;
#X connect 43 0 0 1;
#X connect 43 0 45 0;
#X connect 44 0 48 0;
#X connect 46 0 22 0;
#X connect 47 0 28 0;
#X connect 48 0 2 0;
#X connect 48 0 24 0;
#X connect 48 1 56 0;
#X connect 50 0 48 0;
#X connect 51 0 48 0;
#X connect 52 0 53 0;
#X connect 53 0 55 0;
#X connect 54 0 53 1;
#X connect 55 0 48 0;
#X connect 56 0 3 0;
#X connect 56 1 57 0;
#X connect 58 0 47 1;
#X connect 59 0 46 1;
