#N canvas 400 200 410 300 16;
#X obj 140 250 outlet;
#X obj 140 200 + 1;
#X obj 40 160 r \$1nbx;
#X obj 90 200 %;
#X obj 20 200 f;
#X obj 200 90 bng 24 250 50 0 empty empty repeat\ track 30 12 0 16 #ff8300 #ff0400 #7c7c7c;
#X obj 190 60 bng 24 250 50 0 empty empty repeat\ playlist 30 12 0 16 #ff8300 #ff0400 #7c7c7c;
#X obj 210 160 r \$1start;
#X msg 210 190 set \$1;
#X obj 180 30 bng 24 250 50 0 empty empty no-repeat\ playlist 30 12 0 16 #ff8300 #ff0400 #7c7c7c;
#N canvas 810 200 450 290 order 0;
#X obj 290 70 r \$1nbx;
#X obj 290 150 spigot;
#X obj 280 200 f;
#X obj 70 240 outlet mod;
#X obj 200 240 outlet add;
#X obj 280 30 inlet reptrk;
#X obj 150 30 inlet replst;
#X obj 30 30 inlet norep;
#X obj 70 200 +;
#X obj 80 100 r \$1n;
#X obj 80 130 t b f;
#X obj 290 100 t b f;
#X obj 80 160 spigot 1;
#X obj 170 100 f;
#X obj 210 100 !;
#X msg 140 70 1;
#X msg 30 70 1;
#X obj 30 100 f;
#X msg 80 70 0;
#X msg 220 150 1;
#X msg 180 70 0;
#X connect 0 0 11 0;
#X connect 1 0 2 0;
#X connect 2 0 4 0;
#X connect 5 0 2 0;
#X connect 5 0 19 0;
#X connect 5 0 20 0;
#X connect 6 0 15 0;
#X connect 6 0 18 0;
#X connect 7 0 15 0;
#X connect 7 0 16 0;
#X connect 8 0 3 0;
#X connect 9 0 10 0;
#X connect 10 0 12 0;
#X connect 10 1 8 1;
#X connect 11 0 1 0;
#X connect 11 1 2 1;
#X connect 12 0 8 0;
#X connect 13 0 14 0;
#X connect 13 0 12 1;
#X connect 14 0 1 1;
#X connect 15 0 13 0;
#X connect 15 0 4 0;
#X connect 16 0 17 0;
#X connect 17 0 8 0;
#X connect 18 0 17 0;
#X connect 19 0 3 0;
#X connect 20 0 13 0;
#X restore 120 160 pd order;
#X obj 210 120 tgl 24 0 \$1forever empty play\ forever 30 12 0 16 #0e4345 #fcfcfc #7c7c7c 0 1;
#X obj 20 130 r \$1done;
#X connect 1 0 0 0;
#X connect 2 0 4 1;
#X connect 3 0 1 0;
#X connect 4 0 3 0;
#X connect 5 0 10 2;
#X connect 6 0 10 1;
#X connect 7 0 8 0;
#X connect 8 0 0 0;
#X connect 9 0 10 0;
#X connect 10 0 3 1;
#X connect 10 1 1 1;
#X connect 12 0 4 0;
