#N canvas 400 200 430 260 16;
#X obj 50 20 hsl 338 24 0 1 0 0 empty \$1trackbar trackbar 140 12 0 16 #2f004d #ff8300 #fcfcfc 0 0;
#X obj 20 20 bng 24 250 50 0 empty empty empty 28 12 0 16 #ff8300 #ff0400 #7c7c7c;
#X msg 100 190 seek \$1;
#X obj 100 150 *;
#X obj 100 220 s \$1msg;
#X obj 160 120 s \$1reset;
#X obj 160 90 b;
#X obj 100 60 t a;
#X obj 140 150 r \$1time;
#X obj 190 190 s \$1seek;
#X connect 0 0 7 0;
#X connect 1 0 7 0;
#X connect 2 0 4 0;
#X connect 3 0 2 0;
#X connect 3 0 9 0;
#X connect 6 0 5 0;
#X connect 7 0 6 0;
#X connect 7 0 3 0;
#X connect 8 0 3 1;
#X coords 0 -1 1 1 370 24 2 20 20;
