#N canvas 400 200 420 400 16;
#X obj 130 20 cnv 15 154 27 empty empty paq\ &\ unpaq 0 12 0 24 #535512 #fcfcfc 0;
#X text 60 50 lazy pack/unpack objects with 'anything' inlets/outlets, f 29;
#X msg 90 110 b c;
#X listbox 50 350 0 0 0 0 - - - 0;
#X listbox 90 350 0 0 0 0 - - - 0;
#X obj 50 160 bng 24 250 50 0 empty empty empty 0 -12 0 16 #ff8300 #551312 #fcfcfc;
#X listbox 130 350 0 0 0 0 - - - 0;
#X text 130 110 inlets act as onsets;
#X msg 120 170 5;
#X obj 70 240 print;
#X obj 50 200 paq 1 2 3 4;
#X msg 110 140 . . d;
#X obj 50 280 unpaq a a s f;
#X listbox 170 350 0 0 0 0 - - - 0;
#X text 170 140 dot skips the arg;
#X msg 170 170 6;
#X obj 60 320 bng 24 250 50 0 empty empty empty 0 -12 0 16 #ff8300 #551312 #fcfcfc;
#X obj 100 320 bng 24 250 50 0 empty empty empty 0 -12 0 16 #ff8300 #551312 #fcfcfc;
#X obj 140 320 bng 24 250 50 0 empty empty empty 0 -12 0 16 #ff8300 #551312 #fcfcfc;
#X obj 180 320 bng 24 250 50 0 empty empty empty 0 -12 0 16 #ff8300 #551312 #fcfcfc;
#X text 210 220 unpaq allows type enforcement. mismatches are ignored silently, f 17;
#X connect 2 0 10 1;
#X connect 5 0 10 0;
#X connect 8 0 10 2;
#X connect 10 0 9 0;
#X connect 10 0 12 0;
#X connect 11 0 10 1;
#X connect 12 0 3 0;
#X connect 12 0 16 0;
#X connect 12 1 4 0;
#X connect 12 1 17 0;
#X connect 12 2 6 0;
#X connect 12 2 18 0;
#X connect 12 3 13 0;
#X connect 12 3 19 0;
#X connect 15 0 10 3;
