#N canvas 400 200 360 150 16;
#N canvas 760 200 440 220 resampling 0;
#X obj 50 70 cupqb 2;
#X text 110 20 0 = Sinc (Best Quality);
#X text 110 40 1 = Sinc (Medium Quality);
#X text 110 60 2 = Sinc (Fastest) (default);
#X text 110 80 3 = Zero-order hold;
#X text 110 100 4 = Linear;
#X text 140 130 Interpolation method;
#X obj 50 170 s \$1msg;
#X msg 50 130 conv \$1;
#X connect 0 0 8 0;
#X connect 8 0 7 0;
#X restore 110 80 pd resampling;
#N canvas 760 200 430 210 pausing 0;
#X msg 90 50 play 0;
#X msg 80 20 play;
#X text 160 50 force pause;
#X text 130 20 toggle play/pause;
#X obj 80 110 s \$1msg;
#X msg 100 80 play 1;
#X text 170 80 force play;
#X text 20 150 Player will send the message "play 1/0" to confirm the current play state., f 39;
#X obj 50 20 bng 24 250 50 0 empty empty empty 0 -12 0 16 #ff8300 #ff0400 #7c7c7c;
#X connect 0 0 4 0;
#X connect 1 0 4 0;
#X connect 5 0 4 0;
#X connect 8 0 4 0;
#X restore 110 50 pd pausing;
#N canvas 760 200 460 340 playback 0;
#X msg 30 40 open \$1;
#X msg 30 290 stop;
#X msg 30 140 list \$1 \$2;
#X text 150 130 \$1: the track to load;
#X text 150 150 \$2: initial seek;
#X text 30 170 Tracks are 1-indexed \, with zero stopping playback and rewinding the current track. 2nd arg is optional., f 41;
#X text 90 290 Equivalent to;
#X text 120 30 Open a file or playlist and load 1st track., f 23;
#X text 30 70 Player will send the message "open 1/0" to indicate whether it was successful., f 39;
#X text 30 230 Player will send the message "play 1/0" to indicate whether it was successful., f 39;
#X msg 240 290 0;
#X restore 110 20 pd playback;
#N canvas 760 200 520 490 metadata 0;
#X obj 30 180 s \$1msg;
#X msg 30 140 foobar;
#X msg 110 140 get foobar;
#X text 110 180 A miss returns an empty list;
#X text 20 230 Printing;
#X text 20 70 Sending;
#X text 20 20 Metadata can be printed to console or sent from the message outlet., f 34;
#X text 20 90 Use `get \$1` to request metadata. Unrecognized messages also call `get`., f 38;
#X obj 30 440 s \$1msg;
#X obj 30 380 radix 10 6 0 3 _ _ 0 0 _ _ _ 0;
#X msg 30 410 print %!\$1:05% |%!foobar:\\\ ^\$1%| %!y:o<8%;
#X text 20 250 Use `print %key%`. Optionally \, align text left (<) \, center (^) \, or right (>) with syntax %key:[fill][align][width]%. Align character can be skipped \, default is right-aligned. Exclamation point at beginning skips metadata search and just formats the string., f 47;
#X connect 1 0 0 0;
#X connect 2 0 0 0;
#X connect 9 0 10 0;
#X connect 10 0 8 0;
#X restore 110 110 pd metadata;
