#N canvas 400 200 530 320 16;
#X obj 40 160 tgl 15 0 empty empty empty 17 7 0 10 #0e4345 #fcfcfc #fcfcfc 0 1;
#X obj 40 180 metro 200;
#X obj 50 210 bng 15 250 50 0 empty empty empty 17 7 0 10 #ff8300 #ff0400 #fcfcfc;
#X obj 160 210 bng 15 250 50 0 empty empty empty 17 7 0 10 #ff8300 #ff0400 #fcfcfc;
#X obj 180 230 rind 3.2 6.7;
#X floatatom 180 260 0 0 0 0 - - - 0;
#X obj 240 110 rind 1 0;
#X text 150 110 default:;
#X obj 40 240 rind 4;
#X floatatom 40 270 0 0 0 0 - - - 0;
#X msg 180 150 print;
#X msg 240 150 state;
#X obj 220 30 cnv 15 56 27 empty empty rind 0 12 0 24 #7c7c7c #fcfcfc 0;
#X text 320 200 2 args create boundaries (number between 3.2 and 6.7), f 18;
#X obj 240 200 radix 10 6 0 3 _ _ 0 0 _ _ max 2;
#X obj 280 200 radix 10 6 0 3 _ _ 0 0 _ _ min 2;
#X obj 90 210 radix 10 6 0 3 _ _ 0 0 _ _ _ 0;
#X text 60 60 Float random number generator. Seed is initialized with Zig's io.random()., f 38;
#X connect 0 0 1 0;
#X connect 1 0 8 0;
#X connect 2 0 8 0;
#X connect 3 0 4 0;
#X connect 4 0 5 0;
#X connect 8 0 9 0;
#X connect 10 0 4 0;
#X connect 11 0 4 0;
#X connect 14 0 4 1;
#X connect 15 0 4 2;
#X connect 16 0 8 1;
