#N canvas 400 200 360 180 16;
#N canvas 760 200 500 450 methods 0;
#X msg 30 150 transients \$1;
#X obj 30 120 symbol;
#X msg 30 20 crisp;
#X msg 40 50 mixed;
#X msg 50 80 smooth;
#X obj 190 120 symbol;
#X msg 190 20 compound;
#X msg 200 50 percussive;
#X msg 210 80 soft;
#X msg 190 150 detector \$1;
#X obj 350 120 symbol;
#X msg 350 150 phase \$1;
#X msg 350 20 laminar;
#X msg 360 50 independent;
#X obj 30 340 symbol;
#X obj 190 340 symbol;
#X msg 30 240 shifted;
#X msg 40 270 preserved;
#X msg 30 370 formant \$1;
#X msg 190 240 speed;
#X msg 200 270 quality;
#X msg 210 300 consistency;
#X msg 190 370 pitch \$1;
#X text 90 300 bad value;
#X msg 50 300 foo;
#X floatatom 350 340 0 0 0 2 formant\ scale - - 0;
#X msg 350 370 fscale \$1;
#X obj 30 190 s \$1msg;
#X obj 30 410 s \$1msg;
#X connect 0 0 27 0;
#X connect 1 0 0 0;
#X connect 2 0 1 0;
#X connect 3 0 1 0;
#X connect 4 0 1 0;
#X connect 5 0 9 0;
#X connect 6 0 5 0;
#X connect 7 0 5 0;
#X connect 8 0 5 0;
#X connect 9 0 27 0;
#X connect 10 0 11 0;
#X connect 11 0 27 0;
#X connect 12 0 10 0;
#X connect 13 0 10 0;
#X connect 14 0 18 0;
#X connect 15 0 22 0;
#X connect 16 0 14 0;
#X connect 17 0 14 0;
#X connect 18 0 28 0;
#X connect 19 0 15 0;
#X connect 20 0 15 0;
#X connect 21 0 15 0;
#X connect 22 0 28 0;
#X connect 24 0 14 0;
#X connect 25 0 26 0;
#X connect 26 0 28 0;
#X restore 90 30 pd methods;
#N canvas 760 200 420 380 creation-args 0;
#X text 80 10 first value is the default;
#X text 20 40 process=[realtime \, offline];
#X text 20 70 transients=[crisp \, mixed \, smooth];
#X text 20 100 detector=[compound \, percussive \, soft];
#X text 20 130 phase=[laminar \, independent];
#X text 20 160 threading=[auto \, never \, always];
#X text 20 190 window=[standard \, short \, long];
#X text 20 220 smoothing=[off \, on];
#X text 20 250 formant=[shifted \, preserved];
#X text 20 280 pitch=[speed \, quality \, consistency];
#X text 20 310 channels=[apart \, together];
#X text 20 340 engine=[finer \, faster];
#X restore 90 90 pd creation-args;
#N canvas 840 200 360 280 speed-&-tempo 0;
#X obj 30 140 *;
#X obj 170 140 *;
#X obj 210 140 r \$0st;
#X obj 70 140 r \$0st;
#N canvas 760 200 360 200 semitone 0;
#X obj 70 30 loadbang;
#X obj 140 90 expr ln(2) / 12;
#X obj 140 120 s \$0st;
#X obj 70 120 outlet;
#X obj 70 60 t;
#X connect 0 0 4 0;
#X connect 1 0 2 0;
#X connect 4 0 3 0;
#X connect 4 1 1 0;
#X restore 120 70 pd semitone;
#X obj 30 170 exp;
#X obj 170 170 exp;
#X obj 60 70 * -1;
#N canvas 760 200 360 190 scale 0;
#X obj 110 20 inlet;
#X obj 180 20 inlet;
#X obj 130 70 #*;
#X obj 130 110 @/ 1;
#X obj 130 140 s \$1tscale;
#X obj 180 110 s \$1pow;
#X connect 0 0 2 0;
#X connect 1 0 2 1;
#X connect 2 0 3 0;
#X connect 2 0 5 0;
#X connect 3 0 4 0;
#X restore 70 200 pd scale;
#N canvas 760 200 360 320 swing 0;
#X obj 220 220 #/;
#X floatatom 30 150 5 0 0 3 rate - - 0;
#X floatatom 90 150 5 0 0 3 depth - - 0;
#X floatatom 150 150 5 0 0 3 phase - - 0;
#X obj 260 120 loadbang;
#X obj 30 280 outlet~;
#X obj 220 250 s \$1ratio;
#N canvas 760 200 360 260 vib~ 0;
#X obj 50 180 +~ 1;
#X obj 50 20 inlet~ rate;
#X obj 80 80 inlet~ depth;
#X obj 50 110 *~;
#X obj 50 210 outlet~;
#X obj 130 50 inlet phase;
#X obj 140 180 inlet offset;
#X obj 50 150 +~;
#X msg 100 150 0.111111;
#X obj 150 110 bng 24 250 50 0 empty empty 9to24 30 12 0 16 #ff8300 #551312 #7c7c7c;
#N canvas 760 200 360 150 set 0;
#X msg 30 60 1 0.5 0.5 0.5 0.5 0.5 0.5 1 1;
#X obj 30 90 array set \$0arr;
#X obj 30 30 inlet;
#X connect 0 0 1 0;
#X connect 2 0 0 0;
#X restore 200 150 pd set;
#N canvas 760 200 360 300 tab 0;
#X obj 30 270 array set \$0arr;
#X obj 70 130 cos~;
#X obj 130 210 array define \$0arr 9;
#X obj 30 210 loadbang;
#X obj 70 10 inlet~ rate;
#X obj 160 40 inlet phase;
#X obj 70 160 outlet~;
#X obj 70 100 tabread2~ \$0arr 0.75;
#X obj 70 40 phasor~;
#X obj 70 70 *~ 8;
#X obj 160 70 -;
#X obj 200 70 `/ 1 16 !;
#X msg 30 240 1 1 0.5 0.5 0.5 0.5 1 1 1;
#X connect 1 0 6 0;
#X connect 3 0 12 0;
#X connect 4 0 8 0;
#X connect 5 0 10 0;
#X connect 7 0 1 0;
#X connect 8 0 9 0;
#X connect 9 0 7 0;
#X connect 10 0 8 1;
#X connect 11 0 10 1;
#X connect 12 0 0 0;
#X restore 50 50 pd tab;
#X msg 100 110 0;
#X connect 0 0 4 0;
#X connect 1 0 11 0;
#X connect 2 0 3 1;
#X connect 3 0 7 0;
#X connect 5 0 11 1;
#X connect 6 0 0 1;
#X connect 7 0 0 0;
#X connect 8 0 7 1;
#X connect 9 0 8 0;
#X connect 9 0 10 0;
#X connect 11 0 3 0;
#X connect 12 0 7 1;
#X restore 30 250 pd vib~;
#X msg 40 50 0.5;
#X obj 180 110 / 12;
#X obj 120 220 inlet;
#X obj 120 250 r \$1sync;
#X msg 120 280 0;
#X obj 170 280 r \$1stop;
#X obj 30 20 bpm-finder \$1;
#X obj 130 80 del;
#X obj 80 50 s~ \$1met;
#X msg 40 80 0.3385;
#X msg 40 110 0.222222;
#X obj 180 80 radix 10 6 0 3 _ _ 0 0 _ _ _ 0;
#X obj 220 80 radix 10 6 0 3 _ _ 0 0 _ _ _ 0;
#X obj 220 190 radix 10 6 0 3 _ _ 0 0 _ _ _ 0;
#X obj 260 190 radix 10 6 0 3 _ _ 0 0 _ _ _ 0;
#X msg 260 149 1;
#X connect 0 0 6 0;
#X connect 1 0 7 0;
#X connect 2 0 7 1;
#X connect 3 0 7 2;
#X connect 4 0 23 0;
#X connect 7 0 5 0;
#X connect 8 0 2 0;
#X connect 9 0 3 0;
#X connect 10 0 7 3;
#X connect 11 0 12 0;
#X connect 12 0 7 1;
#X connect 13 0 12 0;
#X connect 14 0 1 0;
#X connect 14 1 16 0;
#X connect 14 2 15 0;
#X connect 15 0 2 0;
#X connect 15 0 3 0;
#X connect 17 0 2 0;
#X connect 18 0 2 0;
#X connect 19 0 9 0;
#X connect 20 0 9 1;
#X connect 21 0 0 0;
#X connect 22 0 0 1;
#X connect 23 0 22 0;
#X connect 23 0 21 0;
#X restore 170 200 pd swing;
#X obj 30 230 s~ \$1speed;
#X obj 170 230 s~ \$1tempo;
#X text 100 20 speed = playback rate;
#X obj 30 40 radix 12 6 0 3 _ _ 0 0 _ _ pitch 2;
#X obj 30 110 radix 12 6 0 3 _ _ 0 0 _ _ _ 0;
#X obj 170 110 radix 12 6 0 3 _ _ 0 0 _ _ _ 0;
#X text 100 40 tempo = time stretching;
#X connect 0 0 5 0;
#X connect 1 0 6 0;
#X connect 2 0 1 1;
#X connect 3 0 0 1;
#X connect 4 0 14 0;
#X connect 4 0 15 0;
#X connect 5 0 8 0;
#X connect 5 0 10 0;
#X connect 6 0 8 1;
#X connect 6 0 9 0;
#X connect 7 0 15 0;
#X connect 9 0 11 0;
#X connect 13 0 7 0;
#X connect 13 0 14 0;
#X connect 14 0 0 0;
#X connect 15 0 1 0;
#X restore 90 120 pd speed-&-tempo;
#N canvas 760 200 410 210 startpad 0;
#X msg 160 140 delay;
#X obj 160 170 s \$1msg;
#X obj 160 110 loadbang;
#X text 40 10 Returns the number of samples that should be ignored at the beginning. Use this to sync up with rubberband's start pad., f 35;
#X connect 0 0 1 0;
#X connect 2 0 0 0;
#X restore 90 60 pd startpad;
