#N canvas 400 200 610 480 16;
#X declare -lib blunt;
#X floatatom 40 140 0 0 0 2 current - - 0;
#X obj 40 220 sly 25;
#X floatatom 40 250 0 0 0 0 - - - 0;
#X obj 40 400 sly 5 50;
#X floatatom 40 430 0 0 0 0 - - - 0;
#X msg 260 160 0;
#X msg 300 160 1;
#X msg 340 160 2;
#X obj 300 190 sly 3 6 2;
#X obj 300 250 slx 3 6 2;
#X floatatom 300 280 0 0 0 0 - - - 0;
#X obj 280 90 sly 0 1 1;
#X text 190 60 Non-gui slider objects;
#X text 190 90 default:;
#X text 110 220 1 arg sets max;
#X text 130 390 2 args set min and max, f 11;
#X text 430 140 3 args set:;
#X text 430 160 min \, max \, run;
#X text 400 190 sly solves for y;
#X text 400 210 y = mx + b;
#X text 400 250 slx solves for x;
#X text 400 270 x = (y-b) / m;
#X obj 250 30 cnv 15 70 27 empty empty slope 0 12 0 24 #7c7c7c #fcfcfc 0;
#X text 40 290 set multiple args;
#X text 40 310 non-numbers are skipped;
#X obj 40 170 / 100;
#X msg 40 340 . . 123;
#N canvas 1010 200 360 280 scaling 0;
#X obj 110 130 sly -1 1 100;
#X floatatom 190 170 0 0 0 0 2^ - - 0;
#X obj 110 170 exp2;
#X obj 110 200 hsl 101 24 0.5 2 1 0 empty empty log 36 12 0 16 #2f004d #fcfcfc #fcfcfc 0 1;
#X text 40 20 Implement different scaling methods by reinterpreting the linear value., f 27;
#X floatatom 110 230 0 0 0 0 - - - 0;
#X obj 110 100 radix 10 6 0 3 0 100 0 0 _ _ _ 0;
#X connect 0 0 1 0;
#X connect 0 0 2 0;
#X connect 2 0 3 0;
#X connect 3 0 5 0;
#X connect 6 0 0 0;
#X restore 380 370 pd scaling;
#N canvas 1010 200 360 90 lib 0;
#X obj 90 30 declare -lib blunt;
#X restore 30 30 pd lib;
#X obj 110 170 radix 10 6 0 3 _ _ 0 0 _ _ min 2;
#X obj 150 170 radix 10 6 0 3 _ _ 0 0 _ _ max 2;
#X obj 190 170 radix 10 6 0 3 _ _ 0 0 _ _ run 2;
#X obj 50 370 radix 10 6 0 3 _ _ 0 0 _ _ _ 0;
#X obj 300 220 radix 10 6 0 3 _ _ 0 0 _ _ _ 0;
#X obj 380 160 radix 10 6 0 3 _ _ 0 0 _ _ _ 0;
#X connect 0 0 25 0;
#X connect 1 0 2 0;
#X connect 3 0 4 0;
#X connect 5 0 8 0;
#X connect 6 0 8 0;
#X connect 7 0 8 0;
#X connect 8 0 33 0;
#X connect 9 0 10 0;
#X connect 25 0 1 0;
#X connect 26 0 3 0;
#X connect 29 0 1 1;
#X connect 30 0 1 2;
#X connect 31 0 1 3;
#X connect 32 0 3 0;
#X connect 33 0 9 0;
#X connect 34 0 8 0;
