#N canvas 800 200 620 320 16;
#X floatatom 30 110 0 0 0 0 - - - 0;
#X obj 30 140 osc~ 0.1;
#X obj 30 170 *~ 0.5;
#X obj 30 200 +~ 0.5;
#X obj 180 50 t f f;
#X obj 120 50 sel 1;
#X msg 90 110 0.5;
#X msg 140 110 0, f 2;
#X obj 180 200 metro 40;
#X floatatom 270 200 0 0 0 0 - - - 0;
#X floatatom 100 170 0 0 0 0 - - - 0;
#X floatatom 100 200 0 0 0 0 - - - 0;
#X obj 270 70 cupqb 1;
#X obj 270 130 exp2;
#N canvas 0 50 450 250 (subpatch) 0;
#X array \$1wave 3 float 2;
#A color 1.65798e+07;
#A width 2;
#X coords 0 1.0833 3 -1.0833 200 100 1 0 0;
#X restore 360 40 graph;
#N canvas 0 50 450 250 (subpatch) 0;
#X array \$1view 480 float 2;
#A color 1.65798e+07;
#A width 2;
#X coords 0 1.0833 480 -1.0833 240 130 1 0 0;
#X restore 360 170 graph;
#N canvas 1020 200 360 200 view-size 0;
#X obj 80 20 loadbang;
#X obj 80 50 samplerate~;
#X obj 80 80 / 100;
#X msg 80 140 \; \$2view resize \$1;
#X obj 80 110 pack 0 \$1;
#X connect 0 0 1 0;
#X connect 1 0 2 0;
#X connect 2 0 4 0;
#X connect 4 0 3 0;
#X restore 220 240 pd view-size;
#N canvas 1020 200 360 220 cosinesum 0;
#X obj 50 20 inlet;
#X obj 50 50 t f f;
#X obj 80 80 + 1;
#X msg 50 140 \; \$3wave cosinesum \$1 0 1 \; \$3wave resize \$2;
#X obj 50 110 pack f f \$1;
#X obj 110 50 s \$1len;
#X connect 0 0 1 0;
#X connect 1 0 4 0;
#X connect 1 1 2 0;
#X connect 1 1 5 0;
#X connect 2 0 4 1;
#X connect 4 0 3 0;
#X restore 220 170 pd cosinesum;
#X obj 200 110 b;
#X obj 250 20 loadbang;
#X obj 30 240 s~ \$1hold;
#X obj 180 20 inlet;
#X obj 110 270 inlet~;
#X obj 180 270 tabwrite~ \$1view;
#N canvas 800 200 360 280 set 0;
#X obj 80 240 array define \$0hi 9;
#X obj 80 210 array set \$0hi;
#X msg 80 180 0 1 0 1 0 1 0 1 0;
#X obj 80 150 loadbang;
#X obj 80 20 bng 24 250 50 0 empty empty empty 0 -12 0 16 #ff8300 #551312 #7c7c7c;
#X msg 80 80 set \$1hi;
#X obj 80 50 \$0;
#X obj 180 20 bng 24 250 50 0 empty empty empty 0 -12 0 16 #ff8300 #551312 #7c7c7c;
#X msg 180 80 set \$1wave;
#X obj 180 50 \$1;
#X obj 80 120 s \$1msg;
#X connect 2 0 1 0;
#X connect 3 0 2 0;
#X connect 4 0 6 0;
#X connect 5 0 10 0;
#X connect 6 0 5 0;
#X connect 7 0 9 0;
#X connect 8 0 10 0;
#X connect 9 0 8 0;
#X restore 30 50 pd set;
#X obj 140 140 s \$1phase;
#X connect 0 0 1 0;
#X connect 1 0 2 0;
#X connect 2 0 3 0;
#X connect 3 0 20 0;
#X connect 4 0 8 0;
#X connect 4 1 5 0;
#X connect 5 0 6 0;
#X connect 5 0 7 0;
#X connect 6 0 1 1;
#X connect 7 0 25 0;
#X connect 8 0 23 0;
#X connect 9 0 8 1;
#X connect 10 0 2 1;
#X connect 11 0 3 1;
#X connect 12 0 13 0;
#X connect 12 0 18 0;
#X connect 13 0 17 0;
#X connect 18 0 7 0;
#X connect 18 0 8 0;
#X connect 19 0 12 1;
#X connect 21 0 4 0;
#X connect 22 0 23 0;
