#N canvas 400 200 730 540 16;
#X declare -lib blunt;
#X msg 40 320 100;
#X floatatom 40 350 0 0 0 0 - - - 0;
#X obj 40 380 tabosc2~ \$0wave 0.9;
#X floatatom 110 260 0 0 0 0 - - - 0;
#X obj 110 290 osc~ 0.1;
#X obj 110 320 *~ 0.5;
#X obj 110 350 +~ 0.5;
#X obj 260 130 tgl 15 0 empty empty empty 17 7 0 10 #0e4345 #fcfcfc #fcfcfc 0 1;
#X obj 260 150 t f f;
#X obj 210 200 sel 1;
#X msg 170 260 0.5;
#X msg 220 290 0;
#X obj 260 350 metro 40;
#X floatatom 350 350 0 0 0 0 - - - 0;
#X obj 260 420 tabwrite~ \$0view;
#X floatatom 180 320 0 0 0 0 - - - 0;
#X floatatom 180 350 0 0 0 0 - - - 0;
#X obj 320 150 cupqb 1;
#X obj 270 240 @pow 2;
#X obj 280 270 pack 0 \$0;
#X msg 280 300 \; \$2wave cosinesum \$1 0 1;
#N canvas 0 50 450 250 (subpatch) 0;
#X array \$0wave 5 float 2;
#X coords 0 1.0833 5 -1.0833 300 140 1 0 0;
#X restore 380 60 graph;
#N canvas 0 50 450 250 (subpatch) 0;
#X array \$0view 480 float 2;
#X coords 0 1.0833 480 -1.0833 240 130 1 0 0;
#X restore 430 370 graph;
#N canvas 1070 270 450 300 view-size 0;
#X obj 170 80 loadbang;
#X obj 170 110 samplerate~;
#X obj 170 140 / 100;
#X obj 170 170 pack 0 \$0;
#X msg 170 200 \; \$2view resize \$1;
#X connect 0 0 1 0;
#X connect 1 0 2 0;
#X connect 2 0 3 0;
#X connect 3 0 4 0;
#X restore 540 300 pd view-size;
#X obj 40 430 *~;
#X obj 100 430 hsl 128 20 0.001 1 1 0 empty empty empty -2 -8 0 10 #2f004d #fcfcfc #fcfcfc 0 1;
#X floatatom 100 460 0 0 0 0 - - - 0;
#X obj 40 460 dac~;
#X text 150 70 linear interpolating table oscillator, f 20;
#X text 30 120 1st inlet: frequency;
#X text 30 140 2nd inlet: threshold;
#X text 30 160 3rd inlet: phase index;
#X obj 30 80 cnv 15 112 27 empty empty tabosc2~ 0 12 0 24 #535512 #fcfcfc 0;
#X obj 340 210 loadbang;
#X msg 340 240 2;
#N canvas 400 200 450 300 lib 0;
#X obj 140 120 declare -lib blunt;
#X restore 30 30 pd lib;
#X floatatom 470 220 0 0 0 0 - - - 0;
#X obj 470 250 array size \$0wave;
#X connect 0 0 1 0;
#X connect 1 0 2 0;
#X connect 2 0 14 0;
#X connect 2 0 24 0;
#X connect 3 0 4 0;
#X connect 4 0 5 0;
#X connect 5 0 6 0;
#X connect 6 0 2 1;
#X connect 7 0 8 0;
#X connect 8 0 12 0;
#X connect 8 1 9 0;
#X connect 9 0 10 0;
#X connect 9 0 11 0;
#X connect 10 0 4 1;
#X connect 11 0 2 2;
#X connect 12 0 14 0;
#X connect 13 0 12 1;
#X connect 15 0 5 1;
#X connect 16 0 6 1;
#X connect 17 0 18 0;
#X connect 18 0 19 0;
#X connect 18 0 12 0;
#X connect 18 0 11 0;
#X connect 19 0 20 0;
#X connect 24 0 27 0;
#X connect 24 0 27 1;
#X connect 25 0 24 1;
#X connect 25 0 26 0;
#X connect 33 0 34 0;
#X connect 34 0 19 0;
#X connect 36 0 37 0;
