#N canvas 400 200 530 450 16;
#X obj 90 230 ntof 432 13;
#X obj 170 290 fton 432 13;
#X floatatom 170 320 0 0 0 0 - - - 0;
#X obj 90 290 phasor~;
#X obj 90 350 *~;
#X obj 90 380 dac~;
#X floatatom 210 140 0 0 0 0 - - - 0;
#X floatatom 270 190 0 0 0 0 - - - 0;
#X obj 50 160 cupqb 69;
#X msg 350 290 ref \$1;
#X msg 350 320 tet \$1;
#X text 250 130 reference pitch. default: 440, f 16;
#X text 310 180 # of tones. default: 12, f 11;
#X text 350 270 messages;
#X text 50 60 similar to [mtof] and [ftom] with the added ability to change the reference pitch and the number of tones in an octave., f 43;
#X obj 190 30 cnv 15 154 27 empty empty ntof\ &\ fton 0 12 0 24 #535512 #fcfcfc 0;
#X obj 50 130 loadbang;
#X floatatom 170 260 0 0 0 0 - - - 0;
#X obj 150 350 hsl 81 24 -80 0 0 0 empty empty volume 10 12 0 16 #2f004d #ff8300 #fcfcfc 0 1;
#X obj 150 380 dB~;
#X floatatom 200 380 0 0 0 0 - - - 0;
#X connect 0 0 3 0;
#X connect 0 0 17 0;
#X connect 1 0 2 0;
#X connect 3 0 4 0;
#X connect 4 0 5 0;
#X connect 4 0 5 1;
#X connect 6 0 0 1;
#X connect 6 0 1 1;
#X connect 7 0 0 2;
#X connect 7 0 1 2;
#X connect 8 0 0 0;
#X connect 16 0 8 1;
#X connect 17 0 1 0;
#X connect 18 0 19 0;
#X connect 19 0 4 1;
#X connect 19 1 20 0;
