#N canvas 400 200 540 400 16;
#X obj 90 230 ntof 432 13;
#X floatatom 170 260 0 0 0 0 - - - 0;
#X obj 170 290 fton 432 13;
#X floatatom 170 320 0 0 0 0 - - - 0;
#X obj 90 290 phasor~;
#X obj 90 320 *~;
#X obj 80 350 dac~;
#X msg 140 130 440 12;
#X floatatom 150 170 0 0 0 0 - - - 0;
#X floatatom 220 230 0 0 0 0 - - - 0;
#X obj 50 160 cupqb 69;
#X msg 410 170 ref \$1;
#X msg 410 200 tet \$1;
#X text 190 160 reference pitch. default: 440, f 16;
#X text 260 220 # of tones. default: 12, f 11;
#X text 410 150 messages;
#X text 50 60 similar to [mtof] and [ftom] with the added ability to change the reference pitch and the number of tones in an octave., f 43;
#X obj 190 30 cnv 15 154 27 empty empty ntof\ &\ fton 0 12 0 24 #535512 #fcfcfc 0;
#X obj 50 130 loadbang;
#X obj 140 350 hsl 128 24 0.001 1 1 0 empty empty empty -2 -12 0 16 #2f004d #fcfcfc #fcfcfc 0 1;
#X connect 0 0 1 0;
#X connect 0 0 4 0;
#X connect 1 0 2 0;
#X connect 2 0 3 0;
#X connect 4 0 5 0;
#X connect 5 0 6 0;
#X connect 5 0 6 1;
#X connect 7 0 0 0;
#X connect 8 0 0 1;
#X connect 9 0 0 2;
#X connect 10 0 0 0;
#X connect 18 0 10 1;
#X connect 19 0 5 1;
