#N canvas 400 200 450 360 16;
#X obj 180 30 cnv 15 60 24 empty empty vib~ 4 12 0 18 #000000 #fcfcfc
0;
#X floatatom 40 110 0 0 0 2 rate - - 12;
#X obj 40 200 *~ 440;
#X obj 40 230 phasor~;
#X obj 40 260 *~;
#X obj 100 260 hsl 128 20 0.001 1 1 0 empty empty empty -2 -8 0 10
#2f004d #fcfcfc #fcfcfc 0 1;
#X obj 40 290 dac~;
#X floatatom 160 290 0 0 0 0 - - - 0;
#N canvas 970 490 450 300 vol 0;
#X obj 160 190 zp~ 15;
#X msg 160 120 0;
#X obj 160 60 inlet;
#X obj 160 220 outlet~;
#X obj 230 190 outlet;
#X obj 160 150 f;
#X obj 160 90 moses 0.00101;
#X connect 0 0 3 0;
#X connect 1 0 5 0;
#X connect 2 0 6 0;
#X connect 5 0 0 0;
#X connect 5 0 4 0;
#X connect 6 0 1 0;
#X connect 6 1 5 0;
#X restore 100 290 pd vol;
#X floatatom 110 200 0 0 0 0 - - - 0;
#X floatatom 90 110 0 0 0 2 depth - - 12;
#X msg 150 140 0;
#X text 150 120 reset phase;
#X obj 90 140 / 100;
#X obj 40 140 / 10;
#X obj 40 170 vib~ 6 0.01;
#X text 40 60 multiply with pitch to create vibrato effect;
#X connect 1 0 14 0;
#X connect 2 0 3 0;
#X connect 3 0 4 0;
#X connect 4 0 6 0;
#X connect 4 0 6 1;
#X connect 5 0 8 0;
#X connect 8 0 4 1;
#X connect 8 1 7 0;
#X connect 9 0 2 1;
#X connect 10 0 13 0;
#X connect 11 0 15 2;
#X connect 13 0 15 1;
#X connect 14 0 15 0;
#X connect 15 0 2 0;
