#N canvas 553 506 451 287 10;
#X obj 45 173 bng 15 250 50 0 empty empty empty 17 7 0 10 -262144 -1
-1;
#X floatatom 45 225 5 0 0 0 - - -;
#X floatatom 107 174 5 0 0 0 - - -;
#X floatatom 68 174 5 0 0 0 - - -;
#X floatatom 91 225 5 0 0 0 - - -;
#X obj 234 170 bng 15 250 50 0 empty empty empty 17 7 0 10 -262144
-1 -1;
#X floatatom 234 225 5 0 0 0 - - -;
#X floatatom 303 225 5 0 0 0 - - -;
#X text 208 28 GRAND;
#X obj 354 71 graid;
#X text 73 48 random number generator that uses graid logic;
#X text 139 73 default:;
#X text 128 224 raw int;
#X obj 234 197 grand 3 6 10;
#X text 75 158 min;
#X text 114 158 max;
#X obj 199 72 grand 0 1 1000;
#X obj 45 197 grand 3;
#X text 101 196 1 arg sets max;
#X floatatom 303 142 5 0 0 0 - - -;
#X text 296 126 scale;
#X text 257 169 10 steps between 3 and 6;
#X connect 0 0 17 0;
#X connect 2 0 17 2;
#X connect 3 0 17 1;
#X connect 5 0 13 0;
#X connect 13 0 6 0;
#X connect 13 1 7 0;
#X connect 17 0 1 0;
#X connect 17 1 4 0;
#X connect 19 0 13 3;
#X coords 0 287 1 286 85 60 0;
