#N canvas 400 200 1130 530 16;
#X obj 410 30 array define \$0main 7;
#X obj 80 250 arp \$0main;
#X obj 80 310 mtof;
#X obj 80 370 phasor~;
#X obj 80 400 *~;
#X obj 50 200 vsl 24 204 0.001 1 1 0 empty \$0master empty 0 -9 0 16 #000000 #fcfcfc #fcfcfc 0 1;
#X obj 470 470 dac~;
#X obj 480 440 +~;
#X obj 230 250 arp \$0main;
#X obj 230 280 mtof;
#X obj 230 350 phasor~;
#X obj 230 380 *~;
#X obj 200 200 vsl 24 204 0.001 1 1 0 empty \$0master empty 0 -9 0 16 #000000 #fcfcfc #fcfcfc 0 1;
#X obj 380 250 arp \$0main;
#X obj 380 280 mtof;
#X obj 380 350 phasor~;
#X obj 380 380 *~;
#X obj 350 200 vsl 24 204 0.001 1 1 0 empty \$0master empty 0 -9 0 16 #000000 #fcfcfc #fcfcfc 0 1;
#X obj 530 250 arp \$0main;
#X obj 530 280 mtof;
#X obj 530 350 phasor~;
#X obj 530 380 *~;
#X obj 500 200 vsl 24 204 0.001 1 1 0 empty \$0master empty 0 -9 0 16 #000000 #fcfcfc #fcfcfc 0 1;
#X obj 680 250 arp \$0main;
#X obj 680 280 mtof;
#X obj 680 350 phasor~;
#X obj 680 380 *~;
#X obj 650 200 vsl 24 204 0.001 1 1 0 empty \$0master empty 0 -9 0 16 #000000 #fcfcfc #fcfcfc 0 1;
#X obj 830 250 arp \$0main;
#X obj 830 280 mtof;
#X obj 830 350 phasor~;
#X obj 830 380 *~;
#X obj 800 200 vsl 24 204 0.001 1 1 0 empty \$0master empty 0 -9 0 16 #000000 #fcfcfc #fcfcfc 0 1;
#X obj 980 250 arp \$0main;
#X obj 980 280 mtof;
#X obj 980 350 phasor~;
#X obj 980 380 *~;
#X obj 950 200 vsl 24 204 0.001 1 1 0 empty \$0master empty 0 -9 0 16 #000000 #fcfcfc #fcfcfc 0 1;
#X msg 80 220 0;
#X msg 230 220 1;
#X msg 380 220 2;
#X msg 530 220 3;
#X msg 680 220 4;
#X msg 830 220 5;
#X msg 980 220 6;
#X obj 80 110 t b a;
#X obj 80 150 s \$0b;
#X obj 80 180 r \$0b;
#X obj 240 180 r \$0b;
#X obj 390 180 r \$0b;
#X obj 540 180 r \$0b;
#X obj 690 180 r \$0b;
#X obj 840 180 r \$0b;
#X obj 990 180 r \$0b;
#X obj 80 340 zp~ 2000;
#X obj 230 310 zp~ 2000;
#X obj 380 310 zp~ 2000;
#X obj 530 310 zp~ 2000;
#X obj 680 310 zp~ 2000;
#X obj 830 310 zp~ 2000;
#X obj 980 310 zp~ 2000;
#X msg 160 150 print;
#X obj 80 280 - 12;
#X msg 80 30 n 7 \, 52 2 4 5 7 9 11;
#X msg 300 60 >>;
#X msg 90 60 n 4 \, 52 4 7 11;
#X msg 300 90 <<;
#X msg 250 60 >;
#X obj 410 90 hsl 204 24 0.001 1 1 0 \$0master empty master 72 12 0 16 #000000 #fcfcfc #fcfcfc 0 1;
#X connect 1 0 62 0;
#X connect 2 0 54 0;
#X connect 3 0 4 0;
#X connect 4 0 7 0;
#X connect 5 0 4 1;
#X connect 7 0 6 0;
#X connect 7 0 6 1;
#X connect 8 0 9 0;
#X connect 9 0 55 0;
#X connect 10 0 11 0;
#X connect 11 0 7 0;
#X connect 12 0 11 1;
#X connect 13 0 14 0;
#X connect 14 0 56 0;
#X connect 15 0 16 0;
#X connect 16 0 7 0;
#X connect 17 0 16 1;
#X connect 18 0 19 0;
#X connect 19 0 57 0;
#X connect 20 0 21 0;
#X connect 21 0 7 0;
#X connect 22 0 21 1;
#X connect 23 0 24 0;
#X connect 24 0 58 0;
#X connect 25 0 26 0;
#X connect 26 0 7 0;
#X connect 27 0 26 1;
#X connect 28 0 29 0;
#X connect 29 0 59 0;
#X connect 30 0 31 0;
#X connect 31 0 7 0;
#X connect 32 0 31 1;
#X connect 33 0 34 0;
#X connect 34 0 60 0;
#X connect 35 0 36 0;
#X connect 36 0 7 0;
#X connect 37 0 36 1;
#X connect 38 0 1 0;
#X connect 39 0 8 0;
#X connect 40 0 13 0;
#X connect 41 0 18 0;
#X connect 42 0 23 0;
#X connect 43 0 28 0;
#X connect 44 0 33 0;
#X connect 45 0 46 0;
#X connect 45 1 1 0;
#X connect 47 0 38 0;
#X connect 48 0 39 0;
#X connect 49 0 40 0;
#X connect 50 0 41 0;
#X connect 51 0 42 0;
#X connect 52 0 43 0;
#X connect 53 0 44 0;
#X connect 54 0 3 0;
#X connect 55 0 10 0;
#X connect 56 0 15 0;
#X connect 57 0 20 0;
#X connect 58 0 25 0;
#X connect 59 0 30 0;
#X connect 60 0 35 0;
#X connect 61 0 1 0;
#X connect 62 0 2 0;
#X connect 63 0 45 0;
#X connect 64 0 45 0;
#X connect 65 0 45 0;
#X connect 66 0 45 0;
#X connect 67 0 45 0;
