#N canvas 400 200 440 580 16;
#X declare -lib blunt;
#X obj 230 440 ad~ 1 10;
#X obj 320 440 noise~;
#X obj 230 470 *~;
#X obj 60 500 *~;
#X obj 60 530 dac~;
#X obj 80 250 metro~;
#X msg 200 220 0;
#X floatatom 110 80 0 0 0 0 Hz - - 0;
#X floatatom 240 190 0 0 0 0 - - - 0;
#X obj 150 180 bng 15 250 50 0 empty empty empty 17 7 0 10 #ff8300 #ff0400 #7c7c7c;
#X floatatom 100 400 0 0 0 0 - - - 0;
#X floatatom 140 400 0 0 0 0 - - - 0;
#X msg 60 400 1;
#X obj 60 470 *~ 0.5;
#X obj 120 210 tgl 15 0 empty empty start 17 7 0 12 #0e4345 #fcfcfc #7c7c7c 0 1;
#X obj 80 210 *~;
#X obj 80 180 *~;
#X obj 110 20 loadbang;
#X obj 200 360 sel 0 1 2;
#X msg 270 400 0.4;
#X msg 190 400 0.2;
#X msg 230 400 0.7;
#X obj 260 320 ct 4;
#X msg 200 250 set 0;
#X obj 290 250 t f b;
#X obj 40 350 writesf~ 2;
#X msg 40 320 open test.wav \, start;
#X msg 30 290 stop;
#X obj 30 250 -~ 1;
#X floatatom 330 190 0 0 0 0 - - - 0;
#X obj 320 290 t;
#X obj 320 320 timer;
#X obj 320 360 print;
#N canvas 840 200 370 230 vib~ 0;
#X obj 100 150 +~ 1;
#X obj 100 20 inlet~ rate;
#X obj 130 50 inlet~ depth;
#X obj 100 180 outlet~;
#X obj 180 80 inlet phase;
#X obj 100 110 *~;
#N canvas 840 200 360 300 tab 0;
#X obj 30 270 array set \$0arr;
#X obj 70 130 cos~;
#X obj 130 210 array define \$0arr 9;
#X obj 30 210 loadbang;
#X obj 70 10 inlet~ rate;
#X obj 160 40 inlet phase;
#X obj 70 160 outlet~;
#X obj 70 100 tabread2~ \$0arr 0.5;
#X obj 70 40 phasor~;
#X obj 70 70 *~ 8;
#X obj 160 70 -;
#X obj 200 70 `/ 1 16 !;
#X msg 30 240 1 1 0.5 0.5 0.5 0.5 1 1 1;
#X connect 1 0 6 0;
#X connect 3 0 12 0;
#X connect 4 0 8 0;
#X connect 5 0 10 0;
#X connect 7 0 1 0;
#X connect 8 0 9 0;
#X connect 9 0 7 0;
#X connect 10 0 8 1;
#X connect 11 0 10 1;
#X connect 12 0 0 0;
#X restore 100 80 pd tab;
#X connect 0 0 3 0;
#X connect 1 0 6 0;
#X connect 2 0 5 1;
#X connect 4 0 6 1;
#X connect 5 0 0 0;
#X connect 6 0 5 0;
#X restore 70 150 pd vib~;
#X floatatom 330 50 0 0 0 0 - - - 0;
#X obj 70 120 #/ 3;
#N canvas 400 200 450 300 lib 0;
#X obj 140 120 declare -lib blunt;
#X restore 20 20 pd lib;
#X obj 60 440 fkick~ 10 100;
#X floatatom 290 160 0 0 0 0 - - - 0;
#X msg 320 400 -------;
#X obj 240 100 cupqb;
#X floatatom 160 90 0 0 0 0 - - - 0;
#X obj 160 120 / 100;
#X msg 230 50 50;
#X msg 110 50 3;
#X obj 240 160 / 12;
#X msg 160 50 34.65;
#X obj 130 500 hsl 81 24 -80 0 0 0 empty empty volume 10 12 0 16 #2f004d #ff8300 #fcfcfc 0 1;
#X obj 130 530 dB~;
#X floatatom 180 530 0 0 0 0 - - - 0;
#X connect 0 0 2 0;
#X connect 1 0 2 1;
#X connect 2 0 13 0;
#X connect 3 0 4 0;
#X connect 3 0 4 1;
#X connect 5 0 30 0;
#X connect 6 0 5 1;
#X connect 6 0 23 0;
#X connect 7 0 16 1;
#X connect 7 0 35 0;
#X connect 8 0 6 0;
#X connect 8 0 33 2;
#X connect 9 0 8 0;
#X connect 10 0 37 1;
#X connect 11 0 37 2;
#X connect 12 0 37 0;
#X connect 13 0 25 0;
#X connect 13 0 3 0;
#X connect 14 0 15 1;
#X connect 14 0 9 0;
#X connect 15 0 5 0;
#X connect 16 0 15 0;
#X connect 17 0 44 0;
#X connect 17 0 46 0;
#X connect 18 0 12 0;
#X connect 18 0 39 0;
#X connect 18 1 20 0;
#X connect 18 2 21 0;
#X connect 18 3 19 0;
#X connect 19 0 0 0;
#X connect 20 0 0 0;
#X connect 21 0 0 0;
#X connect 22 1 18 0;
#X connect 23 0 22 0;
#X connect 24 0 22 1;
#X connect 24 1 8 0;
#X connect 26 0 25 0;
#X connect 27 0 25 0;
#X connect 28 0 25 1;
#X connect 29 0 24 0;
#X connect 30 0 22 0;
#X connect 30 0 31 0;
#X connect 30 1 31 1;
#X connect 31 0 32 0;
#X connect 33 0 16 0;
#X connect 33 0 28 0;
#X connect 34 0 29 0;
#X connect 34 0 35 1;
#X connect 35 0 33 0;
#X connect 37 0 13 0;
#X connect 38 0 45 1;
#X connect 39 0 32 0;
#X connect 40 0 45 0;
#X connect 41 0 42 0;
#X connect 42 0 33 1;
#X connect 43 0 41 0;
#X connect 44 0 7 0;
#X connect 45 0 8 0;
#X connect 46 0 41 0;
#X connect 47 0 48 0;
#X connect 48 0 3 1;
#X connect 48 1 49 0;
