#N canvas 200 140 440 580 16;
#X declare -lib blunt;
#X obj 230 430 ad 1 10;
#X obj 300 430 noise~;
#X obj 230 460 *~;
#X obj 60 490 *~;
#X obj 60 520 dac~;
#X obj 80 250 metro~;
#X floatatom 150 120 0 0 0 0 dep - - 0;
#X msg 200 220 0;
#X floatatom 110 80 0 0 0 0 Hz - - 0;
#X msg 250 120 0.25;
#X floatatom 200 190 0 0 0 0 - - - 0;
#X obj 170 190 bng 15 250 50 0 empty empty empty 17 7 0 10 #ff8300 #ff0400 #7c7c7c;
#X msg 350 120 0.125;
#X msg 210 120 0;
#X floatatom 100 390 0 0 0 0 - - - 0;
#X floatatom 140 390 0 0 0 0 - - - 0;
#X msg 60 390 1;
#X obj 60 460 *~ 0.5;
#X obj 100 490 hsl 128 15 0.001 1 1 0 empty empty empty -2 -8 0 10 #000000 #fcfcfc #fcfcfc 0 1;
#X obj 120 210 tgl 15 0 empty empty start 17 7 0 12 #0e4345 #fcfcfc #7c7c7c 0 1;
#X obj 80 210 *~;
#X obj 80 180 *~;
#X obj 110 20 loadbang;
#X msg 110 50 6;
#X msg 260 210 3;
#X msg 300 210 4;
#X obj 200 350 sel 0 1 2;
#X msg 270 390 0.4;
#X msg 190 390 0.2;
#X msg 230 390 0.7;
#X obj 240 320 ct 4;
#X msg 200 250 set 0;
#X obj 260 250 t f b;
#X obj 40 350 writesf~ 2;
#X msg 40 320 open test.wav \, start;
#X msg 30 290 stop;
#X obj 30 250 -~ 1;
#X msg 300 120 0.75;
#X floatatom 370 170 0 0 0 0 - - - 0;
#X obj 310 290 t;
#X obj 310 320 timer;
#X obj 310 350 print;
#N canvas 970 350 630 300 vib~ 0;
#X obj 30 210 +~ 1;
#X obj 30 30 inlet~ rate;
#X obj 80 150 inlet~ depth;
#X obj 30 240 outlet~;
#X obj 150 30 inlet phase;
#N canvas 0 50 450 250 (subpatch) 0;
#X array \$0vib 480 float 2;
#X coords 0 1 480 -1 300 140 1 0 0;
#X restore 290 50 graph;
#X obj 140 180 tgl 24 0 empty empty empty 0 -12 0 16 #000000 #fcfcfc #fcfcfc 0 1;
#X obj 140 240 tabwrite~ \$0vib;
#X floatatom 230 150 0 0 0 0 - - - 0;
#X obj 140 210 metro 40;
#X obj 210 60 * 2;
#X obj 210 90 + 0.25;
#X obj 150 60 t f f;
#X obj 150 90 pack;
#X obj 30 180 *~;
#X obj 30 120 fm2op~ 1 2 0.125;
#X msg 110 90 1;
#X connect 0 0 3 0;
#X connect 1 0 15 0;
#X connect 2 0 14 1;
#X connect 4 0 12 0;
#X connect 4 0 16 0;
#X connect 6 0 9 0;
#X connect 8 0 9 1;
#X connect 9 0 7 0;
#X connect 10 0 11 0;
#X connect 11 0 13 1;
#X connect 12 0 13 0;
#X connect 12 1 10 0;
#X connect 13 0 15 4;
#X connect 14 0 0 0;
#X connect 14 0 7 0;
#X connect 15 0 14 0;
#X connect 16 0 6 0;
#X restore 70 150 pd vib~;
#X msg 340 210 6;
#X floatatom 350 70 0 0 0 0 - - - 0;
#X msg 170 50 0.393;
#X obj 70 120 #/ 3;
#X msg 230 50 0.5;
#X floatatom 290 20 0 0 0 0 - - - 0;
#X obj 290 50 / 6;
#N canvas 400 200 450 300 lib 0;
#X obj 140 120 declare -lib blunt;
#X restore 20 20 pd lib;
#X obj 60 430 fkick~ 10 100;
#X connect 0 0 2 0;
#X connect 1 0 2 1;
#X connect 2 0 17 0;
#X connect 3 0 4 0;
#X connect 3 0 4 1;
#X connect 5 0 39 0;
#X connect 6 0 42 1;
#X connect 7 0 5 1;
#X connect 7 0 31 0;
#X connect 8 0 21 1;
#X connect 8 0 46 0;
#X connect 9 0 10 0;
#X connect 10 0 7 0;
#X connect 10 0 42 2;
#X connect 11 0 10 0;
#X connect 12 0 10 0;
#X connect 13 0 10 0;
#X connect 14 0 51 1;
#X connect 15 0 51 2;
#X connect 16 0 51 0;
#X connect 17 0 3 0;
#X connect 17 0 33 0;
#X connect 18 0 3 1;
#X connect 19 0 20 1;
#X connect 19 0 11 0;
#X connect 20 0 5 0;
#X connect 21 0 20 0;
#X connect 22 0 23 0;
#X connect 22 0 45 0;
#X connect 23 0 8 0;
#X connect 24 0 32 0;
#X connect 25 0 32 0;
#X connect 26 0 16 0;
#X connect 26 0 41 0;
#X connect 26 1 28 0;
#X connect 26 2 29 0;
#X connect 26 3 27 0;
#X connect 27 0 0 0;
#X connect 28 0 0 0;
#X connect 29 0 0 0;
#X connect 30 1 26 0;
#X connect 31 0 30 0;
#X connect 32 0 30 1;
#X connect 32 1 10 0;
#X connect 34 0 33 0;
#X connect 35 0 33 0;
#X connect 36 0 33 1;
#X connect 37 0 10 0;
#X connect 38 0 32 0;
#X connect 39 0 40 0;
#X connect 39 0 30 0;
#X connect 39 1 40 1;
#X connect 40 0 41 0;
#X connect 42 0 21 0;
#X connect 42 0 36 0;
#X connect 43 0 32 0;
#X connect 44 0 38 0;
#X connect 44 0 46 1;
#X connect 45 0 6 0;
#X connect 46 0 42 0;
#X connect 47 0 6 0;
#X connect 48 0 49 0;
#X connect 49 0 10 0;
#X connect 51 0 17 0;
