#N canvas 90 120 440 580 16;
#X obj 190 430 ad 1 10;
#X obj 260 430 noise~;
#X obj 190 460 *~;
#X obj 60 490 *~;
#X obj 60 520 dac~;
#X obj 80 250 metro~;
#X floatatom 150 120 0 0 0 0 dep - - 0;
#X msg 200 220 0;
#X floatatom 110 80 0 0 0 0 Hz - - 0;
#X msg 280 120 0.5;
#X msg 230 120 0.25;
#X floatatom 200 190 0 0 0 0 - - - 0;
#X obj 80 150 vib~ 0 0.5;
#X obj 170 190 bng 15 250 50 0 empty empty empty 17 7 0 10 #ff8300 #ff0400 #7c7c7c;
#X msg 320 120 0.125;
#X floatatom 190 50 0 0 0 0 div - - 0;
#X msg 190 120 0;
#X floatatom 100 390 0 0 0 0 - - - 0;
#X floatatom 140 390 0 0 0 0 - - - 0;
#X msg 60 390 1;
#X obj 60 430 fkick~ 71.5 33;
#X obj 60 460 *~ 0.5;
#X obj 100 490 hsl 128 15 0.001 1 1 0 empty empty empty -2 -8 0 10 #000000 #fcfcfc #fcfcfc 0 1;
#X obj 120 210 tgl 15 0 empty empty start 17 7 0 12 #0e4345 #fcfcfc #7c7c7c 0 1;
#X obj 80 210 *~;
#X obj 80 120 / 3;
#X obj 80 180 *~;
#X obj 110 20 loadbang;
#X msg 110 50 6;
#X obj 190 80 t b f;
#X msg 260 210 3;
#X msg 300 210 4;
#X obj 200 350 sel 0 1 2;
#X msg 340 210 5;
#X msg 270 390 0.4;
#X msg 190 390 0.2;
#X msg 230 390 0.7;
#X obj 200 280 ct 4;
#X msg 200 250 set 0;
#X obj 260 250 t f b;
#X obj 40 350 writesf~ 2;
#X msg 40 320 open test.wav \, start;
#X msg 30 290 stop;
#X obj 30 250 -~ 1;
#X msg 250 80 0.75;
#X floatatom 370 170 0 0 0 0 - - - 0;
#X msg 320 70 0.875;
#X connect 0 0 2 0;
#X connect 1 0 2 1;
#X connect 2 0 21 0;
#X connect 3 0 4 0;
#X connect 3 0 4 1;
#X connect 5 0 37 0;
#X connect 6 0 12 1;
#X connect 7 0 5 1;
#X connect 7 0 38 0;
#X connect 8 0 25 0;
#X connect 8 0 26 1;
#X connect 9 0 11 0;
#X connect 10 0 11 0;
#X connect 11 0 12 2;
#X connect 11 0 7 0;
#X connect 12 0 26 0;
#X connect 12 0 43 0;
#X connect 13 0 11 0;
#X connect 14 0 11 0;
#X connect 15 0 29 0;
#X connect 16 0 11 0;
#X connect 17 0 20 1;
#X connect 18 0 20 2;
#X connect 19 0 20 0;
#X connect 20 0 21 0;
#X connect 21 0 3 0;
#X connect 21 0 40 0;
#X connect 22 0 3 1;
#X connect 23 0 24 1;
#X connect 23 0 13 0;
#X connect 24 0 5 0;
#X connect 25 0 12 0;
#X connect 26 0 24 0;
#X connect 27 0 28 0;
#X connect 28 0 8 0;
#X connect 29 0 25 0;
#X connect 29 1 25 1;
#X connect 30 0 39 0;
#X connect 31 0 39 0;
#X connect 32 0 19 0;
#X connect 32 1 35 0;
#X connect 32 2 36 0;
#X connect 32 3 34 0;
#X connect 33 0 39 0;
#X connect 34 0 0 0;
#X connect 35 0 0 0;
#X connect 36 0 0 0;
#X connect 37 1 32 0;
#X connect 38 0 37 0;
#X connect 39 0 37 1;
#X connect 39 1 11 0;
#X connect 41 0 40 0;
#X connect 42 0 40 0;
#X connect 43 0 40 1;
#X connect 44 0 11 0;
#X connect 45 0 39 0;
#X connect 46 0 11 0;
