#N canvas 625 286 334 137 10;
#X obj 106 23 inlet;
#X obj 106 47 f;
#X obj 157 74 outlet;
#X obj 143 23 + 1;
#X obj 143 47 % \$1;
#X obj 168 23 inlet;
#X obj 106 74 sel \$2;
#X obj 106 97 outlet;
#X obj 175 47 inlet;
#X connect 0 0 1 0;
#X connect 1 0 2 0;
#X connect 1 0 3 0;
#X connect 1 0 6 0;
#X connect 3 0 4 0;
#X connect 4 0 1 1;
#X connect 5 0 4 1;
#X connect 6 0 7 0;
#X connect 8 0 6 1;
#X coords 0 137 1 136 85 60 0;
