#N canvas 1298 667 345 149 10;
#X obj 135 43 *~;
#X obj 135 65 +~;
#X obj 135 109 outlet~;
#X obj 135 22 inlet~;
#X obj 161 43 inlet~;
#X obj 164 65 inlet~;
#X obj 135 87 osc~;
#X connect 0 0 1 0;
#X connect 1 0 6 0;
#X connect 3 0 0 0;
#X connect 4 0 0 1;
#X connect 5 0 1 1;
#X connect 6 0 2 0;
#X coords 0 149 1 148 85 60 0;
