#N canvas 356 418 1105 115 10;
#X obj 5 5 cnv 15 1107 105 empty bg empty 20 12 0 14 -63439 -1 0;
#N canvas 364 335 1095 122 controls 0;
#X obj 5 5 cnv 15 1100 40 empty bg empty 20 12 0 14 -63439 -1 0;
#N canvas 636 494 383 295 vis 0;
#X obj 20 39 r msg;
#X obj 20 61 unpack;
#X obj 22 117 demux;
#X obj 56 93 > 0;
#X obj 57 39 r rvk;
#X obj 65 61 notein;
#X obj 20 93 krev;
#X obj 109 39 unpack;
#X obj 87 118 demux;
#X obj 145 82 > 0;
#X obj 151 39 r rvk;
#X obj 109 82 krev;
#X obj 109 17 r msg2;
#X obj 281 113 bng 15 250 50 0 empty empty empty 17 7 0 10 -262144
-1 -1;
#X obj 298 113 bng 15 250 50 0 empty empty empty 17 7 0 10 -262144
-1 -1;
#X obj 320 113 bng 15 250 50 0 empty empty empty 17 7 0 10 -262144
-1 -1;
#X obj 337 113 bng 15 250 50 0 empty empty empty 17 7 0 10 -262144
-1 -1;
#X obj 298 155 bng 15 250 50 0 empty empty empty 17 7 0 10 -262144
-1 -1;
#X floatatom 241 168 5 0 0 0 - - -, f 5;
#X obj 298 182 pack;
#X msg 298 206 \; f\$1 color \$2;
#X floatatom 334 153 5 0 0 0 - - -, f 5;
#X floatatom 261 150 5 0 0 0 - - -, f 5;
#X floatatom 152 62 5 0 0 0 - - -, f 5;
#X obj 280 130 cupq;
#X obj 319 130 cupq;
#X obj 109 61 -;
#N canvas 58 392 450 300 unhilite 0;
#X obj 288 93 mod 12;
#X obj 113 116 demux 0 1 2 3 4 5 6 7 8 9 10 11;
#X floatatom 187 179 5 0 0 0 - - -, f 5;
#X obj 187 160 r df;
#X msg 245 194 \; k\$1 color 27;
#X msg 128 194 \; k\$1 color 4;
#X obj 245 172 pipe;
#X obj 128 172 pipe;
#X obj 199 46 inlet;
#X obj 199 68 t f f;
#X connect 0 0 1 1;
#X connect 1 0 7 0;
#X connect 1 1 6 0;
#X connect 1 2 7 0;
#X connect 1 3 6 0;
#X connect 1 4 7 0;
#X connect 1 5 7 0;
#X connect 1 6 6 0;
#X connect 1 7 7 0;
#X connect 1 8 6 0;
#X connect 1 9 7 0;
#X connect 1 10 6 0;
#X connect 1 11 7 0;
#X connect 2 0 6 1;
#X connect 2 0 7 1;
#X connect 3 0 2 0;
#X connect 6 0 4 0;
#X connect 7 0 5 0;
#X connect 8 0 9 0;
#X connect 9 0 1 0;
#X connect 9 1 0 0;
#X restore 27 161 pd unhilite;
#N canvas 3 65 450 300 hilite1 0;
#X obj 288 105 mod 12;
#X obj 113 128 demux 0 1 2 3 4 5 6 7 8 9 10 11;
#X msg 121 206 \; k\$1 color 13;
#X msg 238 206 \; k\$1 color 14;
#X obj 188 59 inlet;
#X obj 188 81 t f f;
#X connect 0 0 1 1;
#X connect 1 0 2 0;
#X connect 1 1 3 0;
#X connect 1 2 2 0;
#X connect 1 3 3 0;
#X connect 1 4 2 0;
#X connect 1 5 2 0;
#X connect 1 6 3 0;
#X connect 1 7 2 0;
#X connect 1 8 3 0;
#X connect 1 9 2 0;
#X connect 1 10 3 0;
#X connect 1 11 2 0;
#X connect 4 0 5 0;
#X connect 5 0 1 0;
#X connect 5 1 0 0;
#X coords 0 300 1 299 85 60 0;
#X restore 104 161 pd hilite1;
#N canvas 3 83 450 300 hilite2 0;
#X obj 288 105 mod 12;
#X obj 113 128 demux 0 1 2 3 4 5 6 7 8 9 10 11;
#X obj 188 59 inlet;
#X obj 188 81 t f f;
#X msg 121 206 \; k\$1 color 18;
#X msg 239 206 \; k\$1 color 17;
#X connect 0 0 1 1;
#X connect 1 0 4 0;
#X connect 1 1 5 0;
#X connect 1 2 4 0;
#X connect 1 3 5 0;
#X connect 1 4 4 0;
#X connect 1 5 4 0;
#X connect 1 6 5 0;
#X connect 1 7 4 0;
#X connect 1 8 5 0;
#X connect 1 9 4 0;
#X connect 1 10 5 0;
#X connect 1 11 4 0;
#X connect 2 0 3 0;
#X connect 3 0 1 0;
#X connect 3 1 0 0;
#X coords 0 300 1 299 85 60 0;
#X restore 129 181 pd hilite2;
#X obj 191 38 unpack;
#X obj 227 81 > 0;
#X obj 191 81 krev;
#X floatatom 234 61 5 0 0 0 - - -, f 5;
#X obj 191 60 -;
#X obj 147 118 demux;
#X obj 191 17 r msg4;
#N canvas 171 456 450 300 hilite4 0;
#X obj 288 105 mod 12;
#X obj 113 128 demux 0 1 2 3 4 5 6 7 8 9 10 11;
#X obj 188 59 inlet;
#X obj 188 81 t f f;
#X obj 287 175 pack;
#X floatatom 318 152 5 0 0 0 - - -, f 5;
#X obj 342 136 bng 15 250 50 0 empty empty empty 17 7 0 10 -262144
-1 -1;
#X msg 121 206 \; k\$1 color 19;
#X msg 238 206 \; k\$1 color 9;
#X connect 0 0 1 1;
#X connect 1 0 7 0;
#X connect 1 1 8 0;
#X connect 1 2 7 0;
#X connect 1 3 8 0;
#X connect 1 4 7 0;
#X connect 1 5 7 0;
#X connect 1 6 8 0;
#X connect 1 7 7 0;
#X connect 1 8 8 0;
#X connect 1 8 4 0;
#X connect 1 9 7 0;
#X connect 1 10 8 0;
#X connect 1 11 7 0;
#X connect 2 0 3 0;
#X connect 3 0 1 0;
#X connect 3 1 0 0;
#X connect 4 0 8 0;
#X connect 5 0 4 1;
#X connect 5 0 6 0;
#X connect 6 0 4 0;
#X coords 0 300 1 299 85 60 0;
#X restore 146 200 pd hilite4;
#N canvas 171 456 450 300 hilite5 0;
#X obj 288 105 mod 12;
#X obj 113 128 demux 0 1 2 3 4 5 6 7 8 9 10 11;
#X obj 188 59 inlet;
#X obj 188 81 t f f;
#X obj 287 175 pack;
#X floatatom 318 152 5 0 0 0 - - -, f 5;
#X obj 342 136 bng 15 250 50 0 empty empty empty 17 7 0 10 -262144
-1 -1;
#X msg 121 206 \; k\$1 color 16;
#X obj 377 111 bng 15 250 50 0 empty empty empty 17 7 0 10 -262144
-1 -1;
#X obj 360 111 bng 15 250 50 0 empty empty empty 17 7 0 10 -262144
-1 -1;
#X obj 359 131 cupq;
#X msg 238 206 \; k\$1 color 6;
#X connect 0 0 1 1;
#X connect 1 0 7 0;
#X connect 1 1 11 0;
#X connect 1 2 7 0;
#X connect 1 3 11 0;
#X connect 1 4 7 0;
#X connect 1 5 7 0;
#X connect 1 6 11 0;
#X connect 1 7 7 0;
#X connect 1 8 11 0;
#X connect 1 8 4 0;
#X connect 1 9 7 0;
#X connect 1 10 11 0;
#X connect 1 11 7 0;
#X connect 2 0 3 0;
#X connect 3 0 1 0;
#X connect 3 1 0 0;
#X connect 4 0 11 0;
#X connect 5 0 4 1;
#X connect 5 0 6 0;
#X connect 6 0 4 0;
#X connect 8 0 10 2;
#X connect 9 0 10 0;
#X connect 10 0 5 0;
#X coords 0 300 1 299 85 60 0;
#X restore 158 219 pd hilite5;
#X obj 235 38 r rvk;
#X obj 274 38 unpack;
#X obj 310 81 > 0;
#X obj 274 81 krev;
#X floatatom 317 61 5 0 0 0 - - -, f 5;
#X obj 318 38 r rvk;
#X obj 274 17 r msg5;
#X obj 193 125 demux;
#X obj 274 60 + 12;
#X connect 0 0 1 0;
#X connect 1 0 6 0;
#X connect 1 1 3 0;
#X connect 2 0 27 0;
#X connect 2 1 28 0;
#X connect 3 0 2 1;
#X connect 4 0 6 1;
#X connect 5 0 6 0;
#X connect 5 1 3 0;
#X connect 6 0 2 0;
#X connect 7 0 26 0;
#X connect 7 1 9 0;
#X connect 8 0 27 0;
#X connect 8 1 29 0;
#X connect 9 0 8 1;
#X connect 10 0 11 1;
#X connect 11 0 8 0;
#X connect 12 0 7 0;
#X connect 13 0 24 0;
#X connect 14 0 24 2;
#X connect 15 0 25 0;
#X connect 16 0 25 2;
#X connect 17 0 19 0;
#X connect 18 0 19 0;
#X connect 19 0 20 0;
#X connect 23 0 26 1;
#X connect 24 0 19 0;
#X connect 24 0 22 0;
#X connect 25 0 19 1;
#X connect 25 0 17 0;
#X connect 25 0 21 0;
#X connect 26 0 11 0;
#X connect 30 0 34 0;
#X connect 30 1 31 0;
#X connect 31 0 35 1;
#X connect 32 0 35 0;
#X connect 33 0 34 1;
#X connect 34 0 32 0;
#X connect 35 0 27 0;
#X connect 35 1 37 0;
#X connect 36 0 30 0;
#X connect 39 0 32 1;
#X connect 40 0 47 0;
#X connect 40 1 41 0;
#X connect 41 0 46 1;
#X connect 42 0 46 0;
#X connect 43 0 47 1;
#X connect 44 0 42 1;
#X connect 45 0 40 0;
#X connect 46 0 27 0;
#X connect 46 1 38 0;
#X connect 47 0 42 0;
#X coords 0 0 1 1 200 140 0;
#X restore 271 71 pd vis;
#X obj 1082 28 tgl 15 0 rvs empty sound -37 7 0 10 -232576 -1 -262144
0 1;
#X obj 1082 8 tgl 15 0 rvk empty keys -30 7 0 10 -232576 -1 -262144
0 1;
#X obj 125 9 bng 15 250 50 0 empty empty instA -43 7 0 12 -261234 -262144
-262144;
#X obj 162 9 bng 15 250 50 0 empty empty empty 17 7 0 10 -261234 -262144
-1;
#N canvas 586 495 389 397 seq 0;
#X obj 21 37 openpanel;
#X msg 21 57 read \$1;
#X obj 17 129 seq;
#N canvas 1033 440 330 325 sus 0;
#X obj 93 14 inlet;
#X obj 93 36 unpack;
#X obj 93 78 sel;
#X obj 17 65 r pr;
#X msg 210 134 0;
#X msg 180 134 1;
#X obj 180 112 route bang stop;
#X msg 113 163 0;
#X obj 113 132 spigot;
#X msg 96 252 \$1 64;
#X obj 96 273 s ped;
#X obj 180 90 inlet;
#X floatatom 17 88 5 0 0 0 - - -, f 5;
#X obj 89 189 demux;
#X msg 148 212 0;
#X obj 148 235 pipe 10;
#X obj 53 149 f;
#X obj 53 118 del;
#X obj 142 163 > 0;
#X obj 44 235 spigot;
#X msg 25 118 0;
#X msg 25 149 1;
#X obj 93 56 spigot;
#X obj 139 46 == 64;
#X msg 46 14 127 64;
#X floatatom 154 269 5 0 0 0 - - -, f 5;
#X msg 54 35 0 64;
#X floatatom 187 212 5 0 0 0 - - -, f 5;
#X text 196 226 minimum gap;
#X text 196 241 between sustains;
#X connect 0 0 1 0;
#X connect 1 0 22 0;
#X connect 1 1 23 0;
#X connect 2 0 8 0;
#X connect 2 0 17 0;
#X connect 2 0 20 0;
#X connect 2 1 16 1;
#X connect 2 1 18 0;
#X connect 2 1 19 0;
#X connect 3 0 12 0;
#X connect 4 0 8 1;
#X connect 4 0 9 0;
#X connect 5 0 8 1;
#X connect 6 0 5 0;
#X connect 6 1 4 0;
#X connect 7 0 16 1;
#X connect 7 0 18 0;
#X connect 8 0 7 0;
#X connect 9 0 10 0;
#X connect 9 0 25 0;
#X connect 11 0 6 0;
#X connect 12 0 17 1;
#X connect 13 0 9 0;
#X connect 13 1 14 0;
#X connect 13 1 15 0;
#X connect 14 0 9 0;
#X connect 15 0 9 0;
#X connect 16 0 13 0;
#X connect 17 0 16 0;
#X connect 17 0 21 0;
#X connect 18 0 13 1;
#X connect 19 0 9 0;
#X connect 20 0 19 1;
#X connect 21 0 19 1;
#X connect 22 0 2 0;
#X connect 23 0 22 1;
#X connect 24 0 1 0;
#X connect 26 0 1 0;
#X connect 27 0 15 1;
#X coords 0 325 1 324 85 60 0;
#X restore 33 263 pd sus;
#N canvas 796 646 289 221 np 0;
#X obj 94 25 inlet;
#X obj 94 47 unpack;
#X obj 108 134 pack;
#X floatatom 148 50 5 0 0 0 - - -, f 5;
#X obj 148 28 r np;
#X obj 118 155 s msg;
#X obj 139 113 r rvs;
#X obj 94 91 +;
#X obj 124 91 r tps;
#X obj 133 69 pipe;
#X obj 94 69 pipe;
#X text 164 91 transpose;
#X obj 108 177 outlet;
#X obj 101 113 krev;
#X connect 0 0 1 0;
#X connect 1 0 10 0;
#X connect 1 1 9 0;
#X connect 2 0 5 0;
#X connect 2 0 12 0;
#X connect 3 0 9 1;
#X connect 3 0 10 1;
#X connect 4 0 3 0;
#X connect 6 0 13 1;
#X connect 7 0 13 0;
#X connect 8 0 7 1;
#X connect 9 0 2 1;
#X connect 10 0 7 0;
#X connect 13 0 2 0;
#X restore 178 247 pd np;
#X obj 201 111 bng 15 250 50 0 empty end empty 17 7 0 10 -261682 -1
-1;
#X obj 272 23 r msg;
#X obj 45 129 s end;
#X obj 201 129 del 5000;
#N canvas 545 534 199 193 flush 0;
#X obj 83 106 bag;
#X msg 83 86 flush;
#X msg 83 124 \$1 0;
#X obj 83 148 s msg;
#X obj 111 63 r np;
#X obj 83 42 b;
#X obj 83 63 del;
#X obj 102 21 inlet;
#X obj 13 9 r rvk;
#X obj 13 29 r flush;
#X obj 58 9 r rvs;
#X obj 13 49 r goto;
#X obj 13 69 r tps;
#X obj 118 106 inlet;
#X connect 0 0 2 0;
#X connect 1 0 0 0;
#X connect 2 0 3 0;
#X connect 4 0 6 1;
#X connect 5 0 6 0;
#X connect 6 0 1 0;
#X connect 7 0 5 0;
#X connect 8 0 1 0;
#X connect 9 0 1 0;
#X connect 10 0 1 0;
#X connect 11 0 1 0;
#X connect 12 0 1 0;
#X connect 13 0 0 0;
#X coords 0 193 1 192 85 60 0;
#X restore 136 278 pd flush;
#X obj 17 150 midiparse xxx;
#N canvas 424 499 342 266 playback 0;
#X msg 34 167 pause;
#X msg 213 215 goto \$1;
#X floatatom 213 197 5 0 0 0 - - -, f 5;
#X msg 225 92 stop;
#X obj 63 69 tgl 15 0 empty empty empty 17 7 0 10 -262144 -1 -1 0 1
;
#X obj 63 89 sel;
#X msg 114 69 0;
#X obj 213 177 r goto;
#X msg 81 167 tempo \$1;
#X obj 76 12 r end;
#X obj 81 145 f;
#X msg 85 69 1;
#X obj 63 47 r play;
#X obj 121 198 outlet toseq;
#X obj 235 126 outlet toflush;
#X obj 124 12 r stop;
#X obj 179 12 inlet;
#X obj 208 147 outlet tosus;
#X obj 179 34 t b a b;
#X obj 81 112 t;
#X obj 11 89 r _met;
#X connect 0 0 13 0;
#X connect 1 0 13 0;
#X connect 2 0 1 0;
#X connect 3 0 13 0;
#X connect 3 0 14 0;
#X connect 3 0 17 0;
#X connect 4 0 5 0;
#X connect 5 0 0 0;
#X connect 5 1 19 0;
#X connect 6 0 4 0;
#X connect 7 0 2 0;
#X connect 8 0 13 0;
#X connect 9 0 6 0;
#X connect 10 0 8 0;
#X connect 11 0 4 0;
#X connect 12 0 4 0;
#X connect 15 0 3 0;
#X connect 15 0 6 0;
#X connect 16 0 18 0;
#X connect 18 0 11 0;
#X connect 18 1 13 0;
#X connect 18 2 3 0;
#X connect 19 0 10 0;
#X connect 19 1 17 0;
#X connect 19 1 13 0;
#X connect 20 0 8 0;
#X connect 20 0 10 1;
#X coords 0 266 1 265 85 60 0;
#X restore 52 105 pd playback;
#N canvas 291 342 287 300 control-list 0;
#X text 70 82 0 \, 32 : bank select;
#X text 70 96 6 \, 38 : data entry;
#X text 91 124 11 : expression;
#X text 98 110 7 : volume;
#X text 91 138 64 : hold 1;
#X text 91 152 66 : sostenuto;
#X text 91 166 67 : soft;
#X text 49 208 100 \, 101 : rpn lsb \, msb;
#X text 91 180 91 : reverb;
#X text 91 194 93 : chorus;
#X coords 0 300 1 299 85 60 0;
#X restore 151 90 pd control-list;
#N canvas 796 714 289 221 np 0;
#X obj 94 25 inlet;
#X obj 94 47 unpack;
#X obj 108 134 pack;
#X floatatom 148 50 5 0 0 0 - - -, f 5;
#X obj 148 28 r np;
#X obj 139 113 r rvs;
#X obj 133 69 pipe;
#X obj 94 69 pipe;
#X text 176 91 transpose;
#X obj 108 177 outlet;
#X obj 101 113 krev;
#X obj 118 155 s msg2;
#X obj 130 91 r tps2;
#X obj 94 91 +;
#X connect 0 0 1 0;
#X connect 1 0 7 0;
#X connect 1 1 6 0;
#X connect 2 0 9 0;
#X connect 2 0 11 0;
#X connect 3 0 6 1;
#X connect 3 0 7 1;
#X connect 4 0 3 0;
#X connect 5 0 10 1;
#X connect 6 0 2 1;
#X connect 7 0 13 0;
#X connect 10 0 2 0;
#X connect 12 0 13 1;
#X connect 13 0 10 0;
#X restore 196 271 pd np;
#X obj 308 43 noteout 2;
#X obj 266 43 r msg2;
#X obj 308 23 noteout;
#N canvas 1033 440 330 325 sus 0;
#X obj 93 14 inlet;
#X obj 93 36 unpack;
#X obj 93 78 sel;
#X obj 17 65 r pr;
#X msg 210 134 0;
#X msg 180 134 1;
#X obj 180 112 route bang stop;
#X msg 113 163 0;
#X obj 113 132 spigot;
#X msg 96 252 \$1 64;
#X obj 180 90 inlet;
#X floatatom 17 88 5 0 0 0 - - -, f 5;
#X obj 89 189 demux;
#X msg 148 212 0;
#X obj 148 235 pipe 10;
#X obj 53 149 f;
#X obj 53 118 del;
#X obj 142 163 > 0;
#X obj 44 235 spigot;
#X msg 25 118 0;
#X msg 25 149 1;
#X obj 93 56 spigot;
#X obj 139 46 == 64;
#X msg 46 14 127 64;
#X floatatom 154 269 5 0 0 0 - - -, f 5;
#X msg 54 35 0 64;
#X floatatom 187 212 5 0 0 0 - - -, f 5;
#X text 196 226 minimum gap;
#X text 196 241 between sustains;
#X obj 96 273 s ped2;
#X connect 0 0 1 0;
#X connect 1 0 21 0;
#X connect 1 1 22 0;
#X connect 2 0 8 0;
#X connect 2 0 16 0;
#X connect 2 0 19 0;
#X connect 2 1 15 1;
#X connect 2 1 17 0;
#X connect 2 1 18 0;
#X connect 3 0 11 0;
#X connect 4 0 8 1;
#X connect 4 0 9 0;
#X connect 5 0 8 1;
#X connect 6 0 5 0;
#X connect 6 1 4 0;
#X connect 7 0 15 1;
#X connect 7 0 17 0;
#X connect 8 0 7 0;
#X connect 9 0 24 0;
#X connect 9 0 29 0;
#X connect 10 0 6 0;
#X connect 11 0 16 1;
#X connect 12 0 9 0;
#X connect 12 1 13 0;
#X connect 12 1 14 0;
#X connect 13 0 9 0;
#X connect 14 0 9 0;
#X connect 15 0 12 0;
#X connect 16 0 15 0;
#X connect 16 0 20 0;
#X connect 17 0 12 1;
#X connect 18 0 9 0;
#X connect 19 0 18 1;
#X connect 20 0 18 1;
#X connect 21 0 2 0;
#X connect 22 0 21 1;
#X connect 23 0 1 0;
#X connect 25 0 1 0;
#X connect 26 0 14 1;
#X coords 0 325 1 324 85 60 0;
#X restore 76 263 pd sus;
#X obj 67 80 r read;
#X obj 273 245 s drums;
#N canvas 753 569 200 192 flush 0;
#X obj 83 107 bag;
#X msg 83 87 flush;
#X msg 83 125 \$1 0;
#X obj 111 64 r np;
#X obj 83 43 b;
#X obj 83 64 del;
#X obj 102 22 inlet;
#X obj 13 10 r rvk;
#X obj 13 30 r flush;
#X obj 58 10 r rvs;
#X obj 13 50 r goto;
#X obj 118 107 inlet;
#X obj 13 70 r tps2;
#X obj 83 149 s msg2;
#X obj 120 131 s msg4;
#X connect 0 0 2 0;
#X connect 1 0 0 0;
#X connect 2 0 13 0;
#X connect 2 0 14 0;
#X connect 3 0 5 1;
#X connect 4 0 5 0;
#X connect 5 0 1 0;
#X connect 6 0 4 0;
#X connect 7 0 1 0;
#X connect 8 0 1 0;
#X connect 9 0 1 0;
#X connect 10 0 1 0;
#X connect 11 0 0 0;
#X connect 12 0 1 0;
#X coords 0 192 1 191 85 60 0;
#X restore 147 298 pd flush;
#N canvas 1047 680 289 221 np 0;
#X obj 94 25 inlet;
#X obj 94 47 unpack;
#X obj 108 134 pack;
#X floatatom 148 50 5 0 0 0 - - -, f 5;
#X obj 148 28 r np;
#X obj 139 113 r rvs;
#X obj 94 91 +;
#X obj 124 91 r tps;
#X obj 133 69 pipe;
#X obj 94 69 pipe;
#X text 164 91 transpose;
#X obj 108 177 outlet;
#X obj 101 113 krev;
#X obj 118 155 s msg5;
#X connect 0 0 1 0;
#X connect 1 0 9 0;
#X connect 1 1 8 0;
#X connect 2 0 11 0;
#X connect 2 0 13 0;
#X connect 3 0 8 1;
#X connect 3 0 9 1;
#X connect 4 0 3 0;
#X connect 5 0 12 1;
#X connect 6 0 12 0;
#X connect 7 0 6 1;
#X connect 8 0 2 1;
#X connect 9 0 6 0;
#X connect 12 0 2 0;
#X restore 272 271 pd np;
#N canvas 796 680 289 221 np 0;
#X obj 94 25 inlet;
#X obj 94 47 unpack;
#X obj 108 134 pack;
#X floatatom 148 50 5 0 0 0 - - -, f 5;
#X obj 148 28 r np;
#X obj 139 113 r rvs;
#X obj 133 69 pipe;
#X obj 94 69 pipe;
#X text 176 91 transpose;
#X obj 108 177 outlet;
#X obj 101 113 krev;
#X obj 130 91 r tps2;
#X obj 118 155 s msg4;
#X obj 94 91 +;
#X connect 0 0 1 0;
#X connect 1 0 7 0;
#X connect 1 1 6 0;
#X connect 2 0 9 0;
#X connect 2 0 12 0;
#X connect 3 0 6 1;
#X connect 3 0 7 1;
#X connect 4 0 3 0;
#X connect 5 0 10 1;
#X connect 6 0 2 1;
#X connect 7 0 13 0;
#X connect 10 0 2 0;
#X connect 11 0 13 1;
#X connect 13 0 10 0;
#X restore 233 271 pd np;
#X obj 266 63 r msg4;
#X obj 266 83 r msg5;
#X obj 308 63 noteout 3;
#X floatatom 258 105 5 0 127 0 - - -, f 5;
#X obj 258 124 ctlout 7 3;
#X obj 308 83 noteout 4;
#X floatatom 323 105 5 0 127 0 - - -, f 5;
#X obj 323 124 ctlout 7 4;
#X floatatom 258 144 5 0 127 0 - - -, f 5;
#X floatatom 323 144 5 0 127 0 - - -, f 5;
#X obj 258 163 pgmout 3;
#X obj 323 163 pgmout 4;
#X obj 180 196 gate 10, f 22;
#X obj 38 233 gate 10;
#X obj 21 17 inlet;
#X connect 0 0 1 0;
#X connect 1 0 11 0;
#X connect 2 0 10 0;
#X connect 2 1 7 0;
#X connect 4 0 9 1;
#X connect 5 0 8 0;
#X connect 6 0 16 0;
#X connect 10 0 35 1;
#X connect 10 2 36 1;
#X connect 10 6 35 0;
#X connect 10 6 36 0;
#X connect 11 0 2 0;
#X connect 11 1 3 1;
#X connect 11 1 17 1;
#X connect 11 2 9 0;
#X connect 11 2 20 0;
#X connect 13 0 20 1;
#X connect 15 0 14 0;
#X connect 18 0 11 0;
#X connect 21 0 20 1;
#X connect 22 0 20 1;
#X connect 23 0 25 0;
#X connect 23 0 14 0;
#X connect 24 0 28 0;
#X connect 24 0 14 0;
#X connect 26 0 27 0;
#X connect 29 0 30 0;
#X connect 31 0 33 0;
#X connect 32 0 34 0;
#X connect 35 0 4 0;
#X connect 35 1 13 0;
#X connect 35 2 4 0;
#X connect 35 3 22 0;
#X connect 35 4 21 0;
#X connect 35 5 21 0;
#X connect 35 9 19 0;
#X connect 36 0 3 0;
#X connect 36 1 17 0;
#X connect 36 2 3 0;
#X connect 36 3 17 0;
#X connect 36 4 3 0;
#X connect 36 5 17 0;
#X connect 37 0 0 0;
#X coords 0 0 1 1 200 140 0;
#X restore 221 71 pd seq;
#X obj 140 9 cnv 10 21 14 empty empty empty 20 12 0 14 -204786 -66577
0;
#X floatatom 141 9 3 0 0 0 - - -, f 3;
#X obj 233 28 bng 15 250 50 0 play empty play -33 7 0 12 -262130 -1
-262144;
#X obj 253 28 bng 15 250 50 0 stop empty stop 17 7 0 12 -261234 -1
-262144;
#X obj 820 28 cnv 10 26 14 empty empty empty -48 8 0 12 -204800 -262144
0;
#X obj 836 13 cnv 10 1 1 empty empty /100% 0 5 0 11 -63439 -262144
0;
#X floatatom 820 29 4 0 0 0 - - -, f 4;
#X obj 797 9 cnv 10 32 14 empty empty tempo -42 8 0 12 -261682 -262144
0;
#X floatatom 797 10 5 0 0 0 - - met, f 5;
#X obj 1016 20 cnv 10 1 1 empty empty reverse 0 5 0 12 -63439 -262144
0;
#X obj 233 9 bng 15 250 50 0 empty empty open -33 7 0 12 -204800 -1
-262144;
#X obj 367 27 bng 15 250 50 0 rand empty random -49 7 0 12 -260097
-4034 -262144;
#X obj 580 6 bng 25 750 50 0 empty end end 1 32 0 12 -144351 -262144
-262144;
#X obj 14 19 bng 25 250 50 0 flush empty flush -6 -6 0 12 -159808 -204786
-262144;
#X obj 660 8 cnv 10 32 14 empty empty volA -32 8 0 12 -262130 -262144
0;
#X floatatom 660 8 5 0 127 1 - - -, f 5;
#X obj 254 9 bng 15 250 50 0 empty empty list 17 7 0 12 -203904 -1
-262144;
#N canvas 574 473 305 321 playlist 0;
#X obj 95 79 tgl 15 0 empty empty empty 17 7 0 10 -262144 -1 -1 0 1
;
#X obj 37 74 spigot;
#X obj 37 52 r end;
#X obj 127 16 inlet;
#X msg 95 47 1;
#X obj 49 106 del 2500;
#N canvas 515 281 450 300 read 0;
#X obj 91 61 moses 10;
#X obj 98 83 moses 100;
#X obj 91 164 outlet;
#X obj 91 37 inlet;
#X msg 91 105 read pianist/00\$1.MID;
#X msg 98 124 read pianist/0\$1.MID;
#X msg 105 143 read pianist/\$1.MID;
#X connect 0 0 4 0;
#X connect 0 1 1 0;
#X connect 1 0 5 0;
#X connect 1 1 6 0;
#X connect 3 0 0 0;
#X connect 4 0 2 0;
#X connect 5 0 2 0;
#X connect 6 0 2 0;
#X restore 137 175 pd read;
#X msg 161 131 rewind;
#X obj 127 107 t b b a;
#X obj 127 38 demux;
#X obj 127 197 s pl;
#X msg 111 131 next;
#X obj 127 153 qlist;
#X obj 215 153 r year;
#X obj 215 175 print year;
#X obj 215 131 print album;
#X obj 215 197 r title;
#X obj 215 219 print title;
#X obj 215 109 r album;
#X floatatom 265 156 5 0 0 0 - - -, f 5;
#X obj 127 64 openpanel;
#X msg 127 84 read \$1;
#X floatatom 87 197 5 0 0 0 - - -, f 5;
#X obj 87 159 bng 15 250 50 0 empty empty empty 17 7 0 10 -262144 -1
-1;
#X obj 104 159 bng 15 250 50 0 empty empty empty 17 7 0 10 -262144
-1 -1;
#X obj 215 65 r artist;
#X obj 215 87 print artist;
#X floatatom 56 139 5 0 0 0 - - -, f 5;
#X obj 76 26 r ilst;
#X obj 32 31 s lst;
#X obj 170 153 s lst;
#X obj 87 176 cupq;
#X connect 0 0 1 1;
#X connect 0 0 9 1;
#X connect 1 0 5 0;
#X connect 2 0 1 0;
#X connect 3 0 9 0;
#X connect 4 0 0 0;
#X connect 4 0 29 0;
#X connect 5 0 11 0;
#X connect 7 0 12 0;
#X connect 8 0 11 0;
#X connect 8 1 7 0;
#X connect 8 2 12 0;
#X connect 9 0 20 0;
#X connect 9 1 11 0;
#X connect 11 0 12 0;
#X connect 12 0 10 0;
#X connect 12 1 0 0;
#X connect 12 1 30 0;
#X connect 13 0 14 0;
#X connect 13 0 19 0;
#X connect 16 0 17 0;
#X connect 18 0 15 0;
#X connect 20 0 21 0;
#X connect 21 0 4 0;
#X connect 21 0 8 0;
#X connect 23 0 31 0;
#X connect 24 0 31 2;
#X connect 25 0 26 0;
#X connect 27 0 31 0;
#X connect 28 0 0 0;
#X connect 31 0 22 0;
#X connect 31 0 6 0;
#X coords 0 0 1 1 200 140 0;
#X restore 210 50 pd playlist;
#N canvas 1423 472 383 532 auto 0;
#X msg 214 384 \$1 0;
#X obj 201 179 r rvs;
#X obj 158 413 s msg;
#X obj 173 26 bng 15 250 50 0 empty empty empty 17 7 0 10 -262144 -1
-1;
#X obj 48 115 metro 20;
#X obj 48 94 tgl 15 0 empty empty empty 17 7 0 10 -262144 -1 -1 0 1
;
#X floatatom 106 96 5 0 0 0 - - -, f 5;
#X floatatom 117 41 5 0 0 0 - - -, f 5;
#X msg 140 384 \$1 0;
#X floatatom 198 26 5 0 0 0 - - -, f 5;
#X obj 102 268 pipe;
#X obj 117 72 + 1;
#X obj 126 136 moses;
#X obj 178 298 pipe;
#X obj 214 268 del;
#X obj 229 242 * 1;
#X floatatom 271 201 5 0 100 0 - - -, f 5;
#X obj 271 221 / 100;
#X obj 271 242 b;
#X obj 214 363 f;
#X obj 140 363 f;
#X obj 48 54 r stop;
#X msg 48 74 0;
#X msg 30 177 0;
#X obj 174 363 pack;
#X msg 174 384 \$1 \$2;
#X obj 204 322 del;
#X obj 103 115 s rmet;
#X obj 157 222 r rmet;
#X obj 228 322 r rmet;
#X obj 176 242 t f b b;
#X obj 126 200 - 5;
#X obj 95 222 - 12;
#X obj 126 222 pipe;
#X obj 95 242 t f f b f;
#X obj 94 288 pipe;
#X obj 94 308 b;
#X obj 153 200 rand 1 30;
#X obj 25 160 pipe;
#X obj 67 135 r rmet;
#X obj 229 221 r rmet;
#X obj 241 155 ii oct 24;
#X msg 241 174 oct 24;
#X obj 126 168 t f b;
#X msg 251 20 51;
#N canvas 453 425 450 300 flush 0;
#X obj 193 140 bag;
#X msg 193 120 flush;
#X msg 193 161 \$1 0;
#X obj 193 182 s msg;
#X obj 221 97 r np;
#X obj 193 76 b;
#X obj 193 97 del;
#X obj 212 55 inlet;
#X obj 150 140 inlet;
#X obj 249 125 r rvk;
#X obj 252 146 r flush;
#X obj 263 101 r rvs;
#X connect 0 0 2 0;
#X connect 1 0 0 0;
#X connect 2 0 3 0;
#X connect 4 0 6 1;
#X connect 5 0 6 0;
#X connect 6 0 1 0;
#X connect 7 0 5 0;
#X connect 8 0 0 0;
#X connect 9 0 1 0;
#X connect 10 0 1 0;
#X connect 11 0 1 0;
#X restore 195 413 pd flush;
#X obj 169 125 muse;
#X obj 204 342 rand 40 70;
#X obj 94 328 rand 60 78;
#X msg 276 20 52;
#X msg 301 20 56;
#X obj 173 47 randv 8 1;
#X obj 117 22 r ks;
#X obj 276 44 s ks;
#X msg 239 84 4 7 9 11 14 16 18 21;
#X msg 239 104 2 4 7 9 11 14 16 19;
#X msg 239 63 3 7 10 14 15 19 21 22;
#X obj 67 159 / 2;
#X obj 163 70 s _ks;
#X obj 251 393 r _ks;
#X obj 289 390 r rmet;
#X obj 289 413 / 2;
#X obj 40 200 pipe;
#X obj 250 413 pipe;
#X msg 25 32 0;
#X obj 173 93 +;
#X floatatom 203 91 5 0 0 0 - - -, f 5;
#X obj 303 307 s rmet;
#X floatatom 303 290 5 0 0 0 - - -, f 5;
#X obj 171 179 krev;
#X obj 92 178 tgl 15 0 empty empty empty 17 7 0 10 -262144 -1 -1 0
127;
#X msg 59 177 127;
#X obj 42 234 s ped;
#X msg 318 39 53;
#X msg 332 20 58;
#X connect 0 0 2 0;
#X connect 0 0 45 0;
#X connect 1 0 69 1;
#X connect 3 0 51 0;
#X connect 4 0 51 0;
#X connect 5 0 4 0;
#X connect 6 0 4 1;
#X connect 6 0 27 0;
#X connect 7 0 11 0;
#X connect 7 0 23 0;
#X connect 7 0 46 1;
#X connect 7 0 58 0;
#X connect 8 0 2 0;
#X connect 8 0 45 0;
#X connect 9 0 51 1;
#X connect 10 0 24 0;
#X connect 11 0 12 1;
#X connect 12 0 32 0;
#X connect 12 0 38 0;
#X connect 12 0 43 0;
#X connect 12 1 30 0;
#X connect 13 0 19 1;
#X connect 13 0 24 0;
#X connect 14 0 19 0;
#X connect 15 0 14 1;
#X connect 16 0 17 0;
#X connect 17 0 15 1;
#X connect 17 0 18 0;
#X connect 18 0 15 0;
#X connect 19 0 0 0;
#X connect 20 0 8 0;
#X connect 21 0 22 0;
#X connect 22 0 5 0;
#X connect 23 0 62 0;
#X connect 23 0 70 0;
#X connect 24 0 25 0;
#X connect 25 0 2 0;
#X connect 25 0 45 0;
#X connect 26 0 47 0;
#X connect 28 0 10 1;
#X connect 28 0 13 1;
#X connect 28 0 35 1;
#X connect 29 0 26 1;
#X connect 30 0 13 0;
#X connect 30 1 26 0;
#X connect 30 2 14 0;
#X connect 31 0 33 0;
#X connect 32 0 34 0;
#X connect 33 0 34 0;
#X connect 34 0 10 0;
#X connect 34 1 35 0;
#X connect 34 2 20 0;
#X connect 34 3 20 1;
#X connect 35 0 36 0;
#X connect 36 0 48 0;
#X connect 37 0 33 1;
#X connect 38 0 23 0;
#X connect 39 0 38 1;
#X connect 39 0 57 0;
#X connect 40 0 15 0;
#X connect 41 0 46 0;
#X connect 42 0 46 0;
#X connect 43 0 31 0;
#X connect 43 1 37 0;
#X connect 44 0 53 0;
#X connect 44 0 56 0;
#X connect 46 1 69 0;
#X connect 47 0 24 1;
#X connect 48 0 24 1;
#X connect 49 0 53 0;
#X connect 49 0 54 0;
#X connect 50 0 53 0;
#X connect 50 0 55 0;
#X connect 51 0 65 0;
#X connect 52 0 7 0;
#X connect 52 0 64 0;
#X connect 54 0 46 0;
#X connect 55 0 46 0;
#X connect 56 0 46 0;
#X connect 57 0 62 1;
#X connect 59 0 63 0;
#X connect 60 0 61 0;
#X connect 61 0 63 1;
#X connect 62 0 71 0;
#X connect 63 0 45 1;
#X connect 64 0 38 0;
#X connect 65 0 46 0;
#X connect 66 0 65 1;
#X connect 68 0 67 0;
#X connect 69 0 12 0;
#X connect 70 0 72 0;
#X connect 71 0 70 0;
#X connect 73 0 53 0;
#X connect 74 0 53 0;
#X coords 0 0 1 1 200 140 0;
#X restore 1057 48 pd auto;
#X obj 787 28 bng 15 250 50 0 empty empty goto -30 7 0 12 -204800 -159808
-262144;
#X obj 803 28 bng 15 250 50 0 empty empty empty 17 7 0 10 -262144 -1
-1;
#X obj 848 28 bng 15 250 50 0 empty empty empty 17 7 0 10 -262144 -1
-1;
#X obj 634 69 ctlout 7;
#X obj 627 48 ctlin 7 2;
#X obj 402 50 ctlout 91;
#X obj 453 9 tgl 15 0 empty empty reverb -49 7 0 12 -204786 -1 -262144
0 127;
#X obj 453 28 tgl 15 0 empty empty chorus -49 7 0 12 -261682 -1 -262144
0 127;
#X obj 402 71 ctlout 93;
#N canvas 689 493 325 330 delays 0;
#X floatatom 100 45 5 0 0 0 - - -, f 5;
#X obj 100 65 / 100;
#X floatatom 142 34 5 0 0 0 - - -, f 5;
#X floatatom 96 119 5 0 0 0 - - -, f 5;
#X floatatom 96 179 5 0 0 0 - - -, f 5;
#X obj 142 54 s df;
#X obj 96 158 s np;
#X obj 96 218 s pr;
#X obj 96 197 *;
#X obj 32 93 expr 100 / $f1;
#X obj 96 137 *;
#X text 125 218 pedal release delay;
#X text 176 54 display's falloff speed;
#X obj 100 24 r met;
#X obj 39 114 t b f;
#X obj 51 52 s _met;
#X floatatom 127 137 5 0 0 0 - - -, f 5;
#X obj 96 279 s dd;
#X text 126 279 drum delay;
#X floatatom 96 241 5 0 0 0 - - -, f 5;
#X obj 96 258 *;
#X obj 174 80 ii 112 125 150 100 20;
#X obj 174 102 unpack f f f f f;
#X text 126 159 note-to-pedal delay;
#X msg 147 253 225;
#X connect 0 0 1 0;
#X connect 0 0 9 0;
#X connect 1 0 15 0;
#X connect 2 0 5 0;
#X connect 3 0 10 0;
#X connect 4 0 8 0;
#X connect 8 0 7 0;
#X connect 9 0 14 0;
#X connect 10 0 6 0;
#X connect 10 0 16 0;
#X connect 13 0 0 0;
#X connect 14 0 10 0;
#X connect 14 0 8 0;
#X connect 14 0 20 0;
#X connect 14 1 10 1;
#X connect 14 1 8 1;
#X connect 14 1 20 1;
#X connect 19 0 20 0;
#X connect 20 0 17 0;
#X connect 21 0 22 0;
#X connect 22 0 3 0;
#X connect 22 1 4 0;
#X connect 22 2 19 0;
#X connect 22 3 0 0;
#X connect 22 4 2 0;
#X connect 24 0 19 0;
#X coords 0 0 1 1 200 140 0;
#X restore 324 71 pd delays;
#N canvas 1357 470 195 218 revin 0;
#X obj 74 44 notein;
#X obj 74 88 noteout;
#X obj 118 44 r rvs;
#X obj 74 66 krev;
#X connect 0 0 3 0;
#X connect 0 1 1 1;
#X connect 2 0 3 1;
#X connect 3 0 1 0;
#X coords 0 0 1 1 200 140 0;
#X restore 991 48 pd revin;
#X obj 143 50 pgmout;
#X floatatom 699 50 5 0 127 0 - - -, f 5;
#X obj 699 69 ctlout 7 2;
#N canvas 893 472 198 198 ctl 0;
#X obj 76 120 ctlout 64 2;
#X obj 76 101 tgl 15 0 empty ped2 ped2 17 7 0 10 -262144 -66577 -66577
0 127;
#X obj 76 19 ctlin 64;
#X obj 76 38 s ped;
#X obj 76 80 ctlout 64;
#X obj 76 61 r iped;
#X floatatom 41 81 5 0 0 0 - - -, f 5;
#X connect 1 0 0 0;
#X connect 2 0 3 0;
#X connect 5 0 4 0;
#X connect 5 0 6 0;
#X coords 0 0 1 1 200 140 0;
#X restore 528 49 pd ctl;
#N canvas 1416 489 197 176 xkeys 0;
#X obj 124 42 cnv 10 10 10 empty k0 empty 20 12 0 14 -261681 -262144
0;
#X obj 137 42 cnv 10 10 10 empty k1 empty 20 12 0 14 -1109 -262144
0;
#X obj 52 54 cnv 10 10 10 empty k2 empty 20 12 0 14 -261681 -262144
0;
#X obj 85 54 cnv 10 10 10 empty k3 empty 20 12 0 14 -1109 -262144 0
;
#X obj 98 54 cnv 10 10 10 empty k4 empty 20 12 0 14 -261681 -262144
0;
#X obj 111 54 cnv 10 10 10 empty k5 empty 20 12 0 14 -261681 -262144
0;
#X obj 124 54 cnv 10 10 10 empty k6 empty 20 12 0 14 -1109 -262144
0;
#X obj 137 54 cnv 10 10 10 empty k7 empty 20 12 0 14 -261681 -262144
0;
#X obj 52 66 cnv 10 10 10 empty k8 empty 20 12 0 14 -1109 -262144 0
;
#X obj 85 66 cnv 10 10 10 empty k9 empty 20 12 0 14 -261681 -262144
0;
#X obj 98 66 cnv 10 10 10 empty k10 empty 20 12 0 14 -1109 -262144
0;
#X obj 111 66 cnv 10 10 10 empty k11 empty 20 12 0 14 -261681 -262144
0;
#X obj 124 66 cnv 10 10 10 empty k12 empty 20 12 0 14 -261681 -262144
0;
#X obj 137 66 cnv 10 10 10 empty k13 empty 20 12 0 14 -1109 -262144
0;
#X obj 52 78 cnv 10 10 10 empty k14 empty 20 12 0 14 -261681 -262144
0;
#X obj 85 78 cnv 10 10 10 empty k15 empty 20 12 0 14 -1109 -262144
0;
#X coords 0 0 1 1 200 140 0;
#X restore 1051 67 pd xkeys;
#N canvas 376 475 290 299 slide 0;
#X obj 82 38 int;
#X obj 82 104 t f b;
#X msg 114 175 \$1 0;
#X obj 114 153 16;
#X obj 88 130 != 16;
#X obj 63 153 spigot;
#X obj 82 82 krev;
#X obj 133 60 r rvs;
#X obj 133 82 sel;
#X msg 126 104 16;
#X msg 158 104 108;
#X obj 86 204 s msg;
#X obj 82 60 change;
#X obj 82 16 r slide;
#X msg 63 175 \$1 64;
#X obj 140 205 s msg4;
#X connect 0 0 12 0;
#X connect 1 0 3 1;
#X connect 1 0 4 0;
#X connect 1 0 5 0;
#X connect 1 1 3 0;
#X connect 2 0 11 0;
#X connect 3 0 2 0;
#X connect 4 0 5 1;
#X connect 5 0 14 0;
#X connect 6 0 1 0;
#X connect 7 0 6 1;
#X connect 7 0 8 0;
#X connect 8 0 9 0;
#X connect 8 1 10 0;
#X connect 9 0 4 1;
#X connect 10 0 4 1;
#X connect 12 0 6 0;
#X connect 13 0 0 0;
#X connect 14 0 11 0;
#X restore 11 51 pd slide;
#X obj 531 5 tgl 40 0 iped ped pedal -40 21 0 12 -63715 -262144 -262144
0 127;
#X obj 303 9 tgl 15 0 ilst lst empty 17 7 0 10 -203904 -1 -1 0 1;
#N canvas 687 473 372 346 series 0;
#X obj 227 72 moses 10;
#X obj 246 112 moses 100;
#X obj 227 208 pack s s s;
#X obj 270 174 r series;
#X msg 121 118 pianist/;
#X msg 131 137 jazz/JP;
#X msg 134 156 latin/lp;
#X msg 140 174 neworleans/NP;
#X obj 121 219 symbol;
#X obj 121 239 s series;
#X msg 70 181 MID;
#X msg 79 200 mid;
#X obj 325 174 r mid;
#X obj 121 96 ii;
#X obj 70 219 symbol;
#X obj 70 239 s mid;
#X obj 227 174 symbol;
#X msg 54 158 66;
#X msg 40 97 886;
#X msg 44 118 71;
#X msg 51 138 50;
#X obj 20 202 s n;
#X obj 192 50 r pl;
#X obj 242 259 s read;
#X obj 227 50 r track;
#X obj 289 30 rand 1 886;
#X obj 346 8 r n;
#X obj 133 13 r rand;
#X obj 289 52 s _rand;
#X obj 151 50 t;
#X obj 68 36 rand 4;
#X obj 68 58 sel 0 1 2 3;
#X floatatom 34 54 5 0 0 0 - - -, f 5;
#X msg 227 232 read \$2\$1\$3;
#X msg 277 133 \$1.;
#X msg 246 133 0\$1.;
#X msg 227 93 00\$1.;
#X connect 0 0 36 0;
#X connect 0 1 1 0;
#X connect 1 0 35 0;
#X connect 1 1 34 0;
#X connect 2 0 33 0;
#X connect 3 0 2 1;
#X connect 4 0 8 0;
#X connect 4 0 10 0;
#X connect 4 0 18 0;
#X connect 5 0 8 0;
#X connect 5 0 10 0;
#X connect 5 0 19 0;
#X connect 6 0 8 0;
#X connect 6 0 11 0;
#X connect 6 0 20 0;
#X connect 7 0 8 0;
#X connect 7 0 10 0;
#X connect 7 0 17 0;
#X connect 8 0 9 0;
#X connect 10 0 14 0;
#X connect 11 0 14 0;
#X connect 12 0 2 2;
#X connect 13 0 4 0;
#X connect 14 0 15 0;
#X connect 16 0 2 0;
#X connect 17 0 21 0;
#X connect 18 0 21 0;
#X connect 19 0 21 0;
#X connect 20 0 21 0;
#X connect 22 0 0 0;
#X connect 24 0 0 0;
#X connect 25 0 28 0;
#X connect 26 0 25 2;
#X connect 27 0 29 0;
#X connect 29 0 25 0;
#X connect 29 1 30 0;
#X connect 30 0 31 0;
#X connect 30 0 32 0;
#X connect 31 0 4 0;
#X connect 31 1 5 0;
#X connect 31 2 6 0;
#X connect 31 3 7 0;
#X connect 33 0 23 0;
#X connect 34 0 16 0;
#X connect 35 0 16 0;
#X connect 36 0 16 0;
#X coords 0 0 1 1 200 140 0;
#X restore 322 50 pd series;
#N canvas 851 494 677 374 drums 0;
#X obj 150 56 bng 15 250 50 0 empty empty 36 0 -7 0 10 -262144 -1 -1
;
#X obj 206 56 bng 15 250 50 0 empty empty 42 0 -7 0 10 -262144 -1 -1
;
#N canvas 3 59 450 515 hihat 0;
#N canvas 475 183 676 682 hhnoise 0;
#X obj 178 566 outlet~;
#X obj 194 311 *~;
#X obj 178 479 +~;
#X obj 179 540 osc~;
#X obj 195 426 *~;
#X obj 195 203 unpack f f f f f;
#X obj 177 450 sig~;
#X obj 195 250 osc~;
#X obj 209 274 osc~;
#N canvas 730 50 450 300 programmer 0;
#X msg 99 193 748.031 787.402 0.393701 511.811 8125.98;
#X obj 244 63 hsl 128 15 0 5000 0 0 empty empty modf1 32 7 1 8 -262144
-1 -1 0 1;
#X obj 136 147 pack f f f f f;
#X obj 136 124 t b;
#X msg 136 169 set \$1 \$2 \$3 \$4 \$5;
#X obj 244 78 hsl 128 15 0 5000 0 0 empty empty modf2 32 7 1 8 -262144
-1 -1 0 1;
#X obj 244 93 hsl 128 15 0 1 0 0 empty empty env 32 7 1 8 -262144 -1
-1 0 1;
#X obj 244 108 hsl 128 15 0 5000 0 0 empty empty fm_amount 32 7 1 8
-262144 -1 -1 0 1;
#X obj 244 123 hsl 128 15 0 12000 0 0 empty empty base_freq 32 7 1
8 -262144 -1 -1 0 1;
#X obj 95 150 del 2;
#X obj 96 224 outlet;
#X msg 122 259 1141.73 472.441 0.645669 2874.02 10299.2;
#X msg 149 230 748.031 1023.62 0.173228 1968.5 9259.84;
#X msg 183 277 2834.65 2165.35 0.511811 4370.08 8125.98;
#X obj 304 162 loadbang;
#X connect 0 0 10 0;
#X connect 1 0 2 0;
#X connect 1 0 3 0;
#X connect 2 0 4 0;
#X connect 3 0 2 0;
#X connect 3 0 9 0;
#X connect 4 0 0 0;
#X connect 5 0 2 1;
#X connect 5 0 3 0;
#X connect 6 0 2 2;
#X connect 6 0 3 0;
#X connect 7 0 2 3;
#X connect 7 0 3 0;
#X connect 8 0 2 4;
#X connect 8 0 3 0;
#X connect 9 0 0 0;
#X connect 11 0 10 0;
#X connect 12 0 10 0;
#X connect 13 0 10 0;
#X connect 14 0 12 0;
#X restore 195 177 pd programmer;
#X obj 153 311 +~;
#N canvas 0 50 450 300 xf 0;
#X obj 107 37 inlet~;
#X obj 158 37 inlet~;
#X obj 123 135 *~;
#X obj 152 134 *~;
#X obj 134 178 outlet~;
#X obj 171 87 sig~ 1;
#X obj 169 108 -~;
#X obj 227 37 inlet~ xfade;
#X connect 0 0 2 0;
#X connect 1 0 3 0;
#X connect 2 0 4 0;
#X connect 3 0 4 0;
#X connect 5 0 6 0;
#X connect 6 0 3 1;
#X connect 7 0 6 1;
#X connect 7 0 2 1;
#X restore 154 351 pd xf;
#X text 263 302 2 ringmod;
#X obj 223 311 *~;
#X obj 222 133 inlet~ spectrum env;
#X obj 179 516 +~;
#X text 219 540 fbfm;
#X obj 125 567 *~ 600;
#X obj 124 591 s~ \$0-fc;
#X obj 208 482 r~ \$0-fc;
#X connect 1 0 11 1;
#X connect 2 0 15 0;
#X connect 3 0 0 0;
#X connect 3 0 17 0;
#X connect 4 0 2 1;
#X connect 5 0 7 0;
#X connect 5 1 8 0;
#X connect 5 2 13 1;
#X connect 5 3 4 1;
#X connect 5 4 6 0;
#X connect 6 0 2 0;
#X connect 7 0 1 0;
#X connect 7 0 10 0;
#X connect 8 0 1 1;
#X connect 8 0 10 1;
#X connect 9 0 5 0;
#X connect 10 0 11 0;
#X connect 11 0 4 0;
#X connect 13 0 11 2;
#X connect 14 0 13 0;
#X connect 15 0 3 0;
#X connect 17 0 18 0;
#X connect 19 0 15 1;
#X restore 21 346 pd hhnoise;
#X obj 82 384 *~;
#X obj 98 299 vline~;
#X obj 99 345 *~;
#X obj 82 463 switch~;
#X obj 82 411 env~;
#X msg 123 436 1;
#X obj 98 114 t b b;
#X obj 82 436 > 0.1;
#X obj 23 435 outlet~;
#X obj 148 114 t b b;
#X msg 98 243 \$1 0 0 \, 0 \$2 1;
#X obj 98 220 pack f f;
#X obj 98 169 t f f;
#X obj 148 167 t f f;
#X msg 98 143 0.6;
#X msg 148 144 1;
#X obj 253 63 inlet decay;
#X obj 194 197 *;
#X obj 147 197 *;
#X obj 266 121 * 600;
#X text 153 379 fm hi hat;
#X text 47 455 ajf;
#X obj 126 37 inlet hihat;
#X obj 347 38 loadbang;
#X obj 126 65 sel 2 1;
#X msg 347 63 0.1;
#X obj 214 121 * 7000;
#X connect 0 0 1 0;
#X connect 1 0 5 0;
#X connect 1 0 9 0;
#X connect 2 0 3 0;
#X connect 2 0 3 1;
#X connect 2 0 0 0;
#X connect 3 0 1 1;
#X connect 5 0 8 0;
#X connect 6 0 4 0;
#X connect 7 0 15 0;
#X connect 7 1 6 0;
#X connect 8 0 4 0;
#X connect 10 0 16 0;
#X connect 10 1 6 0;
#X connect 11 0 2 0;
#X connect 12 0 11 0;
#X connect 13 0 12 0;
#X connect 13 1 19 0;
#X connect 14 0 12 0;
#X connect 14 1 18 0;
#X connect 15 0 13 0;
#X connect 16 0 14 0;
#X connect 17 0 20 0;
#X connect 17 0 27 0;
#X connect 18 0 12 1;
#X connect 19 0 12 1;
#X connect 20 0 18 1;
#X connect 23 0 25 0;
#X connect 24 0 26 0;
#X connect 25 0 7 0;
#X connect 25 1 10 0;
#X connect 26 0 20 0;
#X connect 26 0 27 0;
#X connect 27 0 19 1;
#X restore 282 173 pd hihat;
#X obj 209 277 dac~;
#X obj 342 225 *~;
#X floatatom 373 208 5 0 0 0 - - -, f 5;
#X obj 373 225 / 1000;
#X obj 30 36 unpack;
#X floatatom 78 36 5 0 0 0 - - -, f 5;
#X obj 69 58 pipe;
#X obj 30 58 pipe;
#X obj 57 88 spigot;
#N canvas 3 65 450 580 bass 0;
#X obj 150 309 vline~;
#X obj 104 442 *~;
#X obj 104 417 cos~;
#X obj 103 393 *~;
#X obj 103 370 *~;
#X obj 120 226 t f f;
#X obj 104 346 *~;
#X msg 150 287 1 0 0 \, 0 \$1 0;
#X msg 120 202 70;
#X obj 120 252 / 29;
#X msg 213 204 33.9;
#X msg 176 204 30.5;
#X msg 251 204 36.1;
#X obj 172 61 sel 0 1 2;
#X obj 103 469 outlet~;
#X obj 159 516 switch~;
#X obj 159 468 env~;
#X obj 159 492 > 0.1;
#X msg 299 205 1;
#X obj 229 93 t b b b;
#X obj 191 120 t b b b;
#X obj 154 150 t b b b;
#X obj 172 34 inlet;
#X text 223 453 efficient kick drum;
#X text 260 475 ajf;
#X connect 0 0 1 1;
#X connect 0 0 6 0;
#X connect 0 0 3 1;
#X connect 1 0 14 0;
#X connect 1 0 16 0;
#X connect 2 0 1 0;
#X connect 3 0 2 0;
#X connect 4 0 3 0;
#X connect 5 0 9 0;
#X connect 5 1 7 0;
#X connect 6 0 4 1;
#X connect 6 0 4 0;
#X connect 7 0 0 0;
#X connect 8 0 5 0;
#X connect 9 0 6 1;
#X connect 10 0 9 1;
#X connect 11 0 9 1;
#X connect 12 0 9 1;
#X connect 13 0 21 0;
#X connect 13 1 20 0;
#X connect 13 2 19 0;
#X connect 16 0 17 0;
#X connect 17 0 15 0;
#X connect 18 0 15 0;
#X connect 19 0 8 0;
#X connect 19 1 12 0;
#X connect 19 2 18 0;
#X connect 20 0 8 0;
#X connect 20 1 10 0;
#X connect 20 2 18 0;
#X connect 21 0 8 0;
#X connect 21 1 11 0;
#X connect 21 2 18 0;
#X connect 22 0 13 0;
#X restore 202 173 pd bass;
#X obj 183 221 *~;
#X floatatom 216 206 5 0 0 0 - - -, f 5;
#X obj 216 222 / 1000;
#X msg 202 154 2;
#X msg 282 152 2;
#X obj 280 56 bng 15 250 50 0 empty empty 56 0 -7 0 10 -262144 -1 -1
;
#X obj 224 56 bng 15 250 50 0 empty empty 44 0 -7 0 10 -262144 -1 -1
;
#X obj 298 56 bng 15 250 50 0 empty empty 60 0 -7 0 10 -262144 -1 -1
;
#X obj 317 56 bng 15 250 50 0 empty empty 61 0 -7 0 10 -262144 -1 -1
;
#X msg 393 152 1;
#N canvas 855 137 450 628 snare 0;
#X obj 165 285 vline~;
#X obj 151 500 *~;
#X obj 119 332 cos~;
#X obj 135 202 t f f;
#X obj 119 312 *~;
#X msg 135 176 70;
#X obj 150 527 outlet~;
#X obj 206 574 switch~;
#X obj 206 526 env~;
#X obj 206 550 > 0.1;
#X msg 269 260 1;
#X obj 169 126 t b b b;
#X obj 169 72 inlet;
#X text 307 533 ajf;
#X obj 165 343 *~;
#X obj 151 477 cos~;
#X obj 121 549 s~ \$0-fb;
#X obj 54 334 r~ \$0-fb;
#X obj 104 383 +~;
#X obj 53 410 *~;
#X obj 166 368 *~;
#X obj 105 358 sig~ 5;
#X msg 191 180 6;
#X obj 135 228 /;
#X msg 165 263 1 0 0 \, 0 \$1 3;
#X text 271 511 efficient snare drum;
#X obj 169 97 sel 1;
#X obj 89 151 del 5;
#X msg 89 176 90;
#X connect 0 0 4 0;
#X connect 0 0 14 0;
#X connect 0 0 14 1;
#X connect 1 0 6 0;
#X connect 1 0 8 0;
#X connect 1 0 16 0;
#X connect 2 0 18 1;
#X connect 3 0 23 0;
#X connect 3 1 24 0;
#X connect 4 0 2 0;
#X connect 5 0 3 0;
#X connect 8 0 9 0;
#X connect 9 0 7 0;
#X connect 10 0 7 0;
#X connect 11 0 27 0;
#X connect 11 1 22 0;
#X connect 11 2 10 0;
#X connect 12 0 26 0;
#X connect 14 0 20 0;
#X connect 14 0 20 1;
#X connect 15 0 1 0;
#X connect 17 0 19 0;
#X connect 18 0 19 1;
#X connect 19 0 15 0;
#X connect 20 0 1 1;
#X connect 21 0 18 0;
#X connect 22 0 23 1;
#X connect 23 0 4 1;
#X connect 24 0 0 0;
#X connect 26 0 11 0;
#X connect 27 0 28 0;
#X connect 27 0 5 0;
#X connect 28 0 3 0;
#X restore 506 173 pd snare;
#X obj 354 56 bng 15 250 50 0 empty empty 63 2 -7 0 10 -262144 -1 -1
;
#X obj 335 56 bng 15 250 50 0 empty empty 62 2 -7 0 10 -262144 -1 -1
;
#X obj 373 56 bng 15 250 50 0 empty empty 64 2 -7 0 10 -262144 -1 -1
;
#X obj 409 56 bng 15 250 50 0 empty empty 66 2 -7 0 10 -262144 -1 -1
;
#X obj 500 213 *~;
#X msg 506 152 1;
#X floatatom 532 196 5 0 0 0 - - -, f 5;
#X obj 532 213 / 1000;
#X obj 428 56 bng 15 250 50 0 empty empty 68 2 -7 0 10 -262144 -1 -1
;
#X obj 465 56 bng 15 250 50 0 empty empty 71 2 -7 0 10 -262144 -1 -1
;
#X obj 446 56 bng 15 250 50 0 empty empty 70 2 -7 0 10 -262144 -1 -1
;
#X obj 483 56 bng 15 250 50 0 empty empty 73 2 -7 0 10 -262144 -1 -1
;
#X obj 502 56 bng 15 250 50 0 empty empty 74 2 -7 0 10 -262144 -1 -1
;
#X obj 539 56 bng 15 250 50 0 empty empty 76 2 -7 0 10 -262144 -1 -1
;
#X obj 520 56 bng 15 250 50 0 empty empty 75 2 -7 0 10 -262144 -1 -1
;
#X obj 557 56 bng 15 250 50 0 empty empty 79 2 -7 0 10 -262144 -1 -1
;
#X obj 576 56 bng 15 250 50 0 empty empty 80 2 -7 0 10 -262144 -1 -1
;
#X obj 613 56 bng 15 250 50 0 empty empty 82 2 -7 0 10 -262144 -1 -1
;
#X obj 594 56 bng 15 250 50 0 empty empty 81 2 -7 0 10 -262144 -1 -1
;
#X obj 631 56 bng 15 250 50 0 empty empty 84 2 -7 0 10 -262144 -1 -1
;
#X obj 650 56 bng 15 250 50 0 empty empty 87 2 -7 0 10 -262144 -1 -1
;
#X obj 17 17 r drums;
#X obj 187 56 bng 15 250 50 0 empty empty 38 0 -7 0 10 -262144 -1 -1
;
#X obj 261 56 bng 15 250 50 0 empty empty 51 0 -7 0 10 -262144 -1 -1
;
#X obj 369 272 unpack f f f;
#N canvas 0 50 450 515 hihat 0;
#N canvas 475 183 676 682 hhnoise 0;
#X obj 178 566 outlet~;
#X obj 194 311 *~;
#X obj 178 479 +~;
#X obj 179 540 osc~;
#X obj 195 426 *~;
#X obj 195 203 unpack f f f f f;
#X obj 177 450 sig~;
#X obj 195 250 osc~;
#X obj 209 274 osc~;
#N canvas 730 50 450 300 programmer 0;
#X msg 99 193 748.031 787.402 0.393701 511.811 8125.98;
#X obj 244 63 hsl 128 15 0 5000 0 0 empty empty modf1 32 7 1 8 -262144
-1 -1 0 1;
#X obj 136 147 pack f f f f f;
#X obj 136 124 t b;
#X msg 136 169 set \$1 \$2 \$3 \$4 \$5;
#X obj 244 78 hsl 128 15 0 5000 0 0 empty empty modf2 32 7 1 8 -262144
-1 -1 0 1;
#X obj 244 93 hsl 128 15 0 1 0 0 empty empty env 32 7 1 8 -262144 -1
-1 0 1;
#X obj 244 108 hsl 128 15 0 5000 0 0 empty empty fm_amount 32 7 1 8
-262144 -1 -1 0 1;
#X obj 244 123 hsl 128 15 0 12000 0 0 empty empty base_freq 32 7 1
8 -262144 -1 -1 0 1;
#X obj 95 150 del 2;
#X obj 96 224 outlet;
#X msg 122 259 1141.73 472.441 0.645669 2874.02 10299.2;
#X msg 149 230 748.031 1023.62 0.173228 1968.5 9259.84;
#X msg 183 277 2834.65 2165.35 0.511811 4370.08 8125.98;
#X obj 304 162 loadbang;
#X connect 0 0 10 0;
#X connect 1 0 2 0;
#X connect 1 0 3 0;
#X connect 2 0 4 0;
#X connect 3 0 2 0;
#X connect 3 0 9 0;
#X connect 4 0 0 0;
#X connect 5 0 2 1;
#X connect 5 0 3 0;
#X connect 6 0 2 2;
#X connect 6 0 3 0;
#X connect 7 0 2 3;
#X connect 7 0 3 0;
#X connect 8 0 2 4;
#X connect 8 0 3 0;
#X connect 9 0 0 0;
#X connect 11 0 10 0;
#X connect 12 0 10 0;
#X connect 13 0 10 0;
#X connect 14 0 12 0;
#X restore 195 177 pd programmer;
#X obj 153 311 +~;
#N canvas 0 50 450 300 xf 0;
#X obj 107 37 inlet~;
#X obj 158 37 inlet~;
#X obj 123 135 *~;
#X obj 152 134 *~;
#X obj 134 178 outlet~;
#X obj 171 87 sig~ 1;
#X obj 169 108 -~;
#X obj 227 37 inlet~ xfade;
#X connect 0 0 2 0;
#X connect 1 0 3 0;
#X connect 2 0 4 0;
#X connect 3 0 4 0;
#X connect 5 0 6 0;
#X connect 6 0 3 1;
#X connect 7 0 6 1;
#X connect 7 0 2 1;
#X restore 154 351 pd xf;
#X text 263 302 2 ringmod;
#X obj 223 311 *~;
#X obj 222 133 inlet~ spectrum env;
#X obj 179 516 +~;
#X text 219 540 fbfm;
#X obj 125 567 *~ 600;
#X obj 208 482 r~ \$0-fd;
#X obj 124 591 s~ \$0-fd;
#X connect 1 0 11 1;
#X connect 2 0 15 0;
#X connect 3 0 0 0;
#X connect 3 0 17 0;
#X connect 4 0 2 1;
#X connect 5 0 7 0;
#X connect 5 1 8 0;
#X connect 5 2 13 1;
#X connect 5 3 4 1;
#X connect 5 4 6 0;
#X connect 6 0 2 0;
#X connect 7 0 1 0;
#X connect 7 0 10 0;
#X connect 8 0 1 1;
#X connect 8 0 10 1;
#X connect 9 0 5 0;
#X connect 10 0 11 0;
#X connect 11 0 4 0;
#X connect 13 0 11 2;
#X connect 14 0 13 0;
#X connect 15 0 3 0;
#X connect 17 0 19 0;
#X connect 18 0 15 1;
#X restore 21 346 pd hhnoise;
#X obj 82 384 *~;
#X obj 98 299 vline~;
#X obj 99 345 *~;
#X obj 82 463 switch~;
#X obj 82 411 env~;
#X msg 123 436 1;
#X obj 98 114 t b b;
#X obj 82 436 > 0.1;
#X obj 23 435 outlet~;
#X obj 148 114 t b b;
#X msg 98 243 \$1 0 0 \, 0 \$2 1;
#X obj 98 220 pack f f;
#X obj 98 169 t f f;
#X obj 148 167 t f f;
#X msg 98 143 0.6;
#X msg 148 144 1;
#X obj 253 63 inlet decay;
#X obj 194 197 *;
#X obj 147 197 *;
#X obj 266 121 * 600;
#X text 153 379 fm hi hat;
#X text 47 455 ajf;
#X obj 126 37 inlet hihat;
#X obj 347 38 loadbang;
#X obj 126 65 sel 2 1;
#X msg 347 63 0.1;
#X obj 214 121 * 7000;
#X connect 0 0 1 0;
#X connect 1 0 5 0;
#X connect 1 0 9 0;
#X connect 2 0 3 0;
#X connect 2 0 3 1;
#X connect 2 0 0 0;
#X connect 3 0 1 1;
#X connect 5 0 8 0;
#X connect 6 0 4 0;
#X connect 7 0 15 0;
#X connect 7 1 6 0;
#X connect 8 0 4 0;
#X connect 10 0 16 0;
#X connect 10 1 6 0;
#X connect 11 0 2 0;
#X connect 12 0 11 0;
#X connect 13 0 12 0;
#X connect 13 1 19 0;
#X connect 14 0 12 0;
#X connect 14 1 18 0;
#X connect 15 0 13 0;
#X connect 16 0 14 0;
#X connect 17 0 20 0;
#X connect 17 0 27 0;
#X connect 18 0 12 1;
#X connect 19 0 12 1;
#X connect 20 0 18 1;
#X connect 23 0 25 0;
#X connect 24 0 26 0;
#X connect 25 0 7 0;
#X connect 25 1 10 0;
#X connect 26 0 20 0;
#X connect 26 0 27 0;
#X connect 27 0 19 1;
#X restore 393 173 pd hihat;
#X obj 260 262 r dvol;
#X msg 309 152 1;
#X obj 78 13 r dd;
#X obj 132 56 bng 15 250 50 0 empty empty 35 0 -7 0 10 -262144 -1 -1
;
#X obj 169 56 bng 15 250 50 0 empty empty 37 0 -7 0 10 -262144 -1 -1
;
#X obj 243 56 bng 15 250 50 0 empty empty 49 0 -7 0 10 -262144 -1 -1
;
#X msg 231 154 0;
#X obj 65 132 print;
#X obj 112 21 sel 35 36 37 38 42 44 49 51 56 60 61 62 63 64 65 66 68
70 71 73 74 75 76 79 80 81 82 84 87, f 90;
#X obj 391 56 bng 15 250 50 0 empty empty 65 2 -7 0 10 -262144 -1 -1
;
#X obj 369 252 ii 100 40 60;
#X obj 260 282 / 128;
#X obj 219 255 *~ 1;
#X connect 0 0 16 0;
#X connect 1 0 22 0;
#X connect 2 0 4 0;
#X connect 4 0 62 0;
#X connect 5 0 6 0;
#X connect 6 0 4 1;
#X connect 7 0 10 0;
#X connect 7 1 9 0;
#X connect 8 0 9 1;
#X connect 8 0 10 1;
#X connect 9 0 11 1;
#X connect 10 0 11 0;
#X connect 11 0 58 0;
#X connect 12 0 13 0;
#X connect 13 0 62 0;
#X connect 14 0 15 0;
#X connect 15 0 13 1;
#X connect 16 0 12 0;
#X connect 17 0 2 0;
#X connect 18 0 16 0;
#X connect 19 0 22 0;
#X connect 20 0 22 0;
#X connect 21 0 16 0;
#X connect 22 0 49 0;
#X connect 23 0 28 0;
#X connect 24 0 29 0;
#X connect 25 0 56 0;
#X connect 26 0 17 0;
#X connect 27 0 17 0;
#X connect 28 0 62 0;
#X connect 29 0 23 0;
#X connect 30 0 31 0;
#X connect 31 0 28 1;
#X connect 32 0 22 0;
#X connect 33 0 17 0;
#X connect 34 0 22 0;
#X connect 35 0 22 0;
#X connect 36 0 17 0;
#X connect 37 0 29 0;
#X connect 38 0 22 0;
#X connect 39 0 17 0;
#X connect 40 0 29 0;
#X connect 41 0 22 0;
#X connect 44 0 29 0;
#X connect 45 0 7 0;
#X connect 46 0 29 0;
#X connect 47 0 17 0;
#X connect 48 0 14 0;
#X connect 48 1 5 0;
#X connect 48 2 30 0;
#X connect 49 0 4 0;
#X connect 50 0 61 0;
#X connect 51 0 2 0;
#X connect 52 0 8 0;
#X connect 53 0 16 0;
#X connect 54 0 29 0;
#X connect 56 0 12 0;
#X connect 58 0 53 0;
#X connect 58 1 0 0;
#X connect 58 2 54 0;
#X connect 58 3 46 0;
#X connect 58 4 1 0;
#X connect 58 5 19 0;
#X connect 58 6 55 0;
#X connect 58 7 47 0;
#X connect 58 8 18 0;
#X connect 58 9 20 0;
#X connect 58 10 21 0;
#X connect 58 11 25 0;
#X connect 58 12 24 0;
#X connect 58 13 26 0;
#X connect 58 14 59 0;
#X connect 58 15 27 0;
#X connect 58 16 32 0;
#X connect 58 17 34 0;
#X connect 58 18 33 0;
#X connect 58 19 35 0;
#X connect 58 20 36 0;
#X connect 58 21 38 0;
#X connect 58 22 37 0;
#X connect 58 23 39 0;
#X connect 58 24 40 0;
#X connect 58 25 42 0;
#X connect 58 26 41 0;
#X connect 58 27 43 0;
#X connect 58 28 44 0;
#X connect 60 0 48 0;
#X connect 61 0 62 1;
#X connect 62 0 3 1;
#X connect 62 0 3 0;
#X coords 0 0 1 1 200 140 0;
#X restore 487 71 pd drums;
#X obj 367 10 cnv 10 26 14 empty empty track -40 7 0 12 -260097 -262144
0;
#X floatatom 367 11 4 0 0 0 - _rand track, f 4;
#X obj 660 29 cnv 10 32 14 empty empty volB -32 8 0 12 -262130 -262144
0;
#X floatatom 660 29 5 0 127 1 - - -, f 5;
#X obj 707 26 cnv 10 32 14 empty empty drums 0 -7 0 12 -262130 -262144
0;
#X floatatom 707 27 5 0 127 0 - - dvol, f 5;
#X obj 125 28 bng 15 250 50 0 empty empty instB -43 7 0 12 -261682
-4032 -262144;
#X obj 162 28 bng 15 250 50 0 empty empty empty 17 7 0 10 -261682 -4032
-1;
#X obj 140 29 cnv 10 21 14 empty empty empty 20 12 0 14 -204786 -66577
0;
#X floatatom 141 29 3 0 0 0 - - -, f 3;
#X obj 134 72 pgmout 2;
#X obj 106 50 cupq;
#X obj 795 49 cupq;
#X obj 99 72 cupq;
#X obj 936 9 bng 15 250 50 0 empty empty transpA -43 7 0 10 -203904
-258113 -262144;
#X obj 974 9 bng 15 250 50 0 empty empty empty 17 7 0 10 -203904 -258113
-1;
#X obj 952 10 cnv 10 21 14 empty empty empty 20 12 0 14 -204786 -66577
0;
#X floatatom 953 10 3 0 0 0 - - -, f 3;
#X obj 937 28 bng 15 250 50 0 empty empty transpB -43 7 0 10 -232576
-260097 -262144;
#X obj 974 28 bng 15 250 50 0 empty empty empty 17 7 0 10 -232576 -260097
-1;
#X obj 952 29 cnv 10 21 14 empty empty empty 20 12 0 14 -204786 -66577
0;
#X floatatom 953 29 3 0 0 0 - - -, f 3;
#X obj 907 50 cupq;
#X obj 905 72 cupq;
#X obj 940 72 s tps2;
#X obj 944 51 s tps;
#X obj 829 49 s goto;
#X connect 4 0 58 0;
#X connect 5 0 58 2;
#X connect 8 0 37 0;
#X connect 8 0 58 1;
#X connect 13 0 59 1;
#X connect 13 0 73 0;
#X connect 17 0 6 0;
#X connect 22 0 29 0;
#X connect 23 0 24 0;
#X connect 26 0 13 0;
#X connect 27 0 59 0;
#X connect 28 0 59 2;
#X connect 30 0 22 0;
#X connect 32 0 31 0;
#X connect 33 0 34 0;
#X connect 38 0 39 0;
#X connect 50 0 39 0;
#X connect 53 0 60 0;
#X connect 54 0 60 2;
#X connect 56 0 57 0;
#X connect 56 0 60 1;
#X connect 58 0 8 0;
#X connect 59 0 13 0;
#X connect 60 0 56 0;
#X connect 60 0 57 0;
#X connect 61 0 69 0;
#X connect 62 0 69 2;
#X connect 64 0 69 1;
#X connect 64 0 72 0;
#X connect 65 0 70 0;
#X connect 66 0 70 2;
#X connect 68 0 70 1;
#X connect 68 0 71 0;
#X connect 69 0 64 0;
#X connect 70 0 68 0;
#X connect 70 0 71 0;
#X coords 0 -1 1 1 1100 40 1 5 5;
#X restore 12 6 pd controls;
#X obj 20 97 hsl 1068 12 16 108 0 0 slide empty empty -2 -8 0 10 -203904
-1 -1 0 0;
#X obj 7 47 kbmed;
#X coords 0 -1 1 1 1107 105 1 5 5;
