#N canvas 766 440 354 238 10;
#X text 111 29 NEGATION OPERATOR;
#X text 35 44 reverses the meaning of the operand;
#X obj 249 130 !;
#X obj 239 105 tgl 15 0 empty empty empty 17 7 0 10 -262144 -1 -1 0
1;
#X floatatom 249 152 5 0 0 0 - - -, f 5;
#X floatatom 207 152 5 0 0 0 - - -, f 5;
#X msg 84 105 0;
#X msg 117 105 1;
#X obj 100 131 not;
#X floatatom 100 153 5 0 0 0 - - -, f 5;
#X connect 2 0 4 0;
#X connect 3 0 2 0;
#X connect 3 0 5 0;
#X connect 6 0 8 0;
#X connect 7 0 8 0;
#X connect 8 0 9 0;
#X coords 0 238 1 237 85 60 0;
