#N canvas 520 260 721 571 14;
#X obj 250 50 openpanel;
#X obj 60 180 gme~ 0;
#X obj 50 400 *~;
#X obj 80 400 *~;
#X obj 110 400 *~;
#X obj 140 400 *~;
#X obj 170 400 *~;
#X obj 200 400 *~;
#X obj 230 400 *~;
#X obj 260 400 *~;
#X obj 290 400 *~;
#X obj 320 400 *~;
#X obj 350 400 *~;
#X obj 380 400 *~;
#X obj 410 400 *~;
#X obj 440 400 *~;
#X obj 470 400 *~;
#X obj 500 400 *~;
#X obj 260 520 dac~;
#X obj 120 180 gme~ 1;
#X obj 180 180 gme~ 2;
#X obj 240 180 gme~ 3;
#X obj 300 180 gme~ 4;
#X obj 350 180 gme~ 5;
#X obj 410 180 gme~ 6;
#X obj 470 180 gme~ 7;
#X obj 50 50 cupqb;
#X obj 70 30 bng 15 250 50 0 empty empty empty 17 7 0 10 -1 -262144
-262144;
#X msg 200 50 stop;
#X floatatom 350 60 5 0 0 0 - - -;
#X obj 350 90 / 100;
#X msg 350 120 tempo \$1;
#X msg 50 140 info;
#X msg 250 80 read \$1 \, 0;
#X obj 50 110 change;
#X obj 110 110 route read;
#X msg 110 140 path;
#X obj 170 60 bng 15 250 50 0 empty empty empty 17 7 0 10 -1 -262144
-262144;
#X obj 520 220 vsl 15 128 0.001 1 1 0 empty empty empty 0 -9 0 10 -1
-262144 -262144 12700 1;
#X obj 540 220 vsl 15 128 0.001 1 1 0 empty empty empty 0 -9 0 10 -1
-262144 -262144 12700 1;
#X obj 560 220 vsl 15 128 0.001 1 1 0 empty empty empty 0 -9 0 10 -1
-262144 -262144 12700 1;
#X obj 580 220 vsl 15 128 0.001 1 1 0 empty empty empty 0 -9 0 10 -1
-262144 -262144 12700 1;
#X obj 600 220 vsl 15 128 0.001 1 1 0 empty empty empty 0 -9 0 10 -1
-262144 -262144 12700 1;
#X obj 620 220 vsl 15 128 0.001 1 1 0 empty empty empty 0 -9 0 10 -1
-262144 -262144 12700 1;
#X obj 640 220 vsl 15 128 0.001 1 1 0 empty empty empty 0 -9 0 10 -1
-262144 -262144 12700 1;
#X obj 660 220 vsl 15 128 0.001 1 1 0 empty empty empty 0 -9 0 10 -1
-262144 -262144 12700 1;
#X obj 540 180 hsl 128 15 0.001 1 1 0 empty empty empty -2 -8 0 10
-1 -262144 -262144 12700 1;
#X obj 460 450 hsl 128 15 0.001 1 1 0 empty empty empty -2 -8 0 10
-1 -262144 -262144 0 1;
#X obj 180 480 *~;
#X obj 360 480 *~;
#X obj 540 120 loadbang;
#X msg 540 150 1;
#X msg 200 20 symbol ~/Documents/Pd/game-music;
#X obj 250 110 t a;
#X connect 0 0 33 0;
#X connect 1 0 2 0;
#X connect 1 1 3 0;
#X connect 2 0 48 0;
#X connect 3 0 49 0;
#X connect 4 0 48 0;
#X connect 5 0 49 0;
#X connect 6 0 48 0;
#X connect 7 0 49 0;
#X connect 8 0 48 0;
#X connect 9 0 49 0;
#X connect 10 0 48 0;
#X connect 11 0 49 0;
#X connect 12 0 48 0;
#X connect 13 0 49 0;
#X connect 14 0 48 0;
#X connect 15 0 49 0;
#X connect 16 0 48 0;
#X connect 17 0 49 0;
#X connect 19 0 4 0;
#X connect 19 1 5 0;
#X connect 20 0 6 0;
#X connect 20 1 7 0;
#X connect 21 0 8 0;
#X connect 21 1 9 0;
#X connect 22 0 10 0;
#X connect 22 1 11 0;
#X connect 23 0 12 0;
#X connect 23 1 13 0;
#X connect 24 0 14 0;
#X connect 24 1 15 0;
#X connect 25 0 16 0;
#X connect 25 1 17 0;
#X connect 26 0 34 0;
#X connect 26 0 53 0;
#X connect 27 0 26 1;
#X connect 28 0 53 0;
#X connect 29 0 30 0;
#X connect 30 0 31 0;
#X connect 31 0 53 0;
#X connect 32 0 1 0;
#X connect 33 0 53 0;
#X connect 34 0 32 0;
#X connect 35 0 32 0;
#X connect 35 0 36 0;
#X connect 36 0 1 0;
#X connect 37 0 53 0;
#X connect 38 0 2 1;
#X connect 38 0 3 1;
#X connect 39 0 4 1;
#X connect 39 0 5 1;
#X connect 40 0 6 1;
#X connect 40 0 7 1;
#X connect 41 0 8 1;
#X connect 41 0 9 1;
#X connect 42 0 10 1;
#X connect 42 0 11 1;
#X connect 43 0 12 1;
#X connect 43 0 13 1;
#X connect 44 0 14 1;
#X connect 44 0 15 1;
#X connect 45 0 16 1;
#X connect 45 0 17 1;
#X connect 46 0 42 0;
#X connect 46 0 45 0;
#X connect 46 0 44 0;
#X connect 46 0 43 0;
#X connect 46 0 41 0;
#X connect 46 0 40 0;
#X connect 46 0 39 0;
#X connect 46 0 38 0;
#X connect 47 0 49 1;
#X connect 47 0 48 1;
#X connect 48 0 18 0;
#X connect 49 0 18 1;
#X connect 50 0 51 0;
#X connect 51 0 46 0;
#X connect 52 0 0 0;
#X connect 53 0 1 0;
#X connect 53 0 25 0;
#X connect 53 0 24 0;
#X connect 53 0 23 0;
#X connect 53 0 22 0;
#X connect 53 0 21 0;
#X connect 53 0 20 0;
#X connect 53 0 19 0;
#X connect 53 0 35 0;
