#N canvas 632 266 510 465 14;
#X obj 88 47 inlet;
#X obj 122 202 tgl 18 0 empty empty empty 17 7 0 10 -1 -262144 -262144
0 1;
#X obj 142 202 tgl 18 0 empty empty empty 17 7 0 10 -1 -262144 -262144
0 1;
#X obj 162 202 tgl 18 0 empty empty empty 17 7 0 10 -1 -262144 -262144
0 1;
#X obj 182 202 tgl 18 0 empty empty empty 17 7 0 10 -1 -262144 -262144
0 1;
#X obj 202 202 tgl 18 0 empty empty empty 17 7 0 10 -1 -262144 -262144
0 1;
#X obj 222 202 tgl 18 0 empty empty empty 17 7 0 10 -1 -262144 -262144
0 1;
#X obj 242 202 tgl 18 0 empty empty empty 17 7 0 10 -1 -262144 -262144
0 1;
#X obj 262 202 tgl 18 0 empty empty empty 17 7 0 10 -1 -262144 -262144
0 1;
#X obj 122 168 & 1;
#X obj 142 138 2^ 1;
#X obj 162 108 2^ 2;
#X obj 182 78 2^ 3;
#X obj 202 50 2^ 4;
#X obj 222 108 2^ 5;
#X obj 242 138 2^ 6;
#X obj 262 168 2^ 7;
#X obj 142 232 << 1;
#X obj 162 261 << 2;
#X obj 182 288 << 3;
#X obj 202 316 << 4;
#X obj 222 288 << 5;
#X obj 242 261 << 6;
#X obj 262 232 << 7;
#X obj 55 415 outlet;
#X obj 55 255 b, f 1;
#X obj 55 367 expr $f1 + $f2 + $f3 + $f4 + $f5 + $f6 + $f7 + $f8;
#X obj 314 54 cnv 15 100 24 empty empty gme-mask 4 12 0 18 -1 -262144
0;
#X text 241 79 simple channel-muter for gme~;
#X connect 0 0 9 0;
#X connect 0 0 10 0;
#X connect 0 0 11 0;
#X connect 0 0 12 0;
#X connect 0 0 13 0;
#X connect 0 0 14 0;
#X connect 0 0 15 0;
#X connect 0 0 16 0;
#X connect 1 0 26 0;
#X connect 2 0 17 0;
#X connect 2 0 25 0;
#X connect 3 0 18 0;
#X connect 3 0 25 0;
#X connect 4 0 19 0;
#X connect 4 0 25 0;
#X connect 5 0 20 0;
#X connect 5 0 25 0;
#X connect 6 0 21 0;
#X connect 6 0 25 0;
#X connect 7 0 22 0;
#X connect 7 0 25 0;
#X connect 8 0 23 0;
#X connect 8 0 25 0;
#X connect 9 0 1 0;
#X connect 10 0 2 0;
#X connect 11 0 3 0;
#X connect 12 0 4 0;
#X connect 13 0 5 0;
#X connect 14 0 6 0;
#X connect 15 0 7 0;
#X connect 16 0 8 0;
#X connect 17 0 26 1;
#X connect 18 0 26 2;
#X connect 19 0 26 3;
#X connect 20 0 26 4;
#X connect 21 0 26 5;
#X connect 22 0 26 6;
#X connect 23 0 26 7;
#X connect 25 0 26 0;
#X connect 26 0 24 0;
#X coords 0 -1 1 1 162 22 2 120 200;
