#N canvas 710 400 860 550 14;
#X obj 40 60 inlet;
#X obj 290 280 tgl 18 0 empty empty empty 17 7 0 10 #ff0400 #fcfcfc
#fcfcfc 0 1;
#X obj 310 280 tgl 18 0 empty empty empty 17 7 0 10 #ff0400 #fcfcfc
#fcfcfc 0 1;
#X obj 330 280 tgl 18 0 empty empty empty 17 7 0 10 #ff0400 #fcfcfc
#fcfcfc 0 1;
#X obj 350 280 tgl 18 0 empty empty empty 17 7 0 10 #ff0400 #fcfcfc
#fcfcfc 0 1;
#X obj 370 280 tgl 18 0 empty empty empty 17 7 0 10 #551312 #fcfcfc
#fcfcfc 0 1;
#X obj 390 280 tgl 18 0 empty empty empty 17 7 0 10 #551312 #fcfcfc
#fcfcfc 0 1;
#X obj 410 280 tgl 18 0 empty empty empty 17 7 0 10 #551312 #fcfcfc
#fcfcfc 0 1;
#X obj 430 280 tgl 18 0 empty empty empty 17 7 0 10 #551312 #fcfcfc
#fcfcfc 0 1;
#X obj 40 200 & 1;
#X obj 160 420 << 1;
#X obj 210 420 << 2;
#X obj 260 420 << 3;
#X obj 310 420 << 4;
#X obj 360 420 << 5;
#X obj 410 420 << 6;
#X obj 460 420 << 7;
#X obj 70 500 outlet;
#X obj 350 20 cnv 15 112 24 empty empty gme-mask 4 12 0 18 #000000
#fcfcfc 0;
#X obj 170 330 t b f;
#X obj 220 330 t b f;
#X obj 270 330 t b f;
#X obj 320 330 t b f;
#X obj 370 330 t b f;
#X obj 420 330 t b f;
#X obj 470 330 t b f;
#X obj 80 400 b;
#X obj 70 330 t f;
#X obj 460 170 & 1;
#X obj 460 140 >> 7;
#X obj 400 170 & 1;
#X obj 400 140 >> 6;
#X obj 340 170 & 1;
#X obj 280 170 & 1;
#X obj 340 140 >> 5;
#X obj 280 140 >> 4;
#X obj 220 170 & 1;
#X obj 160 170 & 1;
#X obj 220 140 >> 3;
#X obj 160 140 >> 2;
#X obj 100 170 & 1;
#X obj 100 140 >> 1;
#X text 280 50 channel mute helper for gme~;
#X msg 460 200 set \$1;
#X msg 400 200 set \$1;
#X msg 340 200 set \$1;
#X msg 280 200 set \$1;
#X msg 220 200 set \$1;
#X msg 160 200 set \$1;
#X msg 100 200 set \$1;
#X obj 450 280 tgl 18 0 empty empty empty 17 7 0 10 #000000 #fcfcfc
#fcfcfc 0 1;
#X obj 470 280 tgl 18 0 empty empty empty 17 7 0 10 #000000 #fcfcfc
#fcfcfc 0 1;
#X obj 490 280 tgl 18 0 empty empty empty 17 7 0 10 #000000 #fcfcfc
#fcfcfc 0 1;
#X obj 510 280 tgl 18 0 empty empty empty 17 7 0 10 #000000 #fcfcfc
#fcfcfc 0 1;
#X obj 530 280 tgl 18 0 empty empty empty 17 7 0 10 #000000 #fcfcfc
#fcfcfc 0 1;
#X obj 760 170 & 1;
#X obj 700 170 & 1;
#X obj 640 170 & 1;
#X obj 580 170 & 1;
#X obj 520 170 & 1;
#X msg 760 200 set \$1;
#X msg 700 200 set \$1;
#X msg 640 200 set \$1;
#X msg 580 200 set \$1;
#X msg 520 200 set \$1;
#X obj 40 90 t f f f f f f f f f f f f f, f 90;
#X obj 520 140 >> 8;
#X obj 580 140 >> 9;
#X obj 640 140 >> 10;
#X obj 700 140 >> 11;
#X obj 760 140 >> 12;
#X obj 520 330 t b f;
#X obj 570 330 t b f;
#X obj 620 330 t b f;
#X obj 670 330 t b f;
#X obj 720 330 t b f;
#X obj 70 460 expr $f1 + $f2 + $f3 + $f4 + $f5 + $f6 + $f7 + $f8 +
$f9 + $f10 + $f11 + $f12 + $f13, f 85;
#X obj 510 420 << 8;
#X obj 560 420 << 9;
#X obj 610 420 << 10;
#X obj 660 420 << 11;
#X obj 710 420 << 12;
#X connect 0 0 65 0;
#X connect 1 0 27 0;
#X connect 2 0 19 0;
#X connect 3 0 20 0;
#X connect 4 0 21 0;
#X connect 5 0 22 0;
#X connect 6 0 23 0;
#X connect 7 0 24 0;
#X connect 8 0 25 0;
#X connect 9 0 1 0;
#X connect 10 0 76 1;
#X connect 11 0 76 2;
#X connect 12 0 76 3;
#X connect 13 0 76 4;
#X connect 14 0 76 5;
#X connect 15 0 76 6;
#X connect 16 0 76 7;
#X connect 19 0 26 0;
#X connect 19 1 10 0;
#X connect 20 0 26 0;
#X connect 20 1 11 0;
#X connect 21 0 26 0;
#X connect 21 1 12 0;
#X connect 22 0 26 0;
#X connect 22 1 13 0;
#X connect 23 0 26 0;
#X connect 23 1 14 0;
#X connect 24 0 26 0;
#X connect 24 1 15 0;
#X connect 25 0 26 0;
#X connect 25 1 16 0;
#X connect 26 0 76 0;
#X connect 27 0 76 0;
#X connect 28 0 43 0;
#X connect 28 0 16 0;
#X connect 29 0 28 0;
#X connect 30 0 44 0;
#X connect 30 0 15 0;
#X connect 31 0 30 0;
#X connect 32 0 45 0;
#X connect 32 0 14 0;
#X connect 33 0 46 0;
#X connect 33 0 13 0;
#X connect 34 0 32 0;
#X connect 35 0 33 0;
#X connect 36 0 47 0;
#X connect 36 0 12 0;
#X connect 37 0 48 0;
#X connect 37 0 11 0;
#X connect 38 0 36 0;
#X connect 39 0 37 0;
#X connect 40 0 49 0;
#X connect 40 0 10 0;
#X connect 41 0 40 0;
#X connect 43 0 8 0;
#X connect 44 0 7 0;
#X connect 45 0 6 0;
#X connect 46 0 5 0;
#X connect 47 0 4 0;
#X connect 48 0 3 0;
#X connect 49 0 2 0;
#X connect 50 0 71 0;
#X connect 51 0 72 0;
#X connect 52 0 73 0;
#X connect 53 0 74 0;
#X connect 54 0 75 0;
#X connect 55 0 60 0;
#X connect 55 0 81 0;
#X connect 56 0 61 0;
#X connect 56 0 80 0;
#X connect 57 0 62 0;
#X connect 57 0 79 0;
#X connect 58 0 63 0;
#X connect 58 0 78 0;
#X connect 59 0 64 0;
#X connect 59 0 77 0;
#X connect 60 0 54 0;
#X connect 61 0 53 0;
#X connect 62 0 52 0;
#X connect 63 0 51 0;
#X connect 64 0 50 0;
#X connect 65 0 9 0;
#X connect 65 1 41 0;
#X connect 65 2 39 0;
#X connect 65 3 38 0;
#X connect 65 4 35 0;
#X connect 65 5 34 0;
#X connect 65 6 31 0;
#X connect 65 7 29 0;
#X connect 65 8 66 0;
#X connect 65 9 67 0;
#X connect 65 10 68 0;
#X connect 65 11 69 0;
#X connect 65 12 70 0;
#X connect 66 0 59 0;
#X connect 67 0 58 0;
#X connect 68 0 57 0;
#X connect 69 0 56 0;
#X connect 70 0 55 0;
#X connect 71 0 26 0;
#X connect 71 1 77 0;
#X connect 72 0 26 0;
#X connect 72 1 78 0;
#X connect 73 0 26 0;
#X connect 73 1 79 0;
#X connect 74 0 26 0;
#X connect 74 1 80 0;
#X connect 75 0 26 0;
#X connect 75 1 81 0;
#X connect 76 0 17 0;
#X connect 77 0 76 8;
#X connect 78 0 76 9;
#X connect 79 0 76 10;
#X connect 80 0 76 11;
#X connect 81 0 76 12;
#X coords 0 -1 1 1 262 22 2 288 278;
