#N canvas 1080 580 511 461 14;
#X obj 30 40 inlet;
#X obj 150 190 tgl 18 0 empty empty empty 17 7 0 10 -1 -262144 -262144
0 1;
#X obj 170 190 tgl 18 0 empty empty empty 17 7 0 10 -1 -262144 -262144
0 1;
#X obj 190 190 tgl 18 0 empty empty empty 17 7 0 10 -1 -262144 -262144
0 1;
#X obj 210 190 tgl 18 0 empty empty empty 17 7 0 10 -1 -262144 -262144
0 1;
#X obj 230 190 tgl 18 0 empty empty empty 17 7 0 10 -1 -262144 -262144
0 1;
#X obj 250 190 tgl 18 0 empty empty empty 17 7 0 10 -1 -262144 -262144
0 1;
#X obj 270 190 tgl 18 0 empty empty empty 17 7 0 10 -1 -262144 -262144
0 1;
#X obj 290 190 tgl 18 0 empty empty empty 17 7 0 10 -1 -262144 -262144
0 1;
#X obj 30 130 & 1;
#X obj 120 330 << 1;
#X obj 170 330 << 2;
#X obj 220 330 << 3;
#X obj 270 330 << 4;
#X obj 320 330 << 5;
#X obj 370 330 << 6;
#X obj 420 330 << 7;
#X obj 30 410 outlet;
#X obj 30 370 expr $f1 + $f2 + $f3 + $f4 + $f5 + $f6 + $f7 + $f8;
#X obj 310 20 cnv 15 112 24 empty empty gme-mask 4 12 0 18 -1 -262144
0;
#X obj 80 240 t b f;
#X obj 130 240 t b f;
#X obj 180 240 t b f;
#X obj 230 240 t b f;
#X obj 280 240 t b f;
#X obj 330 240 t b f;
#X obj 380 240 t b f;
#X obj 40 310 b;
#X obj 30 240 t f;
#X obj 380 130 & 1;
#X obj 380 100 >> 7;
#X obj 330 130 & 1;
#X obj 330 100 >> 6;
#X obj 280 130 & 1;
#X obj 230 130 & 1;
#X obj 280 100 >> 5;
#X obj 230 100 >> 4;
#X obj 180 130 & 1;
#X obj 130 130 & 1;
#X obj 180 100 >> 3;
#X obj 130 100 >> 2;
#X obj 80 130 & 1;
#X obj 80 100 >> 1;
#X text 240 50 channel mute helper for gme~;
#X connect 0 0 9 0;
#X connect 0 0 30 0;
#X connect 0 0 32 0;
#X connect 0 0 35 0;
#X connect 0 0 36 0;
#X connect 0 0 39 0;
#X connect 0 0 40 0;
#X connect 0 0 42 0;
#X connect 1 0 28 0;
#X connect 2 0 20 0;
#X connect 3 0 21 0;
#X connect 4 0 22 0;
#X connect 5 0 23 0;
#X connect 6 0 24 0;
#X connect 7 0 25 0;
#X connect 8 0 26 0;
#X connect 9 0 1 0;
#X connect 10 0 18 1;
#X connect 11 0 18 2;
#X connect 12 0 18 3;
#X connect 13 0 18 4;
#X connect 14 0 18 5;
#X connect 15 0 18 6;
#X connect 16 0 18 7;
#X connect 18 0 17 0;
#X connect 20 0 27 0;
#X connect 20 1 10 0;
#X connect 21 0 27 0;
#X connect 21 1 11 0;
#X connect 22 0 27 0;
#X connect 22 1 12 0;
#X connect 23 0 27 0;
#X connect 23 1 13 0;
#X connect 24 0 27 0;
#X connect 24 1 14 0;
#X connect 25 0 27 0;
#X connect 25 1 15 0;
#X connect 26 0 27 0;
#X connect 26 1 16 0;
#X connect 27 0 18 0;
#X connect 28 0 18 0;
#X connect 29 0 8 0;
#X connect 30 0 29 0;
#X connect 31 0 7 0;
#X connect 32 0 31 0;
#X connect 33 0 6 0;
#X connect 34 0 5 0;
#X connect 35 0 33 0;
#X connect 36 0 34 0;
#X connect 37 0 4 0;
#X connect 38 0 3 0;
#X connect 39 0 37 0;
#X connect 40 0 38 0;
#X connect 41 0 2 0;
#X connect 42 0 41 0;
#X coords 0 -1 1 1 162 22 2 148 188;
