#N canvas 216 262 286 257 10;
#X obj 103 48 inlet;
#X obj 110 89 - 20;
#X obj 145 129 * 2;
#X obj 110 129 + 88;
#X obj 110 149 -;
#X obj 110 169 + 16;
#X obj 103 189 outlet;
#X obj 103 68 demux;
#X obj 110 109 t f f;
#X obj 142 48 inlet;
#X text 84 12 keyboard reverse;
#X connect 0 0 7 0;
#X connect 1 0 8 0;
#X connect 2 0 4 1;
#X connect 3 0 4 0;
#X connect 4 0 5 0;
#X connect 5 0 6 0;
#X connect 7 0 6 0;
#X connect 7 1 1 0;
#X connect 8 0 3 0;
#X connect 8 1 2 0;
#X connect 9 0 7 1;
#X coords 0 257 1 256 85 60 0;
