#N canvas 823 370 312 367 10;
#X obj 152 23 cupqb;
#X obj 103 203 *~;
#X floatatom 142 214 5 0 0 0 - - -;
#X obj 113 301 dac~;
#X obj 142 233 / 1000;
#X obj 238 160 * 100;
#X floatatom 237 133 5 0 0 0 - - -;
#N canvas 1163 406 450 300 inst 0;
#X obj 171 170 *~;
#X obj 195 148 ad~ 1;
#N canvas 595 566 450 300 sound 0;
#X obj 96 20 inlet~;
#X obj 142 225 outlet~;
#X obj 145 171 cos~;
#X floatatom 302 43 5 0 0 0 - - -;
#X floatatom 355 43 5 0 0 0 - - -;
#X obj 260 138 osc~;
#X obj 239 44 osc~;
#X obj 153 128 *~;
#X floatatom 207 112 5 0 0 0 - - -;
#X obj 197 133 / 1000;
#X obj 61 126 phasor~;
#X obj 233 195 *~;
#X floatatom 261 186 5 0 0 0 - - -;
#X obj 261 214 / 1000;
#X obj 159 198 *~;
#X floatatom 187 189 5 0 0 0 - - -;
#X obj 187 217 / 1000;
#X obj 66 188 *~;
#X floatatom 94 179 5 0 0 0 - - -;
#X obj 94 207 / 1000;
#X obj 75 153 ii 750;
#X obj 193 166 ii 775;
#X obj 307 173 ii 2800;
#X obj 336 101 +~;
#X obj 272 76 *~ 1200;
#X obj 217 86 ii 1200;
#X connect 0 0 6 0;
#X connect 0 0 10 0;
#X connect 2 0 14 0;
#X connect 3 0 24 1;
#X connect 4 0 23 1;
#X connect 5 0 11 0;
#X connect 6 0 7 0;
#X connect 6 0 24 0;
#X connect 7 0 2 0;
#X connect 8 0 9 0;
#X connect 9 0 7 1;
#X connect 10 0 2 0;
#X connect 10 0 17 0;
#X connect 11 0 1 0;
#X connect 12 0 13 0;
#X connect 13 0 11 1;
#X connect 14 0 1 0;
#X connect 15 0 16 0;
#X connect 16 0 14 1;
#X connect 17 0 1 0;
#X connect 18 0 19 0;
#X connect 19 0 17 1;
#X connect 20 0 18 0;
#X connect 21 0 15 0;
#X connect 22 0 12 0;
#X connect 23 0 5 0;
#X connect 24 0 23 0;
#X connect 25 0 8 0;
#X restore 142 148 pd sound;
#X obj 195 126 b;
#X obj 158 57 inlet;
#X obj 171 219 outlet~;
#X obj 270 113 r dcay;
#X obj 227 113 r atak;
#X obj 137 118 pad~;
#X obj 165 84 r pmnto;
#X connect 0 0 5 0;
#X connect 1 0 0 1;
#X connect 2 0 0 0;
#X connect 3 0 1 0;
#X connect 4 0 3 0;
#X connect 4 0 8 0;
#X connect 6 0 1 2;
#X connect 7 0 1 1;
#X connect 8 0 2 0;
#X connect 9 0 8 1;
#X restore 32 121 pd inst;
#X obj 238 183 s dcay;
#X obj 224 20 cupqb;
#X obj 69 63 harm 33 16 19 23;
#X obj 106 251 *~;
#X floatatom 145 262 5 0 0 0 - - -;
#X obj 145 281 / 1000;
#X obj 193 160 * 100;
#X floatatom 192 133 5 0 0 0 - - -;
#X obj 193 183 s atak;
#N canvas 1084 479 450 300 chords 0;
#X msg 180 35 k 40;
#X msg 170 56 k 38;
#X msg 176 100 k 33;
#X msg 108 36 s 19 22 29;
#X msg 211 79 scl 3 27;
#X obj 123 161 outlet;
#X msg 171 78 k 36;
#X connect 0 0 5 0;
#X connect 1 0 5 0;
#X connect 2 0 5 0;
#X connect 3 0 5 0;
#X connect 4 0 5 0;
#X connect 6 0 5 0;
#X restore 51 29 pd chords;
#X obj 17 58 b;
#X floatatom 210 258 5 0 0 0 - - -;
#X obj 210 287 s pmnto;
#N canvas 1163 406 450 300 inst 0;
#X obj 171 170 *~;
#X obj 195 148 ad~ 1;
#N canvas 595 566 450 300 sound 0;
#X obj 96 20 inlet~;
#X obj 142 225 outlet~;
#X obj 145 171 cos~;
#X floatatom 302 43 5 0 0 0 - - -;
#X floatatom 355 43 5 0 0 0 - - -;
#X obj 260 138 osc~;
#X obj 239 44 osc~;
#X obj 153 128 *~;
#X floatatom 207 112 5 0 0 0 - - -;
#X obj 197 133 / 1000;
#X obj 61 126 phasor~;
#X obj 233 195 *~;
#X floatatom 261 186 5 0 0 0 - - -;
#X obj 261 214 / 1000;
#X obj 159 198 *~;
#X floatatom 187 189 5 0 0 0 - - -;
#X obj 187 217 / 1000;
#X obj 66 188 *~;
#X floatatom 94 179 5 0 0 0 - - -;
#X obj 94 207 / 1000;
#X obj 75 153 ii 750;
#X obj 193 166 ii 775;
#X obj 307 173 ii 2800;
#X obj 336 101 +~;
#X obj 272 76 *~ 1200;
#X obj 217 86 ii 1200;
#X connect 0 0 6 0;
#X connect 0 0 10 0;
#X connect 2 0 14 0;
#X connect 3 0 24 1;
#X connect 4 0 23 1;
#X connect 5 0 11 0;
#X connect 6 0 7 0;
#X connect 6 0 24 0;
#X connect 7 0 2 0;
#X connect 8 0 9 0;
#X connect 9 0 7 1;
#X connect 10 0 2 0;
#X connect 10 0 17 0;
#X connect 11 0 1 0;
#X connect 12 0 13 0;
#X connect 13 0 11 1;
#X connect 14 0 1 0;
#X connect 15 0 16 0;
#X connect 16 0 14 1;
#X connect 17 0 1 0;
#X connect 18 0 19 0;
#X connect 19 0 17 1;
#X connect 20 0 18 0;
#X connect 21 0 15 0;
#X connect 22 0 12 0;
#X connect 23 0 5 0;
#X connect 24 0 23 0;
#X connect 25 0 8 0;
#X restore 142 148 pd sound;
#X obj 195 126 b;
#X obj 158 57 inlet;
#X obj 171 219 outlet~;
#X obj 270 113 r dcay;
#X obj 227 113 r atak;
#X obj 137 118 pad~;
#X obj 165 84 r pmnto;
#X connect 0 0 5 0;
#X connect 1 0 0 1;
#X connect 2 0 0 0;
#X connect 3 0 1 0;
#X connect 4 0 3 0;
#X connect 4 0 8 0;
#X connect 6 0 1 2;
#X connect 7 0 1 1;
#X connect 8 0 2 0;
#X connect 9 0 8 1;
#X restore 90 124 pd inst;
#N canvas 1163 406 450 300 inst 0;
#X obj 171 170 *~;
#X obj 195 148 ad~ 1;
#N canvas 595 566 450 300 sound 0;
#X obj 96 20 inlet~;
#X obj 142 225 outlet~;
#X obj 145 171 cos~;
#X floatatom 302 43 5 0 0 0 - - -;
#X floatatom 355 43 5 0 0 0 - - -;
#X obj 260 138 osc~;
#X obj 239 44 osc~;
#X obj 153 128 *~;
#X floatatom 207 112 5 0 0 0 - - -;
#X obj 197 133 / 1000;
#X obj 61 126 phasor~;
#X obj 233 195 *~;
#X floatatom 261 186 5 0 0 0 - - -;
#X obj 261 214 / 1000;
#X obj 159 198 *~;
#X floatatom 187 189 5 0 0 0 - - -;
#X obj 187 217 / 1000;
#X obj 66 188 *~;
#X floatatom 94 179 5 0 0 0 - - -;
#X obj 94 207 / 1000;
#X obj 75 153 ii 750;
#X obj 193 166 ii 775;
#X obj 307 173 ii 2800;
#X obj 336 101 +~;
#X obj 272 76 *~ 1200;
#X obj 217 86 ii 1200;
#X connect 0 0 6 0;
#X connect 0 0 10 0;
#X connect 2 0 14 0;
#X connect 3 0 24 1;
#X connect 4 0 23 1;
#X connect 5 0 11 0;
#X connect 6 0 7 0;
#X connect 6 0 24 0;
#X connect 7 0 2 0;
#X connect 8 0 9 0;
#X connect 9 0 7 1;
#X connect 10 0 2 0;
#X connect 10 0 17 0;
#X connect 11 0 1 0;
#X connect 12 0 13 0;
#X connect 13 0 11 1;
#X connect 14 0 1 0;
#X connect 15 0 16 0;
#X connect 16 0 14 1;
#X connect 17 0 1 0;
#X connect 18 0 19 0;
#X connect 19 0 17 1;
#X connect 20 0 18 0;
#X connect 21 0 15 0;
#X connect 22 0 12 0;
#X connect 23 0 5 0;
#X connect 24 0 23 0;
#X connect 25 0 8 0;
#X restore 142 148 pd sound;
#X obj 195 126 b;
#X obj 158 57 inlet;
#X obj 171 219 outlet~;
#X obj 270 113 r dcay;
#X obj 227 113 r atak;
#X obj 137 118 pad~;
#X obj 165 84 r pmnto;
#X connect 0 0 5 0;
#X connect 1 0 0 1;
#X connect 2 0 0 0;
#X connect 3 0 1 0;
#X connect 4 0 3 0;
#X connect 4 0 8 0;
#X connect 6 0 1 2;
#X connect 7 0 1 1;
#X connect 8 0 2 0;
#X connect 9 0 8 1;
#X restore 100 134 pd inst;
#N canvas 1163 406 450 300 inst 0;
#X obj 171 170 *~;
#X obj 195 148 ad~ 1;
#N canvas 595 566 450 300 sound 0;
#X obj 96 20 inlet~;
#X obj 142 225 outlet~;
#X obj 145 171 cos~;
#X floatatom 302 43 5 0 0 0 - - -;
#X floatatom 355 43 5 0 0 0 - - -;
#X obj 260 138 osc~;
#X obj 239 44 osc~;
#X obj 153 128 *~;
#X floatatom 207 112 5 0 0 0 - - -;
#X obj 197 133 / 1000;
#X obj 61 126 phasor~;
#X obj 233 195 *~;
#X floatatom 261 186 5 0 0 0 - - -;
#X obj 261 214 / 1000;
#X obj 159 198 *~;
#X floatatom 187 189 5 0 0 0 - - -;
#X obj 187 217 / 1000;
#X obj 66 188 *~;
#X floatatom 94 179 5 0 0 0 - - -;
#X obj 94 207 / 1000;
#X obj 75 153 ii 750;
#X obj 193 166 ii 775;
#X obj 307 173 ii 2800;
#X obj 336 101 +~;
#X obj 272 76 *~ 1200;
#X obj 217 86 ii 1200;
#X connect 0 0 6 0;
#X connect 0 0 10 0;
#X connect 2 0 14 0;
#X connect 3 0 24 1;
#X connect 4 0 23 1;
#X connect 5 0 11 0;
#X connect 6 0 7 0;
#X connect 6 0 24 0;
#X connect 7 0 2 0;
#X connect 8 0 9 0;
#X connect 9 0 7 1;
#X connect 10 0 2 0;
#X connect 10 0 17 0;
#X connect 11 0 1 0;
#X connect 12 0 13 0;
#X connect 13 0 11 1;
#X connect 14 0 1 0;
#X connect 15 0 16 0;
#X connect 16 0 14 1;
#X connect 17 0 1 0;
#X connect 18 0 19 0;
#X connect 19 0 17 1;
#X connect 20 0 18 0;
#X connect 21 0 15 0;
#X connect 22 0 12 0;
#X connect 23 0 5 0;
#X connect 24 0 23 0;
#X connect 25 0 8 0;
#X restore 142 148 pd sound;
#X obj 195 126 b;
#X obj 158 57 inlet;
#X obj 171 219 outlet~;
#X obj 270 113 r dcay;
#X obj 227 113 r atak;
#X obj 137 118 pad~;
#X obj 165 84 r pmnto;
#X connect 0 0 5 0;
#X connect 1 0 0 1;
#X connect 2 0 0 0;
#X connect 3 0 1 0;
#X connect 4 0 3 0;
#X connect 4 0 8 0;
#X connect 6 0 1 2;
#X connect 7 0 1 1;
#X connect 8 0 2 0;
#X connect 9 0 8 1;
#X restore 110 144 pd inst;
#N canvas 1163 406 450 300 inst 0;
#X obj 171 170 *~;
#X obj 195 148 ad~ 1;
#N canvas 595 566 450 300 sound 0;
#X obj 96 20 inlet~;
#X obj 142 225 outlet~;
#X obj 145 171 cos~;
#X floatatom 302 43 5 0 0 0 - - -;
#X floatatom 355 43 5 0 0 0 - - -;
#X obj 260 138 osc~;
#X obj 239 44 osc~;
#X obj 153 128 *~;
#X floatatom 207 112 5 0 0 0 - - -;
#X obj 197 133 / 1000;
#X obj 61 126 phasor~;
#X obj 233 195 *~;
#X floatatom 261 186 5 0 0 0 - - -;
#X obj 261 214 / 1000;
#X obj 159 198 *~;
#X floatatom 187 189 5 0 0 0 - - -;
#X obj 187 217 / 1000;
#X obj 66 188 *~;
#X floatatom 94 179 5 0 0 0 - - -;
#X obj 94 207 / 1000;
#X obj 75 153 ii 750;
#X obj 193 166 ii 775;
#X obj 307 173 ii 2800;
#X obj 336 101 +~;
#X obj 272 76 *~ 1200;
#X obj 217 86 ii 1200;
#X connect 0 0 6 0;
#X connect 0 0 10 0;
#X connect 2 0 14 0;
#X connect 3 0 24 1;
#X connect 4 0 23 1;
#X connect 5 0 11 0;
#X connect 6 0 7 0;
#X connect 6 0 24 0;
#X connect 7 0 2 0;
#X connect 8 0 9 0;
#X connect 9 0 7 1;
#X connect 10 0 2 0;
#X connect 10 0 17 0;
#X connect 11 0 1 0;
#X connect 12 0 13 0;
#X connect 13 0 11 1;
#X connect 14 0 1 0;
#X connect 15 0 16 0;
#X connect 16 0 14 1;
#X connect 17 0 1 0;
#X connect 18 0 19 0;
#X connect 19 0 17 1;
#X connect 20 0 18 0;
#X connect 21 0 15 0;
#X connect 22 0 12 0;
#X connect 23 0 5 0;
#X connect 24 0 23 0;
#X connect 25 0 8 0;
#X restore 142 148 pd sound;
#X obj 195 126 b;
#X obj 158 57 inlet;
#X obj 171 219 outlet~;
#X obj 270 113 r dcay;
#X obj 227 113 r atak;
#X obj 137 118 pad~;
#X obj 165 84 r pmnto;
#X connect 0 0 5 0;
#X connect 1 0 0 1;
#X connect 2 0 0 0;
#X connect 3 0 1 0;
#X connect 4 0 3 0;
#X connect 4 0 8 0;
#X connect 6 0 1 2;
#X connect 7 0 1 1;
#X connect 8 0 2 0;
#X connect 9 0 8 1;
#X restore 120 154 pd inst;
#X connect 0 0 10 0;
#X connect 1 0 11 0;
#X connect 2 0 4 0;
#X connect 4 0 1 1;
#X connect 5 0 8 0;
#X connect 6 0 5 0;
#X connect 7 0 11 0;
#X connect 9 0 10 1;
#X connect 10 0 7 0;
#X connect 10 1 21 0;
#X connect 10 2 22 0;
#X connect 10 3 23 0;
#X connect 10 4 24 0;
#X connect 11 0 3 1;
#X connect 11 0 3 0;
#X connect 12 0 13 0;
#X connect 13 0 11 1;
#X connect 14 0 16 0;
#X connect 15 0 14 0;
#X connect 17 0 10 0;
#X connect 17 0 18 0;
#X connect 18 0 10 0;
#X connect 19 0 20 0;
#X connect 21 0 1 0;
#X connect 22 0 1 0;
#X connect 23 0 1 0;
#X connect 24 0 1 0;
#X coords 0 367 1 366 85 60 0;
