#N canvas 39 557 687 382 10;
#X obj 158 76 harm 0 1 2 3 4 5 6 7 8;
#X obj 151 267 dac~;
#N canvas 1163 406 450 300 inst 0;
#X obj 171 170 *~;
#X obj 158 57 inlet;
#X obj 171 219 outlet~;
#X obj 270 113 r dcay;
#X obj 227 113 r atak;
#X obj 137 118 pad~;
#X obj 165 84 r pmnto;
#X obj 150 145 sound;
#N canvas 595 566 450 300 sound 0;
#X obj 96 20 inlet~;
#X obj 142 225 outlet~;
#X obj 145 171 cos~;
#X floatatom 302 43 5 0 0 0 - - -, f 5;
#X floatatom 355 43 5 0 0 0 - - -, f 5;
#X obj 260 138 osc~;
#X obj 239 44 osc~;
#X obj 153 128 *~;
#X floatatom 207 112 5 0 0 0 - - -, f 5;
#X obj 197 133 / 1000;
#X obj 61 126 phasor~;
#X obj 233 195 *~;
#X floatatom 261 186 5 0 0 0 - - -, f 5;
#X obj 261 214 / 1000;
#X obj 159 198 *~;
#X floatatom 187 189 5 0 0 0 - - -, f 5;
#X obj 187 217 / 1000;
#X obj 66 188 *~;
#X floatatom 94 179 5 0 0 0 - - -, f 5;
#X obj 94 207 / 1000;
#X obj 75 153 ii 750;
#X obj 193 166 ii 775;
#X obj 307 173 ii 2800;
#X obj 336 101 +~;
#X obj 272 76 *~ 1200;
#X obj 217 86 ii 1200;
#X connect 0 0 6 0;
#X connect 0 0 10 0;
#X connect 2 0 14 0;
#X connect 3 0 24 1;
#X connect 4 0 23 1;
#X connect 5 0 11 0;
#X connect 6 0 7 0;
#X connect 6 0 24 0;
#X connect 7 0 2 0;
#X connect 8 0 9 0;
#X connect 9 0 7 1;
#X connect 10 0 2 0;
#X connect 10 0 17 0;
#X connect 11 0 1 0;
#X connect 12 0 13 0;
#X connect 13 0 11 1;
#X connect 14 0 1 0;
#X connect 15 0 16 0;
#X connect 16 0 14 1;
#X connect 17 0 1 0;
#X connect 18 0 19 0;
#X connect 19 0 17 1;
#X connect 20 0 18 0;
#X connect 21 0 15 0;
#X connect 22 0 12 0;
#X connect 23 0 5 0;
#X connect 24 0 23 0;
#X connect 25 0 8 0;
#X restore 299 50 pd sound;
#X obj 318 170 bng 15 250 50 0 empty empty empty 17 7 0 10 -262144
-1 -1;
#X msg 191 113 z \$1;
#X obj 249 46 r z;
#X obj 220 86 f;
#X obj 211 54 b;
#X obj 195 148 ad~ 50 40000;
#X connect 0 0 2 0;
#X connect 1 0 5 0;
#X connect 1 0 13 0;
#X connect 5 0 7 0;
#X connect 6 0 5 1;
#X connect 7 0 0 0;
#X connect 9 0 14 0;
#X connect 10 0 14 0;
#X connect 11 0 12 1;
#X connect 12 0 10 0;
#X connect 13 0 12 0;
#X connect 14 0 0 1;
#X restore 30 133 pd inst;
#X floatatom 218 228 5 0 0 0 - - -, f 5;
#X obj 218 247 / 1000;
#X obj 154 232 *~;
#N canvas 1163 406 450 300 inst 0;
#X obj 171 170 *~;
#X obj 158 57 inlet;
#X obj 171 219 outlet~;
#X obj 270 113 r dcay;
#X obj 227 113 r atak;
#X obj 137 118 pad~;
#X obj 165 84 r pmnto;
#X obj 150 145 sound;
#X obj 195 148 ad~ 1;
#X msg 187 120 z \$1;
#X obj 239 58 r z;
#X obj 229 91 f;
#X obj 205 57 b;
#X connect 0 0 2 0;
#X connect 1 0 5 0;
#X connect 1 0 12 0;
#X connect 3 0 8 2;
#X connect 4 0 8 1;
#X connect 5 0 7 0;
#X connect 6 0 5 1;
#X connect 7 0 0 0;
#X connect 8 0 0 1;
#X connect 9 0 8 0;
#X connect 10 0 11 1;
#X connect 11 0 9 0;
#X connect 12 0 11 0;
#X restore 90 133 pd inst;
#N canvas 1163 406 450 300 inst 0;
#X obj 171 170 *~;
#X obj 158 57 inlet;
#X obj 171 219 outlet~;
#X obj 270 113 r dcay;
#X obj 227 113 r atak;
#X obj 137 118 pad~;
#X obj 165 84 r pmnto;
#X obj 150 145 sound;
#X obj 195 148 ad~ 1;
#X msg 188 120 z \$1;
#X obj 224 64 r z;
#X obj 222 90 f;
#X obj 196 49 b;
#X connect 0 0 2 0;
#X connect 1 0 5 0;
#X connect 1 0 12 0;
#X connect 3 0 8 2;
#X connect 4 0 8 1;
#X connect 5 0 7 0;
#X connect 6 0 5 1;
#X connect 7 0 0 0;
#X connect 8 0 0 1;
#X connect 9 0 8 0;
#X connect 10 0 11 1;
#X connect 11 0 9 0;
#X connect 12 0 11 0;
#X restore 150 133 pd inst;
#N canvas 1163 406 450 300 inst 0;
#X obj 171 170 *~;
#X obj 158 57 inlet;
#X obj 171 219 outlet~;
#X obj 270 113 r dcay;
#X obj 227 113 r atak;
#X obj 137 118 pad~;
#X obj 165 84 r pmnto;
#X obj 150 145 sound;
#X obj 195 148 ad~ 1;
#X msg 185 120 z \$1;
#X obj 231 54 r z;
#X obj 223 80 f;
#X obj 199 56 b;
#X connect 0 0 2 0;
#X connect 1 0 5 0;
#X connect 1 0 12 0;
#X connect 3 0 8 2;
#X connect 4 0 8 1;
#X connect 5 0 7 0;
#X connect 6 0 5 1;
#X connect 7 0 0 0;
#X connect 8 0 0 1;
#X connect 9 0 8 0;
#X connect 10 0 11 1;
#X connect 11 0 9 0;
#X connect 12 0 11 0;
#X restore 210 133 pd inst;
#N canvas 1163 406 450 300 inst 0;
#X obj 171 170 *~;
#X obj 158 57 inlet;
#X obj 171 219 outlet~;
#X obj 270 113 r dcay;
#X obj 227 113 r atak;
#X obj 137 118 pad~;
#X obj 165 84 r pmnto;
#X obj 150 145 sound;
#X obj 195 148 ad~ 1;
#X msg 185 123 z \$1;
#X obj 238 56 r z;
#X obj 223 83 f;
#X obj 203 56 b;
#X connect 0 0 2 0;
#X connect 1 0 5 0;
#X connect 1 0 12 0;
#X connect 3 0 8 2;
#X connect 4 0 8 1;
#X connect 5 0 7 0;
#X connect 6 0 5 1;
#X connect 7 0 0 0;
#X connect 8 0 0 1;
#X connect 9 0 8 0;
#X connect 10 0 11 1;
#X connect 11 0 9 0;
#X connect 12 0 11 0;
#X restore 270 133 pd inst;
#N canvas 1163 406 450 300 inst 0;
#X obj 171 170 *~;
#X obj 158 57 inlet;
#X obj 171 219 outlet~;
#X obj 270 113 r dcay;
#X obj 227 113 r atak;
#X obj 137 118 pad~;
#X obj 165 84 r pmnto;
#X obj 150 145 sound;
#X obj 195 148 ad~ 1;
#X obj 225 55 r z;
#X obj 228 81 f;
#X msg 189 112 z \$1;
#X obj 198 57 b;
#X connect 0 0 2 0;
#X connect 1 0 5 0;
#X connect 1 0 12 0;
#X connect 3 0 8 2;
#X connect 4 0 8 1;
#X connect 5 0 7 0;
#X connect 6 0 5 1;
#X connect 7 0 0 0;
#X connect 8 0 0 1;
#X connect 9 0 10 1;
#X connect 10 0 11 0;
#X connect 11 0 8 0;
#X connect 12 0 10 0;
#X restore 330 133 pd inst;
#N canvas 1163 406 450 300 inst 0;
#X obj 171 170 *~;
#X obj 158 57 inlet;
#X obj 171 219 outlet~;
#X obj 270 113 r dcay;
#X obj 227 113 r atak;
#X obj 137 118 pad~;
#X obj 165 84 r pmnto;
#X obj 150 145 sound;
#X obj 195 148 ad~ 1;
#X msg 185 120 z \$1;
#X obj 231 54 r z;
#X obj 223 80 f;
#X obj 199 56 b;
#X connect 0 0 2 0;
#X connect 1 0 5 0;
#X connect 1 0 12 0;
#X connect 3 0 8 2;
#X connect 4 0 8 1;
#X connect 5 0 7 0;
#X connect 6 0 5 1;
#X connect 7 0 0 0;
#X connect 8 0 0 1;
#X connect 9 0 8 0;
#X connect 10 0 11 1;
#X connect 11 0 9 0;
#X connect 12 0 11 0;
#X restore 397 133 pd inst;
#N canvas 1163 406 450 300 inst 0;
#X obj 171 170 *~;
#X obj 158 57 inlet;
#X obj 171 219 outlet~;
#X obj 270 113 r dcay;
#X obj 227 113 r atak;
#X obj 137 118 pad~;
#X obj 165 84 r pmnto;
#X obj 150 145 sound;
#X obj 195 148 ad~ 1;
#X msg 185 123 z \$1;
#X obj 238 56 r z;
#X obj 223 83 f;
#X obj 203 56 b;
#X connect 0 0 2 0;
#X connect 1 0 5 0;
#X connect 1 0 12 0;
#X connect 3 0 8 2;
#X connect 4 0 8 1;
#X connect 5 0 7 0;
#X connect 6 0 5 1;
#X connect 7 0 0 0;
#X connect 8 0 0 1;
#X connect 9 0 8 0;
#X connect 10 0 11 1;
#X connect 11 0 9 0;
#X connect 12 0 11 0;
#X restore 457 133 pd inst;
#N canvas 1163 406 450 300 inst 0;
#X obj 171 170 *~;
#X obj 158 57 inlet;
#X obj 171 219 outlet~;
#X obj 270 113 r dcay;
#X obj 227 113 r atak;
#X obj 137 118 pad~;
#X obj 165 84 r pmnto;
#X obj 150 145 sound;
#X obj 195 148 ad~ 1;
#X obj 225 55 r z;
#X obj 228 81 f;
#X msg 189 112 z \$1;
#X obj 198 57 b;
#X connect 0 0 2 0;
#X connect 1 0 5 0;
#X connect 1 0 12 0;
#X connect 3 0 8 2;
#X connect 4 0 8 1;
#X connect 5 0 7 0;
#X connect 6 0 5 1;
#X connect 7 0 0 0;
#X connect 8 0 0 1;
#X connect 9 0 10 1;
#X connect 10 0 11 0;
#X connect 11 0 8 0;
#X connect 12 0 10 0;
#X restore 517 133 pd inst;
#N canvas 1163 406 450 300 inst 0;
#X obj 171 170 *~;
#X obj 158 57 inlet;
#X obj 171 219 outlet~;
#X obj 270 113 r dcay;
#X obj 227 113 r atak;
#X obj 137 118 pad~;
#X obj 165 84 r pmnto;
#X obj 150 145 sound;
#X obj 195 148 ad~ 1;
#X obj 225 55 r z;
#X obj 228 81 f;
#X msg 189 112 z \$1;
#X obj 198 57 b;
#X connect 0 0 2 0;
#X connect 1 0 5 0;
#X connect 1 0 12 0;
#X connect 3 0 8 2;
#X connect 4 0 8 1;
#X connect 5 0 7 0;
#X connect 6 0 5 1;
#X connect 7 0 0 0;
#X connect 8 0 0 1;
#X connect 9 0 10 1;
#X connect 10 0 11 0;
#X connect 11 0 8 0;
#X connect 12 0 10 0;
#X restore 576 132 pd inst;
#X obj 154 210 /~ 10;
#X obj 174 21 bng 15 250 50 0 empty empty empty 17 7 0 10 -262144 -1
-1;
#X obj 543 318 s dcay;
#X obj 498 318 s atak;
#X obj 110 32 cupqb;
#X obj 27 103 bng 15 250 50 0 empty empty empty 17 7 0 10 -262144 -1
-1;
#X obj 45 103 bng 15 250 50 0 empty empty empty 17 7 0 10 -262144 -1
-1;
#X obj 63 103 bng 15 250 50 0 empty empty empty 17 7 0 10 -262144 -1
-1;
#X obj 81 103 bng 15 250 50 0 empty empty empty 17 7 0 10 -262144 -1
-1;
#X obj 99 103 bng 15 250 50 0 empty empty empty 17 7 0 10 -262144 -1
-1;
#X obj 117 103 bng 15 250 50 0 empty empty empty 17 7 0 10 -262144
-1 -1;
#X obj 35 29 cupqb;
#X obj 140 109 bng 15 250 50 0 empty empty empty 17 7 0 10 -262144
-1 -1;
#X obj 158 109 bng 15 250 50 0 empty empty empty 17 7 0 10 -262144
-1 -1;
#X obj 176 109 bng 15 250 50 0 empty empty empty 17 7 0 10 -262144
-1 -1;
#X obj 194 109 bng 15 250 50 0 empty empty empty 17 7 0 10 -262144
-1 -1;
#X msg 160 45 s 3 5 7 10;
#X msg 204 22 s 3 7;
#X msg 77 55 0;
#X obj 440 217 metro 60;
#X obj 441 191 tgl 15 0 empty empty empty 17 7 0 10 -262144 -1 -1 1
1;
#X floatatom 481 184 5 0 0 0 - - -, f 5;
#X obj 348 248 +;
#N canvas 823 503 333 300 scaler 0;
#X obj 151 126 cupqb;
#X obj 127 63 demux;
#X msg 155 94 +;
#X msg 126 94 -;
#X obj 112 188 sel;
#X obj 194 188 sel;
#X obj 127 39 inlet;
#X obj 221 118 inlet;
#X obj 148 187 outlet;
#X msg 194 210 0;
#X msg 112 210 1;
#X obj 186 78 inlet;
#X obj 112 166 < 5;
#X obj 194 166 >= 30;
#X connect 0 0 8 0;
#X connect 0 0 12 0;
#X connect 0 0 13 0;
#X connect 1 0 3 0;
#X connect 1 1 2 0;
#X connect 2 0 0 0;
#X connect 3 0 0 0;
#X connect 4 1 10 0;
#X connect 5 1 9 0;
#X connect 6 0 1 0;
#X connect 7 0 13 1;
#X connect 9 0 1 1;
#X connect 10 0 1 1;
#X connect 11 0 0 1;
#X connect 12 0 4 0;
#X connect 13 0 5 0;
#X coords 0 -1 1 1 37 34 2 150 125;
#X restore 383 248 pd scaler;
#X obj 514 217 metro 700;
#X floatatom 563 195 5 0 0 0 - - -, f 5;
#X obj 362 198 rand 5;
#X obj 435 247 cupqb;
#X msg 15 185 s 2 4 5 7 9 11;
#X msg 15 244 s s f-1 s s f-1 f-1;
#X msg 15 217 s s f+1 s s f+1 f+1;
#X msg 15 301 11 \, 13 \, 14 \, 15;
#X msg 5 279 15 \, 16 \, 18 \, 20 \, 21 \, 22;
#X msg 280 12 s 1 2 3 4 5 6 7 8 9 10 11 12 13 14 15 16 17 18 19 20
21 22 23, f 61;
#X msg 258 30 oct 24;
#X msg 268 224 tect 24;
#X obj 197 289 cupqb;
#X msg 182 335 scl 2 \$1 \, 9;
#X msg 359 72 ref \$1;
#X obj 318 42 cupqb;
#X msg 267 296 0 \, 4 \, 9 \, s 3 7;
#X msg 30 76 k \$1 \, 0 \, 4 \, 9;
#X obj 588 278 cupqb;
#X obj 588 317 s z;
#X obj 498 279 cupqb;
#X obj 543 278 cupqb;
#X obj 480 47 uzi 3;
#X obj 440 48 bng 15 250 50 0 empty empty empty 17 7 0 10 -262144 -1
-1;
#X floatatom 534 47 5 0 0 0 - - -, f 5;
#X obj 585 218 ii 1;
#X obj 480 69 rand 11 28;
#X floatatom 594 73 5 0 0 0 - - -, f 5;
#X floatatom 558 72 5 0 0 0 - - -, f 5;
#X obj 557 251 ii 250;
#X msg 304 196 n 4;
#X msg 362 39 s 3 7 10;
#X msg 560 168 s f+1 s f+1;
#X msg 599 193 s f-1 s f-1;
#X connect 0 0 2 0;
#X connect 0 0 20 0;
#X connect 0 1 6 0;
#X connect 0 1 21 0;
#X connect 0 2 7 0;
#X connect 0 2 22 0;
#X connect 0 3 8 0;
#X connect 0 3 23 0;
#X connect 0 4 9 0;
#X connect 0 4 24 0;
#X connect 0 5 10 0;
#X connect 0 5 25 0;
#X connect 0 6 11 0;
#X connect 0 6 27 0;
#X connect 0 7 12 0;
#X connect 0 7 28 0;
#X connect 0 8 13 0;
#X connect 0 8 29 0;
#X connect 0 9 14 0;
#X connect 0 9 30 0;
#X connect 2 0 15 0;
#X connect 3 0 4 0;
#X connect 4 0 5 1;
#X connect 5 0 1 0;
#X connect 5 0 1 1;
#X connect 6 0 15 0;
#X connect 7 0 15 0;
#X connect 8 0 15 0;
#X connect 9 0 15 0;
#X connect 10 0 15 0;
#X connect 11 0 15 0;
#X connect 12 0 15 0;
#X connect 13 0 15 0;
#X connect 14 0 15 0;
#X connect 15 0 5 0;
#X connect 16 0 0 0;
#X connect 19 0 0 0;
#X connect 26 0 56 0;
#X connect 31 0 0 0;
#X connect 32 0 0 0;
#X connect 33 0 0 0;
#X connect 34 0 61 0;
#X connect 35 0 34 0;
#X connect 35 0 39 0;
#X connect 36 0 34 1;
#X connect 37 0 0 0;
#X connect 38 0 37 1;
#X connect 39 0 38 0;
#X connect 40 0 39 1;
#X connect 41 0 37 0;
#X connect 42 0 38 2;
#X connect 43 0 0 0;
#X connect 44 0 0 0;
#X connect 45 0 0 0;
#X connect 46 0 0 0;
#X connect 47 0 0 0;
#X connect 48 0 0 0;
#X connect 49 0 0 0;
#X connect 51 0 52 0;
#X connect 52 0 0 0;
#X connect 53 0 0 0;
#X connect 54 0 53 0;
#X connect 55 0 0 0;
#X connect 56 0 0 0;
#X connect 57 0 58 0;
#X connect 59 0 18 0;
#X connect 60 0 17 0;
#X connect 60 0 36 0;
#X connect 61 0 65 0;
#X connect 62 0 61 0;
#X connect 63 0 61 1;
#X connect 64 0 57 0;
#X connect 64 0 59 0;
#X connect 65 0 0 0;
#X connect 66 0 65 2;
#X connect 67 0 65 1;
#X connect 68 0 60 0;
#X connect 69 0 0 0;
#X connect 70 0 0 0;
#X connect 71 0 0 0;
#X connect 72 0 0 0;
