#N canvas 100 600 360 300 16;
#X declare -lib zexy;
#X declare -lib blunt;
#N canvas 720 240 500 410 alarm 0;
#X obj 60 150 cnv 15 120 150 empty empty empty 20 12 0 14 #404040 #7c7c7c
0;
#X obj 230 350 dac~;
#X obj 300 320 hsl 128 15 0.001 1 1 0 empty empty empty -2 -8 0 10
#2f004d #fcfcfc #fcfcfc 0 1;
#X floatatom 310 340 0 0 0 0 - - - 0;
#N canvas 580 600 540 300 ring 0;
#X obj 40 210 *~;
#X obj 40 240 outlet~;
#X obj 40 180 vline~;
#X obj 40 40 inlet;
#X msg 40 100 1 \$1 \, 0 \$2 20 \, 1 \$1 40 \, 0 \$2 60 \, 1 \$1 80
\, 0 \$2 100 \, 1 \$1 120 \, 0 \$2 140;
#X msg 40 70 2 6;
#X obj 140 40 inlet;
#X obj 140 240 pulse~ 0.5 1050;
#X obj 140 210 * 1050;
#X obj 140 180 @pow 2;
#X obj 140 70 b;
#X floatatom 210 180 0 0 0 0 - - - 0;
#X obj 140 150 rind -0.05 0.05;
#X connect 0 0 1 0;
#X connect 2 0 0 0;
#X connect 3 0 5 0;
#X connect 4 0 2 0;
#X connect 5 0 4 0;
#X connect 6 0 10 0;
#X connect 7 0 0 1;
#X connect 8 0 7 0;
#X connect 9 0 8 0;
#X connect 9 0 11 0;
#X connect 10 0 12 0;
#X connect 12 0 9 0;
#X restore 230 250 pd ring;
#X obj 230 170 ct 4;
#X obj 230 130 metro 210;
#X obj 230 280 *~;
#X obj 320 250 clip 0 1;
#X floatatom 270 280 0 0 1 0 - - - 0;
#X obj 230 320 *~ 0.05;
#X obj 230 210 sel 1 2 3;
#X obj 260 40 r \$0alarm;
#X msg 210 80 0;
#X msg 260 80 1;
#X obj 140 220 bng 20 250 50 0 empty empty RESET -2 -10 0 11 #800000
#fcfcfc #fcfcfc;
#X obj 70 170 bng 60 250 50 0 empty empty SNOOZE 0 -10 0 11 #80a000
#fcfcfc #fcfcfc;
#N canvas 1020 260 380 380 clock 0;
#X msg 170 280 label \$1;
#X obj 170 310 s \$0clock;
#X obj 170 220 pack s s s;
#X obj 290 190 lead0;
#X obj 170 190 lead0;
#X obj 230 190 lead0;
#X msg 170 250 symbol \$1:\$2:\$3;
#X obj 150 110 time, f 20;
#X obj 150 80 metro 1000;
#X obj 150 60 tgl 15 0 empty empty empty 17 7 0 10 #0e4345 #fcfcfc
#fcfcfc 0 1;
#X obj 150 30 loadbang;
#X obj 100 220 outlet;
#X obj 30 80 inlet;
#X obj 90 80 inlet;
#X msg 240 50 0 0 0;
#X obj 240 80 unpack f f f;
#X obj 30 310 outlet;
#X msg 30 280 set \$1;
#X obj 90 310 outlet;
#X msg 90 280 set \$1;
#X obj 30 110 mod 24;
#X obj 90 110 mod 60;
#X obj 250 280 s \$0print;
#X obj 50 160 ==;
#X obj 110 160 ==;
#X obj 100 190 &&;
#X connect 0 0 1 0;
#X connect 2 0 6 0;
#X connect 3 0 2 2;
#X connect 4 0 2 0;
#X connect 5 0 2 1;
#X connect 6 0 0 0;
#X connect 6 0 22 0;
#X connect 7 0 4 0;
#X connect 7 0 23 0;
#X connect 7 1 5 0;
#X connect 7 1 24 0;
#X connect 7 2 3 0;
#X connect 8 0 7 0;
#X connect 9 0 8 0;
#X connect 10 0 9 0;
#X connect 12 0 20 0;
#X connect 13 0 21 0;
#X connect 14 0 15 0;
#X connect 15 0 4 0;
#X connect 15 1 5 0;
#X connect 15 2 3 0;
#X connect 17 0 16 0;
#X connect 19 0 18 0;
#X connect 20 0 17 0;
#X connect 20 0 23 1;
#X connect 21 0 19 0;
#X connect 21 0 24 1;
#X connect 23 0 25 0;
#X connect 24 0 25 1;
#X connect 25 0 11 0;
#X restore 60 320 pd clock;
#X obj 120 90 loadbang;
#X floatatom 140 170 0 1 60 2 mins - - 12;
#N canvas 590 460 360 300 repeat 0;
#X obj 70 70 inlet;
#X obj 260 70 inlet;
#X obj 70 220 s \$0alarm;
#X msg 260 130 0;
#X msg 140 130 tempo \$1 min;
#X obj 140 70 inlet;
#X obj 70 190 metro;
#X obj 70 130 sel;
#X obj 70 100 change;
#X connect 0 0 8 0;
#X connect 1 0 3 0;
#X connect 3 0 6 0;
#X connect 4 0 6 0;
#X connect 5 0 4 0;
#X connect 6 0 2 0;
#X connect 7 1 6 0;
#X connect 8 0 7 0;
#X restore 140 320 pd repeat;
#X obj 280 170 b;
#X obj 70 250 cupqb;
#X obj 130 250 cupqb;
#X text 120 250 :;
#X msg 320 80 \; pd dsp \$1;
#X msg 140 120 24;
#N canvas 1180 0 450 300 kpress 0;
#X obj 50 20 keyname;
#X obj 50 110 spigot;
#X obj 60 80 symbol;
#X obj 50 50 t b f;
#X msg 50 140 \$1;
#X obj 50 200 outlet;
#X obj 50 170 route Space BackSpace;
#X obj 130 200 outlet;
#X connect 0 0 3 0;
#X connect 0 1 2 1;
#X connect 1 0 4 0;
#X connect 2 0 1 0;
#X connect 3 0 2 0;
#X connect 3 1 1 1;
#X connect 4 0 6 0;
#X connect 6 0 5 0;
#X connect 6 1 7 0;
#X restore 50 120 pd kpress;
#X obj 320 210 dbtorms;
#X obj 360 170 + 0.4;
#X msg 360 130 100;
#X msg 320 130 67;
#X obj 320 170 67;
#N canvas 1220 350 450 250 print 0;
#X obj 40 70 inlet;
#X obj 170 70 inlet;
#X obj 40 190 print alarm;
#X obj 220 30 r \$0print;
#X obj 40 100 symbol;
#X msg 40 130 snoozed at \$1;
#X obj 170 100 symbol;
#X msg 170 130 cancelled at \$1;
#X obj 310 100 symbol;
#X obj 310 70 b &;
#X msg 310 130 closed at \$1;
#X connect 0 0 4 0;
#X connect 1 0 6 0;
#X connect 3 0 4 1;
#X connect 3 0 6 1;
#X connect 3 0 8 1;
#X connect 4 0 5 0;
#X connect 5 0 2 0;
#X connect 6 0 7 0;
#X connect 7 0 2 0;
#X connect 8 0 10 0;
#X connect 9 0 8 0;
#X connect 10 0 2 0;
#X restore 70 350 pd print;
#X connect 2 0 3 0;
#X connect 2 0 10 1;
#X connect 4 0 7 0;
#X connect 5 1 11 0;
#X connect 6 0 5 0;
#X connect 7 0 10 0;
#X connect 8 0 9 0;
#X connect 9 0 7 1;
#X connect 10 0 1 0;
#X connect 10 0 1 1;
#X connect 11 0 4 0;
#X connect 11 1 4 0;
#X connect 11 2 4 0;
#X connect 11 3 21 0;
#X connect 12 0 14 0;
#X connect 13 0 6 0;
#X connect 13 0 25 0;
#X connect 13 0 5 0;
#X connect 13 0 31 0;
#X connect 14 0 25 0;
#X connect 14 0 6 0;
#X connect 14 0 4 1;
#X connect 15 0 20 2;
#X connect 15 0 13 0;
#X connect 15 0 33 1;
#X connect 16 0 13 0;
#X connect 16 0 33 0;
#X connect 17 0 22 1;
#X connect 17 1 23 1;
#X connect 17 2 20 0;
#X connect 18 0 26 0;
#X connect 19 0 20 1;
#X connect 21 0 32 0;
#X connect 22 0 17 0;
#X connect 23 0 17 1;
#X connect 26 0 19 0;
#X connect 27 0 16 0;
#X connect 27 1 15 0;
#X connect 28 0 8 0;
#X connect 29 0 32 1;
#X connect 30 0 32 0;
#X connect 31 0 32 0;
#X connect 32 0 28 0;
#X connect 32 0 29 0;
#X coords 0 -1 1 1 120 150 2 60 150;
#X restore 50 80 pd alarm;
#X obj 50 40 cnv 15 120 24 empty \$0clock 00:00:00 8 12 0 18 #000000
#fcfcfc 0;
#N canvas 460 600 360 150 lib 0;
#X obj 100 50 declare -lib zexy;
#X obj 100 80 declare -lib blunt;
#X restore 240 40 pd lib;
