#N canvas 30 500 370 210 14;
#X declare -lib blunt;
#X declare -path ggee;
#X obj 40 30 cnv 15 100 24 empty \$0clock 0:00:00 4 12 0 18 #000000
#fcfcfc 0;
#N canvas 400 500 430 420 guts 0;
#N canvas 300 500 380 350 hms 0;
#X obj 110 30 inlet;
#X obj 110 60 abs;
#X obj 110 90 t f f;
#X obj 160 190 lead0;
#X obj 100 160 % 60;
#X obj 100 190 lead0;
#X obj 130 290 outlet;
#X obj 160 160 % 60;
#X msg 130 260 symbol \$3:\$2:\$1;
#X obj 160 130 / 60;
#X obj 210 130 div 3600;
#X obj 130 230 pack s s f;
#X connect 0 0 1 0;
#X connect 1 0 2 0;
#X connect 2 0 4 0;
#X connect 2 1 9 0;
#X connect 2 1 10 0;
#X connect 3 0 11 1;
#X connect 4 0 5 0;
#X connect 5 0 11 0;
#X connect 7 0 3 0;
#X connect 8 0 6 0;
#X connect 9 0 7 0;
#X connect 10 0 11 2;
#X connect 11 0 8 0;
#X restore 110 290 pd hms;
#X obj 210 260 metro 1000;
#X msg 110 320 label \$1;
#X obj 110 350 s \$0clock;
#N canvas 610 570 370 320 tick 0;
#X obj 110 30 inlet;
#X obj 110 200 *~;
#X obj 110 260 dac~;
#X obj 150 200 noise~;
#X obj 110 90 sel;
#X obj 170 90 sel;
#X obj 170 60 % 4;
#X msg 110 130 1;
#X msg 150 130 0.32;
#X obj 110 170 ad 2 10;
#X obj 150 230 r~ \$0vol;
#X obj 110 230 *~;
#X obj 110 60 mod 60;
#X obj 210 90 + 2;
#X obj 210 130 @/ 0.32;
#X connect 0 0 12 0;
#X connect 1 0 11 0;
#X connect 3 0 1 1;
#X connect 4 0 7 0;
#X connect 4 1 6 0;
#X connect 5 0 8 0;
#X connect 5 1 13 0;
#X connect 6 0 5 0;
#X connect 7 0 9 0;
#X connect 8 0 9 0;
#X connect 9 0 1 0;
#X connect 10 0 11 1;
#X connect 11 0 2 0;
#X connect 11 0 2 1;
#X connect 12 0 4 0;
#X connect 13 0 14 0;
#X connect 14 0 9 0;
#X restore 210 350 pd tick;
#X msg 60 180 pause;
#X obj 110 260 chrono sec;
#X obj 190 120 * 3600;
#X msg 300 180 tempo \$1;
#X msg 100 210 del \$1;
#X obj 120 180 f;
#X obj 150 110 bng 15 250 50 0 empty empty empty 17 7 0 10 #ff8300
#ff0400 #fcfcfc;
#X obj 170 210 f;
#X obj 60 60 bng 20 250 50 0 \$0reset empty reset -4 -10 0 12 #ff8300
#ff0400 #fcfcfc;
#X floatatom 110 60 0 0 0 2 hours - - 12;
#X obj 60 110 bng 20 250 50 0 empty empty pause -4 -10 0 12 #ff8300
#ff0400 #fcfcfc;
#X floatatom 110 110 0 0 0 2 delay - - 12;
#X obj 300 150 / 600;
#X msg 300 120 1;
#X msg 340 120 600;
#N canvas 900 660 370 240 save-on-close 0;
#X obj 70 50 inlet;
#X obj 30 170 textfile;
#X obj 30 50 b &;
#X obj 30 110 spigot;
#X msg 100 110 1;
#X obj 100 80 r \$0reset;
#X obj 30 80 i;
#X msg 30 140 clear \, add \$1 \, write hours.txt;
#X connect 0 0 6 1;
#X connect 2 0 6 0;
#X connect 3 0 7 0;
#X connect 4 0 3 1;
#X connect 5 0 4 0;
#X connect 6 0 3 0;
#X connect 7 0 1 0;
#X restore 210 320 pd save-on-close;
#N canvas 400 200 450 300 lib 0;
#X obj 50 110 declare -lib blunt;
#X obj 50 150 declare -path ggee;
#X text 210 150 shell;
#X text 210 110 chrono \, b &;
#X restore 300 50 pd lib;
#X obj 170 150 r \$0reset;
#X obj 110 150 * 60;
#N canvas 840 500 420 210 kde-notify 0;
#X obj 40 140 shell;
#X obj 40 50 inlet;
#X msg 40 110 kdialog --passivepopup Worked_\$1_hours 5;
#N canvas 840 620 450 300 change 0;
#X obj 40 30 inlet;
#X obj 40 240 outlet;
#X obj 40 60 div 900;
#X obj 40 120 / 4;
#X obj 40 90 change -9000;
#X connect 0 0 2 0;
#X connect 2 0 4 0;
#X connect 3 0 1 0;
#X connect 4 0 3 0;
#X restore 40 80 pd change;
#X connect 1 0 3 0;
#X connect 2 0 0 0;
#X connect 3 0 2 0;
#X restore 210 290 pd kde-notify;
#N canvas 1020 490 370 270 recall 0;
#X obj 40 100 textfile;
#X obj 40 40 loadbang;
#X obj 40 160 * -1;
#X floatatom 40 130 0 0 0 0 - - - 0;
#X obj 40 190 outlet;
#X msg 40 70 read hours.txt \, rewind \, bang;
#X connect 0 0 3 0;
#X connect 1 0 5 0;
#X connect 2 0 4 0;
#X connect 3 0 2 0;
#X connect 5 0 0 0;
#X restore 200 180 pd recall;
#X obj 190 90 s \$0new;
#X msg 70 260 0;
#X obj 150 60 bng 15 250 50 0 empty empty empty 17 7 0 10 #ff8300 #ff0400
#fcfcfc;
#X connect 0 0 2 0;
#X connect 1 0 6 1;
#X connect 2 0 3 0;
#X connect 5 0 6 0;
#X connect 6 0 0 0;
#X connect 6 0 4 0;
#X connect 6 0 20 0;
#X connect 6 0 24 0;
#X connect 6 2 1 0;
#X connect 7 0 12 1;
#X connect 8 0 6 0;
#X connect 9 0 6 0;
#X connect 10 0 9 0;
#X connect 11 0 10 0;
#X connect 12 0 6 0;
#X connect 14 0 7 0;
#X connect 14 0 26 0;
#X connect 15 0 5 0;
#X connect 16 0 23 0;
#X connect 17 0 8 0;
#X connect 18 0 17 0;
#X connect 19 0 17 0;
#X connect 22 0 12 0;
#X connect 23 0 10 1;
#X connect 25 0 12 1;
#X connect 27 0 0 0;
#X connect 28 0 14 0;
#X coords 0 -1 1 1 120 100 2 50 40;
#X restore 40 70 pd guts;
#X floatatom 260 100 0 0 0 0 - - - 0;
#X obj 200 70 hsl 128 20 0.001 1 1 0 empty empty volume 35 10 0 12
#2f004d #fcfcfc #fcfcfc 0 1;
#N canvas 970 490 450 300 vol 0;
#X obj 160 190 zp~ 15;
#X msg 160 120 0;
#X obj 160 60 inlet;
#X obj 160 220 outlet~;
#X obj 230 190 outlet;
#X obj 160 150 f;
#X obj 160 90 moses 0.00101;
#X connect 0 0 3 0;
#X connect 1 0 5 0;
#X connect 2 0 6 0;
#X connect 5 0 0 0;
#X connect 5 0 4 0;
#X connect 6 0 1 0;
#X connect 6 1 5 0;
#X restore 200 100 pd vol;
#X obj 200 130 s~ \$0vol;
#X connect 3 0 4 0;
#X connect 4 0 5 0;
#X connect 4 1 2 0;
