#N canvas 10 500 370 210 14;
#X declare -lib blunt;
#X declare -path ggee;
#X obj 40 30 cnv 15 100 24 empty \$0clock 0:00:00 4 12 0 18 #000000
#fcfcfc 0;
#N canvas 470 490 550 420 guts 0;
#X obj 290 220 tgl 15 0 empty empty empty 17 7 0 10 #0e4345 #fcfcfc
#fcfcfc 0 1;
#N canvas 480 600 450 340 hms 0;
#X obj 110 30 inlet;
#X obj 110 60 abs;
#X obj 110 90 t f f;
#X obj 160 190 lead0;
#X obj 100 160 % 60;
#X obj 100 190 lead0;
#X obj 130 290 outlet;
#X obj 160 160 % 60;
#X msg 130 260 symbol \$3:\$2:\$1;
#X obj 160 130 / 60;
#X obj 210 130 div 3600;
#X obj 130 230 pack s s f;
#X connect 0 0 1 0;
#X connect 1 0 2 0;
#X connect 2 0 4 0;
#X connect 2 1 9 0;
#X connect 2 1 10 0;
#X connect 3 0 11 1;
#X connect 4 0 5 0;
#X connect 5 0 11 0;
#X connect 7 0 3 0;
#X connect 8 0 6 0;
#X connect 9 0 7 0;
#X connect 10 0 11 2;
#X connect 11 0 8 0;
#X restore 160 310 pd hms;
#X obj 290 310 metro 1000;
#X msg 160 340 label \$1;
#X obj 160 370 s \$0clock;
#N canvas 610 570 450 350 tick 0;
#X obj 130 30 inlet;
#X obj 130 60 abs;
#X obj 130 230 *~;
#X obj 130 290 dac~;
#X obj 170 230 noise~;
#X obj 130 90 % 60;
#X obj 130 120 sel;
#X obj 180 120 sel;
#X obj 180 90 % 4;
#X msg 130 160 1;
#X msg 170 160 0.28;
#X msg 220 160 0.064;
#X obj 130 200 ad 1 10;
#X obj 170 260 r~ \$0vol;
#X obj 130 260 *~;
#X connect 0 0 1 0;
#X connect 1 0 5 0;
#X connect 2 0 14 0;
#X connect 4 0 2 1;
#X connect 5 0 6 0;
#X connect 6 0 9 0;
#X connect 6 1 8 0;
#X connect 7 0 10 0;
#X connect 7 1 11 0;
#X connect 8 0 7 0;
#X connect 9 0 12 0;
#X connect 10 0 12 0;
#X connect 11 0 12 0;
#X connect 12 0 2 0;
#X connect 13 0 14 1;
#X connect 14 0 3 0;
#X connect 14 0 3 1;
#X restore 90 310 pd tick;
#X msg 110 190 pause;
#X obj 160 280 chrono sec;
#X obj 280 190 * 3600;
#X msg 350 220 tempo \$1;
#X obj 240 220 t b f;
#X obj 110 220 t a;
#X msg 170 220 del \$1;
#X obj 170 190 f;
#X obj 200 90 bng 15 250 50 0 empty empty empty 17 7 0 10 #ff8300 #ff0400
#fcfcfc;
#X obj 240 190 f;
#X obj 110 60 bng 20 250 50 0 \$0reset empty reset -4 -10 0 12 #ff8300
#ff0400 #fcfcfc;
#X floatatom 160 60 0 0 0 2 hours - - 0;
#X obj 110 110 bng 20 250 50 0 empty empty pause -4 -10 0 12 #ff8300
#ff0400 #fcfcfc;
#X floatatom 160 110 0 0 0 2 del - - 0;
#X obj 350 190 / 600;
#X msg 350 150 1;
#X msg 390 150 600;
#X obj 270 120 textfile;
#N canvas 930 600 450 300 save-on-close 0;
#X obj 160 80 inlet;
#X obj 120 200 textfile;
#X obj 90 80 bng 15 250 50 0 empty empty empty 17 7 0 10 #ff8300 #ff0400
#fcfcfc;
#X msg 120 170 clear \, add \$1 \, write hours.txt;
#X obj 120 110 f;
#X obj 120 80 b &;
#X obj 120 140 spigot;
#X msg 220 110 1;
#X obj 220 80 r \$0reset;
#X connect 0 0 4 1;
#X connect 2 0 4 0;
#X connect 3 0 1 0;
#X connect 4 0 6 0;
#X connect 5 0 4 0;
#X connect 6 0 3 0;
#X connect 7 0 6 1;
#X connect 8 0 7 0;
#X restore 290 340 pd save-on-close;
#X obj 270 60 loadbang;
#X msg 270 90 read hours.txt \, rewind \, bang;
#N canvas 400 200 450 300 lib 0;
#X obj 140 120 declare -lib blunt;
#X obj 140 150 declare -path ggee;
#X restore 30 30 pd lib;
#X obj 270 150 * -1;
#X obj 240 30 r \$0reset;
#X obj 200 150 * 60;
#N canvas 840 600 450 300 kde-notify 0;
#X obj 50 130 b;
#X obj 50 220 shell;
#X obj 50 160 f;
#X obj 50 70 inlet;
#X obj 90 160 + 1;
#X msg 120 100 stop;
#X obj 110 70 inlet;
#X obj 50 100 sel 1;
#X obj 220 160 outlet;
#X obj 110 130 delp 3600 sec;
#X floatatom 130 160 0 0 0 0 - - - 0;
#X msg 50 190 kdialog --passivepopup 'Worked \$1 hours' 10;
#X connect 0 0 2 0;
#X connect 0 0 9 0;
#X connect 2 0 4 0;
#X connect 2 0 11 0;
#X connect 3 0 7 0;
#X connect 4 0 2 1;
#X connect 5 0 9 0;
#X connect 6 0 9 0;
#X connect 7 0 0 0;
#X connect 7 1 2 1;
#X connect 7 1 5 0;
#X connect 9 0 0 0;
#X connect 9 1 10 0;
#X connect 9 2 8 0;
#X connect 11 0 1 0;
#X restore 290 280 pd kde-notify;
#X connect 0 0 31 0;
#X connect 1 0 3 0;
#X connect 2 0 7 1;
#X connect 3 0 4 0;
#X connect 6 0 11 0;
#X connect 7 0 1 0;
#X connect 7 0 5 0;
#X connect 7 0 24 0;
#X connect 8 0 15 1;
#X connect 9 0 7 0;
#X connect 9 0 31 1;
#X connect 10 0 0 0;
#X connect 10 1 7 0;
#X connect 11 0 7 0;
#X connect 11 0 31 1;
#X connect 12 0 11 0;
#X connect 13 0 12 0;
#X connect 14 0 13 0;
#X connect 15 0 10 0;
#X connect 17 0 8 0;
#X connect 18 0 6 0;
#X connect 19 0 30 0;
#X connect 20 0 9 0;
#X connect 21 0 20 0;
#X connect 22 0 20 0;
#X connect 23 0 28 0;
#X connect 25 0 26 0;
#X connect 26 0 23 0;
#X connect 28 0 15 1;
#X connect 29 0 15 0;
#X connect 30 0 13 1;
#X connect 31 0 2 0;
#X coords 0 -1 1 1 120 100 2 100 40;
#X restore 40 70 pd guts;
#X floatatom 260 100 0 0 0 0 - - - 0;
#X obj 200 70 hsl 128 20 0.001 1 1 0 empty empty volume 35 10 0 12
#2f004d #fcfcfc #fcfcfc 0 1;
#N canvas 970 490 450 300 vol 0;
#X obj 160 190 zp~ 15;
#X msg 160 120 0;
#X obj 160 60 inlet;
#X obj 160 220 outlet~;
#X obj 230 190 outlet;
#X obj 160 150 f;
#X obj 160 90 moses 0.00101;
#X connect 0 0 3 0;
#X connect 1 0 5 0;
#X connect 2 0 6 0;
#X connect 5 0 0 0;
#X connect 5 0 4 0;
#X connect 6 0 1 0;
#X connect 6 1 5 0;
#X restore 200 100 pd vol;
#X obj 200 130 s~ \$0vol;
#X connect 3 0 4 0;
#X connect 4 0 5 0;
#X connect 4 1 2 0;
