#N canvas 30 500 370 210 14;
#X declare -lib blunt;
#X declare -path ggee;
#X obj 40 30 cnv 15 100 24 empty \$0clock 0:00:00 4 12 0 18 #000000
#fcfcfc 0;
#N canvas 400 500 430 420 guts 0;
#N canvas 300 500 380 350 hms 0;
#X obj 110 30 inlet;
#X obj 110 60 abs;
#X obj 110 90 t f f;
#X obj 160 190 lead0;
#X obj 100 160 % 60;
#X obj 100 190 lead0;
#X obj 130 290 outlet;
#X obj 160 160 % 60;
#X msg 130 260 symbol \$3:\$2:\$1;
#X obj 160 130 / 60;
#X obj 210 130 div 3600;
#X obj 130 230 pack s s f;
#X connect 0 0 1 0;
#X connect 1 0 2 0;
#X connect 2 0 4 0;
#X connect 2 1 9 0;
#X connect 2 1 10 0;
#X connect 3 0 11 1;
#X connect 4 0 5 0;
#X connect 5 0 11 0;
#X connect 7 0 3 0;
#X connect 8 0 6 0;
#X connect 9 0 7 0;
#X connect 10 0 11 2;
#X connect 11 0 8 0;
#X restore 110 290 pd hms;
#X obj 210 260 metro 1000;
#X msg 110 320 label \$1;
#X obj 110 350 s \$0clock;
#N canvas 610 570 370 320 tick 0;
#X obj 130 30 inlet;
#X obj 130 200 *~;
#X obj 130 260 dac~;
#X obj 170 200 noise~;
#X obj 130 90 sel;
#X obj 190 90 sel;
#X obj 190 60 % 4;
#X msg 130 130 1;
#X msg 170 130 0.32;
#X msg 220 130 0.1;
#X obj 130 170 ad 1 10;
#X obj 170 230 r~ \$0vol;
#X obj 130 230 *~;
#X obj 130 60 mod 60;
#X connect 0 0 13 0;
#X connect 1 0 12 0;
#X connect 3 0 1 1;
#X connect 4 0 7 0;
#X connect 4 1 6 0;
#X connect 5 0 8 0;
#X connect 5 1 9 0;
#X connect 6 0 5 0;
#X connect 7 0 10 0;
#X connect 8 0 10 0;
#X connect 9 0 10 0;
#X connect 10 0 1 0;
#X connect 11 0 12 1;
#X connect 12 0 2 0;
#X connect 12 0 2 1;
#X connect 13 0 4 0;
#X restore 210 350 pd tick;
#X msg 60 180 pause;
#X obj 110 260 chrono sec;
#X obj 190 120 * 3600;
#X msg 300 180 tempo \$1;
#X msg 100 210 del \$1;
#X obj 120 180 f;
#X obj 150 90 bng 15 250 50 0 empty empty empty 17 7 0 10 #ff8300 #ff0400
#fcfcfc;
#X obj 170 210 f;
#X obj 60 60 bng 20 250 50 0 \$0reset empty reset -4 -10 0 12 #ff8300
#ff0400 #fcfcfc;
#X floatatom 110 60 0 0 0 2 hours - - 12;
#X obj 60 110 bng 20 250 50 0 empty empty pause -4 -10 0 12 #ff8300
#ff0400 #fcfcfc;
#X floatatom 110 110 0 0 0 2 delay - - 12;
#X obj 300 150 / 600;
#X msg 300 120 1;
#X msg 340 120 600;
#N canvas 900 660 470 240 save-on-close 0;
#X obj 70 30 inlet;
#X obj 30 180 textfile;
#X obj 30 30 b &;
#X obj 30 90 spigot;
#X msg 100 90 1;
#X obj 100 60 r \$0reset;
#X obj 30 120 pack;
#X msg 30 150 clear \, add time \$1 \, add hours \$2 \, write hours.txt
;
#X obj 30 60 i;
#X obj 80 120 inlet;
#X connect 0 0 8 1;
#X connect 2 0 8 0;
#X connect 3 0 6 0;
#X connect 4 0 3 1;
#X connect 5 0 4 0;
#X connect 6 0 7 0;
#X connect 7 0 1 0;
#X connect 8 0 3 0;
#X connect 9 0 6 1;
#X restore 210 320 pd save-on-close;
#N canvas 400 200 450 300 lib 0;
#X obj 140 120 declare -lib blunt;
#X obj 140 150 declare -path ggee;
#X restore 300 50 pd lib;
#X obj 170 150 r \$0reset;
#X obj 110 150 * 60;
#N canvas 840 500 450 250 kde-notify 0;
#X obj 40 180 shell;
#X obj 40 120 f;
#X obj 40 30 inlet;
#X msg 40 150 kdialog --passivepopup 'Worked \$1 hours' 10;
#X obj 80 120 + 0.25;
#X obj 120 90 f;
#X msg 120 60 0;
#X obj 120 30 r \$0new;
#X obj 160 60 inlet;
#X obj 100 180 outlet;
#X obj 160 90 r \$0reset;
#N canvas 840 620 450 300 sel 0;
#X obj 40 30 inlet;
#X obj 40 240 outlet;
#X obj 40 150 < 900;
#X obj 40 120 t f f;
#X obj 40 210 sel 1;
#X obj 130 30 r \$0reset;
#X msg 130 60 900;
#X obj 40 90 mod 900;
#X obj 140 90 div 900;
#X obj 140 120 t f f;
#X obj 140 150 !=;
#X obj 40 180 ||;
#X obj 40 60 t f f;
#X connect 0 0 12 0;
#X connect 2 0 11 0;
#X connect 3 0 2 1;
#X connect 3 1 2 0;
#X connect 4 0 1 0;
#X connect 5 0 6 0;
#X connect 6 0 2 1;
#X connect 7 0 3 0;
#X connect 8 0 9 0;
#X connect 9 0 10 1;
#X connect 9 1 10 0;
#X connect 10 0 11 1;
#X connect 11 0 4 0;
#X connect 12 0 7 0;
#X connect 12 1 8 0;
#X restore 40 60 pd sel;
#X connect 1 0 3 0;
#X connect 1 0 4 0;
#X connect 1 0 9 0;
#X connect 2 0 11 0;
#X connect 3 0 0 0;
#X connect 4 0 1 1;
#X connect 5 0 1 1;
#X connect 6 0 5 0;
#X connect 7 0 6 0;
#X connect 8 0 5 0;
#X connect 10 0 5 0;
#X connect 11 0 1 0;
#X restore 210 290 pd kde-notify;
#N canvas 1020 490 370 270 recall 0;
#X obj 40 90 textfile;
#X obj 40 30 loadbang;
#X obj 40 180 * -1;
#X obj 40 120 route time hours;
#X msg 40 60 read hours.txt \, rewind \, bang \, bang;
#X floatatom 40 150 0 0 0 0 - - - 0;
#X floatatom 100 150 0 0 0 0 - - - 0;
#X obj 40 210 outlet;
#X obj 100 210 outlet;
#X connect 0 0 3 0;
#X connect 1 0 4 0;
#X connect 2 0 7 0;
#X connect 3 0 5 0;
#X connect 3 1 6 0;
#X connect 4 0 0 0;
#X connect 5 0 2 0;
#X connect 6 0 8 0;
#X restore 200 180 pd recall;
#X obj 190 90 s \$0new;
#X connect 0 0 2 0;
#X connect 1 0 6 1;
#X connect 2 0 3 0;
#X connect 5 0 6 0;
#X connect 6 0 0 0;
#X connect 6 0 4 0;
#X connect 6 0 20 0;
#X connect 6 0 24 0;
#X connect 6 2 1 0;
#X connect 7 0 12 1;
#X connect 8 0 6 0;
#X connect 9 0 6 0;
#X connect 10 0 9 0;
#X connect 11 0 10 0;
#X connect 12 0 6 0;
#X connect 14 0 7 0;
#X connect 14 0 26 0;
#X connect 15 0 5 0;
#X connect 16 0 23 0;
#X connect 17 0 8 0;
#X connect 18 0 17 0;
#X connect 19 0 17 0;
#X connect 22 0 12 0;
#X connect 23 0 10 1;
#X connect 24 0 20 1;
#X connect 25 0 12 1;
#X connect 25 1 24 1;
#X coords 0 -1 1 1 120 100 2 50 40;
#X restore 40 70 pd guts;
#X floatatom 260 100 0 0 0 0 - - - 0;
#X obj 200 70 hsl 128 20 0.001 1 1 0 empty empty volume 35 10 0 12
#2f004d #fcfcfc #fcfcfc 0 1;
#N canvas 970 490 450 300 vol 0;
#X obj 160 190 zp~ 15;
#X msg 160 120 0;
#X obj 160 60 inlet;
#X obj 160 220 outlet~;
#X obj 230 190 outlet;
#X obj 160 150 f;
#X obj 160 90 moses 0.00101;
#X connect 0 0 3 0;
#X connect 1 0 5 0;
#X connect 2 0 6 0;
#X connect 5 0 0 0;
#X connect 5 0 4 0;
#X connect 6 0 1 0;
#X connect 6 1 5 0;
#X restore 200 100 pd vol;
#X obj 200 130 s~ \$0vol;
#X connect 3 0 4 0;
#X connect 4 0 5 0;
#X connect 4 1 2 0;
